<?xml version="1.0" encoding="UTF-8"?>
<!DOCTYPE svg PUBLIC "-//W3C//DTD SVG 1.1//EN" "http://www.w3.org/Graphics/SVG/1.1/DTD/svg11.dtd">
<!-- Creator: CorelDRAW 2019 (64-Bit) -->
<svg xmlns="http://www.w3.org/2000/svg" xml:space="preserve" version="1.1" width="914.000000pt" height="273.000000pt" style="shape-rendering:geometricPrecision; text-rendering:geometricPrecision; image-rendering:optimizeQuality; fill-rule:evenodd; clip-rule:evenodd"
viewBox="0 0 5000 5000"
 xmlns:xlink="http://www.w3.org/1999/xlink"
 xmlns:xodm="http://www.corel.com/coreldraw/odm/2003">
 <defs>
  <style type="text/css">
   <![CDATA[
    .fil0 {fill:none;fill-rule:nonzero}
    .fil1 {fill:#09CCDE}
    .fil2 {fill:#FEFEFE}
   ]]>
  </style>
 </defs>
 <g id="Слой_x0020_1" transform="translate(0,-2000) scale(2,2)">
  <metadata id="CorelCorpID_0Corel-Layer"/>
  <g id="_1803056831648">
   <path class="fil1" d="M1842.26 2297.3c16.93,-18.22 31.24,-30.79 64.66,-31.78 46.55,-1.38 44.44,13.49 69.32,27.26 8.76,-105.33 -11.47,-377.68 9.63,-447.96 31.33,-104.32 155.46,-195.09 290.16,-132.14 53.9,25.19 224.79,129.57 291.96,167.39 21.11,11.88 278.29,158.12 292.16,170.37 44.99,-3.57 83.15,5.92 85.61,48.64 23.57,10.81 50.64,28 74.51,41.92 25.63,14.95 50.71,28.9 76.15,43.81 27.09,15.87 137.65,75.38 151.19,89.97 65.16,-14.01 101.11,-23.7 172.43,-8.83 26.53,5.53 49.41,15.17 68.86,27.15 21.79,13.41 34.67,31.41 49.96,46.51 -7.4,-33.34 -70.42,-90.89 -92.5,-107.01 -38.29,-27.96 -326.66,-191.3 -381,-222.45 -169.65,-97.26 -343.73,-198.11 -510.75,-294.81 -57.44,-33.26 -205.62,-124.64 -259.91,-141.5 -217.9,-67.66 -441.85,80.86 -453.07,318.93l0.63 404.53z"/>
   <path class="fil1" d="M3209.57 2759.3l-187.96 107.31c-182.99,108.62 -380.08,217 -563.03,324.86 -31.55,18.61 -61.37,35.9 -93.47,54.14 -29.24,16.62 -64.59,39.87 -94.55,52.92 -82.1,35.77 -167.95,12.35 -222.91,-37.74 -65.84,-60 -70.69,-108.69 -70.69,-222.85 0,-60.38 2.89,-254 -0.9,-298.22 -21.74,12.36 -25.81,29.01 -69.03,28.08 -39.06,-0.84 -43.91,-15.79 -64.45,-29.43 -3.63,30.27 -2.9,339.55 -0.7,381.98 11.61,223.88 220.15,368.74 420.07,323.32 76.92,-17.47 181.35,-85.25 250.62,-126.05 158.55,-93.39 320.37,-185.29 480.39,-277.47 80.07,-46.12 163.14,-91.3 241.33,-139.12l180.43 -104.18c17.83,-10.8 42.31,-31.67 55.17,-37.78 -27.96,-23.88 -21.9,-22.74 -23.79,-66.79 -9.43,6.44 -12.86,13.04 -21.52,21.85 -8.19,8.33 -13.06,11.67 -22.28,18.89 -73.04,57.23 -118.01,51.32 -192.73,26.28z"/>
   <path class="fil2" d="M1401.43 2575.13c-20.57,112.61 -172.32,102.92 -184.2,-3.38 -2.29,-20.43 -2.48,-96.88 1.04,-115.97 9.89,-53.56 79.19,-103.68 139.31,-61.63 18.1,12.66 40.53,38.62 44.15,68.69 1.94,16.11 2.29,98.14 -0.3,112.29zm136.3 10.28c8.36,-68.34 5.35,-161.49 -26.95,-214.11 -117.98,-192.23 -406.87,-118.28 -429.6,77.54 -8.56,73.76 -4.93,161.72 29.16,216.59 121.31,195.31 403.93,111.82 427.39,-80.02z"/>
   <path class="fil2" d="M1976.24 2292.78c-24.88,-13.77 -22.77,-28.64 -69.32,-27.26 -33.42,0.99 -47.73,13.56 -64.66,31.78l0.32 441.07c20.54,13.64 25.39,28.59 64.45,29.43 43.22,0.93 47.29,-15.72 69.03,-28.08 16.27,-116.53 -21.11,-284.96 27.98,-335.02 17.88,-18.23 56.56,-33.42 92.41,-19.11 76.45,30.51 60.61,113.17 60.61,182.68 0,40 0.05,79.99 0,119.99 -0.05,47.24 -0.4,68.23 46.07,77.46 33.5,6.66 79.06,-3.85 88.3,-28.92 4.61,-12.52 2.38,-99.79 2.38,-120.53 0,-69.11 7.68,-167.55 -14.98,-227.78 -20.38,-54.16 -65.64,-105.64 -120.6,-122.62 -58.16,-17.97 -121.68,-2.93 -163.28,40.56l-14.5 13.8c-0.43,0.41 -1.28,1.28 -1.96,1.88l-2.25 -29.33z"/>
   <path class="fil2" d="M3436.55 2551.94c13.54,76.29 -89.82,152.52 -137.49,102.24 -27.49,-28.98 -14.86,-74.33 18.56,-88.29 32.07,-13.41 82.12,-13.39 118.93,-13.95zm-188.94 -277.16c-34.5,18.21 -79.52,25.05 -67.71,80.31 24.18,113.05 99.28,-23.67 206.97,19.22 41.98,16.73 50.49,66.55 51.5,107.19 -92.1,-2.24 -205.25,1.69 -257.68,57.38 -27.74,29.46 -37.68,72.58 -30.52,124.02 7.29,52.43 29.07,72.61 59.4,96.4 74.72,25.04 119.69,30.95 192.73,-26.28 9.22,-7.22 14.09,-10.56 22.28,-18.89 8.66,-8.81 12.09,-15.41 21.52,-21.85 1.89,44.05 -4.17,42.91 23.79,66.79 37.25,15.02 95.22,9.32 103.54,-26.7 5.48,-23.7 0.88,-112.53 1.34,-143.53 1.54,-103.06 12.09,-167.96 -35.91,-249.23 -15.29,-15.1 -28.17,-33.1 -49.96,-46.51 -19.45,-11.98 -42.33,-21.62 -68.86,-27.15 -71.32,-14.87 -107.27,-5.18 -172.43,8.83z"/>
   <path class="fil2" d="M2945.76 2099.08c-2.46,-42.72 -40.62,-52.21 -85.61,-48.64 -29.89,7.12 -50.54,16.27 -51.65,47.94 -2.85,80.84 0.1,216.89 0.1,301.91 0,66.75 -1.75,135.88 0.16,202.34 4.24,147.14 115.44,173.44 240.36,165.04 67.55,-4.54 71.03,-93.28 22.25,-115.6 -59.96,-27.43 -126.41,38.77 -126.09,-76.94 0.18,-64.11 -3.62,-139.2 0.66,-201.88 109.04,0.01 157.78,15.82 159.19,-51.76 1.52,-72.93 -46.78,-55.99 -157.97,-56.37l-1.4 -166.04z"/>
   <path class="fil2" d="M4196.99 2373.08c35.63,0.59 71.47,0.12 107.13,0.29 37.87,0.18 52.11,-15.58 51.8,-55.36 -0.3,-38.64 -15.24,-52.96 -51.7,-52.78 -35.99,0.17 -72.43,-0.57 -108.34,0.39 0.9,-40.6 0.26,-81.78 0.26,-122.45 0,-46.57 9.34,-70.88 -31.15,-87.17 -31.59,-12.72 -77.45,-5.45 -96.2,13.09 -16.05,15.88 -9.29,82.99 -9.29,111.79 0,78.49 -5.89,421.22 5.9,471.56 14.79,63.1 62.68,99.42 129.57,110.66 66.67,11.19 175.45,19.96 158.47,-69.77 -16.57,-87.58 -143.7,-6.97 -156.04,-84.01 -5.44,-33.97 -3.97,-198.42 -0.41,-236.24z"/>
   <path class="fil2" d="M2522.53 2260.74c-61.95,7 -95.69,28.66 -120.12,62.23 -53.1,72.98 -50.22,184.39 75.08,223.54 39.06,12.19 112.62,27.13 134.01,51.16 45.22,50.82 -44.72,105.88 -164.8,48.29 -19.1,-9.16 -43.26,-30.45 -67.17,-13.27 -26.43,18.98 -48.99,74.1 17.71,110.58 45.07,24.64 93.22,34.75 151.15,34.07 112.63,-1.34 198.61,-54.28 190.42,-171.02 -3.95,-56.41 -32.7,-89.02 -71.97,-108.49 -49.29,-24.44 -88.5,-28.56 -138.73,-46.44 -83.95,-29.88 -26.17,-115.37 100.09,-72.79 21.05,7.1 51.46,23.03 71.22,8.23 16.64,-12.47 63.41,-70.6 -15.21,-105.21 -45.77,-20.15 -107.89,-26.96 -161.68,-20.88z"/>
   <path class="fil2" d="M1033.41 2355.72c9.76,-44.84 -36.84,-69.21 -70.07,-81.62 -41.15,-15.37 -92.52,-18.28 -139.08,-13.12 -93.68,10.38 -149.36,57.95 -175.13,133.08 -22.72,66.26 -18.54,215.92 11.14,275.67 34.25,68.97 98.54,106.03 200.85,107.6 76.56,1.17 221.94,-36.72 168.38,-123.7 -29.67,-48.18 -62.89,-18.27 -104.67,-4.48 -40.84,13.48 -94.69,8.88 -122.95,-14.71 -33.08,-27.6 -28.35,-76.21 -28.4,-127.88 -0.05,-53.53 0.48,-92.65 42.11,-114.24 85.9,-44.56 151.53,33.84 187.64,9.39 11.23,-7.6 26.29,-28.12 30.18,-45.99z"/>
   <path class="fil2" d="M3794.71 2347.55c-4.22,-42.5 5.86,-68.41 -37.31,-79.32 -34.26,-8.66 -76.44,0.73 -88.07,25.32 -7.09,14.97 -3.65,292.06 -3.65,346.72 0,30.42 -7.19,87.21 10.52,106.51 18.8,20.51 58.32,27.64 90.94,14.92 36.73,-14.33 35.35,-33.31 35.3,-76.87 -0.05,-59.09 -7.2,-172.12 12.45,-221.39 39.52,-99.06 116.28,-78.99 149.03,-84.67 47.62,-8.25 78.36,-120.51 -30.25,-119.92 -65.06,0.35 -109.25,35.87 -138.96,88.7z"/>
   <path class="fil2" d="M1653.51 2269c-50.12,14.7 -37.66,46.7 -37.66,121l-0.08 315.48c-0.17,30.35 3.92,41.43 25.47,53.1 18.6,10.08 45.82,12.3 67.05,5.14 52.34,-17.67 39,-62.29 39,-120.03l0.09 -315.42c0.18,-30.68 -2.73,-43.99 -25.4,-54.88 -19.07,-9.15 -47.16,-10.63 -68.47,-4.39z"/>
   <path class="fil2" d="M1654.71 2036.44c-95.91,26.5 -44.8,137.34 47.22,114.35 87.84,-21.94 52.62,-141.94 -47.22,-114.35z"/>
  </g>
 </g>
</svg>
