<?xml version="1.0" encoding="UTF-8"?>
<!DOCTYPE svg PUBLIC "-//W3C//DTD SVG 1.1//EN" "http://www.w3.org/Graphics/SVG/1.1/DTD/svg11.dtd">
<!-- Creator: CorelDRAW 2019 (64-Bit) -->
<svg xmlns="http://www.w3.org/2000/svg" xml:space="preserve" width="50mm" height="50mm" version="1.1" style="shape-rendering:geometricPrecision; text-rendering:geometricPrecision; image-rendering:optimizeQuality; fill-rule:evenodd; clip-rule:evenodd"
viewBox="0 0 992.93 992.93"
 xmlns:xlink="http://www.w3.org/1999/xlink"
 xmlns:xodm="http://www.corel.com/coreldraw/odm/2003">
 <defs>
  <style type="text/css">
   <![CDATA[
    .fil0 {fill:none;fill-rule:nonzero}
    .fil1 {fill:#2A5ADA;fill-rule:nonzero}
   ]]>
  </style>
 </defs>
 <g id="Слой_x0020_1">
  <metadata id="CorelCorpID_0Corel-Layer"/>
  <g id="_1916886552832">
   <path class="fil0" d="M818.46 992.93l-643.99 0c-96.22,0 -174.47,-78.02 -174.47,-174.47l0 -643.99c0,-96.46 78.25,-174.47 174.47,-174.47l643.99 0c96.46,0 174.47,78.25 174.47,174.47l0 643.99c0,96.46 -78.25,174.47 -174.47,174.47z"/>
   <g>
    <g id="Layer_2" data-name="Layer 2">
     <g id="Layer_1-2" data-name="Layer 1">
      <path class="fil1" d="M496.47 126.97l-67.8 38.98 -184.75 106.78 -67.8 38.98 0 369.49 67.8 38.98 186.44 106.78 67.8 38.98 67.8 -38.98 183.05 -106.78 67.8 -38.98 0 -369.49 -67.8 -38.98 -184.75 -106.78 -67.8 -38.98zm-184.75 476.27l0 -213.56 184.75 -106.78 184.75 106.78 0 213.56 -184.75 106.78 -184.75 -106.78z"/>
     </g>
    </g>
   </g>
  </g>
 </g>
</svg>
