<?xml version="1.0" encoding="utf-8"?>
<!-- Generator: Adobe Illustrator 25.4.1, SVG Export Plug-In . SVG Version: 6.00 Build 0)  -->
<svg version="1.1" id="Layer_1" xmlns="http://www.w3.org/2000/svg" xmlns:xlink="http://www.w3.org/1999/xlink" x="0px" y="0px"
	 viewBox="0 0 42 42" style="enable-background:new 0 0 42 42;" xml:space="preserve">
<style type="text/css">
	.st0{fill:#2F4653;}
	.st1{fill:url(#SVGID_1_);}
	.st2{fill:url(#SVGID_00000086651513859177516250000002919426032542507711_);}
	.st3{fill:url(#SVGID_00000052086131877207497490000014708499554070894471_);}
	.st4{fill:url(#SVGID_00000080908904794194647440000003842805209277486243_);}
	.st5{fill:url(#SVGID_00000100342281730843592380000008908507316073772693_);}
	.st6{fill:url(#SVGID_00000083798011908874886740000006756197743032415924_);}
	.st7{fill:#FFFFFF;}
	.st8{fill:url(#SVGID_00000034767939501968566220000014912987483364957842_);}
	.st9{fill:url(#SVGID_00000173131748150071680620000000336493951868882836_);}
</style>
<g id="Layer_2_00000067932015497042260560000005151675553068816823_">
</g>
<g>
	<path class="st0" d="M17.8,11.8c3.4,0,6.9,0,10.3,0c0.9,0,1.9,0,2.8,0c0.1,0,0.2,0,0.2,0c0.4,0,0.5,0.3,0.6,0.7
		c0.8,3.4,0.6,7-0.9,10.2c-0.4,0.9-0.9,1.7-1.4,2.4c-0.4,0.6-0.9,1.2-1.3,1.7c-0.4,0.4-0.7,0.8-1.2,1.2c-0.8,0.7-1.6,1.3-2.5,1.8
		c-0.5,0.2-1,0.4-1.6,0.5c-0.5,0.1-1.1,0.1-1.6,0.1c-3-0.1-6,0-9.1,0c-1.6,0-3.1,0-4.7,0c-0.2,0-0.3,0-0.5-0.1
		c-0.3-0.1-0.5-0.4-0.5-0.8c0-0.1,0-0.2,0-0.3c0-5.4,0-10.8,0-16.3c0-0.2,0-0.3,0-0.5c0.1-0.4,0.4-0.6,0.7-0.6c0.1,0,0.3,0,0.4,0
		C11,11.8,14.4,11.8,17.8,11.8z"/>
	<linearGradient id="SVGID_1_" gradientUnits="userSpaceOnUse" x1="22.8462" y1="23.8124" x2="37.8644" y2="19.2021">
		<stop  offset="0.329" style="stop-color:#9B8737"/>
		<stop  offset="0.5606" style="stop-color:#F6E49D"/>
		<stop  offset="0.6047" style="stop-color:#EFDD95"/>
		<stop  offset="0.6729" style="stop-color:#DDCA7F"/>
		<stop  offset="0.7562" style="stop-color:#BFAB5C"/>
		<stop  offset="0.7875" style="stop-color:#B29E4D"/>
	</linearGradient>
	<path class="st1" d="M31.6,26.5c0.2-0.1,0.3-0.2,0.5-0.3c0.6-0.5,1.1-1.1,1.5-1.8c1.4-2.4,2.2-5.2,2.4-8c0-0.3,0-0.6,0-0.9
		c0,0,0-0.1,0-0.1c0.1,0,0.2,0.1,0.3,0.2c1.1,1,1.3,2.8,1.1,4.1c-0.3,3.2-2,6.6-4.9,8.2c-0.1,0-0.1,0.1-0.2,0.1
		c-0.4,0.2-0.9,0.4-1.4,0.6c-0.1,0-0.2,0.1-0.3,0.1c0.4,0,0.9-0.1,1.5-0.3c1.6-0.5,2.9-1.7,3.8-3.1c0.2-0.3,0.4-0.7,0.6-1.1
		c0,0,0,0,0.1-0.1c0,0,0.1,0,0.1,0.1c0.4,1,0.3,2.1-0.3,3c-1.2,1.8-3.9,2.9-6,2.9c-2,0-4,0-6,0c-0.1,0-0.2,0-0.2-0.1
		c0-0.1,0.1-0.1,0.1-0.1c3-1.4,5.3-3.8,6.8-6.8c1.3-2.6,2-5.5,1.7-8.4c-0.1-0.9-0.3-1.8-0.5-2.7c0-0.1,0-0.1,0-0.2
		c0-0.2,0-0.2,0.2-0.2c0.5,0,0.9,0.2,1.3,0.5c0.7,0.6,1,1.6,1.2,2.5c0.3,1.6,0,3.5-0.4,5.1c-0.5,2.1-1.3,4.1-2.6,5.9
		c-0.1,0.2-0.3,0.4-0.4,0.5C31.7,26.4,31.7,26.4,31.6,26.5z"/>
	<g>
		
			<linearGradient id="SVGID_00000026849253151290994280000009962142450436813747_" gradientUnits="userSpaceOnUse" x1="13.5302" y1="21.2764" x2="10.7645" y2="19.1834">
			<stop  offset="0.329" style="stop-color:#9B8737"/>
			<stop  offset="0.5606" style="stop-color:#F6E49D"/>
			<stop  offset="0.6047" style="stop-color:#EFDD95"/>
			<stop  offset="0.6729" style="stop-color:#DDCA7F"/>
			<stop  offset="0.7562" style="stop-color:#BFAB5C"/>
			<stop  offset="0.7875" style="stop-color:#B29E4D"/>
		</linearGradient>
		<path style="fill:url(#SVGID_00000026849253151290994280000009962142450436813747_);" d="M14.4,19.6c0-0.3-0.1-0.5-0.3-0.7
			c-0.2-0.1-0.5-0.1-0.7,0.1c0,0,0,0,0,0.1c0,0,0.1,0,0.1,0c0,0,0.1,0.1,0.1,0.1c0,0,0,0.5,0,1.2c-0.6,0-1.1,0-1.7,0
			c0-0.1,0-0.3,0-0.5c0-0.2,0-0.3,0.1-0.5c0-0.1,0-0.1,0-0.2c0-0.1,0.1-0.2,0.1-0.2c0,0,0,0,0,0c0,0,0,0-0.1,0
			c-0.1,0-0.3,0.1-0.4,0.2c0,0-0.1,0.1-0.2,0.3C11,19.8,11,20.3,11,20.3c0,0.4,0,1.1,0.4,1.8c0,0,0.3,0.5,0.7,0.7c0.1,0,0.1,0,0.1,0
			c0,0,0-0.1-0.1-0.1c0-0.1-0.1-0.1-0.1-0.2c-0.1-0.1-0.1-0.3-0.1-0.4c-0.1-0.4-0.1-0.8-0.1-1.2h1.7c0,0.5,0,1,0,1.5
			c0,0.1,0,0.2,0.1,0.2c0.1,0,0.1,0,0.2,0c0.1,0,0.2,0,0.3,0c0.1,0,0.1,0,0.2-0.1c0.1-0.1,0.1-0.2,0.1-0.3c0-0.8,0-1.5,0-2.3
			C14.4,19.9,14.4,19.8,14.4,19.6z"/>
		
			<linearGradient id="SVGID_00000009588676756466529040000006487030777356756365_" gradientUnits="userSpaceOnUse" x1="12.4971" y1="22.6415" x2="9.7315" y2="20.5486">
			<stop  offset="0.329" style="stop-color:#9B8737"/>
			<stop  offset="0.5606" style="stop-color:#F6E49D"/>
			<stop  offset="0.6047" style="stop-color:#EFDD95"/>
			<stop  offset="0.6729" style="stop-color:#DDCA7F"/>
			<stop  offset="0.7562" style="stop-color:#BFAB5C"/>
			<stop  offset="0.7875" style="stop-color:#B29E4D"/>
		</linearGradient>
		<path style="fill:url(#SVGID_00000009588676756466529040000006487030777356756365_);" d="M12,23c-0.7-0.2-1-0.9-1.1-1.6
			c0-0.1-0.1-0.3-0.1-0.4c-0.1-0.4-0.1-0.9,0.1-1.3c-0.1,0-0.2,0.1-0.2,0.2c-0.2,0.3-0.2,0.6-0.3,0.9c0,0.7,0.2,1.3,0.3,1.4
			c0.1,0.3,0.3,0.4,0.3,0.5c0.2,0.2,0.3,0.3,0.4,0.4c-0.1,0-0.2-0.1-0.4-0.2c-0.1-0.1-0.2-0.2-0.3-0.2c-0.1-0.1-0.2-0.2-0.2-0.3
			c-0.1-0.2-0.2-0.4-0.3-0.8c0-0.1,0-0.2-0.1-0.2c-0.1,0-0.1,0.2-0.1,0.2c0,0.1-0.1,0.2,0,0.3c0,0.2,0.2,0.7,0.6,1
			c0,0,0.4,0.3,1,0.3c0,0,0.2,0,0.3-0.1C12.1,23.1,12.1,23.1,12,23z"/>
		
			<linearGradient id="SVGID_00000142134382457324630590000018044188613277755308_" gradientUnits="userSpaceOnUse" x1="13.3155" y1="21.56" x2="10.5499" y2="19.4671">
			<stop  offset="0.329" style="stop-color:#9B8737"/>
			<stop  offset="0.5606" style="stop-color:#F6E49D"/>
			<stop  offset="0.6047" style="stop-color:#EFDD95"/>
			<stop  offset="0.6729" style="stop-color:#DDCA7F"/>
			<stop  offset="0.7562" style="stop-color:#BFAB5C"/>
			<stop  offset="0.7875" style="stop-color:#B29E4D"/>
		</linearGradient>
		<polygon style="fill:url(#SVGID_00000142134382457324630590000018044188613277755308_);" points="10.9,19.7 10.9,19.7 10.9,19.7 
					"/>
		
			<linearGradient id="SVGID_00000172402572614639198420000013776944801136049577_" gradientUnits="userSpaceOnUse" x1="13.3202" y1="21.5538" x2="10.5546" y2="19.4609">
			<stop  offset="0.329" style="stop-color:#9B8737"/>
			<stop  offset="0.5606" style="stop-color:#F6E49D"/>
			<stop  offset="0.6047" style="stop-color:#EFDD95"/>
			<stop  offset="0.6729" style="stop-color:#DDCA7F"/>
			<stop  offset="0.7562" style="stop-color:#BFAB5C"/>
			<stop  offset="0.7875" style="stop-color:#B29E4D"/>
		</linearGradient>
		<polygon style="fill:url(#SVGID_00000172402572614639198420000013776944801136049577_);" points="10.9,19.7 10.9,19.7 10.9,19.7 
					"/>
	</g>
	
		<linearGradient id="SVGID_00000168081788939492488480000002565496466132790155_" gradientUnits="userSpaceOnUse" x1="23.7761" y1="22.1301" x2="19.4781" y2="19.8503">
		<stop  offset="0.329" style="stop-color:#9B8737"/>
		<stop  offset="0.5606" style="stop-color:#F6E49D"/>
		<stop  offset="0.6047" style="stop-color:#EFDD95"/>
		<stop  offset="0.6729" style="stop-color:#DDCA7F"/>
		<stop  offset="0.7562" style="stop-color:#BFAB5C"/>
		<stop  offset="0.7875" style="stop-color:#B29E4D"/>
	</linearGradient>
	<path style="fill:url(#SVGID_00000168081788939492488480000002565496466132790155_);" d="M23.3,19.5c0-0.1,0-0.2,0-0.4
		c0,0,0-0.1,0-0.1c0,0,0-0.1-0.1-0.1c0,0-0.1,0-0.1,0c0,0-0.1,0-0.1,0c0,0-0.1,0-0.1,0c-0.1,0-0.2,0-0.3,0c-0.1,0-0.1,0-0.2,0.1
		c-0.1,0.1-0.1,0.2-0.2,0.4c0,0,0,0.1,0,0.1c0,0.1-0.5,1.1-0.7,1.3c0,0,0,0.1-0.1,0.1c0,0-0.1,0-0.1-0.1c-0.2-0.3-0.6-1.3-0.7-1.3
		c0,0,0,0,0-0.1c-0.1-0.2-0.1-0.3-0.2-0.4c-0.1-0.1-0.1-0.1-0.2-0.1c-0.1,0-0.2,0-0.3,0c0,0-0.1,0-0.1,0c0,0-0.1,0-0.1,0
		c0,0-0.1,0-0.1,0c-0.1,0-0.1,0.1-0.1,0.1c0,0,0,0.1,0,0.1c0,0.2,0,0.3,0,0.4c0,1-0.1,2-0.1,3c0,0,0,0,0,0.1
		c0.1,0.1,0.2,0.2,0.4,0.2c0.1,0,0.3-0.1,0.4-0.2c0,0,0,0,0-0.1c0-0.2,0.1-1.9,0.1-2.6c0.4,0.8,0.7,1.4,0.9,1.7
		c0,0.1,0.1,0.2,0.2,0.2c0,0,0.1,0,0.1,0c0,0,0.1,0,0.1,0c0.1,0,0.2-0.1,0.2-0.2c0.1-0.3,0.5-0.9,0.9-1.7c0,0.7,0,2.4,0.1,2.6
		c0,0,0,0.1,0,0.1c0.1,0.1,0.2,0.2,0.4,0.2c0.1,0,0.3-0.1,0.4-0.2c0,0,0,0,0-0.1C23.3,21.5,23.3,20.5,23.3,19.5z"/>
	<path class="st7" d="M16.2,21.9C16.2,21.9,16.2,21.9,16.2,21.9C16.2,21.9,16.2,21.9,16.2,21.9C16.2,21.9,16.2,21.9,16.2,21.9z"/>
	
		<linearGradient id="SVGID_00000015338005582035552840000005753009743384731819_" gradientUnits="userSpaceOnUse" x1="18.9606" y1="21.919" x2="14.6626" y2="19.228">
		<stop  offset="0.329" style="stop-color:#9B8737"/>
		<stop  offset="0.5606" style="stop-color:#F6E49D"/>
		<stop  offset="0.6047" style="stop-color:#EFDD95"/>
		<stop  offset="0.6729" style="stop-color:#DDCA7F"/>
		<stop  offset="0.7562" style="stop-color:#BFAB5C"/>
		<stop  offset="0.7875" style="stop-color:#B29E4D"/>
	</linearGradient>
	<path style="fill:url(#SVGID_00000015338005582035552840000005753009743384731819_);" d="M18.5,18.9c-0.1-0.1-0.2-0.1-0.4-0.1
		c-0.1,0-0.3,0-0.4,0.1c-0.1,0.1-0.1,0.1-0.1,0.2c0,0.7,0,1.5,0,2.2c0,0.1,0,0.2-0.1,0.4c-0.1,0.2-0.2,0.3-0.2,0.3
		c0,0-0.2,0.1-0.4,0.2c0,0-0.1,0-0.1,0c0,0,0,0,0,0c0,0,0,0,0,0c0,0,0,0-0.1,0c-0.2,0-0.4-0.2-0.4-0.2c0,0-0.1-0.1-0.2-0.3
		C16,21.6,16,21.4,16,21.4c0-0.7,0-1.5,0-2.2c0,0,0-0.1-0.1-0.2c-0.1-0.1-0.3-0.1-0.4-0.1c-0.1,0-0.3,0-0.4,0.1
		c-0.1,0.1-0.1,0.2-0.1,0.2c0,0.8,0,1.6,0,2.4c0,0.2,0.1,0.5,0.3,0.8c0.2,0.3,0.6,0.4,0.7,0.5c0.2,0.1,0.4,0.1,0.5,0.1
		c0.1,0,0.2,0,0.3,0c0.1,0,0.2,0,0.3,0c0.1,0,0.3,0,0.5-0.1c0.1,0,0.4-0.2,0.7-0.5c0.2-0.3,0.3-0.6,0.3-0.8c0-0.8,0-1.6,0-2.4
		C18.5,19.1,18.6,19,18.5,18.9z"/>
	<path class="st7" d="M16.4,22.9C16.4,22.9,16.4,22.9,16.4,22.9C16.4,22.9,16.4,22.9,16.4,22.9L16.4,22.9z"/>
	
		<linearGradient id="SVGID_00000135690506166687882520000008038270065444084355_" gradientUnits="userSpaceOnUse" x1="28.9532" y1="22.5768" x2="23.6087" y2="19.4748">
		<stop  offset="0.329" style="stop-color:#9B8737"/>
		<stop  offset="0.5606" style="stop-color:#F6E49D"/>
		<stop  offset="0.6047" style="stop-color:#EFDD95"/>
		<stop  offset="0.6729" style="stop-color:#DDCA7F"/>
		<stop  offset="0.7562" style="stop-color:#BFAB5C"/>
		<stop  offset="0.7875" style="stop-color:#B29E4D"/>
	</linearGradient>
	<path style="fill:url(#SVGID_00000135690506166687882520000008038270065444084355_);" d="M27.8,20.1c-0.1-0.4-0.3-0.7-0.7-0.9
		c-0.4-0.3-0.8-0.4-1.2-0.4c-0.4,0-0.9,0.2-1.2,0.4c-0.3,0.2-0.5,0.6-0.7,0.9c-0.3,1.1,0.2,2.5,1.3,2.8c0.2,0,0.4,0.1,0.6,0.1
		c0.2,0,0.4,0,0.6-0.1C27.7,22.5,28.2,21.2,27.8,20.1z M27,21.3c-0.1,0.5-0.5,1.1-1,1.1c-0.6,0-0.9-0.6-1-1.1
		c-0.1-0.5-0.1-1.1,0.2-1.5c0.2-0.3,0.5-0.5,0.9-0.5c0.3,0,0.7,0.2,0.9,0.5C27.1,20.2,27.1,20.8,27,21.3z"/>
</g>
</svg>
