<?xml version="1.0" encoding="utf-8"?>
<!-- Generator: Adobe Illustrator 25.4.1, SVG Export Plug-In . SVG Version: 6.00 Build 0)  -->
<svg version="1.1" xmlns="http://www.w3.org/2000/svg" xmlns:xlink="http://www.w3.org/1999/xlink" x="0px" y="0px"
	 viewBox="0 0 42 42" style="enable-background:new 0 0 42 42;" xml:space="preserve">
<style type="text/css">
	.st0{fill:#A35EF7;}
	.st1{fill:#191919;}
	.st2{fill:#F1B830;}
</style>
<g id="Layer_2">
</g>
<g id="Layer_1">
	<g id="фон">
	</g>
	<g id="примеры">
	</g>
	<g id="лого">
		<path class="st0" d="M19.7,18.2l2.6-1.5v-2.1c0-0.7-0.4-1.3-0.9-1.6l-5.6-3.4h-1L8.9,13c-0.6,0.3-1,1-1,1.7v5.8
			c0,0.7,0.3,1.3,0.9,1.6l5.3,3.3c0.6,0.4,1.4,0.4,2,0l9.8-5.8c0.6-0.4,1.4-0.4,2,0l2.5,1.5c0.6,0.3,0.9,1,0.9,1.7v3.1
			c0,0.7-0.3,1.3-0.9,1.6L28,29.1c-0.6,0.4-1.4,0.4-2,0l-2.7-1.6c-0.6-0.3-1-1-1-1.7v-2l-2.5,1.5v2.1c0,0.7,0.4,1.3,1,1.7l5.6,3.2
			h1.1l5.7-3.2c0.6-0.3,1-1,1-1.7v-6.1c0-0.7-0.4-1.3-0.9-1.6l-5.2-3.1c-0.6-0.4-1.4-0.4-2,0l-9.8,5.8c-0.6,0.4-1.3,0.4-1.9,0
			l-2.8-1.6c-0.6-0.3-1-1-1-1.7v-3.1c0-0.7,0.4-1.3,0.9-1.6l2.7-1.6c0.6-0.4,1.4-0.4,2,0l2.7,1.7c0.6,0.4,0.9,1,0.9,1.6L19.7,18.2z"
			/>
	</g>
	<g>
		<circle class="st1" cx="33.8" cy="33.8" r="8.2"/>
		<g>
			<path class="st2" d="M33.8,31.1L33.8,31.1c-0.6,0.6-1.2,1.2-1.8,1.8c-0.2,0.2-0.1,0.2-0.3,0c-0.3-0.3-0.6-0.6-0.8-0.8
				c-0.2-0.2-0.2-0.1,0-0.3c0.8-0.8,1.6-1.6,2.3-2.3c0.2-0.2,0.3-0.3,0.5-0.5c0.1-0.1,0.1-0.1,0.1,0c1,1,1.9,1.9,2.9,2.9
				c0.1,0.1,0.1,0.1,0,0.2c-0.3,0.3-0.6,0.6-1,1c-0.1,0.1-0.1,0.1-0.2,0C35.1,32.3,34.5,31.8,33.8,31.1
				C33.9,31.1,33.8,31.1,33.8,31.1z"/>
			<path class="st2" d="M36.9,35.7C36.8,35.8,36.8,35.8,36.9,35.7c-1,1-2,2-3,3c-0.1,0.1-0.1,0-0.1,0c-1-1-1.9-2-2.9-2.9
				c-0.1-0.1-0.1-0.1,0-0.1c0.3-0.3,0.7-0.6,1-1c0.1-0.1,0.1-0.1,0.2,0c0.6,0.6,1.2,1.2,1.8,1.8c0.1,0.1,0.1,0.1,0.2,0
				c0.6-0.6,1.2-1.2,1.8-1.8c0.1-0.1,0.1-0.1,0.2,0C36.1,35,36.5,35.3,36.9,35.7C36.8,35.7,36.9,35.7,36.9,35.7z"/>
			<path class="st2" d="M33.8,35L33.8,35c-0.4-0.4-0.8-0.8-1.2-1.2c-0.1-0.1,0-0.1,0-0.1c0.1-0.1,0.3-0.3,0.4-0.4
				c0.2-0.2,0.5-0.5,0.7-0.7c0.1-0.1,0.1-0.1,0.2,0c0.4,0.4,0.7,0.7,1.1,1.1c0.1,0.1,0.1,0.1,0,0.2c-0.4,0.4-0.7,0.7-1.1,1.1
				C33.9,35,33.8,35,33.8,35z"/>
			<path class="st2" d="M31.1,33.8C31.1,33.8,31,33.9,31.1,33.8c-0.4,0.4-0.7,0.7-1.1,1.1h-0.1c-0.3-0.3-0.7-0.7-1-1v-0.1
				c0.3-0.3,0.7-0.7,1-1H30C30.3,33.1,30.7,33.4,31.1,33.8C31,33.8,31.1,33.8,31.1,33.8z"/>
			<path class="st2" d="M37.7,34.9C37.6,34.9,37.6,34.9,37.7,34.9c-0.4-0.4-0.7-0.7-1.1-1.1c-0.1-0.1,0-0.1,0-0.1
				c0.3-0.3,0.7-0.7,1-1c0.1-0.1,0.1,0,0.1,0c0.3,0.3,0.7,0.7,1,1c0,0,0.1,0.1,0,0.1C38.4,34.2,38.1,34.5,37.7,34.9L37.7,34.9z"/>
		</g>
	</g>
</g>
</svg>
