<?xml version="1.0" encoding="utf-8"?>
<!-- Generator: Adobe Illustrator 25.4.1, SVG Export Plug-In . SVG Version: 6.00 Build 0)  -->
<svg version="1.1" id="Layer_1" xmlns="http://www.w3.org/2000/svg" xmlns:xlink="http://www.w3.org/1999/xlink" x="0px" y="0px"
	 viewBox="0 0 42 42" style="enable-background:new 0 0 42 42;" xml:space="preserve">
<style type="text/css">
	.st0{fill:#023A80;}
	.st1{fill:#033B80;}
	.st2{fill:#023B80;}
	.st3{fill:#023A7F;}
	.st4{fill:#01397F;}
	.st5{fill:#013A7F;}
	.st6{fill:#FE8101;}
</style>
<g id="Layer_2_00000067932015497042260560000005151675553068816823_">
</g>
<g>
	<path class="st0" d="M29.1,34.5c-0.3,0-0.6,0-0.8,0c0,0-0.1,0-0.1-0.1c-0.4-0.7-0.7-1.3-1.1-2c0-0.1-0.1-0.1-0.1-0.1
		c-0.1,0-0.3,0-0.5,0c0,0.4,0,0.8,0,1.2c-0.3,0-0.5,0-0.7,0c0-1.2,0-2.3,0-3.5c0,0,0.1,0,0.1,0c0.5,0,1,0,1.5,0c0.3,0,0.5,0,0.7,0.2
		c0.4,0.3,0.5,0.6,0.5,1.1c0,0.5-0.3,0.7-0.7,0.9C28.3,33.1,28.7,33.8,29.1,34.5z M26.6,31.8c0.3,0,0.6,0,0.8,0
		c0.3,0,0.4-0.2,0.4-0.4c0-0.3-0.1-0.4-0.4-0.5c-0.2,0-0.4,0-0.7,0c-0.1,0-0.1,0-0.2,0C26.6,31.2,26.6,31.5,26.6,31.8z"/>
	<path class="st1" d="M30.5,33.6c0-1.2,0-2.3,0-3.5c0,0,0,0,0.1,0c0.5,0,0.9,0,1.4,0c0.5,0,1,0.2,1.4,0.6c0.3,0.3,0.4,0.7,0.4,1.1
		c0,0.5-0.1,0.9-0.5,1.2c-0.3,0.3-0.7,0.5-1.1,0.5C31.6,33.7,31.1,33.6,30.5,33.6C30.5,33.6,30.5,33.6,30.5,33.6z M31.3,30.8
		c0,0.7,0,1.5,0,2.2c0.3,0,0.5,0,0.8,0c0.2,0,0.4-0.1,0.6-0.2c0.3-0.3,0.4-0.7,0.3-1.1c-0.1-0.4-0.3-0.7-0.7-0.8
		C31.9,30.8,31.6,30.8,31.3,30.8z"/>
	<path class="st0" d="M23.3,33.1c-0.5,0-1,0-1.4,0c0,0-0.1,0-0.1,0.1c-0.1,0.2-0.1,0.3-0.2,0.5c0,0,0,0.1-0.1,0.1
		c-0.3,0-0.5,0-0.8,0c0,0,0,0,0,0c0.4-1.1,0.9-2.2,1.3-3.4c0,0,0-0.1,0.1-0.1c0.3,0,0.5,0,0.8,0c0,0,0.1,0,0.1,0.1
		c0.4,1.1,0.9,2.2,1.3,3.4c0,0,0,0,0,0c0,0,0,0-0.1,0c-0.2,0-0.5,0-0.7,0c-0.1,0-0.1,0-0.1-0.1C23.4,33.4,23.3,33.2,23.3,33.1z
		 M22.5,30.9c-0.2,0.5-0.4,1-0.5,1.5c0.4,0,0.7,0,1.1,0C22.9,31.9,22.7,31.4,22.5,30.9z"/>
	<path class="st0" d="M8.9,30.2c0.3,0,0.5,0,0.7,0c0,0,0,0,0,0c0,0.7,0,1.4,0,2.2c0,0.7-0.4,1.2-1.1,1.3c-0.4,0.1-0.8,0.1-1.2-0.1
		c-0.5-0.2-0.8-0.6-0.8-1.1c0-0.1,0-0.2,0-0.3c0-0.6,0-1.3,0-1.9c0,0,0-0.1,0-0.1c0.3,0,0.5,0,0.8,0c0,0,0,0.1,0,0.1
		c0,0.7,0,1.3,0,2c0,0.4,0.3,0.8,0.8,0.7c0.1,0,0.3,0,0.4-0.1c0.3-0.1,0.4-0.4,0.4-0.7c0-0.7,0-1.4,0-2C8.9,30.3,8.9,30.2,8.9,30.2z
		"/>
	<path class="st2" d="M14.2,33.6c-0.9,0-1.8,0-2.6,0c0-0.1,0-0.3,0-0.4c0-0.1,0-0.2,0.1-0.3c0.5-0.7,1-1.3,1.5-2c0,0,0,0,0-0.1
		c-0.5,0-1.1,0-1.6,0c0-0.2,0-0.4,0-0.7c0.9,0,1.7,0,2.6,0c0,0.2,0,0.4,0,0.6c0,0,0,0.1,0,0.1c-0.5,0.7-1,1.4-1.5,2.1
		c0,0,0,0-0.1,0.1c0.6,0,1.1,0,1.7,0C14.2,33.2,14.2,33.4,14.2,33.6z"/>
	<path class="st3" d="M19.2,31c-0.2,0.1-0.4,0.2-0.6,0.3c-0.1-0.2-0.3-0.4-0.5-0.5c-0.5-0.2-1.1,0.1-1.3,0.7c-0.1,0.5,0,0.9,0.3,1.2
		c0.4,0.4,1.1,0.4,1.5-0.2c0,0,0,0,0,0c0.2,0.1,0.4,0.2,0.6,0.3c-0.2,0.4-0.5,0.7-1,0.8c-0.6,0.1-1.1,0.1-1.6-0.3
		c-0.6-0.4-0.8-0.9-0.7-1.6c0.1-1.1,1-1.8,2.1-1.7C18.6,30.2,19,30.5,19.2,31z"/>
	<g>
		<path class="st4" d="M22.8,16.5c2,0,3.9,0,5.8,0c0,0,0,0,0,0.1c0,1,0,2-0.1,3c-0.1,1.2-0.4,2.4-0.9,3.6c-0.7,1.6-1.9,2.6-3.6,3.3
			c-1.2,0.5-2.5,0.7-3.7,0.7c-1.4,0-2.8-0.2-4.2-0.7c-2.1-0.8-3.3-2.3-4-4.4c-0.3-1-0.5-2.1-0.5-3.2c0-1.8,0-3.5,0-5.3
			c0-1.8,0-3.7,0-5.5c0-0.4,0.2-0.5,0.5-0.5c1.6,0,3.2,0,4.8,0c0.4,0,0.5,0.2,0.5,0.5c0,3.4,0,6.8,0,10.3c0,0.7,0.1,1.4,0.3,2.1
			c0.3,0.8,0.8,1.4,1.7,1.7c1.3,0.3,2.5-0.3,3-1.5c0.3-0.7,0.3-1.4,0.4-2.1C22.8,17.7,22.8,17.1,22.8,16.5z"/>
		<path class="st5" d="M24,7.5c0,2.5,2,4.5,4.6,4.6c0,1.1,0,2.2,0,3.3c-1.9,0-3.9,0-5.8,0c0-0.1,0-0.1,0-0.2c0-2.4,0-4.7,0-7.1
			c0-0.4,0.2-0.6,0.6-0.6C23.6,7.5,23.8,7.5,24,7.5z"/>
		<path class="st6" d="M25.2,7.5c1,0,2,0,3,0c0.2,0,0.4,0.2,0.4,0.4c0,1,0,2,0,2.9c0,0,0,0,0,0C26.8,11,25.1,9.3,25.2,7.5z"/>
	</g>
	<path class="st3" d="M35.5,29.3c0,0.3,0,0.5,0,0.8c0,0.3-0.3,0.5-0.7,0.5c-0.3,0-0.6-0.3-0.6-0.6c0-0.3,0.2-0.6,0.5-0.7
		C35,29.2,35.2,29.3,35.5,29.3z"/>
</g>
</svg>
