<?xml version="1.0" encoding="utf-8"?>
<!-- Generator: Adobe Illustrator 24.1.2, SVG Export Plug-In . SVG Version: 6.00 Build 0)  -->
<svg version="1.1" id="Слой_1" xmlns="http://www.w3.org/2000/svg" xmlns:xlink="http://www.w3.org/1999/xlink" x="0px" y="0px"
	 viewBox="0 0 42 42" style="enable-background:new 0 0 42 42;" xml:space="preserve">
<style type="text/css">
	.st0{fill:#1B5AFF;}
	.st1{fill:#FFFFFF;}
	.st2{fill:#191919;}
	.st3{fill:#F1B830;}
</style>
<g id="примеры">
</g>
<g id="лого">
</g>
<g>
	<circle class="st0" cx="21" cy="21" r="13.9"/>
	<g>
		<path class="st1" d="M22,15.2c-0.2,0-0.4,0.1-0.5,0.3l-2.1,3.3c-0.4,0.7-0.6,1.4-0.6,2.2v8.1h4.6v-9.3H28v-4.6H22z"/>
		<path class="st1" d="M17.7,15.2H14v4.6h1.4c0.2,0,0.4-0.1,0.5-0.3l2.2-3.4C18.4,15.7,18.2,15.2,17.7,15.2z"/>
	</g>
</g>
<g>
	<g>
		<circle class="st2" cx="33.8" cy="33.8" r="8.2"/>
	</g>
	
		<rect x="32.6" y="32.5" transform="matrix(0.7071 -0.7071 0.7071 0.7071 -13.9517 33.8371)" class="st3" width="2.5" height="2.5"/>
	<polygon class="st3" points="33.8,27.2 38,31.4 36.6,32.8 33.8,30.1 31.2,32.8 29.7,31.3 	"/>
	<polygon class="st3" points="31,34.9 33.8,37.7 36.7,34.9 38.1,36.3 33.8,40.6 29.6,36.3 	"/>
	<rect x="27.6" y="32.9" transform="matrix(0.7071 -0.7071 0.7071 0.7071 -15.6025 30.1396)" class="st3" width="2" height="2"/>
	<rect x="38.1" y="32.9" transform="matrix(0.7071 -0.7071 0.7071 0.7071 -12.5184 37.5853)" class="st3" width="2" height="2"/>
</g>
</svg>
