<?xml version="1.0" encoding="utf-8"?>
<!-- Generator: Adobe Illustrator 24.1.2, SVG Export Plug-In . SVG Version: 6.00 Build 0)  -->
<svg version="1.1" id="Слой_1" xmlns="http://www.w3.org/2000/svg" xmlns:xlink="http://www.w3.org/1999/xlink" x="0px" y="0px"
	 viewBox="0 0 42 42" style="enable-background:new 0 0 42 42;" xml:space="preserve">
<style type="text/css">
	.st0{fill:#E84142;}
	.st1{fill:#FFFFFF;}
</style>
<g id="примеры">
</g>
<g id="лого">
</g>
<g>
	<circle class="st0" cx="21" cy="21" r="13.9"/>
	<path class="st1" d="M22.9,27h5c0.7,0,1.1-0.8,0.8-1.4l-2.5-4.4c-0.2-0.3-0.6-0.3-0.7,0l-2.9,5.1C22.4,26.7,22.6,27,22.9,27z"/>
	<path class="st1" d="M17.9,27H14c-0.7,0-1.1-0.8-0.8-1.4l7-12.1c0.3-0.6,1.2-0.6,1.6,0l2,3.4c0.2,0.4,0.2,0.8,0,1.2L19,26.5
		C18.8,26.8,18.4,27,17.9,27z"/>
</g>
</svg>
