<?xml version="1.0" encoding="utf-8"?>
<!-- Generator: Adobe Illustrator 26.4.1, SVG Export Plug-In . SVG Version: 6.00 Build 0)  -->
<svg version="1.1" id="Layer_1" xmlns="http://www.w3.org/2000/svg" xmlns:xlink="http://www.w3.org/1999/xlink" x="0px" y="0px"
	 viewBox="0 0 42 42" style="enable-background:new 0 0 42 42;" xml:space="preserve">
<style type="text/css">
	.st0{fill:#005098;}
	.st1{fill:#F7A600;}
	.st2{fill-rule:evenodd;clip-rule:evenodd;fill:#FAB31E;}
	.st3{fill-rule:evenodd;clip-rule:evenodd;fill:#E40520;}
	.st4{fill-rule:evenodd;clip-rule:evenodd;fill:#06326E;}
	.st5{fill-rule:evenodd;clip-rule:evenodd;fill:#FFFFFF;}
	.st6{fill:#F10035;}
</style>
<g id="фон">
</g>
<g id="примеры">
</g>
<g>
	<g>
		<g id="лого">
			<g>
				<g>
					<path class="st0" d="M7.2,29.3L5.8,33l-0.2-0.7c-0.4-0.9-0.9-1.8-2-2.3l1.3,4.8h1.5l2.1-5.5H7.2"/>
					<polyline class="st0" points="8.3,34.7 9.2,29.2 10.6,29.2 9.8,34.7 8.3,34.7 					"/>
					<path class="st0" d="M14.8,29.3c-0.3-0.1-0.7-0.2-1.2-0.2c-1.4,0-2.3,0.7-2.4,1.8c0,0.8,0.7,1.2,1.2,1.5
						c0.6,0.3,0.7,0.4,0.7,0.7c0,0.4-0.4,0.5-0.9,0.5c-0.6,0-0.9-0.1-1.3-0.3l-0.1-0.1l-0.2,1.2c0.3,0.1,0.9,0.3,1.5,0.3
						c1.5,0,2.4-0.7,2.5-1.8c0-0.6-0.4-1.1-1.2-1.5c-0.5-0.2-0.8-0.4-0.8-0.7s0.2-0.4,0.8-0.4c0.4,0,0.8,0.1,1,0.2l0.1,0.1
						L14.8,29.3"/>
					<path class="st0" d="M18.5,29.3h-1.1c-0.4,0-0.6,0.1-0.7,0.4l-2.1,5h1.5c0,0,0.2-0.7,0.3-0.8c0.1,0,1.6,0,1.8,0
						c0.1,0.2,0.1,0.8,0.1,0.8h1.3L18.5,29.3 M16.7,32.8c0.1-0.3,0.6-1.5,0.6-1.5s0.1-0.3,0.2-0.5l0.1,0.4c0,0,0.3,1.3,0.3,1.6
						C17.7,32.8,17,32.8,16.7,32.8z"/>
					<path class="st1" d="M4.5,29.3H2.3l0,0c1.8,0.4,2.9,1.5,3.4,2.8l-0.5-2.5C5,29.3,4.8,29.3,4.5,29.3z"/>
				</g>
				<g>
					<path class="st2" d="M30.8,36.2c0.9,0.9,2.2,1.4,3.5,1.4c2.9,0,5.3-2.3,5.3-5.3S37.4,27,34.4,27c-1.4,0-2.6,0.5-3.5,1.4
						c-1,0.9-1.8,2.3-1.8,3.9C29.1,33.8,29.8,35.2,30.8,36.2L30.8,36.2z"/>
					<path class="st3" d="M32.5,31.7c0-0.2-0.1-0.4-0.1-0.6h-3.2c0.1-0.2,0.1-0.4,0.1-0.6h2.9c-0.1-0.2-0.1-0.4-0.2-0.6h-2.4
						c0.1-0.2,0.2-0.4,0.3-0.6h1.8c-0.1-0.2-0.2-0.4-0.4-0.6h-1c0.1-0.2,0.4-0.4,0.5-0.6c-0.9-0.9-2.2-1.4-3.5-1.4
						C24.4,26.7,22,29,22,32s2.3,5.3,5.3,5.3c1.4,0,2.6-0.5,3.5-1.4l0,0l0,0c0.2-0.1,0.4-0.4,0.5-0.6h-1c-0.1-0.1-0.3-0.4-0.4-0.6
						h1.8c0.1-0.1,0.2-0.4,0.3-0.6h-2.5c-0.1-0.1-0.1-0.4-0.2-0.6h2.9c0.1-0.1,0.1-0.4,0.1-0.6c0.1-0.2,0.1-0.4,0.1-0.6
						c0-0.2,0-0.4,0-0.6C32.5,32.1,32.5,31.9,32.5,31.7L32.5,31.7z"/>
					<path class="st4" d="M29,33.8c-0.1,0.1-0.3,0.1-0.4,0.1c-0.3,0-0.4-0.1-0.4-0.5c0-0.1,0-0.1,0-0.2V33v-0.1l0.2-1.5h0.5
						l-0.1,0.3h0.4l0.1,0.6h-0.4l-0.1,0.9c0,0.1,0,0.1,0,0.1c0,0.1,0.1,0.1,0.2,0.1s0.1,0,0.1,0L29,33.8L29,33.8z"/>
					<path class="st4" d="M30.8,33.8c-0.2,0.1-0.4,0.1-0.6,0.1c-0.6,0-0.9-0.4-0.9-0.9c0-0.7,0.4-1.3,1-1.3c0.4,0,0.7,0.3,0.7,0.8
						c0,0.1,0,0.3-0.1,0.5h-1.1v0.1c0,0.2,0.1,0.4,0.5,0.4c0.2,0,0.4-0.1,0.6-0.1L30.8,33.8L30.8,33.8z M30.4,32.5
						C30.4,32.4,30.4,32.4,30.4,32.5c0-0.2-0.1-0.4-0.3-0.4c-0.1,0-0.3,0.1-0.4,0.4H30.4L30.4,32.5z"/>
					<polygon class="st4" points="24.7,33.8 24.1,33.8 24.4,31.8 23.7,33.8 23.3,33.8 23.3,31.8 23,33.8 22.4,33.8 22.8,31.1 
						23.6,31.1 23.7,32.8 24.2,31.1 25.2,31.1 					"/>
					<path class="st4" d="M26,32.9c-0.1,0-0.1,0-0.1,0c-0.3,0-0.5,0.1-0.5,0.4c0,0.1,0.1,0.2,0.2,0.2C26,33.4,26,33.2,26,32.9
						L26,32.9z M26.5,33.8H26v-0.2c-0.1,0.1-0.3,0.3-0.6,0.3c-0.3,0-0.5-0.2-0.5-0.6c0-0.1,0-0.2,0.1-0.3c0.1-0.4,0.4-0.5,0.9-0.6
						c0.1,0,0.1,0,0.2,0c0-0.1,0-0.1,0-0.1c0-0.1-0.1-0.2-0.4-0.2c-0.1,0-0.4,0-0.4,0.1l-0.1,0.1l0,0l0.1-0.5
						c0.3-0.1,0.4-0.1,0.7-0.1c0.5,0,0.7,0.2,0.7,0.7c0,0.1,0,0.2,0,0.4l-0.1,0.8v0.1L26.5,33.8L26.5,33.8L26.5,33.8L26.5,33.8z"/>
					<path class="st4" d="M33.5,31.6c0.1,0,0.3,0.1,0.5,0.1l0.1-0.6c-0.1,0-0.1,0-0.1-0.1l-0.2-0.1c-0.1,0-0.1,0-0.2,0
						c-0.3,0-0.4,0-0.6,0.1c-0.1,0.1-0.2,0.1-0.4,0.3h-0.1l-0.6,0.6v-0.2h-0.6l-0.4,2.1h0.6l0.2-1.2c0,0,0.1-0.1,0.1-0.2
						c0.1-0.1,0.3-0.1,0.4-0.1c0,0,0,0,0.1,0c0,0.1,0,0.3,0,0.4c0,0.7,0.4,1.2,1,1.2c0.1,0,0.3,0,0.5-0.1l0.1-0.6
						c-0.2,0.1-0.4,0.1-0.5,0.1c-0.4,0-0.5-0.2-0.5-0.7C32.9,32.1,33.2,31.6,33.5,31.6L33.5,31.6z"/>
					<path class="st4" d="M38.4,31.1l-0.1,0.7c-0.1-0.2-0.3-0.3-0.5-0.3c-0.3,0-0.6,0.1-0.7,0.5l0,0l-0.4-0.2v-0.2h-0.6l-0.4,2.2
						h0.6l0.2-1.2c0,0,0.1-0.1,0.2-0.2c0.1-0.1,0.1-0.1,0.2-0.1c-0.1,0.2-0.1,0.4-0.1,0.7c0,0.5,0.3,0.9,0.7,0.9
						c0.2,0,0.4-0.1,0.5-0.2v0.2h0.5l0.4-2.7L38.4,31.1L38.4,31.1z M37.7,33.3c-0.2,0-0.3-0.1-0.3-0.4c0-0.4,0.2-0.7,0.4-0.7
						s0.3,0.1,0.3,0.4C38.2,33,38,33.3,37.7,33.3L37.7,33.3z"/>
					<path class="st4" d="M35,32.9L35,32.9c-0.4,0-0.6,0.1-0.6,0.4c0,0.1,0.1,0.2,0.2,0.2C35,33.4,35,33.2,35,32.9L35,32.9z
						 M35.5,33.8H35v-0.2c-0.1,0.1-0.3,0.3-0.6,0.3s-0.5-0.2-0.5-0.6c0-0.5,0.4-0.8,1-0.8c0.1,0,0.1,0,0.2,0c0-0.1,0-0.1,0-0.1
						c0-0.1-0.1-0.2-0.4-0.2c-0.1,0-0.4,0-0.4,0.1h-0.1l0,0l0.1-0.5c0.3-0.1,0.4-0.1,0.7-0.1c0.5,0,0.7,0.2,0.7,0.7
						c0,0.1,0,0.2,0,0.4l-0.1,0.8v0.1L35.5,33.8L35.5,33.8L35.5,33.8L35.5,33.8z"/>
					<path class="st4" d="M27.7,32.2c0.1,0,0.3,0,0.4,0l0.1-0.5c-0.1,0-0.4-0.1-0.5-0.1c-0.7,0-0.9,0.4-0.9,0.7s0.1,0.4,0.4,0.6
						c0.2,0.1,0.3,0.1,0.3,0.2c0,0.1-0.1,0.2-0.4,0.2c-0.1,0-0.3,0-0.5-0.1l-0.1,0.5l0,0h0.1h0.1c0.1,0,0.2,0,0.3,0
						c0.7,0,0.9-0.2,0.9-0.7c0-0.3-0.1-0.4-0.4-0.6c-0.1,0-0.1-0.1-0.1-0.1C27.4,32.2,27.5,32.2,27.7,32.2L27.7,32.2z"/>
					<path class="st5" d="M34.4,31.1l-0.1,0.6c-0.2-0.1-0.4-0.1-0.6-0.1c-0.4,0-0.7,0.4-0.7,1c0,0.4,0.2,0.7,0.5,0.7
						c0.1,0,0.3-0.1,0.5-0.1l-0.1,0.6c-0.2,0.1-0.4,0.1-0.5,0.1c-0.6,0-1-0.4-1-1.2c0-0.9,0.5-1.6,1.3-1.6c0.1,0,0.1,0,0.2,0
						l0.2,0.1C34.2,31.1,34.2,31.1,34.4,31.1L34.4,31.1z"/>
					<path class="st5" d="M32.5,31.5L32.5,31.5c-0.2,0-0.4,0.1-0.5,0.4l0.1-0.4h-0.5l-0.4,2.2h0.6c0.2-1.3,0.3-1.5,0.5-1.5
						c0,0,0,0,0.1,0C32.4,31.9,32.5,31.6,32.5,31.5L32.5,31.5L32.5,31.5z"/>
					<path class="st5" d="M29.2,33.6c-0.1,0.1-0.3,0.1-0.4,0.1c-0.3,0-0.4-0.1-0.4-0.5c0-0.1,0-0.1,0-0.2v-0.2v-0.1l0.2-1.5h0.6v0.4
						h0.3l-0.1,0.5h-0.3l-0.2,0.8c0,0.1,0,0.1,0,0.1c0,0.1,0.1,0.1,0.2,0.1s0.1,0,0.1,0L29.2,33.6L29.2,33.6z"/>
					<path class="st5" d="M27,32.2c0,0.3,0.1,0.4,0.4,0.6c0.2,0.1,0.3,0.1,0.3,0.2c0,0.1-0.1,0.2-0.3,0.2c-0.1,0-0.3,0-0.5-0.1
						l-0.1,0.5l0,0h0.1H27c0.1,0,0.2,0,0.3,0c0.6,0,0.9-0.2,0.9-0.7c0-0.3-0.1-0.4-0.4-0.6c-0.2-0.1-0.3-0.1-0.3-0.2
						c0-0.1,0.1-0.1,0.3-0.1c0.1,0,0.3,0,0.4,0l0.1-0.5c-0.1,0-0.4-0.1-0.5-0.1C27.2,31.4,27,31.8,27,32.2L27,32.2z"/>
					<path class="st5" d="M38.7,33.7h-0.5v-0.2c-0.1,0.1-0.3,0.2-0.5,0.2c-0.4,0-0.7-0.4-0.7-0.9c0-0.7,0.4-1.3,0.9-1.3
						c0.2,0,0.4,0.1,0.5,0.3l0.1-0.7H39L38.7,33.7L38.7,33.7z M37.9,33.2c0.3,0,0.4-0.3,0.4-0.7c0-0.3-0.1-0.4-0.3-0.4
						c-0.3,0-0.4,0.3-0.4,0.7C37.5,33,37.7,33.2,37.9,33.2L37.9,33.2z"/>
					<path class="st5" d="M30.9,33.6c-0.2,0.1-0.4,0.1-0.6,0.1c-0.7,0-0.9-0.4-0.9-0.9c0-0.7,0.4-1.3,1-1.3c0.4,0,0.7,0.3,0.7,0.8
						c0,0.1,0,0.3-0.1,0.5h-1.1v0.1c0,0.2,0.1,0.4,0.5,0.4c0.2,0,0.4-0.1,0.6-0.1L30.9,33.6L30.9,33.6z M30.6,32.3
						C30.6,32.2,30.6,32.2,30.6,32.3c0-0.2-0.1-0.4-0.3-0.4c-0.1,0-0.3,0.1-0.4,0.4H30.6L30.6,32.3z"/>
					<polygon class="st5" points="24.9,33.7 24.3,33.7 24.6,31.6 23.8,33.7 23.5,33.7 23.4,31.6 23.1,33.7 22.5,33.7 23,31 23.8,31 
						23.8,32.7 24.4,31 25.3,31 					"/>
					<path class="st5" d="M26.2,32.7c-0.1,0-0.1,0-0.1,0c-0.3,0-0.5,0.1-0.5,0.4c0,0.1,0.1,0.2,0.2,0.2C26,33.3,26.2,33,26.2,32.7
						L26.2,32.7z M26.6,33.7h-0.4v-0.2c-0.1,0.1-0.4,0.3-0.6,0.3c-0.3,0-0.5-0.2-0.5-0.6c0-0.5,0.4-0.8,1-0.8c0.1,0,0.1,0,0.2,0
						c0-0.1,0-0.1,0-0.1c0-0.1-0.1-0.2-0.4-0.2c-0.1,0-0.4,0-0.4,0.1h-0.1h-0.1l0.1-0.5c0.3-0.1,0.4-0.1,0.7-0.1
						c0.5,0,0.7,0.2,0.7,0.7c0,0.1,0,0.2-0.1,0.4v0.6v0.1v0.1L26.6,33.7L26.6,33.7L26.6,33.7z"/>
					<path class="st5" d="M35.2,32.7L35.2,32.7c-0.4,0-0.6,0.1-0.6,0.4c0,0.1,0.1,0.2,0.2,0.2C35,33.3,35.2,33,35.2,32.7L35.2,32.7z
						 M35.7,33.7h-0.4v-0.2c-0.1,0.1-0.4,0.3-0.6,0.3c-0.3,0-0.5-0.2-0.5-0.6c0-0.5,0.4-0.8,1-0.8c0.1,0,0.1,0,0.2,0
						c0-0.1,0-0.1,0-0.1c0-0.1-0.1-0.2-0.4-0.2c-0.1,0-0.4,0-0.4,0.1h-0.1h-0.1l0.1-0.5c0.3-0.1,0.4-0.1,0.7-0.1
						c0.5,0,0.7,0.2,0.7,0.7c0,0.1,0,0.2-0.1,0.4l-0.1,0.6v0.1L35.7,33.7L35.7,33.7L35.7,33.7L35.7,33.7z"/>
					<path class="st5" d="M37.2,31.5L37.2,31.5c-0.2,0-0.4,0.1-0.5,0.4l0.1-0.4h-0.5l-0.4,2.2h0.6c0.2-1.3,0.3-1.5,0.5-1.5
						c0,0,0,0,0.1,0C37,31.9,37.2,31.6,37.2,31.5L37.2,31.5L37.2,31.5z"/>
				</g>
			</g>
		</g>
	</g>
	<g id="QFoolf_00000164490483010778624240000004164511268075629195_">
		<g>
			<path class="st6" d="M11.4,24.4c-1.2,0-2.4,0-3.6,0c-0.7-2.5-0.5-6.9,2.1-10.6c2.3-3.2,5.4-5,9.3-5.6c0.1-0.3,0-0.6,0-0.8
				c0-0.3,0-0.6,0-0.9c1.2-0.6,2.4-1.2,3.6-1.8c0,1.2,0,2.4,0,3.5c4.7,0.9,8.2,3.4,10.3,7.7c1.3,2.7,1.6,5.6,1,8.5
				c-1.2,0-2.4,0-3.6,0c0.8-3.4,0.3-6.5-2-9.2c-1.5-1.8-3.4-2.9-5.7-3.4c0,0.1,0,0.3,0,0.4c0,2.8,0,5.7,0,8.5c0,0.6,0.1,0.5-0.4,0.7
				c-1,0.5-2,1-2.9,1.5c-0.1,0-0.1,0.1-0.2,0.1c0-1.9,0-3.7,0-5.6c0-1.9,0-3.7,0-5.6c-2.2,0.2-5.1,1.8-6.7,4.5
				C11,18.8,10.7,21.5,11.4,24.4z"/>
		</g>
	</g>
</g>
</svg>
