<?xml version="1.0" encoding="utf-8"?>
<!-- Generator: Adobe Illustrator 26.1.0, SVG Export Plug-In . SVG Version: 6.00 Build 0)  -->
<svg version="1.1" id="Layer_1" xmlns="http://www.w3.org/2000/svg" xmlns:xlink="http://www.w3.org/1999/xlink" x="0px" y="0px"
	 viewBox="0 0 42 42" style="enable-background:new 0 0 42 42;" xml:space="preserve">
<style type="text/css">
	.st0{fill:#2675CA;}
	.st1{fill:#FFFFFF;}
	.st2{fill:#191919;}
</style>
<g id="фон">
</g>
<g id="примеры">
</g>
<g id="лого">
	<g>
		<circle class="st0" cx="21" cy="21" r="12.3"/>
		<path class="st1" d="M20.5,27.1h1c0.3,0,0.4-0.2,0.4-0.4v-1c1.5-0.2,2.6-1.2,2.6-2.8c0-1.9-1.4-2.3-2.3-2.6
			c-0.5-0.2-2.4-0.5-2.4-1.4c0-0.6,0.7-0.8,1.1-0.8s0.9,0.1,1.1,0.4c0.2,0.2,0.2,0.3,0.3,0.4c0.1,0.2,0.1,0.4,0.4,0.4H24
			c0.3,0,0.4-0.1,0.4-0.4c0-1.4-1.1-2.2-2.4-2.5v-1.1c0-0.2-0.1-0.4-0.4-0.4h-1c-0.3,0-0.4,0.2-0.4,0.4v1.1
			c-1.4,0.3-2.5,1.1-2.5,2.6c0,1.7,1.2,2.3,2.5,2.7c1.1,0.4,2.3,0.4,2.3,1.2s-0.6,0.9-1.3,0.9c-0.5,0-1-0.1-1.3-0.5
			c-0.2-0.2-0.2-0.4-0.2-0.6c0-0.3-0.2-0.4-0.5-0.4h-1.3c-0.3,0-0.4,0.1-0.4,0.4c0,1.6,1.2,2.5,2.6,2.8v1.1
			C20.1,27,20.2,27.1,20.5,27.1z"/>
		<path class="st1" d="M13.3,21c0,3.3,2.2,6.2,5.2,7.2c0.1,0,0.2,0.2,0.2,0.3v1c0,0.2-0.2,0.4-0.4,0.3c-3.8-1.1-6.6-4.7-6.6-8.9
			s2.8-7.7,6.6-8.9c0.2-0.1,0.4,0.1,0.4,0.3v1c0,0.1-0.1,0.3-0.2,0.3C15.4,14.9,13.3,17.7,13.3,21z"/>
		<path class="st1" d="M30.1,21c0,4.1-2.7,7.6-6.4,8.8c-0.2,0.1-0.4-0.1-0.4-0.3v-1c0-0.1,0.1-0.3,0.2-0.3c2.9-1.1,5-3.9,5-7.2
			s-2.1-6.1-5-7.2c-0.1,0-0.2-0.2-0.2-0.3v-1c0-0.2,0.2-0.4,0.4-0.3C27.4,13.4,30.1,16.9,30.1,21z"/>
	</g>
</g>
<g>
	<circle class="st2" cx="33.8" cy="33.8" r="8.2"/>
	<path class="st1" d="M29.9,29.8C29.9,29.8,29.9,29.8,29.9,29.8c0.1,0,0.2,0,0.3,0.1c0.3,0,0.5,0.1,0.8,0.1c0.1,0,0.2,0,0.3,0.1
		c0.1,0,0.3,0.1,0.4,0.1c0.2,0,0.4,0.1,0.6,0.1c0.2,0,0.4,0.1,0.6,0.1c0.1,0,0.3,0,0.4,0.1c0.1,0,0.3,0.1,0.4,0.1
		c0.2,0,0.5,0.1,0.7,0.1c0.1,0,0.2,0,0.4,0.1c0.1,0,0.2,0,0.3,0.1c0.3,0,0.5,0.1,0.8,0.1c0.2,0,0.4,0.1,0.5,0.1c0.1,0,0.2,0,0.3,0.1
		c0,0,0.1,0,0.1,0.1c0.1,0,0.1,0.1,0.2,0.1c0.4,0.3,0.7,0.7,1.1,1c0.1,0.1,0.2,0.2,0.4,0.4c0.1,0.1,0.1,0.2,0.1,0.3c0,0,0,0,0,0
		c-0.1,0.1-0.1,0.2-0.2,0.3c-0.5,0.6-1,1.2-1.4,1.8c-0.8,1-1.6,2-2.4,3c-0.2,0.3-0.5,0.6-0.7,0.9c-0.1,0.1-0.1,0.2-0.2,0.2
		c0,0-0.1,0.1-0.1,0.1c0,0,0,0,0,0c0,0,0,0,0,0c0,0,0,0-0.1,0c0,0,0,0,0,0c0,0,0,0,0,0c0,0-0.1-0.1-0.1-0.1c0,0,0-0.1-0.1-0.1
		c-0.1-0.2-0.2-0.4-0.3-0.7c-0.4-0.9-0.7-1.8-1.1-2.7c-0.5-1.2-1-2.5-1.5-3.7c-0.3-0.6-0.5-1.2-0.7-1.8c0-0.1,0-0.1,0-0.2
		c0-0.1,0.1-0.2,0.2-0.2C29.8,29.8,29.8,29.8,29.9,29.8C29.8,29.8,29.9,29.8,29.9,29.8z M30.6,30.9C30.6,30.9,30.6,30.9,30.6,30.9
		C30.6,30.9,30.6,30.9,30.6,30.9C30.6,30.9,30.6,30.9,30.6,30.9c0.4,0.9,0.8,1.9,1.1,2.8c0.6,1.4,1.1,2.7,1.7,4.1c0,0,0,0,0,0
		c0-0.1,0-0.2,0-0.3c0-0.2,0.1-0.4,0.1-0.6c0-0.1,0-0.2,0-0.2c0-0.1,0-0.2,0-0.3c0-0.1,0-0.2,0-0.3c0-0.1,0-0.2,0-0.3
		c0-0.1,0-0.3,0-0.4c0-0.2,0.1-0.4,0.1-0.6c0-0.1,0-0.2,0-0.2c0-0.1,0-0.3,0.1-0.4c0-0.1,0-0.1,0-0.2c0,0,0-0.1,0-0.1c0,0,0,0,0,0
		c-0.2-0.2-0.4-0.3-0.5-0.5c-0.9-0.7-1.7-1.5-2.6-2.2C30.7,31,30.6,30.9,30.6,30.9z M37.6,33.4C37.6,33.4,37.6,33.4,37.6,33.4
		c-1.1,0.2-2.1,0.3-3.2,0.5c-0.2,1.3-0.3,2.6-0.5,3.9c0,0,0,0,0,0C35.2,36.3,36.4,34.8,37.6,33.4z M36.1,31.6
		c-1.7-0.3-3.4-0.6-5.1-0.9c0,0,0,0,0,0c1,0.9,2.1,1.7,3.1,2.6C34.8,32.6,35.4,32.1,36.1,31.6z M36.7,31.8c-0.6,0.5-1.2,1-1.8,1.5
		c0,0,0,0,0,0c1-0.2,1.9-0.4,2.9-0.5C37.4,32.4,37,32.1,36.7,31.8z"/>
</g>
</svg>
