<?xml version="1.0" encoding="utf-8"?>
<!-- Generator: Adobe Illustrator 26.0.1, SVG Export Plug-In . SVG Version: 6.00 Build 0)  -->
<svg version="1.1" id="Layer_1" xmlns="http://www.w3.org/2000/svg" xmlns:xlink="http://www.w3.org/1999/xlink" x="0px" y="0px"
	 viewBox="0 0 42 42" style="enable-background:new 0 0 42 42;" xml:space="preserve">
<style type="text/css">
	.st0{fill:#39A589;}
	.st1{fill:#FBFDFF;}
	.st2{fill:#191919;}
	.st3{fill:#F1B830;}
	.st4{fill:#9E5EE5;}
	.st5{fill:#7D80D7;}
	.st6{fill:#A655E8;}
	.st7{fill:#738AD3;}
	.st8{fill:#52ABC5;}
	.st9{fill:#6D90D0;}
	.st10{fill:#31CCB7;}
	.st11{fill:#8E6EDE;}
	.st12{fill:#609ECA;}
	.st13{fill:#3EC0BC;}
	.st14{fill:#4BB3C2;}
	.st15{fill:#58A5C7;}
	.st16{fill:#37C7BA;}
	.st17{fill:#AF4DEB;}
	.st18{fill:#6697CE;}
	.st19{fill:#BC3FF1;}
	.st20{fill:#44BABF;}
	.st21{fill:#1BE4AE;}
	.st22{fill:#C634F5;}
	.st23{fill:#926ADE;}
	.st24{fill:#8774DB;}
	.st25{fill:#847ADA;}
	.st26{fill:#9764E1;}
	.st27{fill:#29D6B4;}
	.st28{fill:#22DDB1;}
	.st29{fill:#D328FB;}
	.st30{fill:#B645F0;}
</style>
<g id="фон">
	<polygon class="st0" points="30.1,8.5 21,8.5 11.9,8.5 6.2,20.2 21,34.3 35.8,20.2 	"/>
	<path class="st1" d="M30.7,19.9c0-1.2-3.4-2.3-7.9-2.5v-1.8h5.3v-3.7H13.8v3.7h5.3v1.8c-4.5,0.2-7.9,1.3-7.9,2.5s3.4,2.3,7.9,2.5
		v6.7h3.7v-6.7C27.3,22.2,30.7,21.1,30.7,19.9z M21,21.3c-4.3,0-7.8-0.7-7.8-1.6c0-0.8,2.5-1.4,6-1.6l0,0v0.5v2.3
		c0.6,0,1.2,0.1,1.9,0.1c0.6,0,1.3,0,1.8-0.1v-2.3v-0.5l0,0c3.4,0.2,6,0.8,6,1.6C28.8,20.5,25.3,21.3,21,21.3z"/>
</g>
<g id="примеры">
</g>
<g id="лого">
</g>
<g>
	<circle class="st2" cx="33.8" cy="33.8" r="8.2"/>
	<g>
		<path class="st3" d="M33.8,31.1L33.8,31.1c-0.6,0.6-1.2,1.2-1.8,1.8c-0.2,0.2-0.1,0.2-0.3,0c-0.3-0.3-0.6-0.6-0.8-0.8
			c-0.2-0.2-0.2-0.1,0-0.3c0.8-0.8,1.6-1.6,2.3-2.3c0.2-0.2,0.3-0.3,0.5-0.5c0.1-0.1,0.1-0.1,0.1,0c1,1,1.9,1.9,2.9,2.9
			c0.1,0.1,0.1,0.1,0,0.2c-0.3,0.3-0.6,0.6-1,1c-0.1,0.1-0.1,0.1-0.2,0C35.1,32.3,34.5,31.8,33.8,31.1
			C33.9,31.1,33.8,31.1,33.8,31.1z"/>
		<path class="st3" d="M36.9,35.7C36.8,35.8,36.8,35.8,36.9,35.7c-1,1-2,2-3,3c-0.1,0.1-0.1,0-0.1,0c-1-1-1.9-2-2.9-2.9
			c-0.1-0.1-0.1-0.1,0-0.1c0.3-0.3,0.7-0.6,1-1c0.1-0.1,0.1-0.1,0.2,0c0.6,0.6,1.2,1.2,1.8,1.8c0.1,0.1,0.1,0.1,0.2,0
			c0.6-0.6,1.2-1.2,1.8-1.8c0.1-0.1,0.1-0.1,0.2,0C36.1,35,36.5,35.3,36.9,35.7C36.8,35.7,36.9,35.7,36.9,35.7z"/>
		<path class="st3" d="M33.8,35L33.8,35c-0.4-0.4-0.8-0.8-1.2-1.2c-0.1-0.1,0-0.1,0-0.1c0.1-0.1,0.3-0.3,0.4-0.4
			c0.2-0.2,0.5-0.5,0.7-0.7c0.1-0.1,0.1-0.1,0.2,0c0.4,0.4,0.7,0.7,1.1,1.1c0.1,0.1,0.1,0.1,0,0.2c-0.4,0.4-0.7,0.7-1.1,1.1
			C33.9,35,33.8,35,33.8,35z"/>
		<path class="st3" d="M31.1,33.8C31.1,33.8,31,33.9,31.1,33.8c-0.4,0.4-0.7,0.7-1.1,1.1h-0.1c-0.3-0.3-0.7-0.7-1-1v-0.1
			c0.3-0.3,0.7-0.7,1-1H30C30.3,33.1,30.7,33.4,31.1,33.8C31,33.8,31.1,33.8,31.1,33.8z"/>
		<path class="st3" d="M37.7,34.9C37.6,34.9,37.6,34.9,37.7,34.9c-0.4-0.4-0.7-0.7-1.1-1.1c-0.1-0.1,0-0.1,0-0.1
			c0.3-0.3,0.7-0.7,1-1c0.1-0.1,0.1,0,0.1,0c0.3,0.3,0.7,0.7,1,1c0,0,0.1,0.1,0,0.1C38.4,34.2,38.1,34.5,37.7,34.9L37.7,34.9z"/>
	</g>
</g>
<g>
	<circle class="st2" cx="33.8" cy="33.8" r="8.2"/>
	<g>
		<path class="st4" d="M31.1,35.8c0.3,0,0.7,0,1,0c0,0,0,0,0.1,0c0.2,0,0.4,0,0.7,0c0,0.1,0.1,0.1,0.2,0.1c0,0,0.1,0,0.1,0
			c0.1,0.1,0.2,0.1,0.2,0.1c0.1,0,0.2,0.1,0.2,0.1c0,0,0,0,0,0c0,0,0,0,0,0c0.1,0,0.1,0,0.1,0c0,0,0,0,0.1,0c0.1,0,0.1,0,0.2,0
			c0,0,0.1,0,0.1,0.1c0,0,0,0,0.1,0.1c0,0,0,0,0,0c0,0,0.1,0,0.1,0.1c0,0,0.1,0,0.1,0c0,0.1,0,0.1,0.1,0.1c0,0,0,0,0,0
			c0,0,0.1,0,0.1,0.1c0,0,0-0.1,0-0.1c0,0,0,0,0,0c0.1,0,0.1,0.1,0.2,0.1c0.1,0,0.1,0.1,0.2,0.1c0,0,0,0,0,0c0.1,0,0.1,0.1,0.2,0.1
			c0.1,0,0.1,0,0.1,0.1c0,0,0.1,0.1,0.1,0.1c0.1,0,0.1,0,0.1,0.1c0,0,0.1,0.1,0.1,0c0.1,0,0.1,0,0.1,0c0,0,0.1,0.1,0.1,0.1
			c0.1,0,0.1,0.1,0.2,0.1c0,0,0.1,0.1,0.1,0c0,0,0,0,0,0c0,0.1,0.1,0.1,0.1,0.1c0.1,0,0.1,0,0.1,0.1c0,0,0,0.1,0,0.1
			c-0.3,0-0.6,0-0.9,0c0,0,0,0,0-0.1c-0.1,0-0.1-0.1-0.2-0.1c-0.1,0-0.1,0-0.2-0.1c-0.1,0-0.1-0.1-0.2-0.1c0,0-0.1,0-0.1-0.1
			c0,0,0,0-0.1,0c-0.1,0-0.2-0.1-0.3-0.1c0,0-0.1-0.1-0.1-0.1c0,0,0,0-0.1,0c0,0-0.1,0-0.1-0.1c-0.1,0-0.1-0.1-0.2-0.1
			c-0.1,0-0.1,0-0.2-0.1c0,0,0,0,0,0c0,0-0.1,0-0.1,0c-0.1,0-0.1-0.1-0.2-0.1c0,0,0,0,0,0c-0.1-0.1-0.2-0.1-0.3-0.2
			c-0.1-0.1-0.2-0.1-0.3-0.1c0,0,0,0,0,0c-0.1-0.1-0.2-0.1-0.4-0.2c-0.1,0-0.2-0.1-0.3-0.1c-0.1,0-0.1,0-0.2-0.1
			C32.1,36,32,36,32,35.9c-0.1,0-0.1,0-0.2,0C31.6,35.9,31.4,35.9,31.1,35.8C31.1,35.9,31.1,35.8,31.1,35.8z"/>
		<path class="st5" d="M34.7,34.8c-0.3,0-0.7,0-1,0c0,0,0,0,0,0c0,0,0.1,0,0.1,0c0-0.1,0-0.1-0.1-0.1c-0.1,0-0.1,0-0.2-0.1
			c0,0-0.1-0.1-0.1-0.1c-0.1,0-0.2-0.1-0.3-0.1c0,0,0,0,0,0c0-0.1-0.1-0.1-0.1-0.1c0,0,0,0,0,0c-0.1-0.1-0.3-0.1-0.3-0.2
			c0,0,0,0,0,0c-0.1,0-0.2-0.1-0.3-0.1c0,0,0,0,0,0c0,0-0.1-0.1-0.1-0.1c0,0.1-0.1,0.1-0.1,0c0,0,0,0,0,0c-0.1,0-0.1,0-0.2-0.1
			c0,0-0.1-0.1-0.1,0c0,0,0,0,0,0c-0.1,0-0.1-0.1-0.2-0.1c0,0,0,0,0,0c0,0,0,0-0.1,0c-0.1,0-0.2-0.1-0.3-0.1c0,0,0,0,0,0
			c0-0.1-0.1-0.1-0.1-0.1c0,0,0,0-0.1,0c-0.1,0-0.1-0.1-0.2-0.1c0,0-0.1,0-0.1-0.1c0,0,0,0-0.1,0c-0.1,0-0.1-0.1-0.2-0.1
			c0,0,0,0-0.1,0c-0.1,0-0.2,0-0.2-0.1c-0.1-0.1-0.1,0-0.2,0c0,0,0,0-0.1,0c0.2,0,0.4,0,0.6,0c0.2,0,0.3,0,0.5,0
			c0,0.1,0,0.1,0.1,0.1c0,0,0,0,0.1,0c0,0,0.1,0,0.1,0c0.1,0,0.1,0.1,0.2,0.1c0,0,0,0,0.1,0c0.1,0,0.1,0,0.2,0.1c0,0,0,0,0,0
			c0,0,0.1,0.1,0.1,0c0,0,0,0,0,0c0,0.1,0.1,0.1,0.1,0.1c0.1,0,0.2,0.1,0.2,0.1c0.1,0.1,0.2,0.1,0.3,0.2c0,0,0.1,0,0.1,0.1
			c0,0,0.1,0,0.1,0c0.1,0.1,0.2,0.1,0.3,0.1c0,0,0,0,0,0c0.1,0.1,0.2,0.1,0.3,0.2c0,0,0.1,0,0.1,0.1c0.1,0,0.2,0.1,0.3,0.1
			c0.1,0,0.1,0.1,0.2,0.1c0,0,0,0,0,0c0.1,0.1,0.2,0.1,0.3,0.2c0,0,0,0,0,0c0,0,0.1,0.1,0.1,0.1c0,0,0,0,0.1,0
			c0.1,0,0.1,0.1,0.2,0.1c0,0,0,0,0.1,0c0,0,0,0,0.1,0c0,0,0.1,0,0.1,0.1C34.9,34.8,34.8,34.8,34.7,34.8z"/>
		<path class="st6" d="M31.1,35.8C31.1,35.8,31.1,35.9,31.1,35.8c0.3,0,0.5,0,0.7,0c0.1,0,0.1,0,0.2,0c0.1,0,0.1,0.1,0.2,0.1
			c0,0,0.1,0.1,0.2,0.1c0.1,0,0.2,0.1,0.3,0.1c0.1,0.1,0.2,0.1,0.4,0.2c0,0,0,0,0,0c0.1,0.1,0.2,0.1,0.3,0.1
			c0.1,0.1,0.2,0.1,0.3,0.2c0,0,0,0,0,0c0.1,0,0.1,0,0.2,0.1c0,0,0.1,0,0.1,0c0,0,0,0,0,0c0,0.1,0.1,0.1,0.2,0.1
			c0.1,0,0.1,0.1,0.2,0.1c0,0,0.1,0,0.1,0.1c0,0,0,0,0.1,0c0,0,0.1,0.1,0.1,0.1c0.1,0,0.2,0.1,0.3,0.1c0,0,0,0,0.1,0
			c0,0,0.1,0,0.1,0.1c0.1,0,0.1,0.1,0.2,0.1c0,0,0.1,0.1,0.2,0.1c0.1,0,0.1,0.1,0.2,0.1c0,0,0,0,0,0.1c-0.4,0-0.8,0-1.2,0
			c0-0.1,0-0.1,0-0.1c0-0.1,0-0.1-0.1-0.1c0,0,0,0,0,0c0,0,0,0,0-0.1c0,0-0.1,0-0.1,0c-0.1,0-0.1,0-0.2-0.1c0,0,0,0-0.1,0
			c0,0,0-0.1-0.1-0.1c-0.1,0.1-0.1,0-0.1,0c0,0,0,0-0.1,0c-0.1,0-0.1,0-0.2-0.1c0,0,0,0,0-0.1c0,0-0.1,0-0.1,0c-0.1,0-0.1,0-0.1-0.1
			c0,0,0,0,0,0c0,0,0,0,0,0c0,0,0,0,0,0.1c-0.1,0-0.1-0.1-0.2-0.1c0-0.1-0.1-0.1-0.1,0c0-0.1-0.1-0.1-0.1-0.1c0,0-0.1,0-0.1,0
			c0,0,0,0,0,0c0,0,0,0,0,0c0,0,0,0,0-0.1c0,0-0.1,0-0.1,0c0-0.1-0.1,0-0.1-0.1c0,0,0,0,0-0.1c0,0-0.1,0-0.1,0c0,0,0,0-0.1,0
			c0,0,0-0.1,0-0.1c0,0,0,0,0-0.1c0,0,0,0-0.1,0c-0.1,0-0.1-0.1-0.1-0.1c-0.1,0-0.1,0-0.2-0.1c0,0,0,0,0,0c-0.1,0-0.1,0-0.2-0.1
			c0,0,0,0,0,0c0,0-0.1,0-0.1,0c0,0,0,0,0-0.1c0,0,0,0,0-0.1c0,0-0.1,0-0.1-0.1c0,0,0,0-0.1,0c-0.1,0-0.1,0-0.2-0.1c0,0,0-0.1,0-0.1
			C31.1,35.9,31.1,35.9,31.1,35.8C31,35.9,31,35.9,31.1,35.8c-0.1,0-0.2,0-0.2,0c-0.1,0-0.2,0-0.3,0c0,0-0.1,0-0.1,0
			c0,0,0.1,0,0.1,0C30.7,35.8,30.9,35.8,31.1,35.8z"/>
		<path class="st7" d="M34.7,34.8c0.1,0,0.1,0,0.2,0c0,0,0-0.1-0.1-0.1c0,0,0,0-0.1,0c0,0,0,0-0.1,0c-0.1,0-0.1-0.1-0.2-0.1
			c0,0,0,0-0.1,0c0,0-0.1,0-0.1-0.1c0,0,0,0,0,0c-0.1,0-0.2-0.1-0.3-0.2c0,0,0,0,0,0c-0.1,0-0.2-0.1-0.2-0.1
			c-0.1-0.1-0.2-0.1-0.3-0.1c0,0-0.1,0-0.1-0.1c-0.1-0.1-0.2-0.1-0.3-0.2c0,0,0,0,0,0c-0.1-0.1-0.2-0.1-0.3-0.1c0,0-0.1,0-0.1,0
			c0,0-0.1,0-0.1-0.1c-0.1-0.1-0.2-0.1-0.3-0.2c-0.1-0.1-0.2-0.1-0.2-0.1c0,0-0.1,0-0.1-0.1c0,0,0,0,0,0c0,0-0.1,0-0.1,0
			c0,0,0,0,0,0c-0.1,0-0.1,0-0.2-0.1c0,0,0,0-0.1,0c-0.1,0-0.1-0.1-0.2-0.1c0,0-0.1,0-0.1,0c0,0,0,0-0.1,0c0,0-0.1,0-0.1-0.1
			c0.2,0,0.5,0,0.7,0c0.1,0,0.3,0,0.4,0c0,0,0,0-0.1,0c0.1,0,0.1,0,0.2,0.1c0.1,0,0.3,0.1,0.3,0.2c0,0,0,0,0.1,0c0,0,0,0,0,0
			c0,0,0,0,0,0c0.1,0,0.1,0.1,0.2,0.1c0.1,0,0.1,0,0.2,0.1c0,0,0,0,0,0c0,0,0,0,0,0c0,0,0.1,0,0.1,0c0,0,0,0.1,0.1,0.1
			c0,0,0.1,0.1,0.1,0.1c0.1,0,0.1,0,0.1,0.1c0,0,0.1,0,0.1,0c0,0,0.1,0,0.1,0c0,0,0.1,0.1,0.1,0.1c0.1,0,0.1,0,0.1,0.1
			c0,0,0.1,0,0.1,0c0,0.1,0,0.1,0.1,0.1c0,0,0.1,0.1,0.2,0c0,0,0,0,0.1,0c0,0,0,0,0.1,0c0.1,0,0.1,0,0.1,0c0,0,0.1,0,0.1,0
			c0,0,0.1,0,0,0c0,0,0,0,0,0c0,0,0,0,0,0c0,0,0.1,0,0.1,0c0,0,0.1,0.1,0.1,0.1c0.1,0,0.1,0,0.1,0.1c0,0,0,0.1,0.1,0c0,0,0,0,0,0
			c0,0,0,0,0,0.1c0.1,0,0.1,0,0.1,0c0,0,0.1,0,0.1,0c0.1,0,0.1,0.1,0.1,0.1c0,0,0.1,0,0.1,0c0.1-0.1,0.1,0,0.1,0c0,0,0,0,0.1,0
			c0,0,0,0,0,0c0,0,0,0,0,0c0,0,0,0,0,0c0,0,0,0,0,0.1c0,0,0,0,0.1,0c0,0.1,0.1,0,0.1,0c0,0,0.1,0,0.1,0c0,0,0,0,0,0c0,0,0,0,0.1,0
			C35.7,34.8,35.2,34.8,34.7,34.8z"/>
		<path class="st8" d="M33.6,31.8c0,0-0.1,0-0.1,0c0,0-0.1,0-0.1-0.1c0,0,0,0,0,0c-0.1,0-0.1,0-0.1-0.1c-0.1,0-0.1-0.1-0.2,0
			c0,0,0,0,0,0c-0.1,0-0.2-0.1-0.3-0.1c0,0,0,0,0,0c0-0.1-0.1-0.1-0.1-0.1c-0.1,0-0.1,0-0.2-0.1c0,0,0,0-0.1,0
			c-0.1,0-0.1-0.1-0.2-0.1c0,0-0.1,0-0.1,0c0,0-0.1-0.1-0.2,0c0,0,0-0.1,0-0.1c-0.1,0-0.1,0-0.2,0c0,0,0,0,0-0.1c0,0-0.1,0-0.1,0
			c0,0,0-0.1,0-0.1c-0.1,0-0.1,0-0.2,0c0,0,0,0,0,0c0-0.1,0-0.1-0.2-0.1c0,0,0,0-0.1,0c0-0.1-0.1-0.1-0.1-0.1c0,0,0,0,0,0
			c0,0-0.1,0-0.1-0.1c0,0,0,0,0-0.1c0,0,0,0,0,0c0,0,0,0,0,0c0,0.1-0.1,0-0.1,0c0,0-0.1-0.1-0.2-0.1c0,0-0.1-0.1-0.1-0.1
			c0,0-0.1,0-0.1,0c-0.1,0-0.1,0-0.1,0c0,0,0,0,0,0c0,0-0.1-0.1,0-0.1c0,0,0,0,0,0c0,0,0,0,0,0c0,0,0,0,0,0c0,0,0,0,0,0c0,0,0,0,0,0
			c0.1-0.1,0.1-0.1,0.2-0.1c0.3,0,0.6,0,0.9,0c0,0,0,0-0.1,0c-0.2,0-0.3,0-0.5,0c0,0,0,0,0,0c0,0,0,0.1,0,0.1c0.1,0,0.1,0.1,0.2,0.1
			c0.1,0.1,0.2,0.1,0.3,0.1c0,0,0,0.1,0.1,0.1c0.1,0,0.2,0,0.3,0.1c0,0,0,0,0,0c0.1,0.1,0.2,0.1,0.3,0.2c0,0,0,0,0,0
			c0.1,0,0.2,0,0.2,0.1c0,0,0,0,0,0c0.1,0,0.1,0,0.2,0.1c0.1,0.1,0.2,0.1,0.3,0.1c0.1,0,0.1,0.1,0.2,0.1c0,0,0.1,0.1,0.1,0.1
			c0.1,0,0.1,0,0.1,0.1c0,0,0.1,0,0.1,0c0,0,0,0,0,0c0.1,0,0.1,0.1,0.2,0.1c0.1,0,0.1,0,0.1,0.1c0,0,0.1,0,0.1,0c0.1,0,0.1,0,0.1,0
			c0,0,0,0.1,0.1,0c0,0,0.1,0,0.1,0c0.1,0.1,0.2,0.1,0.3,0.1c0,0,0,0,0,0c0,0,0,0.1,0.1,0c0,0,0,0,0.1,0c0,0,0.1,0,0.1,0
			c0,0,0.1,0,0.1,0.1c0,0-0.1,0-0.1,0c0,0-0.1,0-0.1,0c-0.1,0-0.1,0-0.2,0c0,0-0.1,0-0.2,0c0,0,0,0-0.1,0
			C33.7,31.7,33.6,31.7,33.6,31.8z M30.6,29.8C30.6,29.8,30.6,29.8,30.6,29.8c0,0-0.1,0-0.1,0c0,0,0,0,0,0
			C30.5,29.8,30.6,29.8,30.6,29.8z"/>
		<path class="st9" d="M36.1,34.8C36.1,34.8,36.1,34.8,36.1,34.8C36.1,34.8,36.1,34.8,36.1,34.8c-0.1-0.1-0.2-0.1-0.2-0.1
			c0,0-0.1,0-0.1,0c0,0,0,0-0.1,0c0,0-0.1,0,0-0.1c0,0,0,0,0,0c0,0,0,0,0,0c0,0,0,0,0,0c0,0,0,0-0.1,0c0,0,0-0.1-0.1,0
			c0,0,0,0-0.1,0c0,0-0.1-0.1-0.1-0.1c0,0-0.1,0-0.1,0c0-0.1,0-0.1-0.1,0c0,0,0,0,0-0.1c0,0,0,0,0,0c-0.1,0-0.1,0-0.1,0
			c0,0-0.1-0.1-0.1-0.1c0,0-0.1,0-0.1-0.1c0-0.1-0.1-0.1-0.1,0c0,0,0,0,0,0c0,0,0,0,0,0c0,0,0,0,0,0c0,0-0.1,0-0.1,0
			c0,0-0.1-0.1-0.1,0c0,0,0,0-0.1,0c0,0,0,0-0.1,0c-0.1,0-0.1,0-0.2,0c0,0-0.1,0-0.1-0.1c0,0,0,0-0.1,0c0,0,0-0.1-0.1-0.1
			c0,0-0.1,0-0.1-0.1c0,0,0,0-0.1,0c0,0-0.1,0-0.1,0c0,0-0.1-0.1-0.1-0.1c0,0-0.1,0-0.1-0.1c0,0,0-0.1-0.1-0.1c0,0-0.1,0-0.1,0
			c0,0,0,0,0,0c0,0,0,0,0,0c-0.1,0-0.1,0-0.2-0.1c-0.1,0-0.1-0.1-0.2-0.1c0,0,0,0,0,0c0,0,0,0,0,0c0,0-0.1,0-0.1,0
			c-0.1-0.1-0.2-0.2-0.3-0.2c0,0-0.1,0-0.2-0.1c0,0,0,0,0.1,0c0.3,0,0.6,0,0.9,0c0,0,0.1,0.1,0.1,0c0,0.1,0,0.1,0.1,0.1
			c0.1,0,0.1,0.1,0.2,0.1c0,0,0.1,0.1,0.1,0.1c0.1,0.1,0.2,0.1,0.3,0.2c0,0,0.1,0,0.1,0c0,0,0.1,0.1,0.2,0.1c0.1,0,0.1,0.1,0.2,0.1
			c0,0,0.1,0,0.1,0.1c0,0,0,0,0.1,0c0,0,0.1,0,0.1,0.1c0.1,0,0.1,0.1,0.2,0.1c0,0,0,0,0,0c0,0,0.1,0,0.1,0c0,0,0.1,0.1,0.1,0
			c0,0,0,0,0.1,0c0,0,0.1,0.1,0.1,0.1c0,0,0.1,0,0.1,0.1c0,0,0,0,0,0c0.1,0,0.2,0.1,0.3,0.1c0.1,0.1,0.2,0.1,0.3,0.2
			c0,0,0.1,0,0.1,0c0.1,0,0.1,0.1,0.2,0.1c0,0,0,0,0.1,0.1c0,0,0,0,0.1,0c0.1,0,0.1,0,0.2,0c0.1,0,0.1,0,0.2,0c0,0,0,0,0,0.1
			C36.8,34.8,36.5,34.8,36.1,34.8z"/>
		<path class="st10" d="M37.4,31.5C37.4,31.5,37.4,31.5,37.4,31.5C37.4,31.5,37.3,31.6,37.4,31.5C37.4,31.6,37.4,31.6,37.4,31.5
			c-0.1,0.1-0.1,0.1-0.1,0.1c0,0,0,0,0,0c0,0-0.1,0-0.1,0c0,0,0,0,0,0c0,0,0,0,0,0c0,0,0-0.1,0-0.1c0,0-0.1,0-0.1,0
			c-0.1,0-0.1-0.1-0.2-0.1c0,0,0,0,0,0c-0.1-0.1-0.1-0.1-0.2-0.1c-0.1,0-0.2-0.1-0.3-0.1c-0.1,0-0.2-0.1-0.3-0.2
			c-0.1,0-0.1-0.1-0.2-0.1c0,0,0,0-0.1,0c-0.1,0-0.1-0.1-0.2-0.1c-0.1,0-0.3-0.1-0.4-0.2c-0.1,0-0.1,0-0.2-0.1c0,0,0,0,0,0
			c-0.1,0-0.2-0.1-0.3-0.1c0,0-0.1-0.1-0.1-0.1c-0.1,0-0.2-0.1-0.2-0.1c-0.1,0-0.2-0.1-0.3-0.2c-0.1,0-0.2-0.1-0.3-0.1
			c0,0,0,0-0.1-0.1c0,0,0,0,0,0c0.4,0,0.7,0,1.1,0c0,0.1,0.1,0.1,0.1,0.1c0,0,0.1,0,0.1,0.1c0,0,0.1,0,0.1,0.1c0,0,0,0,0,0
			c0,0.1,0.1,0.1,0.2,0.1c0.1,0.1,0.2,0.1,0.3,0.2c0.1,0.1,0.2,0.1,0.2,0.1c0,0,0,0,0.1,0c0,0,0,0,0.1,0c0,0,0.1,0.1,0.1,0.1
			c0.1,0.1,0.2,0.1,0.3,0.1c0,0,0,0,0,0c0,0.1,0.1,0.1,0.2,0.1c0,0,0,0,0,0c0.1,0,0.1,0.1,0.2,0.1c0,0,0,0,0.1,0
			c0.1,0,0.1,0.1,0.2,0.1c0,0,0.1,0,0.2,0.1c0.1,0.1,0.1,0.1,0.2,0.1c0,0,0,0.1,0,0.1c0,0,0-0.1,0.1-0.1c0,0,0.1,0,0.1,0.1
			c0,0-0.1,0.1-0.1,0.1c0,0-0.1,0,0,0l0,0c0,0,0,0,0,0C37.5,31.4,37.4,31.4,37.4,31.5L37.4,31.5C37.4,31.5,37.4,31.5,37.4,31.5
			C37.4,31.5,37.4,31.5,37.4,31.5z M37.1,31.5C37.1,31.5,37.1,31.5,37.1,31.5C37.1,31.5,37.1,31.5,37.1,31.5
			C37.1,31.5,37.1,31.5,37.1,31.5C37.1,31.5,37.1,31.5,37.1,31.5z"/>
		<path class="st11" d="M28.9,32.8C28.9,32.8,28.9,32.8,28.9,32.8C29,32.8,29,32.9,28.9,32.8c0.1,0.1,0.2,0.1,0.2,0.1
			c0,0,0.1,0.1,0.1,0.1c0,0,0,0,0,0c0,0,0.1,0.1,0.1,0.1c0.1,0,0.1,0,0.1,0.1c0,0,0.1,0,0.1,0c0,0,0.1,0,0.1,0
			c0,0.1,0.1,0.1,0.2,0.1c0,0,0,0,0,0c0,0,0,0,0,0c0,0,0.1,0,0.1,0.1c0,0,0,0,0,0c0.1,0,0.1,0.1,0.2,0.1c0,0,0.1,0,0.1,0.1
			c0,0,0.1,0,0.1,0c0,0,0.1,0,0.1,0c0,0,0.1,0,0.1,0.1c0,0,0.1,0,0.1,0.1c0,0,0.1,0,0.1,0c0,0,0.1,0,0.1,0c0,0,0.1,0.1,0.2,0.1
			c0,0,0,0,0,0c0,0.1,0.1,0.1,0.2,0.1c0,0,0.1,0.1,0.1,0.1c0.1,0,0.2,0.1,0.3,0.1c0,0,0.1,0,0.2,0.1c0,0.1,0.1,0,0.1,0
			c0.1,0,0.1,0.1,0.2,0.1c0.1,0,0.1,0.1,0.2,0.1c0.1,0,0.1,0.1,0.2,0c0,0,0,0,0,0.1c0,0.1,0,0.1,0.1,0.1c0,0,0.1,0,0.1,0
			c0,0,0.1,0,0.1,0c0,0,0,0,0,0c-0.3,0-0.6,0-1,0c0,0,0,0-0.1,0c-0.1,0-0.1,0-0.2,0c0,0,0,0-0.1,0c0,0-0.1-0.1-0.1-0.1
			c0,0-0.1,0-0.1-0.1c0,0,0,0,0,0c-0.1,0-0.1,0-0.2-0.1c-0.1,0-0.2-0.1-0.2-0.1c0,0,0,0,0,0c-0.1,0-0.2-0.1-0.3-0.1
			c-0.1,0-0.1-0.1-0.2-0.1c-0.1,0-0.1,0-0.2-0.1c0,0,0,0,0,0c-0.1,0-0.1,0-0.2-0.1c-0.1-0.1-0.1-0.1-0.2-0.1c0,0,0,0-0.1,0
			c-0.1-0.1-0.1-0.1-0.2-0.1c0,0-0.1,0-0.1,0c0,0,0,0,0,0c0,0,0,0-0.1,0c-0.1,0-0.1-0.1-0.2-0.1c0,0,0-0.1-0.1-0.1c0,0,0,0,0,0
			c-0.1,0-0.1,0.1-0.1,0.1c-0.1-0.1-0.3-0.3-0.4-0.4c-0.1-0.1-0.1-0.1,0-0.2c0-0.1,0.1-0.1,0.2-0.1C28.8,32.8,28.9,32.8,28.9,32.8z"
			/>
		<path class="st12" d="M38.9,34.8C38.8,34.8,38.8,34.8,38.9,34.8c-0.4,0-0.8,0-1.1,0c-0.1,0-0.1,0-0.2,0c0,0,0,0-0.1,0
			c0,0-0.1-0.1-0.1-0.1c0,0,0,0,0,0c0,0-0.1,0-0.1,0c0-0.1-0.1-0.1-0.1-0.1c0,0,0,0-0.1,0c0,0-0.1,0-0.1,0c-0.1-0.1-0.2-0.1-0.3-0.2
			c-0.1-0.1-0.2-0.1-0.3-0.1c-0.1,0-0.1-0.1-0.2-0.1c0,0,0-0.1-0.1-0.1c0,0-0.1,0-0.1,0c-0.1-0.1-0.2-0.1-0.2-0.1c0,0,0,0-0.1,0
			c0,0,0,0,0,0c0,0,0,0-0.1,0c0,0,0,0,0,0c0,0-0.1-0.1-0.1-0.1c0,0,0,0,0,0c0,0,0,0,0,0c-0.1-0.1-0.1-0.1-0.2-0.1c0,0,0,0-0.1,0
			c0,0-0.1-0.1-0.1-0.1c-0.1,0-0.1-0.1-0.2-0.1c0,0-0.1,0-0.1,0c0,0-0.1,0-0.1,0c0,0-0.1-0.1-0.1-0.1c0,0-0.1,0-0.1,0
			c0,0-0.1-0.1-0.1-0.1c-0.1,0-0.1-0.1-0.2-0.1c0,0,0,0,0,0c0,0-0.1-0.1-0.1-0.1c0,0-0.1,0-0.1,0c-0.1,0-0.1,0-0.1-0.1c0,0,0,0,0,0
			c0.3,0,0.5,0,0.8,0c0,0,0,0,0,0c0,0,0,0.1,0,0.1c0,0,0.1,0,0.1,0.1c0,0,0,0,0-0.1c0.1,0,0.1,0.1,0.2,0.1c0.1,0,0.1,0.1,0.2,0.1
			c0,0.1,0.1,0,0.1,0.1c0.1,0,0.1,0,0.1,0.1c0,0,0,0,0,0c0,0,0.1,0,0.1,0c0,0,0.1,0,0.1,0.1c0,0,0,0,0,0c0.1,0,0.2,0.1,0.2,0.1
			c0,0,0,0,0.1,0c0.1,0,0.1,0,0.1,0.1c0,0,0.1,0.1,0.1,0.1c0.1,0,0.1,0,0.2,0.1c0.1,0.1,0.2,0.1,0.3,0.2c0,0,0,0,0.1,0
			c0.1,0,0.2,0,0.2,0.1c0,0,0,0,0,0c0.1,0,0.2,0.1,0.3,0.1c0,0,0,0,0.1,0c0,0,0.1,0.1,0.1,0.1c0,0,0,0,0.1,0c0,0,0.1,0,0.1,0.1
			c0,0,0.1,0,0.1,0.1c0,0,0.1,0.1,0.2,0.1c0,0,0.1,0,0.1,0.1c0,0,0,0,0,0c0,0,0,0,0.1,0c0,0,0,0,0.1,0c0.1,0,0.1,0,0.1,0.1
			C38.5,34.8,38.7,34.8,38.9,34.8z"/>
		<path class="st13" d="M32.5,29.7c0.3,0,0.6,0,0.9,0c0,0,0,0-0.1,0c-0.1,0-0.2,0-0.4,0c0,0,0,0-0.1,0c0,0,0.1,0,0.1,0.1
			c0.1,0,0.1,0.1,0.2,0.1c0,0,0.1,0.1,0.1,0.1c0.1,0,0.1,0,0.1,0c0.1,0.1,0.3,0.1,0.4,0.2c0,0,0,0,0,0c0,0,0,0,0.1,0
			c0.1,0.1,0.2,0.1,0.3,0.2c0,0,0.1,0,0.1,0c0,0,0.1,0,0.1,0.1c0.1,0,0.1,0.1,0.2,0.1c0.1,0,0.2,0.1,0.3,0.1c0.1,0,0.1,0.1,0.2,0.1
			c0.1,0.1,0.2,0.1,0.3,0.2c0,0,0,0,0,0c0.1,0,0.2,0.1,0.4,0.2c0,0,0.1,0,0.1,0.1c0,0,0,0,0,0c0,0.1,0.1,0.1,0.2,0.1
			c0,0,0.1,0,0.2,0.1c0,0,0.1,0,0.1,0.1c0,0,0,0,0.1,0c0.1,0,0.2,0,0.3,0c0,0,0,0,0,0c-0.2,0-0.4,0-0.6,0c0,0,0,0-0.1,0
			c0,0,0,0-0.1,0c0,0,0,0,0,0c0,0,0,0,0,0c0,0,0,0,0,0c0,0-0.1,0-0.1,0c0,0-0.1,0-0.1,0c-0.1,0-0.2,0-0.3,0c0,0-0.1,0-0.1,0
			c0,0,0,0,0.1,0c0,0,0,0,0,0c0,0,0,0,0,0c-0.1,0-0.1,0-0.2-0.1c0,0,0,0,0,0c0-0.1-0.1-0.1-0.2-0.1c-0.1-0.1-0.2,0-0.3-0.1
			c0,0,0,0,0,0c-0.1,0-0.1,0-0.2-0.1c0,0-0.1,0-0.1-0.1c0,0-0.1,0-0.1,0c0,0-0.1,0-0.1,0c0-0.1-0.1-0.1-0.1-0.1
			c0-0.1-0.1-0.1-0.1-0.1c0,0-0.1,0-0.1-0.1c0,0,0-0.1-0.1-0.1c0,0-0.1,0-0.1,0c0,0-0.1,0-0.1-0.1c0,0,0,0,0,0
			c-0.1-0.1-0.2-0.1-0.4-0.2c-0.1,0-0.2-0.1-0.2-0.1c-0.1,0-0.2-0.1-0.3-0.1c0,0-0.1,0-0.1,0c-0.1-0.1-0.2-0.2-0.3-0.2
			c-0.1,0-0.1,0-0.2-0.1c0-0.1-0.1-0.1-0.2-0.1c0,0,0,0-0.1,0c0,0-0.1,0-0.1,0c0,0,0,0-0.1,0c-0.1,0-0.1,0-0.1-0.1
			C32.3,29.8,32.4,29.8,32.5,29.7C32.5,29.8,32.5,29.8,32.5,29.7z"/>
		<path class="st14" d="M34.4,31.8c0-0.1-0.1-0.1-0.1-0.1c0,0-0.1,0-0.1,0c0,0,0,0-0.1,0c0,0-0.1,0-0.1,0c0,0,0,0,0,0
			c-0.1,0-0.2-0.1-0.3-0.1c0,0-0.1,0-0.1,0c0,0-0.1,0-0.1,0c0,0,0-0.1-0.1,0c0,0-0.1,0-0.1,0c0-0.1,0-0.1-0.1-0.1
			c-0.1,0-0.1,0-0.2-0.1c0,0,0,0,0,0c0,0-0.1,0-0.1,0c0,0-0.1-0.1-0.1-0.1c0,0-0.1,0-0.1-0.1c-0.1,0-0.1-0.1-0.2-0.1
			c-0.1,0-0.2-0.1-0.3-0.1c-0.1,0-0.1-0.1-0.2-0.1c0,0,0,0,0,0c-0.1-0.1-0.1-0.1-0.2-0.1c0,0,0,0,0,0c-0.1-0.1-0.2-0.1-0.3-0.2
			c0,0,0,0,0,0c-0.1-0.1-0.2-0.1-0.3-0.1c0,0,0,0-0.1-0.1c-0.1,0-0.2-0.1-0.3-0.1c-0.1,0-0.1-0.1-0.2-0.1c0,0,0,0,0-0.1c0,0,0,0,0,0
			c0.2,0,0.3,0,0.5,0c0,0,0,0,0.1,0c0.1,0,0.2,0,0.3,0c0,0,0,0-0.1,0c0,0-0.1,0-0.1,0c0,0.1,0.1,0.1,0.1,0.1c0,0,0.1,0,0.1,0
			c0.1,0,0.2,0.1,0.2,0.1c0,0,0,0,0,0c0,0-0.1,0-0.1,0c0,0,0,0,0,0c0.1,0,0.1,0,0.2,0c0,0,0.1,0,0.1,0c0,0,0,0,0.1,0
			c0.1,0,0.2,0.1,0.2,0.2c0,0,0,0,0-0.1c0,0,0-0.1,0.1,0c0.1,0.1,0.1,0.1,0.2,0.2c0,0,0.1,0.1,0.1,0c0,0,0,0,0.1,0
			c0.1,0.1,0.2,0.2,0.3,0.1c0,0,0,0,0,0c0.1,0,0.2,0,0.2,0.2c0,0,0,0,0,0c0,0,0.1,0,0.1,0c0,0,0,0,0,0c0,0.1,0,0.1,0.1,0.1
			c0,0,0.1,0,0.1,0c0,0,0,0,0,0c0,0.1,0,0.1,0.1,0.1c0,0,0,0,0,0c0,0,0.1,0,0.1,0.1c0,0,0.1,0,0.1,0c0,0,0.1,0,0.1,0
			c0.1,0,0.1,0.1,0.2,0.1c0,0,0.1,0.1,0.1,0.1c0.1,0,0.1,0,0.2,0.1c0.1,0,0.2,0.1,0.3,0.1c0,0,0.1,0,0.1,0.1c0,0.1,0.1,0.1,0.2,0.1
			c0,0,0.1,0,0.1,0.1c0,0-0.1,0-0.1,0c0,0-0.1,0-0.1,0C34.8,31.8,34.6,31.8,34.4,31.8z M31.4,29.8C31.4,29.8,31.4,29.8,31.4,29.8
			C31.4,29.8,31.4,29.8,31.4,29.8C31.4,29.8,31.4,29.8,31.4,29.8C31.4,29.8,31.4,29.8,31.4,29.8z"/>
		<path class="st15" d="M38.9,34.8c-0.2,0-0.4,0-0.5,0c0-0.1-0.1-0.1-0.1-0.1c0,0,0,0-0.1,0c0,0,0,0-0.1,0c0,0,0,0,0,0
			c0-0.1,0-0.1-0.1-0.1c-0.1,0-0.1,0-0.2-0.1c0,0-0.1,0-0.1-0.1c0,0-0.1,0-0.1-0.1c0,0,0,0-0.1,0c-0.1,0-0.1,0-0.1-0.1
			c0,0,0,0-0.1,0c-0.1,0-0.2-0.1-0.3-0.1c0,0,0,0,0,0c0-0.1-0.2-0.1-0.2-0.1c0,0,0,0-0.1,0c-0.1-0.1-0.2-0.1-0.3-0.2
			c-0.1,0-0.1-0.1-0.2-0.1c0,0-0.1,0-0.1-0.1c0,0-0.1-0.1-0.1-0.1c0,0-0.1,0-0.1,0c-0.1-0.1-0.1-0.1-0.2-0.1c0,0,0,0,0,0
			c0-0.1-0.1-0.1-0.1-0.1c0,0-0.1,0-0.1,0c0,0,0,0,0,0c0-0.1-0.1-0.1-0.1-0.1c0-0.1-0.1,0-0.1-0.1c0,0-0.1-0.1-0.2-0.1
			c-0.1,0-0.1-0.1-0.2-0.1c0,0,0,0,0,0.1c0,0-0.1,0-0.1-0.1c0,0,0,0,0-0.1c0,0,0,0,0,0c0.3,0,0.6,0,0.9,0c0,0.1,0,0.1-0.1,0.1
			c0,0-0.1,0-0.1,0c0,0,0,0,0,0c0,0,0,0,0,0c0,0,0.1,0,0.1,0c0.1,0,0.1,0,0.1,0.1c0,0,0,0.1,0,0.1c0.1,0,0.1,0.1,0.2,0.1
			c0,0,0.1,0,0.1,0.1c0,0,0.1,0.1,0.1,0.1c0.1,0,0.1,0,0.2,0.1c0,0,0.1,0,0.1,0c0,0,0.1,0,0.1,0c0,0,0.1,0,0.1,0.1
			c0,0,0.1,0,0.1,0.1c0.1,0.1,0.2,0.1,0.3,0.2c0.1,0,0.1,0.1,0.2,0.1c0.1,0,0.1,0,0.1,0.1c0,0,0,0,0.1,0c0,0,0.1,0,0.1,0.1
			c0,0.1,0,0.1,0.1,0.1c0,0,0.1,0,0.1,0c0,0,0.1,0.1,0.1,0.1c0,0,0.1,0,0.1,0c0,0,0,0,0.1,0c0,0,0,0,0.1,0c0,0,0.1,0,0.1,0
			c0,0,0.1,0,0.1,0.1c0,0,0,0,0,0c0.1,0,0.1,0,0.1,0.1c0,0,0.1,0,0.1,0c0,0,0.1,0,0.1,0c0,0.1,0.1,0.1,0.1,0.1c0,0,0.1,0,0.1,0
			c0,0,0-0.1-0.1-0.1c-0.1-0.1-0.1-0.1-0.2-0.2c0,0-0.1,0-0.1-0.1c0.1,0.1,0.1,0.1,0.2,0.2c0.1,0.1,0.1,0.1,0.2,0.2
			C39,34.6,39,34.7,38.9,34.8z"/>
		<path class="st16" d="M37,31.8C37,31.8,37,31.7,37,31.8c-0.2,0-0.3,0-0.4,0c0,0-0.1,0-0.1,0c0-0.1-0.1-0.1-0.1-0.1
			c-0.1,0-0.1,0-0.2-0.1c-0.1,0-0.2-0.1-0.2-0.1c0,0,0,0,0,0c0,0-0.1,0-0.1-0.1c-0.1-0.1-0.2-0.2-0.4-0.2c0,0,0,0,0,0
			c-0.1-0.1-0.2-0.1-0.3-0.2c-0.1,0-0.1-0.1-0.2-0.1c-0.1,0-0.2-0.1-0.3-0.1c-0.1,0-0.1-0.1-0.2-0.1c0,0-0.1,0-0.1-0.1
			c0,0-0.1,0-0.1,0c-0.1-0.1-0.2-0.1-0.3-0.2c0,0,0,0-0.1,0c0,0,0,0,0,0c-0.1-0.1-0.2-0.1-0.4-0.2c0,0-0.1-0.1-0.1,0
			c0,0-0.1,0-0.1-0.1c-0.1,0-0.1-0.1-0.2-0.1c0,0-0.1,0-0.1-0.1c0,0,0,0,0.1,0c0.1,0,0.2,0,0.4,0c0,0,0,0,0.1,0c0.5,0,1,0,1.6,0
			c0,0,0,0,0,0c0,0-0.1,0-0.1,0c-0.4,0-0.7,0-1.1,0c0,0,0,0,0,0c0,0,0,0,0.1,0.1c0.1,0,0.2,0.1,0.3,0.1c0.1,0,0.2,0.1,0.3,0.2
			c0.1,0,0.2,0.1,0.2,0.1c0,0,0.1,0.1,0.1,0.1c0.1,0.1,0.2,0.1,0.3,0.1c0,0,0,0,0,0c0,0.1,0.1,0.1,0.2,0.1c0.1,0.1,0.3,0.2,0.4,0.2
			c0.1,0,0.1,0.1,0.2,0.1c0,0,0,0,0.1,0c0.1,0,0.1,0,0.2,0.1c0.1,0.1,0.2,0.2,0.3,0.2c0.1,0,0.2,0.1,0.3,0.1c0.1,0,0.1,0.1,0.2,0.1
			c0,0,0,0,0,0c0.1,0,0.1,0.1,0.2,0.1c0,0,0.1,0,0.1,0c0,0,0,0.1,0,0.1C37.1,31.7,37.1,31.7,37,31.8C37,31.8,37,31.8,37,31.8z"/>
		<path class="st17" d="M30.4,35.9C30.5,35.9,30.5,35.9,30.4,35.9c0.2,0,0.3,0,0.4,0c0.1,0,0.1,0,0.2,0c0,0,0.1,0,0.1,0
			c0,0,0,0,0.1,0.1c0,0,0.1,0.1,0,0.1c0.1,0,0.1,0,0.2,0.1c0,0,0,0,0.1,0c0,0,0.1,0,0.1,0.1c0,0,0,0,0,0.1c0,0,0,0,0,0.1
			c0,0,0.1,0,0.1,0c0,0,0,0,0,0c0,0.1,0.1,0.1,0.2,0.1c0,0,0,0,0,0c0,0.1,0.1,0.1,0.2,0.1c0,0,0.1,0,0.1,0.1c0,0,0,0,0.1,0
			c0,0,0,0.1,0,0.1c0,0,0,0.1,0,0.1c0,0,0,0,0.1,0c0-0.1,0.1,0,0.1,0c0,0,0,0,0,0.1c0,0.1,0.1,0,0.1,0.1c0,0,0.1,0,0.1,0
			c0,0,0.1,0,0,0.1c0,0,0,0,0,0c0,0,0,0,0,0c0,0,0.1,0,0.1,0c0,0,0.1,0.1,0.1,0.1c0.1-0.1,0.1-0.1,0.1,0c0,0.1,0.1,0.1,0.2,0.1
			c0,0,0,0,0-0.1c0,0,0,0,0,0c0,0,0,0,0,0c0,0.1,0,0.1,0.1,0.1c0.1,0,0.1,0,0.1,0c0,0,0,0,0,0.1c0,0.1,0.1,0.1,0.2,0.1
			c0,0,0,0,0.1,0c0,0,0.1,0.1,0.1,0c0,0,0,0.1,0.1,0.1c0,0,0,0,0.1,0c0.1,0,0.1,0,0.2,0.1c0,0,0.1,0,0.1,0c0,0,0,0,0,0.1
			c0,0,0,0,0,0c0.1,0,0.1,0,0.1,0.1c0,0.1,0,0.1,0,0.1c-0.1,0-0.1,0-0.2,0c-0.1,0-0.2,0-0.3,0c0,0,0,0,0,0c0,0,0,0,0,0
			c0,0-0.1,0-0.1,0c0,0,0-0.1-0.1-0.1c0,0,0,0-0.1,0c0,0-0.1,0-0.1-0.1c0,0-0.1,0-0.1-0.1c0,0-0.1,0-0.1,0c-0.1,0-0.1-0.1-0.2-0.1
			c0,0-0.1,0-0.1-0.1c-0.1,0-0.2-0.1-0.2-0.1c0,0,0,0,0,0c0,0,0,0,0,0c-0.1,0-0.1,0-0.1-0.1c0,0,0,0,0,0c0,0,0,0-0.1,0
			c-0.1,0-0.1,0-0.2-0.1c0,0,0,0,0.1,0c0,0,0,0,0,0c0,0-0.1,0-0.1,0c0,0,0,0,0,0c0,0,0,0,0,0c-0.1,0-0.2,0-0.2-0.1c0,0,0,0-0.1,0
			c0,0,0,0,0,0c0,0,0,0,0-0.1c-0.1,0-0.1-0.1-0.2-0.1c0,0,0,0,0,0c0,0-0.1-0.1-0.1-0.1c0,0-0.1,0-0.1,0c0,0,0,0,0,0
			c0,0-0.1,0-0.1-0.1c0,0-0.1-0.1-0.1-0.1c-0.1,0-0.1,0-0.2-0.1c-0.1,0-0.1-0.1-0.2-0.1c0,0,0,0,0,0c0,0,0,0,0-0.1
			c0,0-0.1,0-0.1-0.1c0,0,0,0,0,0c-0.1,0-0.2,0-0.2-0.1C30.4,36,30.4,36,30.4,35.9c-0.1,0.1-0.1,0.1-0.1,0.1c0,0,0,0-0.1,0l0,0
			C30.3,35.9,30.4,35.9,30.4,35.9z"/>
		<path class="st18" d="M33.8,32.8C33.8,32.8,33.8,32.8,33.8,32.8c0,0.1,0,0.1,0.1,0.1c0,0,0.1,0,0.1,0c0,0,0.1,0.1,0.1,0.1
			c0,0,0,0,0,0c0.1,0,0.1,0,0.2,0.1c0,0,0.1,0,0.1,0.1c0,0,0.1,0,0.1,0c0.1,0,0.1,0,0.1,0.1c0,0,0,0,0.1,0c0,0,0.1,0,0.1,0
			c0,0.1,0.1,0.1,0.2,0.1c0,0,0.1,0,0.1,0.1c0,0,0,0,0.1,0c0.1,0,0.2,0,0.2,0.1c0,0,0,0,0,0c0,0,0,0,0,0c0,0,0.1,0.1,0.1,0.1
			c0,0,0,0,0,0c0,0,0,0,0.1,0c0,0,0,0,0,0c0,0,0,0,0.1,0c0.1,0.1,0.2,0.1,0.2,0.1c0,0,0.1,0,0.1,0c0,0,0.1,0,0.1,0.1
			c0.1,0,0.1,0.1,0.2,0.1c0.1,0.1,0.2,0.1,0.3,0.1c0.1,0.1,0.2,0.1,0.3,0.2c0,0,0.1,0,0.1,0c0,0,0,0,0.1,0c0.1,0,0.1,0,0.1,0.1
			c0,0,0.1,0,0.1,0c0,0,0,0,0,0c0,0,0.1,0.1,0.1,0.1c0,0,0,0,0.1,0c0.1,0,0.1,0,0.2,0c-0.2,0-0.4,0-0.7,0c0,0,0,0,0-0.1
			c-0.1,0-0.1,0-0.2,0c-0.1,0-0.1,0-0.2,0c0,0,0,0-0.1,0c0,0,0-0.1-0.1-0.1c-0.1,0-0.1-0.1-0.2-0.1c0,0-0.1,0-0.1,0
			c-0.1-0.1-0.2-0.1-0.3-0.2c-0.1,0-0.2-0.1-0.3-0.1c0,0,0,0,0,0c0,0-0.1-0.1-0.1-0.1c-0.1,0-0.1,0-0.1-0.1c0,0,0,0-0.1,0
			c-0.1,0-0.1,0-0.1,0c0,0-0.1,0-0.1,0c0,0,0,0,0,0c-0.1,0-0.1-0.1-0.2-0.1c0,0-0.1,0-0.1-0.1c0,0,0,0-0.1,0c0,0-0.1,0-0.1-0.1
			c-0.1,0-0.1-0.1-0.2-0.1c-0.1,0-0.1-0.1-0.2-0.1c0,0-0.1,0-0.1,0c-0.1-0.1-0.2-0.1-0.3-0.2c-0.1,0-0.1-0.1-0.1-0.1
			c-0.1,0-0.1-0.1-0.2-0.1c0,0-0.1,0-0.1-0.1c-0.1,0-0.1,0-0.1,0C33.4,32.8,33.6,32.8,33.8,32.8z"/>
		<path class="st19" d="M29.6,36.7c0,0,0.1-0.1,0.1-0.1c0,0,0.1-0.1,0.1-0.1c0,0,0.1,0,0.1-0.1c0,0,0,0,0,0c0,0,0,0,0,0c0,0,0,0,0,0
			c0,0,0,0,0,0c0,0,0,0,0,0c0,0,0,0,0.1,0c0,0,0,0,0,0c0,0,0,0,0,0c0,0,0.1,0,0.1-0.1c0,0,0.1,0.1,0.1,0.1c0.1,0,0.1,0,0.2,0.1
			c0,0,0,0,0,0c0.1,0,0.1,0.1,0.2,0.1c0.1,0,0.1,0.1,0.2,0c0,0,0,0,0,0c0.1,0.1,0.2,0.1,0.3,0.1c0,0,0,0,0,0c0,0,0,0,0,0
			c0.1,0,0.1,0,0.1,0.1c0.1,0,0.2,0.1,0.3,0.2c0,0,0,0,0,0c0.1,0,0.1,0,0.2,0.1c0,0,0,0,0,0c0,0,0,0,0.1,0c0,0,0,0,0,0
			c0.1,0,0.2,0.1,0.2,0.1c0.1,0.1,0.1,0.1,0.2,0.1c0,0,0.1,0,0.1,0c0,0,0,0,0,0c0,0,0,0,0.1,0c0,0,0.1,0.1,0.1,0.1
			c0,0,0.1,0,0.1,0.1c0,0,0,0,0.1,0c0.1,0,0.1,0,0.2,0c0,0,0.1,0,0,0.1c-0.1,0-0.2,0-0.3,0c-0.2,0-0.5,0-0.7,0c0,0,0,0,0,0
			c-0.1,0-0.1,0-0.2,0c-0.1,0-0.2,0-0.2-0.1c0,0,0-0.1-0.1,0c0,0-0.1,0-0.1,0c0,0,0,0,0,0c-0.1,0-0.2-0.1-0.3-0.1c0,0,0,0,0,0
			c-0.1,0-0.2-0.1-0.2-0.1c0,0,0,0,0,0c0,0-0.1,0-0.1,0c0-0.1-0.1-0.1-0.1-0.1c-0.1-0.1-0.1-0.1-0.2-0.1c0,0,0,0,0,0c0,0,0,0,0,0.1
			c0,0,0,0,0,0c-0.1-0.1,0-0.1-0.2-0.1c0-0.1-0.1-0.1-0.2-0.1c0,0-0.1,0-0.1,0c0,0-0.1-0.1-0.1,0C29.8,36.7,29.7,36.7,29.6,36.7
			C29.7,36.7,29.6,36.7,29.6,36.7z M29.8,36.7C29.8,36.7,29.8,36.7,29.8,36.7C29.8,36.7,29.8,36.7,29.8,36.7
			C29.8,36.7,29.8,36.7,29.8,36.7C29.8,36.7,29.8,36.7,29.8,36.7z"/>
		<path class="st20" d="M35.1,31.8C35.1,31.7,35.1,31.7,35.1,31.8c-0.1-0.1-0.2-0.1-0.3-0.1c0,0-0.1,0-0.1-0.1
			c-0.1-0.1-0.2-0.1-0.3-0.1c-0.1,0-0.1,0-0.2-0.1c0,0-0.1-0.1-0.1-0.1c-0.1,0-0.1-0.1-0.2-0.1c0,0-0.1,0-0.1,0c0,0-0.1,0-0.1,0
			c0,0-0.1,0-0.1-0.1c0,0,0,0,0,0c-0.1,0-0.1,0-0.1-0.1c0,0,0,0,0,0c0,0-0.1,0-0.1,0c-0.1,0-0.1,0-0.1-0.1c0,0,0,0,0,0
			c0,0-0.1,0-0.1,0c0,0,0,0,0,0c0-0.1-0.1-0.1-0.2-0.2c0,0,0,0,0,0c-0.1,0.1-0.2-0.1-0.3-0.1c0,0,0,0-0.1,0c0,0-0.1,0-0.1,0
			c-0.1-0.1-0.1-0.1-0.2-0.2c0-0.1-0.1,0-0.1,0c0,0,0,0,0,0.1c0-0.1-0.1-0.1-0.2-0.2c0,0,0,0-0.1,0c0,0-0.1,0-0.1,0
			c-0.1,0-0.1,0-0.2,0c0,0,0,0,0,0c0,0,0.1,0,0.1,0c0,0,0,0,0,0c-0.1,0-0.1,0-0.2-0.1c0,0,0,0-0.1,0c0,0-0.1,0-0.1-0.1
			c0.1,0,0.1,0,0.1,0c0,0,0,0,0.1,0c0,0,0,0,0.1,0c0,0,0.1,0,0.2,0c0.2,0,0.4,0,0.6,0c0,0,0,0,0,0c-0.1,0-0.2,0-0.3,0
			c0,0.1,0,0.1,0.1,0.1c0,0,0,0,0.1,0c0,0,0.1,0,0.1,0c0,0,0,0,0.1,0c0.1,0,0.1,0.1,0.2,0.1c0,0,0.1,0.1,0.2,0.1
			c0.1,0,0.2,0.1,0.3,0.2c0,0,0.1,0,0.1,0c0.1,0,0.2,0.1,0.3,0.1c0.1,0,0.2,0.1,0.2,0.1c0.1,0.1,0.2,0.1,0.4,0.2c0,0,0,0,0,0
			c0,0.1,0,0.1,0.1,0.1c0,0,0.1,0,0.1,0c0,0,0.1,0,0.1,0.1c0,0,0,0.1,0.1,0.1c0.1,0,0.1,0,0.1,0.1c0,0,0.1,0,0.1,0.1c0,0,0,0,0.1,0
			c0,0,0.1,0,0.1,0c0,0,0.1,0,0.1,0.1c0.1,0,0.1,0,0.2,0.1c0,0,0,0,0,0c0.1,0.1,0.2,0.1,0.3,0.1c0.1,0,0.2,0,0.2,0.1c0,0,0,0,0,0
			c0.1,0,0.1,0,0.2,0.1c0,0,0,0,0,0c0,0,0,0,0,0c0,0,0,0-0.1,0c0.1,0,0.1,0,0.1,0c0,0-0.1,0-0.1,0c0,0-0.2,0-0.2,0
			C35.3,31.8,35.2,31.8,35.1,31.8z"/>
		<path class="st21" d="M38.6,30.4C38.5,30.4,38.5,30.4,38.6,30.4C38.5,30.5,38.5,30.5,38.6,30.4c-0.1,0.1-0.1,0.1-0.1,0.1
			c0,0,0,0,0,0c0,0-0.1,0.1-0.1,0.1c0,0,0,0,0,0c0,0,0,0,0,0c0,0,0,0,0,0c0,0,0,0,0,0c0,0-0.1,0-0.1,0c-0.1,0-0.1,0.1-0.1,0
			c0-0.1-0.1-0.1-0.2-0.1c0,0,0,0,0,0c0,0,0-0.1-0.1-0.1c0,0-0.1,0-0.1-0.1c0,0,0,0-0.1,0c-0.1,0-0.1,0-0.2,0c0,0,0-0.1,0-0.1
			c0,0-0.1,0-0.1,0c-0.1,0-0.1,0-0.1,0c0-0.1,0-0.1-0.1-0.1c0,0,0,0-0.1,0c0,0-0.1,0-0.1-0.1c0,0,0,0-0.1,0c-0.1,0-0.1,0-0.1-0.1
			c0,0,0,0,0,0c-0.1,0-0.1,0-0.2-0.1c-0.1-0.1-0.1-0.1-0.2-0.1c0,0,0,0,0,0c0,0,0,0,0.1,0c0.2,0,0.4,0,0.6,0c0,0,0,0,0.1,0
			c0.4,0,0.7,0,1.1,0c0.2,0,0.4,0,0.6,0c0,0,0.1,0,0.1,0c0,0,0.1,0,0.1,0.1c0,0,0,0,0,0c0,0.1,0,0.1-0.1,0.2c0,0,0,0.1-0.1,0.1
			c0,0,0,0,0,0c0,0-0.1,0-0.1,0c0,0,0,0,0,0.1C38.6,30.3,38.6,30.3,38.6,30.4C38.6,30.4,38.6,30.4,38.6,30.4
			C38.5,30.4,38.6,30.4,38.6,30.4z"/>
		<path class="st22" d="M29.6,36.7C29.6,36.7,29.7,36.7,29.6,36.7c0.2,0,0.2,0,0.3,0.1c0,0,0.1,0,0.1,0c0,0,0,0,0.1,0
			c0.1,0,0.1,0.1,0.2,0.1c0.1,0,0.1,0,0.2,0.1c0,0,0,0,0,0c0,0,0,0,0-0.1c0,0,0,0,0,0c0.1,0,0.1,0.1,0.2,0.1c0.1,0,0.1,0,0.1,0.1
			c0,0,0,0.1,0.1,0c0,0,0,0,0,0c0.1,0,0.2,0.1,0.2,0.1c0,0,0,0,0,0c0.1,0,0.2,0.1,0.3,0.1c0,0,0,0,0,0c0,0.1,0,0.1,0.1,0
			c0,0,0.1,0,0.1,0c0.1,0.1,0.1,0.1,0.2,0.1c0.1,0,0.1,0,0.2,0c0,0,0,0,0,0c0,0-0.1,0-0.1,0c0,0,0,0,0,0c0,0,0,0,0,0
			c-0.5,0-1,0-1.6,0c0,0,0,0,0.1,0c0.1,0,0.1,0,0.2,0c0,0,0,0,0,0c0,0-0.1,0-0.1,0c-0.1,0-0.1-0.1-0.2-0.1c-0.1,0-0.1-0.1-0.2-0.1
			c-0.1,0-0.1-0.1-0.2-0.1c0,0-0.1,0-0.1,0c0,0-0.1-0.1-0.2-0.1c0,0,0,0-0.1,0c0,0-0.1,0-0.1-0.1c0,0-0.1,0-0.1-0.1
			c0-0.1-0.1-0.1-0.1,0c0,0,0,0-0.1,0c0.1-0.1,0.2-0.2,0.2-0.2c0,0,0,0,0,0c0,0,0,0,0,0c0,0,0,0,0,0c0,0,0,0,0,0c0,0,0.1,0,0.1-0.1
			c0,0,0,0,0,0C29.5,36.8,29.6,36.7,29.6,36.7L29.6,36.7z"/>
		<path class="st23" d="M32.7,37.8c0.1,0,0.2,0,0.3,0c0.3,0,0.6,0,0.8,0c0,0,0.1,0,0.1,0c0,0,0,0,0.1,0c0.1,0,0.2,0,0.3,0
			c0.1,0,0.1,0,0.2,0c0.4,0,0.8,0,1.2,0c0.3,0,0.6,0,0.9,0c0.2,0,0.4,0,0.6,0c0.1,0,0.1,0,0.2-0.1c0,0,0,0,0,0
			c-0.1-0.1-0.2-0.1-0.4-0.2c0,0-0.1,0-0.1,0c0-0.1-0.1-0.1-0.2-0.1c-0.1,0-0.1,0-0.2-0.1c0,0,0,0,0,0c-0.1,0-0.2-0.1-0.3-0.1
			c0,0,0,0-0.1-0.1c-0.1-0.1-0.1-0.1-0.2-0.1c-0.1,0-0.2-0.1-0.2-0.1c0,0,0,0,0,0c-0.1,0-0.2,0-0.2-0.1c0,0,0,0-0.1,0
			c0,0-0.1,0-0.1-0.1c-0.1,0-0.1-0.1-0.2-0.1c0,0,0,0,0,0c0,0-0.1,0-0.1,0c0,0-0.1,0-0.1-0.1c0,0-0.1-0.1-0.1-0.1c0,0-0.1,0-0.1,0
			c-0.1,0-0.1,0-0.2-0.1c-0.1-0.1-0.2-0.1-0.2-0.1c-0.1,0-0.1-0.1-0.1-0.1c0-0.1-0.1-0.1-0.2-0.1c0,0-0.1,0-0.1,0
			c0-0.1-0.1-0.1-0.1-0.1c-0.1,0-0.3,0-0.4,0c0,0,0,0,0,0c-0.1,0-0.2,0-0.3,0c-0.2,0-0.4,0-0.7,0c0,0,0,0-0.1,0c0.5,0,1,0,1.4,0
			c0.2,0,0.3,0,0.5,0c0,0,0,0,0,0c0.1,0,0.1,0,0.2,0c0.1,0,0.1,0,0.2,0.1c0.1,0,0.1,0.1,0.2,0.1c0.1,0,0.1,0.1,0.2,0.1
			c0.1,0.1,0.2,0.1,0.3,0.2c0,0,0,0,0.1,0c0.1,0,0.1,0,0.1,0c0,0,0.1,0,0.1,0.1c0,0,0,0,0.1,0c0.1,0,0.2,0.1,0.3,0.1
			c0,0,0.1,0,0.1,0.1c0,0,0,0,0.1,0.1c0.1,0,0.1,0.1,0.2,0.1c0.1,0,0.1,0.1,0.2,0.1c0.1,0,0.2,0,0.2,0.1c0,0,0.1,0.1,0.1,0.1
			c0.1,0,0.1,0.1,0.2,0.1c0,0,0.1,0,0.1,0c0.1,0,0.1,0,0.1,0.1c0,0,0,0,0.1,0c0.1,0,0.1,0.1,0.2,0.1c0.1,0,0.1,0,0.1,0.1
			c0,0,0,0,0,0c0,0-0.1,0-0.1,0.1c0,0,0,0,0,0c0,0-0.1,0-0.1,0.1c0,0,0,0,0,0c0,0-0.1,0-0.1,0.1c-0.1,0.1-0.2,0.1-0.3,0.1
			c-1.3,0-2.7,0-4,0C32.9,37.9,32.8,37.9,32.7,37.8C32.7,37.8,32.7,37.8,32.7,37.8z"/>
		<path class="st24" d="M31.8,34.8c0.3,0,0.6,0,1,0c0,0,0,0,0,0c0,0-0.1,0-0.1,0c0,0-0.1,0-0.1,0c-0.1,0-0.1,0-0.1-0.1
			c0,0,0,0,0-0.1c-0.1,0.1-0.1,0-0.2,0c-0.1,0-0.1-0.1-0.2-0.1c-0.1-0.1-0.1-0.1-0.2-0.1c0,0-0.1,0-0.1,0c0,0,0,0,0,0c0,0,0,0,0,0
			c0,0,0,0,0,0c-0.1,0-0.1,0-0.2-0.1c-0.1-0.1-0.2-0.1-0.3-0.1c-0.1,0-0.1,0-0.1-0.1c-0.1,0-0.1-0.1-0.2-0.1c0,0,0,0,0,0
			c-0.1,0-0.1,0-0.2-0.1c0,0-0.1,0-0.1,0c0,0-0.1,0-0.1,0c0,0-0.1,0-0.1-0.1c0,0-0.1,0-0.1-0.1c0,0-0.1,0-0.1,0c0,0-0.1,0-0.1,0
			c0,0-0.1,0-0.1-0.1c-0.1,0-0.1-0.1-0.2-0.1c0,0,0,0,0,0c0,0-0.1,0-0.1-0.1c0,0,0,0,0,0c0,0,0,0,0,0c-0.1,0-0.1,0-0.2-0.1
			c0,0,0-0.1-0.1,0c0,0-0.1,0-0.1,0c0,0-0.1-0.1-0.1-0.1c0,0-0.1,0-0.1-0.1c0,0,0,0,0,0c-0.1,0-0.1,0-0.1-0.1c0,0-0.1,0-0.1,0
			c-0.1,0-0.1,0-0.1-0.1c0.2,0,0.4,0,0.6,0c0,0.1,0,0.1,0.1,0.1c0.1,0,0.2,0.1,0.3,0.1c0.1,0,0.1,0.1,0.2,0.1c0.1,0,0.1,0,0.2,0.1
			c0,0.1,0.1,0.1,0.2,0.1c0.1,0,0.1,0,0.2,0.1c0,0,0.1,0.1,0.1,0.1c0,0,0.1,0,0.1,0c0.1,0.1,0.2,0.1,0.4,0.2c0.1,0,0.2,0.1,0.3,0.2
			c0,0,0,0,0,0c0.1,0,0.1,0,0.2,0.1c0,0,0,0,0.1,0c0,0,0.1,0,0.1,0c0,0,0.1,0,0.1,0.1c0,0,0.1,0,0.1,0.1c0,0,0.1,0,0.1,0.1
			c0.1,0,0.1,0,0.2,0.1c0.1,0,0.2,0.1,0.2,0.1c0,0,0.1,0,0.1,0c0,0,0,0,0,0c0.1,0.1,0.3,0.1,0.4,0.2c0,0,0,0-0.1,0.1
			c0.2,0,0.4,0,0.6,0c0,0,0,0,0,0c-0.4,0-0.8,0-1.2,0c-0.3,0-0.6,0-0.9,0C31.7,34.8,31.8,34.8,31.8,34.8z M29.3,32.9
			C29.3,32.9,29.3,32.9,29.3,32.9C29.3,32.9,29.3,32.9,29.3,32.9C29.3,32.9,29.2,32.9,29.3,32.9C29.3,32.9,29.3,32.9,29.3,32.9z"/>
		<path class="st25" d="M33.8,34.8c-0.2,0-0.4,0-0.6,0c0,0,0-0.1,0.1-0.1c-0.1-0.1-0.3-0.2-0.4-0.2c0,0,0,0,0,0c0,0-0.1,0-0.1,0
			c-0.1-0.1-0.1-0.1-0.2-0.1c-0.1,0-0.1,0-0.2-0.1c0,0-0.1,0-0.1-0.1c0,0-0.1,0-0.1-0.1c0,0-0.1,0-0.1-0.1c0,0-0.1,0-0.1,0
			c0,0,0,0-0.1,0c0-0.1-0.1-0.1-0.2-0.1c0,0,0,0,0,0c-0.1-0.1-0.2-0.2-0.3-0.2c-0.1,0-0.2-0.1-0.4-0.2c0,0-0.1,0-0.1,0
			c0,0-0.1-0.1-0.1-0.1c-0.1,0-0.1,0-0.2-0.1c-0.1,0-0.2-0.1-0.2-0.1c0-0.1-0.1-0.1-0.2-0.1C30.1,33.1,30,33,30,33
			c-0.1,0-0.2-0.1-0.3-0.1c-0.1,0-0.1-0.1-0.1-0.1c0.1,0,0.3,0,0.4,0c0,0,0,0,0.1,0c0.1,0,0.1,0,0.2,0c0,0,0.1,0,0.2,0.1
			c0,0,0.1,0,0.1,0c0,0.1,0.1,0.1,0.2,0.1c0,0,0,0,0.1,0c0,0,0,0,0.1,0.1c0.1,0,0.1,0,0.2,0.1c0,0,0,0,0.1,0c0,0,0.1,0,0.1,0.1
			c0,0,0,0,0,0c0.1,0,0.2,0.1,0.3,0.1c0,0,0,0,0.1,0c0,0,0,0,0,0c0.1,0,0.1,0.1,0.2,0.1c0,0,0,0,0,0c0.1,0,0.1,0,0.1,0
			c0,0.1,0.1,0.1,0.2,0.1c0,0,0,0,0,0c0,0,0.1,0.1,0.1,0c0,0,0.1,0.1,0.1,0.1c0,0,0,0,0,0c0.1,0,0.2,0.1,0.3,0.1c0,0,0,0,0,0
			c0.1,0.1,0.2,0.1,0.3,0.2c0,0,0,0,0,0c0,0,0.1,0,0.1,0.1c0,0,0,0,0,0c0.1,0,0.2,0.1,0.3,0.1c0,0,0.1,0.1,0.1,0.1
			c0.1,0,0.1,0.1,0.2,0.1c0.1,0,0.1,0,0.1,0.1C33.8,34.8,33.8,34.8,33.8,34.8z"/>
		<path class="st8" d="M38.6,34.1c0,0.1,0,0.1,0.1,0.1c0.1,0.1,0.1,0.1,0.2,0.2c0,0,0,0,0,0c0,0,0,0-0.1,0c0,0,0,0,0,0
			c0,0,0,0,0-0.1c0,0,0.1,0.1,0.1,0.1c0,0-0.1,0-0.1,0c0,0-0.1,0-0.1-0.1c0,0,0,0-0.1,0c0,0-0.1,0-0.1,0c0,0-0.1-0.1-0.1-0.1
			c0,0,0,0,0,0c0,0,0-0.1-0.1-0.1c0,0-0.1,0-0.1,0c0,0,0,0-0.1,0c0,0,0,0-0.1,0c0,0-0.1,0-0.1,0c0,0-0.1,0-0.1-0.1c0,0-0.1,0-0.1,0
			c-0.1,0-0.1,0-0.1-0.1c0,0-0.1-0.1-0.1-0.1c0,0-0.1,0-0.1,0c0-0.1-0.1-0.1-0.1-0.1c-0.1,0-0.2-0.1-0.2-0.1
			c-0.1-0.1-0.2-0.1-0.3-0.2c0,0-0.1,0-0.1-0.1c0,0-0.1-0.1-0.1-0.1c0,0-0.1,0-0.1,0c0,0-0.1,0-0.1,0c0,0-0.1-0.1-0.2-0.1
			c0,0-0.1,0-0.1-0.1c0,0-0.1,0-0.1-0.1c-0.1,0-0.1-0.1-0.2-0.1c0,0,0,0,0-0.1c0-0.1-0.1-0.1-0.1-0.1c0,0-0.1,0-0.1,0c0,0,0,0,0,0
			c0,0,0,0,0,0c0,0,0.1,0,0.1,0c0.1,0,0.1,0,0.1-0.1c0.2,0,0.4,0,0.7,0c0,0,0,0.1,0,0.1c0,0,0,0,0,0c0.1,0,0.1,0,0.2,0
			c0,0,0,0,0.1,0c0,0,0,0,0.1,0c0,0,0.1,0,0,0.1c0,0,0,0,0,0c0.1,0,0.1,0,0.1,0c0,0,0,0.1,0.1,0.1c0.1,0,0.1,0,0.1,0c0,0,0,0,0,0
			c0,0.1,0,0.1,0.1,0.1c0,0,0,0,0.1,0c0,0,0,0,0.1,0c0,0,0.1,0,0.1,0c0,0.1,0.1,0.1,0.1,0.1c0,0,0,0,0.1,0c0,0,0.1,0,0.1,0
			c0,0,0,0.1,0.1,0.1c0,0,0,0,0.1,0c0,0,0,0,0-0.1c0,0,0,0,0,0.1c0,0.1,0,0.1,0.1,0.1c0.1,0,0.2,0.1,0.2,0.1c0,0,0.1,0,0.1,0
			c0,0,0-0.1,0-0.1c0.1,0.1,0.1,0.1,0.2,0.2c0,0,0,0.1,0.1,0l0,0c0,0,0,0,0,0c0,0,0,0.1,0.1,0.1l0,0c0,0,0,0,0,0c0,0,0,0.1,0.1,0.1
			l0,0c0,0,0,0,0,0C38.4,34.1,38.5,34.1,38.6,34.1L38.6,34.1C38.5,34.1,38.5,34.1,38.6,34.1C38.5,34.1,38.5,34.2,38.6,34.1
			L38.6,34.1z"/>
		<path class="st12" d="M29.6,30.6c0.1-0.1,0.3-0.3,0.4-0.4c0,0,0,0,0,0c0,0,0,0.1,0,0.1c0,0,0,0,0,0c0,0,0,0,0,0c0,0,0,0,0,0
			c0,0,0,0,0.1,0c0,0,0,0,0,0c0,0,0.1,0.1,0.1,0.1c0.1,0,0.1,0.1,0.2,0.1c0.1,0,0.1,0.1,0.2,0.1c0.1,0,0.2,0.1,0.3,0.1
			c0.1,0,0.1,0,0.2,0.1c0,0,0,0,0,0c0,0,0.1,0,0.1,0c0,0,0.1,0,0.1,0.1c0,0,0,0,0.1,0.1c0.1,0.1,0.2,0.1,0.3,0.2
			c0.1,0.1,0.2,0.1,0.4,0.2c0.1,0,0.2,0.1,0.2,0.1c0.1,0.1,0.2,0.1,0.3,0.2c0.1,0.1,0.2,0.1,0.3,0.1c0,0,0,0,0,0c0.1,0,0.2,0,0.2,0
			c0,0,0,0,0,0c-0.1,0-0.2,0-0.3,0c0,0-0.1,0-0.1,0c0,0-0.1,0-0.1,0c0,0,0,0-0.1,0c0,0,0,0,0,0c0,0,0,0-0.1,0c-0.1,0-0.2,0-0.3,0
			c0,0,0,0,0-0.1c-0.1,0-0.1-0.1-0.2-0.1c-0.1,0-0.2-0.1-0.3-0.1c0,0,0,0-0.1,0c-0.1,0-0.2-0.1-0.3-0.1c0,0,0,0,0,0
			c-0.1-0.1-0.1-0.1-0.2-0.1c-0.1-0.1-0.2-0.1-0.3-0.2c0,0,0,0,0,0c-0.1,0-0.2-0.1-0.3-0.1c-0.1-0.1-0.2-0.1-0.3-0.2
			c-0.1,0-0.1-0.1-0.1-0.1c0,0,0,0,0,0C29.7,30.6,29.6,30.6,29.6,30.6z"/>
		<path class="st11" d="M37.5,37.6C37.4,37.5,37.4,37.5,37.5,37.6c-0.2-0.1-0.2-0.1-0.3-0.2c0,0,0,0-0.1,0c0-0.1-0.1-0.1-0.1-0.1
			c0,0-0.1,0-0.1,0c-0.1,0-0.1-0.1-0.2-0.1c0,0-0.1-0.1-0.1-0.1C36.5,37,36.4,37,36.3,37c-0.1,0-0.1-0.1-0.2-0.1
			c-0.1,0-0.1-0.1-0.2-0.1c0,0,0,0-0.1-0.1c0,0-0.1,0-0.1-0.1c-0.1,0-0.2-0.1-0.3-0.1c0,0-0.1,0-0.1,0c0,0-0.1,0-0.1-0.1
			c0,0-0.1-0.1-0.1,0c0,0,0,0-0.1,0c-0.1-0.1-0.2-0.1-0.3-0.2c-0.1,0-0.1-0.1-0.2-0.1c-0.1,0-0.1-0.1-0.2-0.1c-0.1,0-0.1,0-0.2-0.1
			c-0.1,0-0.1-0.1-0.2,0c0,0,0,0,0,0c0.2,0,0.4,0,0.5,0c0,0,0,0,0.1,0c0.1,0,0.2,0,0.2,0c0,0,0,0,0.1,0c0.1,0.1,0.1,0.1,0.2,0
			c0,0,0,0,0,0.1c0,0,0,0,0,0c0,0,0.1,0,0.1,0c0,0,0,0.1,0.1,0.1c0,0,0,0,0,0c0.1,0.1,0.1,0,0.2,0c0,0,0,0,0,0c0,0,0.1,0,0.1,0
			c0,0,0,0,0,0.1c0,0,0,0,0,0c0,0,0,0,0.1,0c0,0.1,0,0.1,0.1,0.1c0.1,0,0.1,0,0.1,0.1c0,0,0,0,0.1,0c0,0,0,0,0-0.1
			c0,0,0.1,0.1,0.1,0.1c0,0,0,0,0.1,0c0,0,0.1,0,0.1,0.1c0,0,0,0.1,0,0.1c0,0,0.1,0,0.1,0c0,0,0,0,0,0c0,0,0,0-0.1,0c0,0,0,0,0,0
			c0,0,0.1,0,0.1,0c0,0,0,0,0,0.1c0,0,0.1,0,0.1,0c0,0,0,0,0,0.1c0,0,0.1,0,0.1,0c0,0.1,0,0.1,0.1,0.1c0,0,0.1,0,0.1,0
			C36.9,37,37,37,37.1,37c0,0,0,0,0.1,0c0,0.1,0.1,0.1,0.1,0.1c0.1,0,0.1,0,0.1,0c0,0,0,0,0,0c0,0,0,0,0.1,0c0,0,0,0.1,0,0.1
			c0,0,0.1,0,0.1,0c0,0.1,0,0.1,0.1,0.1c0,0,0.1,0,0.1,0.1c0,0,0,0.1,0,0.1C37.6,37.4,37.5,37.5,37.5,37.6z"/>
		<path class="st15" d="M32.9,31.8c-0.1,0-0.1-0.1-0.2,0c0,0,0,0,0,0c-0.1,0-0.2-0.1-0.3-0.1c-0.1-0.1-0.2-0.1-0.3-0.2
			c-0.1-0.1-0.1-0.1-0.2-0.1c-0.1-0.1-0.2-0.1-0.4-0.2c-0.1-0.1-0.2-0.1-0.3-0.2c0,0,0,0-0.1-0.1c0,0-0.1,0-0.1-0.1c0,0-0.1,0-0.1,0
			c0,0,0,0,0,0c-0.1,0-0.1,0-0.2-0.1c-0.1,0-0.2-0.1-0.3-0.1c-0.1,0-0.1-0.1-0.2-0.1c-0.1,0-0.1-0.1-0.2-0.1c0,0-0.1-0.1-0.1-0.1v0
			c0,0,0-0.1,0-0.1c0,0,0,0,0,0c0,0,0,0,0,0c0,0,0,0,0,0c0.1-0.1,0.1-0.1,0.2-0.2c0,0,0,0,0,0c0,0.1,0,0.1,0,0.1c0,0,0,0,0,0
			c0,0.1,0.1,0.1,0.1,0c0,0,0,0,0.1,0c0,0,0.1,0.1,0.1,0.1c0,0,0.1,0.1,0.2,0.1c0,0,0.1,0.1,0.1,0c0,0,0,0,0,0c0,0,0,0,0,0
			c0,0,0,0.1,0,0.1c0,0,0.1,0,0.1,0.1c0,0,0,0,0,0c0.1,0,0.1,0,0.1,0.1c0,0,0,0,0.1,0c0.1,0,0.1,0,0.2,0.1c0,0,0,0,0,0
			c0.1,0,0.1,0,0.2,0c0,0,0,0.1,0,0.1c0,0,0.1,0,0.1,0c0,0,0,0,0,0.1c0.1,0,0.1,0,0.2,0c0,0,0,0.1,0,0.1c0.1-0.1,0.1,0,0.2,0
			c0,0,0.1,0,0.1,0c0,0.1,0.1,0.1,0.2,0.1c0,0,0.1,0,0.1,0c0,0.1,0.1,0.1,0.2,0.1c0.1,0,0.1,0,0.1,0.1c0,0,0,0,0,0
			c0.1,0.1,0.2,0.1,0.3,0.1c0,0,0,0,0,0c0.1,0,0.1,0,0.2,0c0,0.1,0,0.1,0.1,0.1c0,0,0,0,0,0c0,0.1,0.1,0.1,0.1,0.1
			c-0.1,0-0.3,0-0.4,0C33,31.8,33,31.8,32.9,31.8z"/>
		<path class="st26" d="M31.8,34.8c-0.1,0-0.1,0-0.2,0c0,0,0,0,0,0c0,0-0.1,0-0.1,0c0,0,0,0,0,0c-0.3,0-0.5,0-0.8,0c0,0,0,0-0.1,0
			c-0.2,0-0.3,0-0.4-0.1c-0.3-0.3-0.5-0.5-0.8-0.8c-0.1-0.1-0.1-0.1-0.2-0.2c0,0,0,0,0,0c0,0,0,0,0,0c0,0,0,0,0,0c0,0,0,0,0,0
			c0,0,0,0,0,0c0,0,0,0,0,0c0,0,0,0,0,0c0,0,0,0,0,0c0,0,0,0,0,0c0,0,0,0,0,0c0,0,0-0.1,0-0.1c0,0-0.1,0-0.1,0c0,0,0,0,0,0
			c0,0,0,0,0,0c0,0,0,0,0,0c0,0,0-0.1,0.1-0.1c0,0,0,0,0,0c0,0,0,0.1,0.1,0.1c0.1,0,0.1,0.1,0.2,0.1c0,0,0,0,0.1,0c0,0,0,0,0,0
			c0,0,0.1,0,0.1,0c0.1,0,0.2,0.1,0.2,0.1c0,0,0,0,0.1,0c0.1,0,0.1,0.1,0.2,0.1c0,0,0.1,0,0.2,0.1c0,0,0,0,0,0
			c0,0.1,0.1,0.1,0.2,0.1c0.1,0,0.1,0.1,0.2,0.1c0.1,0,0.2,0.1,0.3,0.1c0,0,0,0,0,0c0,0.1,0.1,0.1,0.2,0.1c0.1,0,0.1,0,0.2,0.1
			c0,0,0,0,0,0c0,0.1,0.1,0.1,0.1,0.1c0,0,0.1,0.1,0.1,0.1c0,0,0,0,0.1,0C31.7,34.7,31.7,34.7,31.8,34.8
			C31.8,34.7,31.8,34.8,31.8,34.8z"/>
		<path class="st27" d="M34.9,29.8c0,0,0.1,0,0.1,0c0,0,0,0,0,0c0.3,0,0.7,0,1,0c0,0,0,0-0.1,0c-0.1,0-0.3,0-0.4,0c0,0,0,0-0.1,0
			c0,0.1,0.1,0.1,0.1,0.1c0,0,0,0,0.1,0c0,0,0.1,0.1,0.1,0.1c0,0,0.1,0,0.1,0.1c0,0,0.1,0.1,0.2,0.1c0,0,0,0,0,0
			c0.1,0,0.1,0.1,0.2,0.1c0.1,0,0.1,0,0.2,0.1c0.1,0,0.1,0.1,0.2,0.1c0.1,0,0.1,0.1,0.2,0.1c0.1,0,0.1,0.1,0.2,0.1
			c0.1,0,0.2,0.1,0.2,0.1c0.1,0.1,0.2,0.1,0.3,0.1c0,0,0,0,0,0c0,0.1,0,0,0.1,0c0,0,0.1,0,0.1,0c0,0,0,0,0,0.1l0,0c0,0,0,0,0,0
			c-0.1,0-0.1,0-0.1,0.1c0,0,0,0,0,0c0,0-0.1,0-0.1,0.1c0,0,0,0,0,0c0,0-0.1,0,0,0c0,0,0,0,0,0c0,0,0,0,0,0c0,0,0,0,0,0c0,0,0,0,0,0
			c0,0,0,0,0,0c0,0,0,0-0.1-0.1c0,0,0,0-0.1,0.1c0,0,0-0.1,0-0.1c-0.1,0-0.1,0-0.2-0.1c0,0-0.1,0-0.2-0.1C37.1,31,37,31,37,30.9
			c0,0,0,0-0.1,0c-0.1,0-0.1-0.1-0.2-0.1c0,0,0,0,0,0c-0.1,0-0.1,0-0.2-0.1c0,0,0,0,0,0c-0.1,0-0.2-0.1-0.3-0.1c0,0-0.1-0.1-0.1-0.1
			c0,0,0,0-0.1,0c0,0,0,0-0.1,0c-0.1,0-0.2-0.1-0.2-0.1c-0.1-0.1-0.2-0.1-0.3-0.2c-0.1,0-0.1,0-0.2-0.1c0,0,0,0,0,0
			c0,0-0.1,0-0.1-0.1c0,0-0.1,0-0.1-0.1C34.9,29.9,34.9,29.9,34.9,29.8z"/>
		<path class="st28" d="M37.9,31C37.9,31,37.9,31,37.9,31c-0.1,0-0.1,0-0.1,0c0,0,0,0,0,0c-0.1,0-0.2-0.1-0.3-0.1
			c-0.1-0.1-0.1-0.1-0.2-0.1c-0.1,0-0.1-0.1-0.2-0.1c-0.1,0-0.2-0.1-0.2-0.1c-0.1,0-0.1-0.1-0.2-0.1c-0.1,0-0.1,0-0.2-0.1
			c-0.1,0-0.1-0.1-0.2-0.1c0,0,0,0,0,0c-0.1,0-0.1,0-0.2-0.1c0,0-0.1,0-0.1-0.1c-0.1,0-0.1-0.1-0.1-0.1c0,0,0,0-0.1,0
			c-0.1,0-0.1,0-0.1-0.1c0,0,0,0,0.1,0c0.1,0,0.3,0,0.4,0c0,0,0,0,0.1,0c0.3,0,0.7,0,1,0c0,0,0,0-0.1,0c-0.2,0-0.4,0-0.6,0
			c0,0,0,0-0.1,0c0,0,0,0,0,0c0.1,0,0.2,0,0.2,0.1c0,0.1,0.1,0.1,0.2,0.1c0,0,0,0,0,0c0,0.1,0.1,0.1,0.1,0.1c0,0,0,0,0.1,0
			c0,0,0,0.1,0.1,0.1c0,0,0,0,0.1,0c0.1,0,0.1,0,0.1,0.1c0,0.1,0,0.1,0.1,0c0,0,0,0,0.1,0c0,0,0,0,0,0.1c0.1,0,0.1,0,0.2,0
			c0,0,0,0,0.1,0c0,0,0.1,0,0.1,0.1c0,0,0,0.1,0.1,0.1c0,0,0,0,0,0c0.1,0,0.1,0,0.2,0.1c0,0.1,0.1,0.1,0.1,0c0,0,0.1,0,0.1,0
			c0,0-0.1,0.1-0.1,0.1c0,0-0.1,0,0,0c0,0,0,0,0,0c0,0,0,0,0,0c0,0,0,0,0,0c0,0,0,0,0,0c0,0,0,0,0,0c0,0,0,0,0,0c0,0,0,0,0,0
			C38,30.9,38,30.9,37.9,31C38,30.9,38,30.9,37.9,31C38,31,38,31,37.9,31C38,31,38,31,37.9,31C38,31,38,31,37.9,31
			C38,31,37.9,31,37.9,31z"/>
		<path class="st5" d="M38.4,36.7c-0.1,0.1-0.2,0.2-0.3,0.3c0,0,0,0-0.1,0c0,0,0,0,0,0c0,0-0.1-0.1-0.1-0.1c-0.1,0-0.1,0-0.2-0.1
			c-0.1,0-0.1-0.1-0.2-0.1c-0.1,0-0.1-0.1-0.2-0.1c-0.1,0-0.1,0-0.2-0.1c0,0,0,0,0,0c0,0,0,0,0,0c-0.1-0.1-0.2-0.1-0.3-0.1
			c0,0,0,0-0.1-0.1c0-0.1-0.1-0.1-0.1-0.1c0,0-0.1,0-0.1,0c0,0-0.1-0.1-0.1-0.1c-0.1,0-0.1,0-0.1-0.1c0,0-0.1,0-0.1-0.1
			c-0.1,0-0.1,0-0.1-0.1c0,0-0.1,0-0.1,0c0,0-0.1,0-0.1,0c0,0,0,0,0,0c0.3,0,0.5,0,0.8,0c0,0,0.1,0,0.1,0c0.1,0,0.1,0,0.2,0
			c0.1,0,0.2,0.1,0.3,0.1c0,0,0,0,0.1,0c0,0,0.1,0.1,0.1,0.1c0.1,0,0.2,0.1,0.3,0.1c0,0,0.1,0,0.1,0.1c0,0,0.1,0.1,0.1,0.1
			c0.1,0,0.2,0.1,0.3,0.1C38.4,36.6,38.4,36.5,38.4,36.7z"/>
		<path class="st18" d="M29.6,30.6c0,0,0.1,0,0.1,0c0,0,0,0,0,0c0,0.1,0.1,0.1,0.1,0.1c0.1,0.1,0.2,0.1,0.3,0.2
			c0.1,0.1,0.2,0.1,0.3,0.1c0,0,0,0,0,0c0.1,0.1,0.2,0.1,0.3,0.2c0.1,0,0.1,0.1,0.2,0.1c0,0,0,0,0,0c0.1,0,0.2,0.1,0.3,0.1
			c0,0,0,0,0.1,0c0.1,0.1,0.2,0.1,0.3,0.1c0.1,0,0.1,0.1,0.2,0.1c0,0,0,0,0,0.1c-0.1,0-0.3,0-0.4,0c0,0,0,0-0.1,0
			c-0.1,0-0.3,0-0.4,0c0-0.1-0.1-0.1-0.1-0.1c0,0-0.1,0-0.1-0.1c0,0,0,0,0,0c-0.1,0-0.1,0-0.2-0.1c-0.1,0-0.1-0.1-0.2-0.1
			c0,0-0.1,0-0.1-0.1c0,0-0.1-0.1-0.1-0.1c0,0-0.1,0-0.1-0.1c-0.1-0.1-0.2-0.1-0.3-0.2c-0.1,0-0.1-0.1-0.2-0.1c0,0,0,0-0.1,0
			c0,0-0.1-0.1-0.1-0.1C29.4,30.7,29.5,30.6,29.6,30.6z"/>
		<path class="st9" d="M29.3,30.8c0,0,0.1,0.1,0.1,0.1c0,0,0,0,0.1,0c0.1,0,0.1,0.1,0.2,0.1c0.1,0.1,0.2,0.1,0.3,0.2
			c0,0,0.1,0,0.1,0.1c0,0,0.1,0.1,0.1,0.1c0,0,0.1,0,0.1,0.1c0.1,0,0.1,0.1,0.2,0.1c0.1,0,0.1,0.1,0.2,0.1c0,0,0,0,0,0
			c0,0,0,0,0.1,0.1c0.1,0,0.1,0,0.1,0.1c-0.3,0-0.6,0-1,0c-0.1,0-0.1,0-0.2,0c0,0,0,0,0,0c0,0-0.1,0-0.1-0.1c0,0,0,0-0.1,0
			c0,0-0.1,0-0.1-0.1c0,0-0.1-0.1-0.1-0.1c0,0-0.1,0-0.1,0c0,0-0.1-0.1-0.2-0.1c0,0,0,0,0,0c-0.1-0.1-0.2-0.1-0.3-0.2c0,0,0,0,0-0.1
			c0,0,0,0,0,0C29.1,31,29.2,30.9,29.3,30.8z"/>
		<path class="st29" d="M29.1,37.2C29.1,37.2,29.1,37.2,29.1,37.2c0.1-0.1,0.2-0.1,0.2,0c0,0,0.1,0,0.1,0.1c0,0,0.1,0,0.1,0.1
			c0,0,0,0,0.1,0c0.1,0,0.1,0,0.2,0.1c0,0,0.1,0,0.1,0c0.1,0,0.1,0,0.2,0.1c0.1,0.1,0.1,0.1,0.2,0.1c0.1,0,0.1,0.1,0.2,0.1
			c0,0,0.1,0,0.1,0c0,0,0,0,0,0c-0.1,0-0.1,0-0.2,0c0,0,0,0-0.1,0c-0.3,0-0.6,0-0.9,0c-0.2,0-0.4,0-0.6,0c0,0,0,0,0,0c0,0,0,0,0,0
			c0,0,0,0,0,0c0,0,0,0,0,0c0,0,0,0,0,0c0,0,0,0,0,0c0,0,0,0,0,0c0,0,0,0,0,0c0-0.1,0-0.1,0-0.2c0,0,0.1-0.1,0.1-0.1c0,0,0,0,0,0
			c0,0,0,0,0,0c0,0,0,0,0,0c0,0,0,0,0,0c0,0,0,0,0,0c0,0,0,0,0,0c0,0,0,0,0,0c0,0,0,0,0,0C29,37.3,29,37.3,29.1,37.2
			C29,37.2,29,37.2,29.1,37.2C29,37.2,29,37.2,29.1,37.2C29,37.2,29,37.2,29.1,37.2C29.1,37.2,29.1,37.2,29.1,37.2
			C29.1,37.2,29.1,37.2,29.1,37.2C29.1,37.2,29.1,37.2,29.1,37.2C29.1,37.2,29.1,37.2,29.1,37.2z"/>
		<path class="st25" d="M35.8,35.8C35.9,35.8,35.9,35.9,35.8,35.8c0.1,0,0.1,0,0.2,0c0,0,0.1,0,0.1,0c0,0,0.1,0.1,0.1,0.1
			c0,0,0.1,0,0.1,0.1c0,0,0.1,0.1,0.1,0.1c0,0,0.1,0,0.1,0.1c0,0,0.1,0.1,0.1,0c0,0,0.1,0,0.1,0.1c0,0,0,0,0.1,0.1
			c0.1,0,0.2,0.1,0.3,0.1c0,0,0,0,0,0c0,0,0,0,0,0c0,0.1,0.1,0.1,0.2,0.1c0.1,0,0.1,0.1,0.2,0.1c0.1,0,0.1,0.1,0.2,0.1
			c0.1,0,0.1,0,0.2,0.1c0,0,0.1,0,0.1,0.1c0,0,0,0,0,0c0,0,0,0,0.1,0c0,0,0,0,0,0c0,0-0.1,0-0.1,0.1c-0.1,0.1-0.1,0.1-0.2,0.2
			c0,0,0-0.1,0-0.1c-0.1,0-0.1,0-0.1,0c0,0,0,0,0,0c-0.1,0-0.2,0-0.2-0.1c-0.1-0.1-0.2-0.1-0.3-0.2c0,0-0.1,0-0.1,0
			c-0.1-0.1-0.2-0.1-0.3-0.2c0,0-0.1,0-0.1,0c0,0,0,0,0,0c-0.1-0.1-0.2-0.1-0.3-0.1c0,0,0,0-0.1,0c0,0-0.1-0.1-0.1-0.1
			c-0.1-0.1-0.2-0.1-0.3-0.2c0,0-0.1,0-0.1,0c-0.1,0-0.2-0.1-0.2-0.1c0,0,0,0,0,0c-0.1-0.1-0.1-0.1-0.2-0.1c0,0-0.1,0-0.1,0
			c0,0,0,0-0.1,0C35.4,35.8,35.6,35.8,35.8,35.8z"/>
		<path class="st24" d="M35.1,35.8C35.1,35.8,35.1,35.9,35.1,35.8c0.1,0,0.1,0,0.2,0c0.1,0,0.2,0,0.2,0.1c0,0,0,0,0,0
			c0.1,0,0.2,0.1,0.2,0.1c0,0,0.1,0,0.1,0c0.1,0.1,0.2,0.1,0.3,0.2c0,0,0.1,0.1,0.1,0.1c0,0,0,0,0.1,0c0.1,0,0.2,0,0.3,0.1
			c0,0,0,0,0,0c0,0,0.1,0,0.1,0c0.1,0.1,0.2,0.1,0.3,0.2c0,0,0.1,0,0.1,0c0.1,0.1,0.2,0.1,0.3,0.2c0.1,0.1,0.2,0.1,0.2,0.1
			c0,0,0,0,0,0c0,0.1,0.1,0.1,0.1,0c0,0,0,0,0,0.1c0,0,0,0,0,0c0,0-0.1,0-0.1,0.1c-0.1,0.1-0.1,0.1-0.2,0.2c0,0,0-0.1,0-0.1
			c0,0-0.1,0-0.1-0.1c-0.1,0-0.1,0-0.1-0.1c0,0-0.1,0-0.1,0c0,0,0-0.1,0-0.1c0,0,0,0-0.1,0c0,0,0,0,0,0c0,0,0-0.1-0.1,0
			c0,0-0.1-0.1-0.1-0.1c0,0,0,0-0.1,0c-0.1,0-0.1,0-0.2-0.1c0,0,0,0-0.1,0c-0.1,0-0.1,0-0.1-0.1c0,0-0.1,0-0.1,0c0,0,0,0,0-0.1
			c0,0-0.1,0-0.1,0c0,0,0,0,0-0.1c0,0-0.1,0-0.1,0c0,0,0,0,0,0c0,0,0,0,0.1,0c0,0,0,0,0,0c0,0-0.1,0-0.1,0c0,0,0,0,0-0.1
			c-0.1,0-0.1,0-0.1-0.1c0,0-0.1,0-0.1,0c0,0-0.1-0.1-0.1-0.1c0,0,0,0,0,0.1c0,0,0,0-0.1,0c0,0-0.1-0.1-0.1-0.1
			c-0.1,0-0.1,0-0.1-0.1c0,0,0,0-0.1,0c0,0,0,0,0,0c0,0,0,0,0-0.1c0,0,0,0-0.1,0c0,0,0,0,0,0c-0.1-0.1-0.2,0-0.2,0c0,0,0,0,0,0
			c0,0,0-0.1-0.1-0.1c0,0-0.1,0-0.1,0c0,0,0,0,0,0C35.1,36,35.1,36,35.1,35.8C35,36,35,36,34.9,35.9c0,0,0,0-0.1,0
			c-0.1,0-0.2,0-0.2,0c0,0,0,0-0.1,0C34.8,35.8,34.9,35.8,35.1,35.8z M36.8,36.8C36.8,36.8,36.8,36.8,36.8,36.8
			C36.8,36.8,36.8,36.8,36.8,36.8C36.8,36.8,36.8,36.8,36.8,36.8C36.8,36.9,36.8,36.8,36.8,36.8z M35,35.9C35,35.9,35,35.9,35,35.9
			C35,35.9,35,35.9,35,35.9C35,35.9,35,35.9,35,35.9C35,35.9,35,35.9,35,35.9z"/>
		<path class="st7" d="M38.4,36.7c0-0.1,0-0.1-0.1-0.1c-0.1,0-0.2-0.1-0.3-0.1c0,0-0.1-0.1-0.1-0.1c-0.1,0-0.1,0-0.1-0.1
			c-0.1-0.1-0.2-0.1-0.3-0.1c0,0-0.1-0.1-0.1-0.1c0,0,0,0-0.1,0c-0.1,0-0.2-0.1-0.3-0.1c-0.1,0-0.1,0-0.2,0c0,0-0.1,0-0.1,0
			c0.4,0,0.8,0,1.3,0c0,0,0,0,0,0c0.1,0,0.1,0.1,0.2,0.1c0.1,0,0.1,0.1,0.2,0.1c0.1,0,0.1,0.1,0.2,0.1c0.1,0,0.2,0.1,0.2,0.1
			c0,0,0,0,0,0C38.6,36.4,38.6,36.5,38.4,36.7C38.5,36.6,38.4,36.6,38.4,36.7z"/>
		<path class="st14" d="M38.1,33.7C38.1,33.8,38.1,33.8,38.1,33.7c-0.1,0.1-0.1,0.1-0.1,0c-0.1,0-0.1-0.1-0.2-0.1c0,0-0.1,0-0.1-0.1
			c0,0,0,0,0-0.1c0,0,0,0,0,0.1c0,0,0,0-0.1,0c0,0,0-0.1-0.1-0.1c0,0-0.1,0-0.1,0c0,0,0,0-0.1,0c0,0-0.1-0.1-0.1-0.1c0,0,0,0-0.1,0
			c0,0,0,0-0.1,0c0,0,0,0-0.1,0c0,0-0.1,0-0.1-0.1c0,0,0,0,0,0c0,0-0.1,0-0.1,0c-0.1,0-0.1,0-0.1-0.1c0-0.1,0-0.1-0.1,0c0,0,0,0,0,0
			c0,0,0,0,0-0.1c0,0,0,0-0.1,0c0,0,0,0-0.1,0c-0.1,0-0.1,0-0.2,0c0,0,0,0,0,0c0,0,0-0.1,0-0.1c0,0,0.1,0,0.1,0c0,0,0.1,0,0.1,0
			c0.2,0,0.4,0,0.6,0c0.1,0,0.1,0,0.2,0.1c0.1,0.1,0.3,0.3,0.4,0.4c0,0.1,0,0.1,0.1,0.1c0,0,0,0.1,0.1,0.1c0,0,0,0,0.1,0.1
			c0,0.1,0,0.1,0,0l0,0c0,0,0,0,0,0c0,0,0,0.1,0.1,0.1l0,0c0,0,0,0,0,0c0,0,0,0.1,0.1,0.1l0,0c0,0,0,0,0,0
			C38,33.7,38,33.7,38.1,33.7L38.1,33.7C38.1,33.7,38.1,33.7,38.1,33.7C38.1,33.7,38.1,33.7,38.1,33.7L38.1,33.7z"/>
		<path class="st7" d="M29,31.1C29,31.1,29.1,31.1,29,31.1C29.1,31.2,29,31.2,29,31.1c0.1,0.2,0.2,0.2,0.3,0.3c0,0,0,0,0,0
			c0.1,0,0.1,0,0.2,0.1c0,0,0.1,0,0.1,0c0.1,0,0.1,0,0.1,0.1c0,0,0,0.1,0.1,0.1c0,0,0,0,0.1,0c0,0,0.1,0,0.1,0.1c0,0,0,0,0,0
			c-0.1,0-0.1,0-0.2,0c0,0-0.1,0-0.1,0c-0.3,0-0.5,0-0.8,0c-0.1,0-0.1,0-0.1-0.1c0-0.1,0-0.1,0-0.2C28.8,31.4,28.9,31.2,29,31.1z"/>
		<path class="st9" d="M38.7,36.3C38.7,36.3,38.7,36.3,38.7,36.3c-0.1-0.1-0.2-0.1-0.2-0.1c-0.1,0-0.1-0.1-0.2-0.1
			c-0.1,0-0.1-0.1-0.2-0.1c-0.1,0-0.1-0.1-0.2-0.1c0,0,0,0,0,0c0.3,0,0.6,0,0.9,0c0.1,0,0.1,0,0.1,0.1c0,0.1,0,0.1,0,0.2
			C38.9,36.2,38.8,36.3,38.7,36.3z"/>
		<path class="st6" d="M28.8,37.8c0.2,0,0.4,0,0.6,0c0.3,0,0.6,0,0.9,0c0.5,0,1,0,1.6,0c0,0,0,0,0.1,0c0,0,0.1,0,0.1,0
			c0.2,0,0.5,0,0.7,0c0,0,0,0,0,0c-0.4,0-0.7,0-1.1,0C30.7,37.9,29.8,37.9,28.8,37.8C28.8,37.9,28.8,37.8,28.8,37.8z"/>
		<path class="st28" d="M38.8,30.1C38.8,30.1,38.8,30.1,38.8,30.1c0.1-0.1,0.2-0.2,0.1-0.3c0,0.1,0,0.1,0,0.2
			C38.9,30.1,38.9,30.1,38.8,30.1z"/>
		<path class="st24" d="M30.6,34.8C30.7,34.8,30.7,34.8,30.6,34.8c0.3,0,0.6,0,0.8,0c0,0,0,0,0,0C31.2,34.8,30.9,34.8,30.6,34.8z"/>
		<path class="st28" d="M38.6,30.4C38.6,30.3,38.6,30.3,38.6,30.4c0.1-0.1,0.1-0.1,0.1-0.1c0,0,0.1,0,0.1,0
			C38.7,30.2,38.6,30.3,38.6,30.4z"/>
		<path class="st8" d="M37.8,33.4C37.8,33.4,37.8,33.4,37.8,33.4c-0.1-0.1-0.2-0.1-0.2-0.2C37.7,33.3,37.8,33.4,37.8,33.4z"/>
		<path class="st19" d="M29.6,36.7c0,0.1-0.1,0.1-0.2,0.1C29.5,36.8,29.5,36.7,29.6,36.7z"/>
		<path class="st14" d="M35.4,31.8c0,0,0.2,0,0.2,0C35.6,31.8,35.5,31.8,35.4,31.8z"/>
		<path class="st13" d="M37,31.8c0,0,0.1,0,0.1-0.1c0,0,0,0,0,0C37.2,31.7,37.1,31.8,37,31.8z"/>
		<path class="st11" d="M29.1,33.5C29.1,33.5,29.1,33.5,29.1,33.5C29.2,33.5,29.2,33.5,29.1,33.5C29.1,33.5,29.1,33.5,29.1,33.5z"/>
		<path class="st15" d="M33.6,31.8c0,0,0.1,0,0.2,0C33.7,31.8,33.6,31.8,33.6,31.8z"/>
		<path class="st15" d="M33.8,31.8c0,0,0.1,0,0.2,0C33.9,31.8,33.8,31.8,33.8,31.8z"/>
		<path class="st14" d="M31.9,29.7c0,0-0.1,0-0.2,0C31.8,29.7,31.8,29.7,31.9,29.7z"/>
		<path class="st17" d="M30.1,36.2c0,0,0.1-0.1,0.1-0.1c0,0,0,0,0,0C30.2,36.1,30.1,36.2,30.1,36.2L30.1,36.2z"/>
		<path class="st10" d="M37.8,31.1c0-0.1,0-0.1,0.1-0.1C37.9,31.1,37.9,31.1,37.8,31.1z"/>
		<path class="st22" d="M29,37.2C29,37.3,29,37.3,29,37.2C29,37.3,29,37.3,29,37.2z"/>
		<path class="st17" d="M30,36.3C30,36.2,30,36.2,30,36.3C30.1,36.2,30.1,36.2,30,36.3C30,36.2,30,36.3,30,36.3
			C30,36.3,30,36.3,30,36.3C30,36.3,30,36.3,30,36.3z"/>
		<path class="st17" d="M30,36.3C29.9,36.3,29.9,36.3,30,36.3C29.9,36.3,30,36.3,30,36.3C30,36.3,30,36.3,30,36.3
			C30,36.3,30,36.3,30,36.3C30,36.3,30,36.3,30,36.3z"/>
		<path class="st16" d="M37.4,31.5C37.4,31.4,37.5,31.4,37.4,31.5C37.5,31.5,37.5,31.5,37.4,31.5z"/>
		<path class="st8" d="M36.5,32.8c0,0-0.1,0-0.1,0C36.4,32.8,36.5,32.8,36.5,32.8z"/>
		<path class="st28" d="M38.9,29.8C38.9,29.8,38.9,29.8,38.9,29.8C38.9,29.8,38.9,29.8,38.9,29.8z"/>
		<path class="st14" d="M36,31.8c0,0,0.1,0,0.1,0C36.1,31.8,36.1,31.8,36,31.8z"/>
		<path class="st24" d="M28.9,32.8c0,0-0.1,0-0.1,0C28.8,32.8,28.9,32.8,28.9,32.8z"/>
		<path class="st16" d="M37.3,31.7C37.3,31.6,37.3,31.6,37.3,31.7C37.3,31.6,37.3,31.6,37.3,31.7z"/>
		<path class="st17" d="M29.9,36.4C29.9,36.4,29.8,36.5,29.9,36.4C29.8,36.4,29.8,36.4,29.9,36.4z"/>
		<path class="st8" d="M38,33.6C37.9,33.6,37.9,33.6,38,33.6C37.9,33.5,38,33.6,38,33.6z"/>
		<path class="st8" d="M38,33.6C38,33.6,38,33.6,38,33.6C38,33.6,38,33.6,38,33.6z"/>
		<path class="st8" d="M38.1,33.7C38,33.7,38,33.7,38.1,33.7C38,33.6,38.1,33.7,38.1,33.7z"/>
		<path class="st8" d="M38.1,33.7C38.1,33.7,38.1,33.7,38.1,33.7C38.1,33.7,38.1,33.7,38.1,33.7z"/>
		<path class="st15" d="M38.4,34C38.3,34,38.3,34,38.4,34C38.4,34,38.4,34,38.4,34z"/>
		<path class="st15" d="M38.4,34C38.4,34.1,38.4,34,38.4,34C38.4,34,38.4,34,38.4,34z"/>
		<path class="st15" d="M38.5,34.1C38.5,34.1,38.4,34.1,38.5,34.1C38.5,34.1,38.5,34.1,38.5,34.1z"/>
		<path class="st15" d="M38.6,34.1C38.5,34.2,38.5,34.1,38.6,34.1C38.5,34.1,38.5,34.1,38.6,34.1z"/>
		<path class="st17" d="M30.2,36C30.2,36,30.3,36,30.2,36C30.3,36,30.3,36,30.2,36C30.3,36,30.3,36,30.2,36L30.2,36z"/>
		<path class="st8" d="M37.9,33.5C37.9,33.5,37.9,33.5,37.9,33.5C37.9,33.5,37.9,33.5,37.9,33.5z"/>
		<path class="st19" d="M29.4,36.8C29.4,36.9,29.4,36.9,29.4,36.8C29.4,36.8,29.4,36.8,29.4,36.8z"/>
		<path class="st8" d="M34.9,31.8C34.9,31.7,35,31.7,34.9,31.8C35,31.8,34.9,31.8,34.9,31.8z"/>
		<path class="st15" d="M38.3,33.9C38.3,33.9,38.3,33.9,38.3,33.9C38.3,33.9,38.3,33.9,38.3,33.9z"/>
		<path class="st9" d="M32.5,31.8c0,0,0.1,0,0.1,0C32.6,31.8,32.5,31.8,32.5,31.8z"/>
		<path class="st27" d="M38,30.9C38,30.9,38,30.9,38,30.9C38.1,30.9,38,30.9,38,30.9C38,30.9,38,30.9,38,30.9z"/>
		<path class="st16" d="M37.2,31.7C37.2,31.7,37.2,31.6,37.2,31.7C37.3,31.7,37.3,31.7,37.2,31.7z"/>
		<path class="st5" d="M38,37C38,37,38,36.9,38,37C38.1,37,38,37,38,37z"/>
		<path class="st24" d="M31.5,34.8c0,0,0.1,0,0.1,0C31.6,34.8,31.6,34.8,31.5,34.8z"/>
		<path class="st11" d="M37.3,37.7C37.3,37.7,37.3,37.7,37.3,37.7C37.3,37.7,37.3,37.7,37.3,37.7z"/>
		<path class="st11" d="M37.4,37.7C37.3,37.6,37.4,37.6,37.4,37.7C37.4,37.7,37.4,37.7,37.4,37.7z"/>
		<path class="st11" d="M37.4,37.6C37.4,37.6,37.4,37.6,37.4,37.6C37.4,37.6,37.4,37.6,37.4,37.6z"/>
		<path class="st10" d="M37.8,31.2C37.8,31.1,37.8,31.1,37.8,31.2C37.8,31.1,37.8,31.2,37.8,31.2z"/>
		<path class="st25" d="M37.8,37.2C37.8,37.2,37.8,37.2,37.8,37.2C37.9,37.2,37.8,37.2,37.8,37.2z"/>
		<path class="st15" d="M30.3,29.9C30.3,29.9,30.3,29.9,30.3,29.9C30.2,29.9,30.3,29.9,30.3,29.9z"/>
		<path class="st27" d="M38.1,30.8C38.1,30.8,38.2,30.8,38.1,30.8C38.2,30.8,38.2,30.8,38.1,30.8z"/>
		<path class="st10" d="M37.7,31.2C37.7,31.2,37.7,31.2,37.7,31.2C37.8,31.2,37.7,31.2,37.7,31.2z"/>
		<path class="st10" d="M38,30.9C38,30.9,38,30.9,38,30.9C38,30.9,38,30.9,38,30.9C38,30.9,38,30.9,38,30.9z"/>
		<path class="st10" d="M37.9,31C37.9,31,38,31,37.9,31C38,31,37.9,31,37.9,31C37.9,31,37.9,31,37.9,31z"/>
		<path class="st28" d="M38.3,30.7C38.3,30.6,38.3,30.6,38.3,30.7C38.3,30.6,38.3,30.6,38.3,30.7z"/>
		<path class="st9" d="M34.2,31.8c0,0,0.1,0,0.1,0C34.2,31.8,34.2,31.8,34.2,31.8z"/>
		<path class="st9" d="M32.9,31.8c0,0,0.1,0,0.1,0C33,31.8,33,31.8,32.9,31.8C32.9,31.8,32.9,31.8,32.9,31.8z"/>
		<path class="st16" d="M37.5,31.4C37.5,31.4,37.5,31.4,37.5,31.4C37.5,31.4,37.5,31.4,37.5,31.4z"/>
		<path class="st9" d="M29.6,31.8C29.6,31.8,29.7,31.8,29.6,31.8C29.7,31.8,29.6,31.8,29.6,31.8z"/>
		<path class="st14" d="M36.4,31.8C36.4,31.8,36.4,31.8,36.4,31.8C36.4,31.8,36.4,31.8,36.4,31.8z"/>
		<path class="st27" d="M38.1,30.9C38.1,30.8,38.1,30.8,38.1,30.9C38.1,30.8,38.1,30.8,38.1,30.9z"/>
		<path class="st16" d="M37.4,31.6C37.3,31.6,37.4,31.5,37.4,31.6C37.4,31.6,37.4,31.6,37.4,31.6z"/>
		<path class="st10" d="M37.7,31.3C37.7,31.2,37.7,31.2,37.7,31.3C37.7,31.2,37.7,31.3,37.7,31.3z"/>
		<path class="st16" d="M37.4,31.5C37.4,31.5,37.4,31.5,37.4,31.5C37.4,31.5,37.4,31.5,37.4,31.5z"/>
		<path class="st22" d="M28.7,37.8C28.7,37.8,28.7,37.8,28.7,37.8C28.7,37.8,28.7,37.8,28.7,37.8z"/>
		<path class="st22" d="M28.9,37.4C28.9,37.4,28.9,37.4,28.9,37.4C28.8,37.4,28.8,37.4,28.9,37.4z"/>
		<path class="st22" d="M28.9,37.3C28.9,37.4,28.9,37.4,28.9,37.3C28.9,37.4,28.9,37.3,28.9,37.3z"/>
		<path class="st17" d="M30.2,36.1C30.2,36.1,30.2,36,30.2,36.1C30.2,36,30.2,36,30.2,36.1C30.2,36,30.2,36.1,30.2,36.1L30.2,36.1z"
			/>
		<path class="st17" d="M29.9,36.3C29.9,36.4,29.9,36.4,29.9,36.3C29.9,36.4,29.9,36.4,29.9,36.3z"/>
		<path class="st19" d="M29.4,36.9C29.4,36.9,29.4,36.9,29.4,36.9C29.4,36.9,29.4,36.9,29.4,36.9z"/>
		<path class="st22" d="M29.1,37.2C29.1,37.2,29.1,37.2,29.1,37.2C29,37.2,29.1,37.2,29.1,37.2z"/>
		<path class="st9" d="M32.2,31.8C32.2,31.8,32.3,31.8,32.2,31.8C32.3,31.8,32.2,31.8,32.2,31.8z"/>
		<path class="st11" d="M29.2,33.6C29.2,33.6,29.2,33.6,29.2,33.6C29.2,33.6,29.2,33.6,29.2,33.6z"/>
		<path class="st9" d="M31.5,31.8C31.5,31.8,31.5,31.8,31.5,31.8C31.5,31.8,31.5,31.8,31.5,31.8z"/>
		<path class="st9" d="M32.3,31.8C32.3,31.8,32.4,31.8,32.3,31.8C32.4,31.8,32.3,31.8,32.3,31.8z"/>
		<path class="st22" d="M28.6,37.7C28.6,37.8,28.6,37.8,28.6,37.7C28.6,37.8,28.6,37.8,28.6,37.7z"/>
		<path class="st11" d="M29.3,33.6C29.3,33.6,29.3,33.6,29.3,33.6C29.3,33.6,29.3,33.6,29.3,33.6C29.3,33.6,29.3,33.6,29.3,33.6z"/>
		<path class="st11" d="M29.3,33.7C29.3,33.7,29.3,33.7,29.3,33.7C29.3,33.7,29.3,33.7,29.3,33.7C29.3,33.7,29.3,33.7,29.3,33.7z"/>
		<path class="st12" d="M30,30.1C30,30.1,30,30.1,30,30.1C30,30.1,30,30.1,30,30.1z"/>
		<path class="st19" d="M29.3,36.9C29.3,36.9,29.3,36.9,29.3,36.9C29.3,36.9,29.3,36.9,29.3,36.9z"/>
		<path class="st22" d="M29,37.2C29,37.2,29,37.2,29,37.2C29,37.2,29,37.2,29,37.2z"/>
		<path class="st17" d="M29.9,36.4C29.9,36.4,29.9,36.4,29.9,36.4C29.9,36.4,29.9,36.4,29.9,36.4z"/>
		<path class="st22" d="M28.9,37.3C28.9,37.3,28.9,37.3,28.9,37.3C28.9,37.3,28.9,37.3,28.9,37.3z"/>
		<path class="st10" d="M37.7,31.2C37.7,31.2,37.7,31.2,37.7,31.2C37.7,31.2,37.7,31.2,37.7,31.2z"/>
		<path class="st22" d="M28.9,37.4C28.9,37.4,28.9,37.4,28.9,37.4C28.9,37.4,28.9,37.4,28.9,37.4z"/>
		<path class="st22" d="M29.1,37.2C29.1,37.2,29.1,37.2,29.1,37.2C29.1,37.2,29.1,37.2,29.1,37.2z"/>
		<path class="st10" d="M38,31C38,31,38,31,38,31C38,31,38,31,38,31z"/>
		<path class="st27" d="M38.1,30.8C38.1,30.8,38.1,30.8,38.1,30.8C38.1,30.8,38.1,30.8,38.1,30.8z"/>
		<path class="st27" d="M38.1,30.9C38.1,30.9,38.1,30.9,38.1,30.9C38.1,30.9,38.1,30.9,38.1,30.9z"/>
		<path class="st17" d="M30.1,36.2C30.1,36.2,30.1,36.2,30.1,36.2C30.1,36.2,30.1,36.2,30.1,36.2C30.1,36.2,30.1,36.2,30.1,36.2
			C30.1,36.2,30.1,36.2,30.1,36.2z"/>
		<polygon class="st9" points="36.3,31.8 36.3,31.8 36.3,31.8 36.3,31.8 36.3,31.8 36.3,31.8 		"/>
		<path class="st22" d="M28.7,37.8C28.7,37.8,28.7,37.8,28.7,37.8C28.7,37.8,28.7,37.8,28.7,37.8z"/>
		<path class="st11" d="M29.1,33.5C29.1,33.5,29.1,33.5,29.1,33.5C29.1,33.5,29.1,33.5,29.1,33.5z"/>
		<path class="st22" d="M28.7,37.8C28.7,37.8,28.7,37.8,28.7,37.8C28.7,37.8,28.7,37.8,28.7,37.8z"/>
		<path class="st28" d="M38.4,30.5C38.4,30.5,38.4,30.5,38.4,30.5C38.4,30.5,38.4,30.5,38.4,30.5z"/>
		<path class="st28" d="M38.5,30.5C38.5,30.5,38.5,30.5,38.5,30.5C38.5,30.5,38.5,30.5,38.5,30.5z"/>
		<path class="st28" d="M38.6,30.4C38.6,30.4,38.5,30.4,38.6,30.4C38.5,30.4,38.6,30.4,38.6,30.4z"/>
		<path class="st15" d="M30.2,29.9C30.2,29.9,30.2,29.9,30.2,29.9C30.2,29.9,30.2,29.9,30.2,29.9z"/>
		<path class="st11" d="M29.2,33.6C29.2,33.6,29.2,33.6,29.2,33.6C29.2,33.6,29.2,33.6,29.2,33.6z"/>
		<path class="st17" d="M30.3,36C30.3,36,30.3,36,30.3,36C30.3,36,30.3,36,30.3,36C30.3,36,30.3,36,30.3,36L30.3,36z"/>
		<path class="st28" d="M38.3,30.6C38.3,30.6,38.3,30.6,38.3,30.6C38.3,30.6,38.3,30.6,38.3,30.6z"/>
		<path class="st26" d="M32.8,35.9c0.1,0,0.2,0,0.3,0c0,0,0,0,0,0c0,0,0,0,0,0c0.1,0,0.3,0,0.4,0c0.1,0,0.1,0,0.1,0.1c0,0,0,0,0.1,0
			c0.1,0,0.1,0,0.2,0.1c0,0,0.1,0.1,0.1,0.1c0.1,0,0.2,0.1,0.2,0.1c0.1,0.1,0.1,0.1,0.2,0.1c0,0,0.1,0,0.1,0c0,0,0.1,0.1,0.1,0.1
			c0,0,0.1,0,0.1,0.1c0,0,0.1,0,0.1,0c0,0,0,0,0,0c0.1,0,0.1,0,0.2,0.1c0,0,0.1,0,0.1,0.1c0,0,0,0,0.1,0c0.1,0.1,0.1,0.1,0.2,0.1
			c0,0,0,0,0,0c0.1,0,0.2,0.1,0.2,0.1c0.1,0,0.2,0.1,0.2,0.1c0,0,0,0,0.1,0.1c0.1,0,0.2,0.1,0.3,0.1c0,0,0,0,0,0
			c0,0.1,0.1,0.1,0.2,0.1c0.1,0,0.1,0,0.2,0.1c0,0,0.1,0,0.1,0c0.1,0.1,0.2,0.1,0.4,0.2c0,0,0,0,0,0c-0.1,0.1-0.1,0.1-0.2,0.1
			c-0.2,0-0.4,0-0.6,0c0,0,0-0.1,0-0.1c0-0.1,0-0.1-0.1-0.1c-0.1,0-0.1,0-0.1-0.1c0,0,0,0,0,0c0,0-0.1,0-0.1,0
			c-0.1,0-0.1-0.1-0.2-0.1c0,0-0.1,0-0.1-0.1c0,0-0.1-0.1-0.1,0c0,0-0.1,0-0.1,0c0,0-0.1-0.1-0.1-0.1c0,0-0.1,0-0.1-0.1
			c-0.1-0.1-0.1-0.1-0.1-0.1C35.1,37,35.1,37,35,37c0,0,0,0,0,0c-0.1,0-0.1-0.1-0.2-0.1c-0.1,0-0.1-0.1-0.2-0.1c0,0,0,0,0,0
			c0,0,0,0,0,0.1c0,0-0.1,0-0.1-0.1c0,0,0,0,0,0c0,0-0.1,0-0.1-0.1c0,0-0.1,0-0.1,0c-0.1,0-0.1,0-0.1-0.1c0,0,0,0,0,0
			c0,0-0.1,0-0.1-0.1c0-0.1,0-0.1-0.1-0.1c-0.1,0-0.1,0-0.2,0c0,0,0,0-0.1,0c0-0.1-0.1-0.1-0.1,0c0,0,0,0,0,0c0,0,0,0,0,0
			c-0.1,0-0.2-0.1-0.2-0.1c-0.1,0-0.2-0.1-0.2-0.1c0,0-0.1,0-0.1,0C32.9,35.9,32.9,35.9,32.8,35.9z M36.5,37.7
			C36.5,37.7,36.5,37.7,36.5,37.7C36.5,37.7,36.5,37.7,36.5,37.7C36.5,37.7,36.5,37.7,36.5,37.7C36.5,37.7,36.5,37.7,36.5,37.7z"/>
		<path class="st14" d="M30.6,29.8c0,0-0.1,0-0.1,0c0,0,0,0,0,0C30.5,29.8,30.6,29.8,30.6,29.8C30.6,29.8,30.6,29.8,30.6,29.8z"/>
		<polygon class="st16" points="37.1,31.5 37.1,31.5 37.1,31.5 37.1,31.5 		"/>
		<polygon class="st14" points="36.3,31.8 36.3,31.8 36.3,31.8 		"/>
		<path class="st20" d="M31.4,29.8C31.4,29.8,31.4,29.8,31.4,29.8C31.4,29.8,31.4,29.8,31.4,29.8C31.4,29.8,31.4,29.8,31.4,29.8
			C31.4,29.8,31.4,29.8,31.4,29.8z"/>
		<path class="st30" d="M30.3,36C30.3,36,30.3,36,30.3,36C30.3,36,30.3,36,30.3,36C30.3,36,30.3,35.9,30.3,36c0.1,0,0.2,0,0.2,0.1
			c0.1,0,0.1,0.1,0.2,0.1c0,0,0,0,0,0c0,0.1,0.1,0.1,0.1,0.1c0,0,0,0.1,0,0.1c0,0,0,0,0,0c0.1,0,0.1,0.1,0.2,0.1
			c0.1,0,0.1,0,0.2,0.1c0,0,0.1,0.1,0.1,0.1c0,0,0.1,0,0.1,0.1c0,0,0,0,0,0c0,0,0.1,0,0.1,0c0,0,0.1,0.1,0.1,0.1c0,0,0,0,0,0
			c0.1,0,0.1,0.1,0.2,0.1c0,0,0,0,0,0.1c0,0,0,0,0,0c0,0,0.1,0,0.1,0c0,0.1,0.1,0.1,0.2,0.1c0,0,0,0,0,0c0,0,0,0,0,0
			c0,0,0.1,0,0.1,0c0,0,0,0,0,0c0,0,0,0-0.1,0c0.1,0,0.1,0.1,0.2,0.1c0,0,0,0,0.1,0c0,0,0,0,0,0c0,0.1,0.1,0.1,0.1,0.1c0,0,0,0,0,0
			c0,0,0,0,0,0c0.1,0,0.2,0.1,0.2,0.1c0,0,0.1,0,0.1,0.1c0.1,0,0.1,0.1,0.2,0.1c0,0,0,0,0.1,0c0,0.1,0,0.1,0.1,0.1
			c0.1,0,0.1,0,0.1,0.1c0,0,0,0,0.1,0c0.1,0,0.1,0.1,0.1,0.1c-0.3,0-0.6,0-0.8,0c0,0,0-0.1,0-0.1c-0.1,0-0.1,0-0.2,0c0,0,0,0-0.1,0
			c0,0,0,0-0.1-0.1c-0.1,0-0.1-0.1-0.1-0.1c0,0,0,0-0.1,0c0,0,0,0,0,0c0,0-0.1,0-0.1,0c-0.1,0-0.1,0-0.2-0.1c0-0.1-0.1-0.1-0.2-0.1
			c0,0,0,0,0,0c0,0,0,0-0.1,0c0,0,0,0,0,0c0-0.1-0.1-0.1-0.2-0.1c0,0,0,0,0,0c-0.1-0.1-0.2-0.2-0.3-0.2c0,0-0.1-0.1-0.1-0.1
			c0,0,0,0,0,0c0,0,0,0,0,0c-0.1,0-0.2-0.1-0.3-0.1c0,0,0,0,0,0c-0.1,0-0.1-0.1-0.2,0c0-0.1-0.1-0.1-0.2-0.1c0,0,0,0,0,0
			c0,0-0.1-0.1-0.2-0.1c0,0-0.1,0-0.1-0.1c0,0,0,0-0.1,0.1c0,0,0,0,0,0c0,0,0,0,0,0c0,0,0,0,0,0c0,0,0,0,0,0c0,0,0-0.1,0.1-0.1
			c0,0,0,0,0,0C30.1,36.2,30.2,36.1,30.3,36C30.2,36.1,30.2,36,30.3,36C30.3,36,30.3,36,30.3,36z"/>
		<path class="st30" d="M33.9,37.8C33.9,37.8,33.9,37.8,33.9,37.8C33.9,37.8,33.9,37.8,33.9,37.8C33.9,37.8,33.9,37.8,33.9,37.8z"/>
		<polygon class="st22" points="29.8,36.7 29.8,36.7 29.8,36.7 29.8,36.7 		"/>
		<path class="st19" d="M31.8,37.8C31.8,37.8,31.8,37.8,31.8,37.8C31.8,37.8,31.8,37.8,31.8,37.8C31.8,37.8,31.8,37.8,31.8,37.8z"/>
		<path class="st4" d="M33.1,35.9C33.1,35.9,33.1,35.9,33.1,35.9C33.1,35.9,33.1,35.9,33.1,35.9C33.1,35.9,33.1,35.9,33.1,35.9z"/>
		<path class="st11" d="M29.3,32.9C29.3,32.9,29.3,32.9,29.3,32.9C29.2,32.9,29.3,32.9,29.3,32.9C29.3,32.9,29.3,32.9,29.3,32.9
			C29.3,32.9,29.3,32.9,29.3,32.9z"/>
		<path class="st11" d="M31.8,34.3C31.8,34.3,31.9,34.3,31.8,34.3C31.9,34.3,31.9,34.3,31.8,34.3C31.9,34.3,31.8,34.3,31.8,34.3z"/>
		<path class="st15" d="M38.8,34.5C38.8,34.5,38.8,34.5,38.8,34.5C38.8,34.5,38.8,34.5,38.8,34.5C38.8,34.5,38.8,34.5,38.8,34.5
			C38.8,34.5,38.8,34.5,38.8,34.5z"/>
		<path class="st15" d="M30,30.3C30,30.3,30,30.3,30,30.3C30,30.3,29.9,30.3,30,30.3C29.9,30.3,29.9,30.3,30,30.3
			C29.9,30.3,29.9,30.3,30,30.3C30,30.3,30,30.3,30,30.3C30,30.3,30,30.3,30,30.3z"/>
		<path class="st11" d="M36.8,36.8C36.8,36.8,36.8,36.9,36.8,36.8C36.8,36.8,36.8,36.8,36.8,36.8C36.8,36.8,36.8,36.8,36.8,36.8
			C36.8,36.8,36.8,36.8,36.8,36.8z"/>
		<polygon class="st11" points="35,35.9 35,35.9 35,35.9 35,35.9 		"/>
		<path class="st19" d="M30,36.3C30,36.3,30,36.3,30,36.3C30,36.3,30,36.3,30,36.3C30,36.3,30,36.3,30,36.3z"/>
		<path class="st4" d="M36.5,37.7C36.5,37.7,36.5,37.7,36.5,37.7C36.5,37.7,36.5,37.7,36.5,37.7C36.5,37.7,36.5,37.7,36.5,37.7
			C36.5,37.7,36.5,37.7,36.5,37.7z"/>
	</g>
</g>
</svg>
