<?xml version="1.0" encoding="utf-8"?>
<!-- Generator: Adobe Illustrator 26.0.1, SVG Export Plug-In . SVG Version: 6.00 Build 0)  -->
<svg version="1.1" id="Layer_1" xmlns="http://www.w3.org/2000/svg" xmlns:xlink="http://www.w3.org/1999/xlink" x="0px" y="0px"
	 viewBox="0 0 42 42" style="enable-background:new 0 0 42 42;" xml:space="preserve">
<style type="text/css">
	.st0{fill:#1E1E1E;}
</style>
<g id="примеры">
</g>
<g id="лого">
</g>
<g>
	<path class="st0" d="M8.9,30.7c0-6.5,0-12.9,0-19.4c0-0.1,0-0.1,0-0.2C9,10.5,9.3,9.9,9.8,9.5c0.4-0.3,0.8-0.5,1.3-0.6
		c0.4,0,0.7,0,1.1,0c0.7,0.1,1.3,0.4,1.7,0.9c0.7,0.8,1.3,1.6,2,2.4c1.3,1.6,2.7,3.2,4,4.8c1.3,1.5,2.6,3.1,3.8,4.6
		c1.4,1.7,2.9,3.5,4.3,5.2c0.3,0.3,0.5,0.7,0.8,1c0,0,0.1,0.1,0.1,0.1c0.1,0,0.2-0.1,0.2-0.2c0-4.5,0-8.9,0-13.4c0,0,0-0.1,0-0.1
		c0-0.1-0.1-0.2-0.2-0.2c0,0-0.1,0-0.1,0.1c-0.3,0.3-0.6,0.6-1,0.8c-1.1,0.9-2.1,1.9-3.2,2.8c-0.3,0.2-0.5,0.5-0.8,0.7
		c-0.1,0.1-0.3,0.2-0.5,0.1c-0.3-0.1-0.5-0.5-0.3-0.8c1-1.5,2-2.9,3-4.4c0.7-1,1.4-2.1,2.1-3.1c0.7-1.1,2-1.5,3.2-1
		c0.8,0.4,1.4,1,1.6,1.9c0,0.1,0,0.2,0,0.3c0,6.5,0,12.9,0,19.4c0,0.1,0,0.1,0,0.2c-0.1,0.6-0.4,1.1-0.8,1.5
		c-0.4,0.4-0.9,0.6-1.5,0.7c-0.3,0-0.5,0-0.8,0c-0.8,0-1.4-0.3-1.9-0.9c-1-1.2-2-2.3-2.9-3.5c-1.3-1.6-2.7-3.2-4-4.8
		c-1.2-1.5-2.5-3-3.7-4.4c-1.2-1.4-2.3-2.8-3.5-4.2c-0.3-0.3-0.6-0.7-0.9-1c-0.1-0.1-0.1-0.1-0.2-0.1c-0.1,0-0.1,0.1-0.1,0.2
		c0,0,0,0.1,0,0.1c0,4.4,0,8.9,0,13.3c0,0,0,0,0,0.1c0,0.1,0,0.2,0.1,0.2c0.1,0,0.2,0,0.2-0.1c1.3-1.2,2.7-2.3,4-3.5
		c0.3-0.3,0.6-0.5,0.9-0.8c0.1-0.1,0.3-0.2,0.4-0.1c0.3,0.1,0.6,0.5,0.3,0.9c-1,1.5-2,3-3,4.5c-0.7,1-1.4,2-2.1,3.1
		c-0.7,1.1-2.2,1.5-3.4,0.9c-0.7-0.4-1.2-1-1.3-1.8C8.9,30.9,8.9,30.8,8.9,30.7z"/>
</g>
</svg>
