<?xml version="1.0" encoding="utf-8"?>
<!-- Generator: Adobe Illustrator 26.0.1, SVG Export Plug-In . SVG Version: 6.00 Build 0)  -->
<svg version="1.1" id="Layer_1" xmlns="http://www.w3.org/2000/svg" xmlns:xlink="http://www.w3.org/1999/xlink" x="0px" y="0px"
	 viewBox="0 0 42 42" style="enable-background:new 0 0 42 42;" xml:space="preserve">
<style type="text/css">
	.st0{fill:#F9BE1A;}
	.st1{fill:#FDBF19;}
</style>
<g id="фон">
</g>
<g id="примеры">
</g>
<g>
	<path class="st0" d="M32.1,32.1c-0.5,0-0.9,0-1.3,0c-1.3,0-2.6,0-3.8,0c-0.3,0-0.5,0.1-0.7,0.3c-1.6,1.7-3.3,3.3-5,5
		c-0.1,0.1-0.2,0.2-0.3,0.3c-0.1-0.1-0.2-0.1-0.2-0.2c-1.7-1.7-3.4-3.4-5.1-5c-0.2-0.1-0.4-0.3-0.6-0.3c-1.6,0-3.2,0-4.8,0
		c-0.1,0-0.3,0-0.4,0c0-0.2,0-0.3,0-0.5c0-1.6,0-3.1,0-4.7c0-0.3-0.1-0.5-0.3-0.7c-1.6-1.6-3.3-3.2-4.9-4.9
		c-0.1-0.1-0.3-0.2-0.4-0.4c0.1-0.2,0.3-0.3,0.4-0.4c1.6-1.6,3.3-3.3,4.9-4.9c0.2-0.2,0.3-0.4,0.3-0.7c0-1.7,0-3.4,0-5.1
		c0.2,0,0.3,0,0.4,0c1.6,0,3.1,0,4.7,0c0.3,0,0.5-0.1,0.7-0.3c1.7-1.7,3.3-3.4,5-5c0.1-0.1,0.2-0.1,0.3-0.3c0.7,0.7,1.4,1.4,2.1,2.1
		c1.1,1.1,2.1,2.1,3.2,3.2c0.2,0.2,0.4,0.3,0.7,0.3c1.6,0,3.1,0,4.7,0c0.1,0,0.3,0,0.5,0c0,0.2,0,0.3,0,0.5c0,1.6,0,3.2,0,4.8
		c0,0.2,0.1,0.4,0.2,0.6c1.6,1.6,3.2,3.2,4.8,4.8c0.2,0.2,0.4,0.3,0.6,0.5c-0.2,0.2-0.3,0.3-0.5,0.5c-1.6,1.6-3.2,3.2-4.8,4.8
		c-0.2,0.2-0.3,0.5-0.3,0.8C32.1,28.7,32.1,30.4,32.1,32.1z M36.7,21c-0.1-0.1-0.2-0.2-0.3-0.3c-1.8-1.8-3.6-3.6-5.4-5.5
		c-0.1-0.2-0.3-0.4-0.3-0.6c0-1,0-1.9,0-2.9c0-0.4-0.1-0.5-0.5-0.5c-1,0-1.9,0-2.9,0c-0.3,0-0.5-0.1-0.7-0.3
		c-1.8-1.8-3.6-3.6-5.4-5.4c-0.1-0.1-0.2-0.2-0.3-0.3c-0.1,0.1-0.2,0.2-0.3,0.3c-1.8,1.8-3.6,3.6-5.5,5.4c-0.1,0.1-0.4,0.2-0.6,0.2
		c-1,0-2,0-3,0c-0.3,0-0.4,0.1-0.4,0.4c0,1,0,2,0,2.9c0,0.3-0.1,0.6-0.3,0.8c-1.8,1.8-3.5,3.5-5.3,5.3c-0.1,0.1-0.2,0.2-0.3,0.3
		c0.1,0.1,0.2,0.2,0.3,0.3c1.8,1.8,3.6,3.6,5.4,5.4c0.1,0.2,0.3,0.4,0.3,0.6c0,1,0,2,0,3c0,0.3,0.1,0.4,0.4,0.4c1,0,2,0,3,0
		c0.3,0,0.5,0.1,0.7,0.3c1.8,1.8,3.6,3.6,5.4,5.4c0.1,0.1,0.2,0.2,0.4,0.4c0.1-0.2,0.2-0.3,0.4-0.5c1.8-1.8,3.5-3.5,5.3-5.3
		c0.2-0.1,0.4-0.3,0.6-0.3c1,0,2,0,3,0c0.3,0,0.4-0.1,0.4-0.4c0-1,0-2,0-3c0-0.2,0.1-0.4,0.2-0.6c1.1-1.1,2.1-2.2,3.2-3.2
		C35,22.7,35.9,21.9,36.7,21z"/>
	<path class="st1" d="M11.3,25c-1.4-1.4-2.7-2.7-4-4c4.6-4.6,9.1-9.1,13.7-13.7c0.7,0.7,1.5,1.5,2.2,2.3c0.5,0.5,1.1,1,1.6,1.6
		c1.6,1.7,2,3.6,1.3,5.8c-0.8,2.1-2.3,3.3-4.6,3.6c-1.1,0.1-2.3,0.2-3.4,0.4c-2.6,0.5-4.7,1.9-6.5,3.8C11.5,24.8,11.4,24.9,11.3,25z
		"/>
	<path class="st1" d="M30.7,17.1c1.3,1.3,2.7,2.6,3.9,3.9c-4.6,4.6-9.1,9.1-13.7,13.7c-0.9-0.9-1.9-1.9-2.8-2.8
		c-0.5-0.5-0.9-0.9-1.4-1.4c-2.3-2.7-1.2-7,2.1-8.4c0.9-0.4,1.8-0.4,2.8-0.5c3.5-0.2,6.4-1.6,8.8-4.2C30.5,17.3,30.6,17.2,30.7,17.1
		z"/>
</g>
</svg>
