<?xml version="1.0" encoding="utf-8"?>
<!-- Generator: Adobe Illustrator 26.0.1, SVG Export Plug-In . SVG Version: 6.00 Build 0)  -->
<svg version="1.1" id="Layer_1" xmlns="http://www.w3.org/2000/svg" xmlns:xlink="http://www.w3.org/1999/xlink" x="0px" y="0px"
	 viewBox="0 0 42 42" style="enable-background:new 0 0 42 42;" xml:space="preserve">
<style type="text/css">
	.st0{fill:#39A589;}
	.st1{fill:#FBFDFF;}
	.st2{fill:#191919;}
	.st3{fill:#F1B830;}
</style>
<g id="фон">
	<polygon class="st0" points="30.1,8.5 21,8.5 11.9,8.5 6.2,20.2 21,34.3 35.8,20.2 	"/>
	<path class="st1" d="M30.7,19.9c0-1.2-3.4-2.3-7.9-2.5v-1.8h5.3v-3.7H13.8v3.7h5.3v1.8c-4.5,0.2-7.9,1.3-7.9,2.5s3.4,2.3,7.9,2.5
		v6.7h3.7v-6.7C27.3,22.2,30.7,21.1,30.7,19.9z M21,21.3c-4.3,0-7.8-0.7-7.8-1.6c0-0.8,2.5-1.4,6-1.6l0,0v0.5v2.3
		c0.6,0,1.2,0.1,1.9,0.1c0.6,0,1.3,0,1.8-0.1v-2.3v-0.5l0,0c3.4,0.2,6,0.8,6,1.6C28.8,20.5,25.3,21.3,21,21.3z"/>
</g>
<g id="примеры">
</g>
<g id="лого">
</g>
<g>
	<circle class="st2" cx="33.8" cy="33.8" r="8.2"/>
	<g>
		<path class="st3" d="M33.8,31.1C33.8,31.1,33.8,31.1,33.8,31.1c-0.6,0.6-1.2,1.2-1.8,1.8c-0.2,0.2-0.1,0.2-0.3,0
			c-0.3-0.3-0.6-0.6-0.8-0.8c-0.2-0.2-0.2-0.1,0-0.3c0.8-0.8,1.6-1.6,2.3-2.3c0.2-0.2,0.3-0.3,0.5-0.5c0.1-0.1,0.1-0.1,0.1,0
			c1,1,1.9,1.9,2.9,2.9c0.1,0.1,0.1,0.1,0,0.2c-0.3,0.3-0.6,0.6-1,1c-0.1,0.1-0.1,0.1-0.2,0C35.1,32.3,34.5,31.8,33.8,31.1
			C33.9,31.1,33.8,31.1,33.8,31.1z"/>
		<path class="st3" d="M36.9,35.7C36.8,35.8,36.8,35.8,36.9,35.7c-1,1-2,2-3,3c-0.1,0.1-0.1,0-0.1,0c-1-1-1.9-2-2.9-2.9
			c-0.1-0.1-0.1-0.1,0-0.1c0.3-0.3,0.7-0.6,1-1c0.1-0.1,0.1-0.1,0.2,0c0.6,0.6,1.2,1.2,1.8,1.8c0.1,0.1,0.1,0.1,0.2,0
			c0.6-0.6,1.2-1.2,1.8-1.8c0.1-0.1,0.1-0.1,0.2,0C36.1,35,36.5,35.3,36.9,35.7C36.8,35.7,36.9,35.7,36.9,35.7z"/>
		<path class="st3" d="M33.8,35C33.8,35,33.8,35,33.8,35c-0.4-0.4-0.8-0.8-1.2-1.2c-0.1-0.1,0-0.1,0-0.1c0.1-0.1,0.3-0.3,0.4-0.4
			c0.2-0.2,0.5-0.5,0.7-0.7c0.1-0.1,0.1-0.1,0.2,0c0.4,0.4,0.7,0.7,1.1,1.1c0.1,0.1,0.1,0.1,0,0.2c-0.4,0.4-0.7,0.7-1.1,1.1
			C33.9,35,33.8,35,33.8,35z"/>
		<path class="st3" d="M31.1,33.8C31.1,33.8,31,33.9,31.1,33.8c-0.4,0.4-0.7,0.7-1.1,1.1c0,0-0.1,0-0.1,0c-0.3-0.3-0.7-0.7-1-1
			c0,0,0-0.1,0-0.1c0.3-0.3,0.7-0.7,1-1c0,0,0.1,0,0.1,0C30.3,33.1,30.7,33.4,31.1,33.8C31,33.8,31.1,33.8,31.1,33.8z"/>
		<path class="st3" d="M37.7,34.9C37.6,34.9,37.6,34.9,37.7,34.9c-0.4-0.4-0.7-0.7-1.1-1.1c-0.1-0.1,0-0.1,0-0.1
			c0.3-0.3,0.7-0.7,1-1c0.1-0.1,0.1,0,0.1,0c0.3,0.3,0.7,0.7,1,1c0,0,0.1,0.1,0,0.1C38.4,34.2,38.1,34.5,37.7,34.9
			C37.7,34.9,37.7,34.9,37.7,34.9z"/>
	</g>
</g>
</svg>
