<?xml version="1.0" encoding="utf-8"?>
<!-- Generator: Adobe Illustrator 26.0.1, SVG Export Plug-In . SVG Version: 6.00 Build 0)  -->
<svg version="1.1" id="Layer_1" xmlns="http://www.w3.org/2000/svg" xmlns:xlink="http://www.w3.org/1999/xlink" x="0px" y="0px"
	 viewBox="0 0 42 42" style="enable-background:new 0 0 42 42;" xml:space="preserve">
<style type="text/css">
	.st0{fill:#2675CA;}
	.st1{fill:#FFFFFF;}
	.st2{fill:#191919;}
	.st3{fill:#F1B830;}
</style>
<g id="фон">
</g>
<g id="примеры">
</g>
<g id="лого">
	<g>
		<circle class="st0" cx="21" cy="21" r="12.3"/>
		<path class="st1" d="M20.5,27.1h1c0.3,0,0.4-0.2,0.4-0.4v-1c1.5-0.2,2.6-1.2,2.6-2.8c0-1.9-1.4-2.3-2.3-2.6
			c-0.5-0.2-2.4-0.5-2.4-1.4c0-0.6,0.7-0.8,1.1-0.8s0.9,0.1,1.1,0.4c0.2,0.2,0.2,0.3,0.3,0.4c0.1,0.2,0.1,0.4,0.4,0.4H24
			c0.3,0,0.4-0.1,0.4-0.4c0-1.4-1.1-2.2-2.4-2.5v-1.1c0-0.2-0.1-0.4-0.4-0.4h-1c-0.3,0-0.4,0.2-0.4,0.4v1.1
			c-1.4,0.3-2.5,1.1-2.5,2.6c0,1.7,1.2,2.3,2.5,2.7c1.1,0.4,2.3,0.4,2.3,1.2s-0.6,0.9-1.3,0.9c-0.5,0-1-0.1-1.3-0.5
			c-0.2-0.2-0.2-0.4-0.2-0.6c0-0.3-0.2-0.4-0.5-0.4h-1.3c-0.3,0-0.4,0.1-0.4,0.4c0,1.6,1.2,2.5,2.6,2.8v1.1
			C20.1,27,20.2,27.1,20.5,27.1z"/>
		<path class="st1" d="M13.3,21c0,3.3,2.2,6.2,5.2,7.2c0.1,0,0.2,0.2,0.2,0.3v1c0,0.2-0.2,0.4-0.4,0.3c-3.8-1.1-6.6-4.7-6.6-8.9
			s2.8-7.7,6.6-8.9c0.2-0.1,0.4,0.1,0.4,0.3v1c0,0.1-0.1,0.3-0.2,0.3C15.4,14.9,13.3,17.7,13.3,21z"/>
		<path class="st1" d="M30.1,21c0,4.1-2.7,7.6-6.4,8.8c-0.2,0.1-0.4-0.1-0.4-0.3v-1c0-0.1,0.1-0.3,0.2-0.3c2.9-1.1,5-3.9,5-7.2
			s-2.1-6.1-5-7.2c-0.1,0-0.2-0.2-0.2-0.3v-1c0-0.2,0.2-0.4,0.4-0.3C27.4,13.4,30.1,16.9,30.1,21z"/>
	</g>
</g>
<g>
	<circle class="st2" cx="33.8" cy="33.8" r="8.2"/>
	<g>
		<path class="st3" d="M33.8,30.4L33.8,30.4c-0.7,0.7-1.5,1.5-2.2,2.2c-0.2,0.2-0.1,0.2-0.4,0c-0.4-0.4-0.7-0.7-1-1
			c-0.2-0.2-0.2-0.1,0-0.4c1-1,2-2,2.9-2.9c0.2-0.2,0.6-0.6,0.6-0.6l0.1-0.1c0,0,2.4,2.4,3.7,3.7c0.1,0.1,0.1,0.1,0,0.2
			c-0.4,0.4-1.2,1.2-1.2,1.2S34.7,31.3,33.8,30.4C33.9,30.4,33.8,30.4,33.8,30.4z"/>
		<path class="st3" d="M33.9,39.9h-0.1c0,0-2.4-2.5-3.6-3.6c-0.1-0.1-0.1-0.1,0-0.1c0.4-0.4,0.9-0.7,1.2-1.2c0.1-0.1,0.1-0.1,0.2,0
			c0.7,0.7,1.5,1.5,2.2,2.2c0.1,0.1,0.1,0.1,0.2,0c0.7-0.7,2.3-2.3,2.3-2.3l1.2,1.2L33.9,39.9z"/>
		<path class="st3" d="M33.8,35.3L33.8,35.3c-0.5-0.5-1-1-1.5-1.5c-0.1-0.1,0-0.1,0-0.1c0.1-0.1,0.4-0.4,0.5-0.5
			c0.2-0.2,0.6-0.6,0.9-0.9c0.1-0.1,0.1-0.1,0.2,0c0.5,0.5,0.9,0.9,1.4,1.4c0.1,0.1,0.1,0.1,0,0.2c-0.5,0.5-0.9,0.9-1.4,1.4
			C33.9,35.3,33.8,35.3,33.8,35.3z"/>
		<path class="st3" d="M30.4,33.8C30.4,33.8,30.3,33.9,30.4,33.8c-0.5,0.5-0.9,0.9-1.4,1.4h-0.1c-0.4-0.4-0.9-0.9-1.2-1.2v-0.1
			c0.4-0.4,0.9-0.9,1.2-1.2h0.1C29.4,32.9,29.9,33.3,30.4,33.8C30.3,33.8,30.4,33.8,30.4,33.8z"/>
		<path class="st3" d="M38.7,35.2C38.5,35.2,38.5,35.2,38.7,35.2c-0.5-0.5-0.9-0.9-1.4-1.4c-0.1-0.1,0-0.1,0-0.1
			c0.4-0.4,0.9-0.9,1.2-1.2c0.1-0.1,0.1,0,0.1,0c0.4,0.4,0.9,0.9,1.2,1.2c0,0,0.1,0.1,0,0.1C39.5,34.3,39.2,34.7,38.7,35.2
			L38.7,35.2z"/>
	</g>
</g>
</svg>
