<?xml version="1.0" encoding="utf-8"?>
<!-- Generator: Adobe Illustrator 26.0.1, SVG Export Plug-In . SVG Version: 6.00 Build 0)  -->
<svg version="1.1" id="Layer_1" xmlns="http://www.w3.org/2000/svg" xmlns:xlink="http://www.w3.org/1999/xlink" x="0px" y="0px"
	 viewBox="0 0 42 42" style="enable-background:new 0 0 42 42;" xml:space="preserve">
<style type="text/css">
	.st0{fill:#EDB245;}
	.st1{fill:#191919;}
	.st2{fill:#F1B830;}
</style>
<path class="st0" d="M34.3,16.9h-2.1c-0.2,0-0.4-0.1-0.5-0.4c-1.2-3.3-3.7-5.2-5.9-6.2C23.9,9.5,21.8,9,19.6,9H11
	c-0.3,0-0.6,0.3-0.6,0.6v6.8c0,0.3-0.3,0.6-0.6,0.6H7.7c-0.3,0-0.6,0.3-0.6,0.6v1.4c0,0.3,0.3,0.6,0.6,0.6h2.2
	c0.3,0,0.6,0.3,0.6,0.6v2.2c0,0.3-0.3,0.6-0.6,0.6H7.7c-0.3,0-0.6,0.3-0.6,0.6v1.4c0,0.3,0.3,0.6,0.6,0.6h2.2c0.3,0,0.6,0.3,0.6,0.6
	v6.5c0,0.3,0.3,0.6,0.6,0.6h8.6c2.2,0,4.4-0.5,6.3-1.4c2.1-1,4.5-2.8,5.8-5.9c0.1-0.2,0.3-0.4,0.5-0.4h2.2c0.3,0,0.6-0.3,0.6-0.6
	v-1.4c0-0.3-0.3-0.6-0.6-0.6H33c-0.3,0-0.6-0.3-0.6-0.6c0-0.4,0-0.8,0-1.2c0-0.3,0-0.6,0-0.9c0-0.3,0.2-0.6,0.6-0.6h1.3
	c0.3,0,0.6-0.3,0.6-0.6v-1.4C34.9,17.2,34.6,16.9,34.3,16.9z M13,12.2c0-0.3,0.3-0.6,0.6-0.6h6c1.8,0,3.6,0.4,5.2,1.1
	c1.8,0.8,3.1,1.9,3.9,3.4c0.2,0.4,0,0.8-0.5,0.8H13.6c-0.3,0-0.6-0.3-0.6-0.6V12.2z M24.8,29.3c-1.6,0.7-3.4,1.1-5.2,1.1h-6
	c-0.3,0-0.6-0.3-0.6-0.6v-3.9c0-0.3,0.3-0.6,0.6-0.6H28c0.4,0,0.7,0.5,0.5,0.9C27.6,27.5,26.4,28.5,24.8,29.3z M29.9,21
	c0,0.5,0,0.9-0.1,1.3c0,0.3-0.3,0.5-0.6,0.5H13.6c-0.3,0-0.6-0.3-0.6-0.6v-2.2c0-0.3,0.3-0.6,0.6-0.6h15.8c0.3,0,0.5,0.2,0.6,0.5
	C29.9,20.3,29.9,20.7,29.9,21z"/>
<g id="фон">
</g>
<g id="примеры">
</g>
<g>
	<circle class="st1" cx="33.8" cy="33.8" r="8.2"/>
	<g>
		<path class="st2" d="M33.8,30.4L33.8,30.4c-0.7,0.7-1.5,1.5-2.2,2.2c-0.2,0.2-0.1,0.2-0.4,0c-0.4-0.4-0.7-0.7-1-1
			c-0.2-0.2-0.2-0.1,0-0.4c1-1,2-2,2.9-2.9c0.2-0.2,0.6-0.6,0.6-0.6l0.1-0.1c0,0,2.4,2.4,3.7,3.7c0.1,0.1,0.1,0.1,0,0.2
			c-0.4,0.4-1.2,1.2-1.2,1.2S34.7,31.3,33.8,30.4C33.9,30.4,33.8,30.4,33.8,30.4z"/>
		<path class="st2" d="M33.9,39.9L33.9,39.9c-0.1,0-2.5-2.5-3.7-3.6c-0.1-0.1-0.1-0.1,0-0.1c0.4-0.4,0.9-0.7,1.2-1.2
			c0.1-0.1,0.1-0.1,0.2,0c0.7,0.7,1.5,1.5,2.2,2.2c0.1,0.1,0.1,0.1,0.2,0c0.7-0.7,2.3-2.3,2.3-2.3l1.2,1.2L33.9,39.9z"/>
		<path class="st2" d="M33.8,35.3L33.8,35.3c-0.5-0.5-1-1-1.5-1.5c-0.1-0.1,0-0.1,0-0.1c0.1-0.1,0.4-0.4,0.5-0.5
			c0.2-0.2,0.6-0.6,0.9-0.9c0.1-0.1,0.1-0.1,0.2,0c0.5,0.5,0.9,0.9,1.4,1.4c0.1,0.1,0.1,0.1,0,0.2c-0.5,0.5-0.9,0.9-1.4,1.4
			C33.9,35.3,33.8,35.3,33.8,35.3z"/>
		<path class="st2" d="M30.4,33.8C30.4,33.8,30.3,33.9,30.4,33.8c-0.5,0.5-0.9,0.9-1.4,1.4h-0.1c-0.4-0.4-0.9-0.9-1.2-1.2v-0.1
			c0.4-0.4,0.9-0.9,1.2-1.2H29C29.4,32.9,29.9,33.3,30.4,33.8C30.3,33.8,30.4,33.8,30.4,33.8z"/>
		<path class="st2" d="M38.7,35.2C38.5,35.2,38.5,35.2,38.7,35.2c-0.5-0.5-0.9-0.9-1.4-1.4c-0.1-0.1,0-0.1,0-0.1
			c0.4-0.4,0.9-0.9,1.2-1.2c0.1-0.1,0.1,0,0.1,0c0.4,0.4,0.9,0.9,1.2,1.2c0,0,0.1,0.1,0,0.1C39.5,34.3,39.2,34.7,38.7,35.2
			L38.7,35.2z"/>
	</g>
</g>
</svg>
