<?xml version="1.0" encoding="utf-8"?>
<!-- Generator: Adobe Illustrator 26.1.0, SVG Export Plug-In . SVG Version: 6.00 Build 0)  -->
<svg version="1.1" id="Layer_1" xmlns="http://www.w3.org/2000/svg" xmlns:xlink="http://www.w3.org/1999/xlink" x="0px" y="0px"
	 viewBox="0 0 42 42" style="enable-background:new 0 0 42 42;" xml:space="preserve">
<style type="text/css">
	.st0{fill:#1F6AAD;}
</style>
<g id="фон">
</g>
<g id="примеры">
</g>
<g>
	<g>
		<path class="st0" d="M14.5,17.2c-0.2-0.2-0.5-0.4-0.8-0.6c0.2-0.2,0.4-0.4,0.6-0.7c0.2-0.3,0.3-0.5,0.3-0.8
			c0.1-0.3,0.1-0.6,0.1-0.9c0-1-0.4-1.8-1.1-2.3c-0.7-0.5-1.7-0.7-3-0.7H7.2c-0.2,0-0.4,0.2-0.4,0.4v10.8c0,0.2,0.2,0.4,0.4,0.4h3.3
			c1.5,0,2.6-0.3,3.5-0.9c0.8-0.6,1.3-1.6,1.3-2.8c0-0.4-0.1-0.8-0.2-1.1C14.9,17.7,14.7,17.4,14.5,17.2z M9.6,13.6h0.8
			c0.3,0,0.5,0,0.7,0.1c0.2,0,0.3,0.1,0.4,0.2c0.1,0.1,0.2,0.2,0.2,0.3c0,0.1,0.1,0.3,0.1,0.4c0,0.2,0,0.3-0.1,0.5
			c0,0.1-0.1,0.2-0.2,0.3c-0.1,0.1-0.2,0.2-0.4,0.2c-0.2,0.1-0.4,0.1-0.7,0.1H9.6V13.6z M12.1,19.6c-0.1,0.1-0.2,0.3-0.3,0.4
			c-0.1,0.1-0.3,0.2-0.5,0.3c-0.2,0.1-0.4,0.1-0.7,0.1h-1v-2.3h0.9c0.6,0,1.1,0.1,1.4,0.3c0.3,0.2,0.4,0.4,0.4,0.8
			C12.2,19.3,12.1,19.5,12.1,19.6z"/>
		<path class="st0" d="M16.8,13.7h2.1c0.2,0,0.4,0.2,0.4,0.4v8.3c0,0.2,0.2,0.4,0.4,0.4h2c0.2,0,0.4-0.2,0.4-0.4v-8.3
			c0-0.2,0.2-0.4,0.4-0.4h2.1c0.2,0,0.4-0.2,0.4-0.4v-1.6c0-0.2-0.2-0.4-0.4-0.4h-8c-0.2,0-0.4,0.2-0.4,0.4v1.6
			C16.4,13.5,16.6,13.7,16.8,13.7z"/>
		<path class="st0" d="M35,17.7c-0.2-0.4-0.5-0.8-0.9-1.1c-0.4-0.3-0.9-0.6-1.4-0.7c-0.6-0.2-1.2-0.3-2-0.3h-1.1v-1.5
			c0-0.2,0.2-0.4,0.4-0.4h4c0.2,0,0.4-0.2,0.4-0.4v-1.6c0-0.2-0.2-0.4-0.4-0.4h-6.8c-0.2,0-0.4,0.2-0.4,0.4v10.8
			c0,0.2,0.2,0.4,0.4,0.4h3.3c1.5,0,2.7-0.3,3.5-0.9c0.8-0.6,1.3-1.6,1.3-2.8C35.3,18.6,35.2,18.1,35,17.7z M32.2,19.6
			c-0.1,0.2-0.2,0.3-0.3,0.4c-0.1,0.1-0.3,0.2-0.5,0.3c-0.2,0.1-0.4,0.1-0.7,0.1h-1V18h0.9c0.3,0,0.6,0,0.9,0.1
			c0.2,0.1,0.4,0.1,0.5,0.2c0.1,0.1,0.2,0.2,0.3,0.3c0.1,0.1,0.1,0.3,0.1,0.5C32.3,19.3,32.2,19.5,32.2,19.6z"/>
	</g>
	<g>
		<path class="st0" d="M13.6,27.9h0.8c0.3,0,0.6,0,0.8,0.1c0.2,0.1,0.4,0.2,0.6,0.3c0.2,0.1,0.3,0.3,0.3,0.4
			c0.1,0.2,0.1,0.4,0.1,0.5c0,0.2,0,0.4-0.1,0.6c-0.1,0.2-0.2,0.3-0.4,0.5c-0.2,0.1-0.4,0.2-0.6,0.3c-0.2,0.1-0.5,0.1-0.8,0.1H13
			v-4.9h3v0.6h-2.3V27.9z M15.6,29.3c0-0.1,0-0.3-0.1-0.4c0-0.1-0.1-0.2-0.2-0.3c-0.1-0.1-0.2-0.1-0.4-0.2c-0.1,0-0.3-0.1-0.5-0.1
			h-0.7v1.8h0.8c0.4,0,0.7-0.1,0.9-0.2C15.5,29.8,15.6,29.6,15.6,29.3z"/>
		<path class="st0" d="M20.8,30.8h-0.7l-0.3-1.1h-2l-0.3,1.1h-0.7l1.6-4.9h0.9L20.8,30.8z M19.5,29.1l-0.8-2.6l-0.8,2.6H19.5z"/>
		<path class="st0" d="M24.7,30.8H24v-2.3h-2.1v2.3h-0.7v-4.9h0.7V28H24v-2.1h0.7V30.8z"/>
		<path class="st0" d="M29,30.8h-0.8l-1.8-2.4v2.4h-0.7v-4.9h0.7v2.3l1.8-2.3h0.8L27,28.2L29,30.8z"/>
	</g>
</g>
</svg>
