<?xml version="1.0" encoding="utf-8"?>
<!-- Generator: Adobe Illustrator 23.1.0, SVG Export Plug-In . SVG Version: 6.00 Build 0)  -->
<svg version="1.1" id="Слой_1" xmlns="http://www.w3.org/2000/svg" xmlns:xlink="http://www.w3.org/1999/xlink" x="0px" y="0px"
	 viewBox="0 0 42 42" style="enable-background:new 0 0 42 42;" xml:space="preserve">
<style type="text/css">
	.st0{fill:#2D2D2D;}
	.st1{fill:#FFCA04;}
</style>
<g id="примеры">
</g>
<g>
	<path class="st0" d="M35.7,19.3c-0.3-2.5-1.2-4.7-2.6-6.8c-3.1-4.6-8.7-7-14.2-6.2c-2,0.3-3.8,0.9-5.5,1.9
		c-4.3,2.7-6.7,6.5-7.2,11.6c-0.1,1.4,0,2.8,0.3,4.2c0.7,3.4,2.5,6.2,5.1,8.4c2.7,2.3,5.9,3.5,9.8,3.5c0.3,0,0.9,0,1.5-0.1
		c3.2-0.3,6-1.7,8.3-3.9c1.1-1,2-2.2,2.7-3.6C35.5,25.5,36.1,22.5,35.7,19.3z M20.9,10.9c0.8,0.8,1.6,1.7,2.4,2.5
		c-2,2.1-4.1,4.1-6.1,6.1c-0.8-0.8-1.6-1.6-2.4-2.4C16.8,15.1,18.9,13,20.9,10.9z M11.1,20.8c0.8-0.8,1.6-1.6,2.4-2.5
		c0.8,0.9,1.6,1.7,2.4,2.5c-0.8,0.8-1.6,1.6-2.4,2.4C12.7,22.4,12,21.7,11.1,20.8z M14.8,24.5c3.3-3.3,6.5-6.6,9.8-9.9
		c0.8,0.8,1.6,1.7,2.4,2.5l-9.8,9.8C16.4,26.1,15.7,25.4,14.8,24.5z M20.9,30.6c-0.8-0.8-1.6-1.6-2.4-2.4c3.4-3.4,6.5-6.6,9.8-9.9
		c0.9,1,1.3,1.4,2.4,2.5C26.3,25.2,24.2,27.3,20.9,30.6z"/>
	<g>
		<path class="st1" d="M30.7,20.8c-3.3,3.3-6.6,6.6-9.8,9.8c-0.8-0.8-1.6-1.6-2.4-2.4c3.2-3.3,6.5-6.6,9.8-9.9
			C29.1,19.2,29.9,20,30.7,20.8z"/>
		<path class="st1" d="M27,17.1l-9.8,9.8c-0.8-0.8-1.6-1.6-2.4-2.4c3.3-3.3,6.5-6.6,9.8-9.9C25.5,15.5,26.3,16.3,27,17.1z"/>
		<path class="st1" d="M15.9,20.8c-0.8,0.8-1.6,1.6-2.4,2.4c-0.8-0.8-1.6-1.6-2.4-2.4c0.8-0.8,1.6-1.6,2.4-2.5
			C14.4,19.2,15.1,20,15.9,20.8z"/>
		<path class="st1" d="M23.3,13.4c-2,2.1-4.1,4.1-6.1,6.1c-0.8-0.8-1.6-1.6-2.4-2.4c2-2,4-4.1,6.1-6.2
			C21.8,11.8,22.6,12.6,23.3,13.4z"/>
	</g>
</g>
</svg>
