<?xml version="1.0" encoding="utf-8"?>
<!-- Generator: Adobe Illustrator 26.1.0, SVG Export Plug-In . SVG Version: 6.00 Build 0)  -->
<svg version="1.1" id="Layer_1" xmlns="http://www.w3.org/2000/svg" xmlns:xlink="http://www.w3.org/1999/xlink" x="0px" y="0px"
	 viewBox="0 0 42 42" style="enable-background:new 0 0 42 42;" xml:space="preserve">
<style type="text/css">
	.st0{fill:#2675CA;}
	.st1{fill:#FFFFFF;}
	.st2{fill:#191919;}
	.st3{fill:url(#SVGID_1_);}
	.st4{fill:url(#SVGID_00000159469656645437645270000014465123427390026431_);}
	.st5{fill:url(#SVGID_00000041992492233732275530000017816267531088965816_);}
</style>
<g id="фон">
</g>
<g id="примеры">
</g>
<g id="лого">
	<g>
		<circle class="st0" cx="21" cy="21" r="12.3"/>
		<path class="st1" d="M20.5,27.1h1c0.3,0,0.4-0.2,0.4-0.4v-1c1.5-0.2,2.6-1.2,2.6-2.8c0-1.9-1.4-2.3-2.3-2.6
			c-0.5-0.2-2.4-0.5-2.4-1.4c0-0.6,0.7-0.8,1.1-0.8s0.9,0.1,1.1,0.4c0.2,0.2,0.2,0.3,0.3,0.4c0.1,0.2,0.1,0.4,0.4,0.4H24
			c0.3,0,0.4-0.1,0.4-0.4c0-1.4-1.1-2.2-2.4-2.5v-1.1c0-0.2-0.1-0.4-0.4-0.4h-1c-0.3,0-0.4,0.2-0.4,0.4v1.1
			c-1.4,0.3-2.5,1.1-2.5,2.6c0,1.7,1.2,2.3,2.5,2.7c1.1,0.4,2.3,0.4,2.3,1.2s-0.6,0.9-1.3,0.9c-0.5,0-1-0.1-1.3-0.5
			c-0.2-0.2-0.2-0.4-0.2-0.6c0-0.3-0.2-0.4-0.5-0.4h-1.3c-0.3,0-0.4,0.1-0.4,0.4c0,1.6,1.2,2.5,2.6,2.8v1.1
			C20.1,27,20.2,27.1,20.5,27.1z"/>
		<path class="st1" d="M13.3,21c0,3.3,2.2,6.2,5.2,7.2c0.1,0,0.2,0.2,0.2,0.3v1c0,0.2-0.2,0.4-0.4,0.3c-3.8-1.1-6.6-4.7-6.6-8.9
			s2.8-7.7,6.6-8.9c0.2-0.1,0.4,0.1,0.4,0.3v1c0,0.1-0.1,0.3-0.2,0.3C15.4,14.9,13.3,17.7,13.3,21z"/>
		<path class="st1" d="M30.1,21c0,4.1-2.7,7.6-6.4,8.8c-0.2,0.1-0.4-0.1-0.4-0.3v-1c0-0.1,0.1-0.3,0.2-0.3c2.9-1.1,5-3.9,5-7.2
			s-2.1-6.1-5-7.2c-0.1,0-0.2-0.2-0.2-0.3v-1c0-0.2,0.2-0.4,0.4-0.3C27.4,13.4,30.1,16.9,30.1,21z"/>
	</g>
</g>
<g>
	<g>
		<circle class="st2" cx="33.8" cy="33.8" r="8.2"/>
	</g>
	<g>
		<linearGradient id="SVGID_1_" gradientUnits="userSpaceOnUse" x1="37.4065" y1="27.7919" x2="27.2409" y2="35.932">
			<stop  offset="0" style="stop-color:#00D478"/>
			<stop  offset="1" style="stop-color:#6E00BF"/>
		</linearGradient>
		<path class="st3" d="M28.5,31.8c2.4,0,4.7,0,7.1,0c0.5,0,0.9,0,1.4,0c0.1,0,0.2,0,0.2-0.1c0.6-0.6,1.2-1.2,1.7-1.9
			c0,0,0.1-0.1,0.1-0.2c-0.1,0-0.2,0-0.2,0c-2.8,0-5.7,0-8.5,0c-0.1,0-0.2,0-0.3,0.1c-0.6,0.6-1.1,1.2-1.7,1.8c0,0-0.1,0.1-0.1,0.1
			c0,0,0,0,0,0.1C28.3,31.8,28.4,31.8,28.5,31.8z"/>
		
			<linearGradient id="SVGID_00000026854197239219288130000018264128827751562410_" gradientUnits="userSpaceOnUse" x1="38.899" y1="29.6557" x2="28.7334" y2="37.7959">
			<stop  offset="0" style="stop-color:#00D478"/>
			<stop  offset="1" style="stop-color:#6E00BF"/>
		</linearGradient>
		<path style="fill:url(#SVGID_00000026854197239219288130000018264128827751562410_);" d="M30,34.8c0.1,0.1,0.2,0.2,0.4,0.2
			c1.7,0,3.4,0,5.1,0c1.1,0,2.2,0,3.3,0c0.1,0,0.3,0,0.1-0.2c-0.6-0.6-1.1-1.2-1.7-1.8c-0.1-0.1-0.2-0.1-0.3-0.1c-0.5,0-1,0-1.5,0
			c-2.3,0-4.7,0-7,0c-0.1,0-0.2,0-0.3,0c0.1,0.1,0.1,0.1,0.2,0.2C28.9,33.6,29.5,34.2,30,34.8z"/>
		
			<linearGradient id="SVGID_00000071548163114932927270000011614858669156519076_" gradientUnits="userSpaceOnUse" x1="40.4857" y1="31.6373" x2="30.3201" y2="39.7774">
			<stop  offset="0" style="stop-color:#00D478"/>
			<stop  offset="1" style="stop-color:#6E00BF"/>
		</linearGradient>
		<path style="fill:url(#SVGID_00000071548163114932927270000011614858669156519076_);" d="M39,36c-0.3,0-0.6,0-0.9,0
			c-2.5,0-5,0-7.5,0c-0.1,0-0.2,0-0.3,0.1c-0.6,0.6-1.1,1.2-1.7,1.8c0,0-0.1,0.1-0.1,0.1c0,0,0,0,0,0c0.1,0,0.2,0,0.2,0
			c2.8,0,5.6,0,8.4,0c0,0,0.1,0,0.1,0c0.1,0,0.1,0,0.2-0.1c0.6-0.6,1.2-1.3,1.8-1.9c0,0,0-0.1,0.1-0.1C39.1,36,39,36,39,36z"/>
	</g>
</g>
</svg>
