<?xml version="1.0" encoding="utf-8"?>
<!-- Generator: Adobe Illustrator 26.0.1, SVG Export Plug-In . SVG Version: 6.00 Build 0)  -->
<svg version="1.1" id="Layer_1" xmlns="http://www.w3.org/2000/svg" xmlns:xlink="http://www.w3.org/1999/xlink" x="0px" y="0px"
	 viewBox="0 0 42 42" style="enable-background:new 0 0 42 42;" xml:space="preserve">
<style type="text/css">
	.st0{fill:#FF0000;}
</style>
<g id="фон">
</g>
<g id="примеры">
</g>
<g>
	<path class="st0" d="M23.1,11c0-0.5,0.1-0.9,0.3-1.4c0.4-1,1.1-1.8,2.1-2.3c2-1,4-2,5.9-3c0,0.1,0,0.3,0,0.4c0,1.1,0,2.3,0,3.4
		c0,1.6,0,3.1,0,4.7c0,0.1,0,0.2,0,0.3c0,0,0,0.1,0,0.1c0,1,0,1.9,0,2.9c0,0.8,0,1.6,0,2.4c0,0.8,0,1.6,0,2.4c0,0.2,0,0.4,0,0.6
		c0,1.1,0,2.2,0,3.3c-0.1,1.6-0.9,2.9-2.4,3.6c-1.9,1-3.9,1.9-5.8,2.9c0,0-0.1,0-0.1,0c0-0.1,0-0.2,0-0.3c0-6.7,0-13.3,0-20
		C23.1,11.1,23.1,11,23.1,11z"/>
	<path class="st0" d="M10.6,28.4c0-0.5,0.2-1,0.4-1.5c0.5-0.9,1.2-1.5,2.1-2c1.4-0.7,2.7-1.4,4.1-2.1c0.5-0.3,1.1-0.5,1.6-0.8
		c0,0,0.1,0.1,0.1,0.1c0,0,0,0.1,0,0.1c0,0.1,0,0.1,0,0.2c0,1.5,0,2.9,0,4.4c0,0.4,0,0.9,0,1.3c0,1,0,2.1,0,3.1
		c-0.1,0.7-0.3,1.3-0.7,1.9c-0.4,0.6-0.9,1-1.5,1.3c-2,1-4,2-6,3c0,0,0,0,0,0c0-0.1,0-0.2,0-0.2c0-2.8,0-5.6,0-8.5
		C10.6,28.7,10.6,28.6,10.6,28.4z"/>
</g>
</svg>
