<?xml version="1.0" encoding="utf-8"?>
<!-- Generator: Adobe Illustrator 26.0.1, SVG Export Plug-In . SVG Version: 6.00 Build 0)  -->
<svg version="1.1" id="Layer_1" xmlns="http://www.w3.org/2000/svg" xmlns:xlink="http://www.w3.org/1999/xlink" x="0px" y="0px"
	 viewBox="0 0 42 42" style="enable-background:new 0 0 42 42;" xml:space="preserve">
<style type="text/css">
	.st0{fill:#005098;}
	.st1{fill:#F7A600;}
	.st2{fill-rule:evenodd;clip-rule:evenodd;fill:#FAB31E;}
	.st3{fill-rule:evenodd;clip-rule:evenodd;fill:#E40520;}
	.st4{fill-rule:evenodd;clip-rule:evenodd;fill:#06326E;}
	.st5{fill-rule:evenodd;clip-rule:evenodd;fill:#FFFFFF;}
	.st6{fill:#64A3FF;}
</style>
<g id="фон">
</g>
<g id="примеры">
</g>
<g>
	<g id="лого">
		<g>
			<g>
				<path class="st0" d="M7.3,29l-1.4,3.7L5.7,32c-0.4-0.9-0.9-1.8-2-2.3L5,34.5h1.5L8.6,29L7.3,29"/>
				<polyline class="st0" points="8.4,34.4 9.3,28.9 10.7,28.9 9.8,34.4 8.4,34.4 				"/>
				<path class="st0" d="M14.9,29c-0.3-0.1-0.7-0.2-1.2-0.2c-1.4,0-2.3,0.7-2.4,1.8c0,0.8,0.7,1.2,1.2,1.5c0.6,0.3,0.7,0.4,0.7,0.7
					c0,0.4-0.4,0.5-0.9,0.5c-0.6,0-0.9-0.1-1.3-0.3l-0.1-0.1l-0.2,1.2c0.3,0.1,0.9,0.3,1.5,0.3c1.5,0,2.4-0.7,2.5-1.8
					c0-0.6-0.4-1.1-1.2-1.5c-0.5-0.2-0.8-0.4-0.8-0.7s0.2-0.4,0.8-0.4c0.4,0,0.8,0.1,1,0.2l0.1,0.1L14.9,29"/>
				<path class="st0" d="M18.6,29h-1.1c-0.4,0-0.6,0.1-0.7,0.4l-2.1,5h1.5c0,0,0.2-0.7,0.3-0.8c0.1,0,1.6,0,1.8,0
					c0.1,0.2,0.1,0.8,0.1,0.8h1.3L18.6,29 M16.8,32.5c0.1-0.3,0.6-1.5,0.6-1.5s0.1-0.3,0.2-0.5l0.1,0.4c0,0,0.3,1.3,0.3,1.6
					C17.8,32.5,17.1,32.5,16.8,32.5z"/>
				<path class="st1" d="M4.6,29H2.4V29c1.8,0.4,2.9,1.5,3.4,2.8l-0.5-2.5C5.1,29,4.9,29,4.6,29z"/>
			</g>
			<g>
				<path class="st2" d="M30.9,35.9c0.9,0.9,2.2,1.4,3.5,1.4c2.9,0,5.3-2.3,5.3-5.3s-2.3-5.3-5.3-5.3c-1.4,0-2.6,0.5-3.5,1.4
					c-1,0.9-1.8,2.3-1.8,3.9C29.2,33.5,29.9,34.9,30.9,35.9L30.9,35.9z"/>
				<path class="st3" d="M32.6,31.4c0-0.2-0.1-0.4-0.1-0.6h-3.2c0.1-0.2,0.1-0.4,0.1-0.6h2.9c-0.1-0.2-0.1-0.4-0.2-0.6h-2.4
					c0.1-0.2,0.2-0.4,0.3-0.6h1.8c-0.1-0.2-0.2-0.4-0.4-0.6h-1c0.1-0.2,0.4-0.4,0.5-0.6c-0.9-0.9-2.2-1.4-3.5-1.4
					c-2.9,0-5.3,2.3-5.3,5.3s2.3,5.3,5.3,5.3c1.4,0,2.6-0.5,3.5-1.4l0,0l0,0c0.2-0.1,0.4-0.4,0.5-0.6h-1c-0.1-0.1-0.3-0.4-0.4-0.6
					h1.8c0.1-0.1,0.2-0.4,0.3-0.6h-2.5c-0.1-0.1-0.1-0.4-0.2-0.6h2.9c0.1-0.1,0.1-0.4,0.1-0.6c0.1-0.2,0.1-0.4,0.1-0.6
					c0-0.2,0-0.4,0-0.6C32.6,31.8,32.6,31.6,32.6,31.4L32.6,31.4z"/>
				<path class="st4" d="M29.1,33.5c-0.1,0.1-0.3,0.1-0.4,0.1c-0.3,0-0.4-0.1-0.4-0.5c0-0.1,0-0.1,0-0.2v-0.2v-0.1l0.2-1.5H29
					l-0.1,0.3h0.4l0.1,0.6H29l-0.1,0.9c0,0.1,0,0.1,0,0.1c0,0.1,0.1,0.1,0.2,0.1c0.1,0,0.1,0,0.1,0L29.1,33.5L29.1,33.5z"/>
				<path class="st4" d="M30.9,33.5c-0.2,0.1-0.4,0.1-0.6,0.1c-0.6,0-0.9-0.4-0.9-0.9c0-0.7,0.4-1.3,1-1.3c0.4,0,0.7,0.3,0.7,0.8
					c0,0.1,0,0.3-0.1,0.5h-1.1v0.1c0,0.2,0.1,0.4,0.5,0.4c0.2,0,0.4-0.1,0.6-0.1L30.9,33.5L30.9,33.5z M30.5,32.2c0-0.1,0-0.1,0-0.1
					c0-0.1-0.1-0.3-0.3-0.3c-0.1,0-0.3,0.1-0.4,0.4L30.5,32.2L30.5,32.2z"/>
				<polygon class="st4" points="24.8,33.5 24.2,33.5 24.5,31.5 23.8,33.5 23.4,33.5 23.4,31.5 23.1,33.5 22.5,33.5 22.9,30.8 
					23.7,30.8 23.8,32.5 24.3,30.8 25.3,30.8 				"/>
				<path class="st4" d="M26.1,32.6c-0.1,0-0.1,0-0.1,0c-0.3,0-0.5,0.1-0.5,0.4c0,0.1,0.1,0.2,0.2,0.2
					C26.1,33.1,26.1,32.9,26.1,32.6L26.1,32.6z M26.6,33.5h-0.5v-0.2c-0.1,0.1-0.3,0.3-0.6,0.3c-0.3,0-0.5-0.2-0.5-0.6
					c0-0.1,0-0.2,0.1-0.3c0.1-0.4,0.4-0.5,0.9-0.6c0.1,0,0.1,0,0.2,0c0-0.1,0-0.1,0-0.1c0-0.1-0.1-0.2-0.4-0.2c-0.1,0-0.4,0-0.4,0.1
					l-0.1,0.1l0,0l0.1-0.5c0.3-0.1,0.4-0.1,0.7-0.1c0.5,0,0.7,0.2,0.7,0.7c0,0.1,0,0.2,0,0.4l-0.1,0.8v0.1L26.6,33.5L26.6,33.5
					L26.6,33.5L26.6,33.5z"/>
				<path class="st4" d="M33.6,31.3c0.1,0,0.3,0.1,0.5,0.1l0.1-0.6c-0.1,0-0.1,0-0.1-0.1l-0.2-0.1c-0.1,0-0.1,0-0.2,0
					c-0.3,0-0.4,0-0.6,0.1c-0.1,0.1-0.2,0.1-0.4,0.3h-0.1L32,31.6v-0.2h-0.6L31,33.5h0.6l0.2-1.2c0,0,0.1-0.1,0.1-0.2
					C32,32,32.2,32,32.3,32c0,0,0,0,0.1,0c0,0.1,0,0.3,0,0.4c0,0.7,0.4,1.2,1,1.2c0.1,0,0.3,0,0.5-0.1l0.1-0.6
					c-0.2,0.1-0.4,0.1-0.5,0.1c-0.4,0-0.5-0.2-0.5-0.7C32.9,31.8,33.2,31.3,33.6,31.3L33.6,31.3z"/>
				<path class="st4" d="M38.4,30.8l-0.1,0.7c-0.1-0.2-0.3-0.3-0.5-0.3c-0.3,0-0.6,0.1-0.7,0.5l0,0l-0.4-0.2v-0.2h-0.6l-0.4,2.2h0.6
					l0.2-1.2c0,0,0.1-0.1,0.2-0.2c0.1-0.1,0.1-0.1,0.2-0.1c-0.1,0.2-0.1,0.4-0.1,0.7c0,0.5,0.3,0.9,0.7,0.9c0.2,0,0.4-0.1,0.5-0.2
					v0.2h0.5l0.4-2.7H38.4L38.4,30.8z M37.7,33c-0.2,0-0.3-0.1-0.3-0.4c0-0.4,0.2-0.7,0.4-0.7c0.2,0,0.3,0.1,0.3,0.4
					C38.2,32.7,38,33,37.7,33L37.7,33z"/>
				<path class="st4" d="M35.1,32.6c-0.1,0-0.1,0-0.1,0c-0.3,0-0.5,0.1-0.5,0.4c0,0.1,0.1,0.2,0.2,0.2C35,33.1,35.1,32.9,35.1,32.6
					L35.1,32.6z M35.6,33.5H35v-0.2c-0.1,0.1-0.3,0.3-0.6,0.3s-0.5-0.2-0.5-0.6c0-0.5,0.4-0.8,1-0.8c0.1,0,0.1,0,0.2,0
					c0-0.1,0-0.1,0-0.1c0-0.1-0.1-0.2-0.4-0.2c-0.1,0-0.4,0-0.4,0.1h-0.1l0,0l0.1-0.5c0.3-0.1,0.4-0.1,0.7-0.1
					c0.5,0,0.7,0.2,0.7,0.7c0,0.1,0,0.2,0,0.4l-0.1,0.8v0.1L35.6,33.5L35.6,33.5L35.6,33.5L35.6,33.5z"/>
				<path class="st4" d="M27.8,31.9c0.1,0,0.3,0,0.4,0l0.1-0.5c-0.1,0-0.4-0.1-0.5-0.1c-0.7,0-0.9,0.4-0.9,0.7
					c0,0.3,0.1,0.4,0.4,0.6c0.2,0.1,0.3,0.1,0.3,0.2c0,0.1-0.1,0.2-0.4,0.2c-0.1,0-0.3,0-0.5-0.1l-0.1,0.5l0,0h0.1c0,0,0.1,0,0.1,0
					c0.1,0,0.2,0,0.3,0c0.7,0,0.9-0.2,0.9-0.7c0-0.3-0.1-0.4-0.4-0.6c-0.1,0-0.1-0.1-0.1-0.1C27.5,31.9,27.6,31.9,27.8,31.9
					L27.8,31.9z"/>
				<path class="st5" d="M34.4,30.8l-0.1,0.6c-0.2-0.1-0.4-0.1-0.6-0.1c-0.4,0-0.7,0.4-0.7,1c0,0.4,0.2,0.7,0.5,0.7
					c0.1,0,0.3-0.1,0.5-0.1l-0.1,0.6c-0.2,0.1-0.4,0.1-0.5,0.1c-0.6,0-1-0.4-1-1.2c0-0.9,0.5-1.6,1.3-1.6c0.1,0,0.1,0,0.2,0l0.2,0.1
					C34.3,30.8,34.3,30.8,34.4,30.8L34.4,30.8z"/>
				<path class="st5" d="M32.6,31.2C32.6,31.2,32.5,31.2,32.6,31.2c-0.2,0-0.4,0.1-0.5,0.4l0.1-0.4h-0.5l-0.4,2.2h0.6
					c0.2-1.3,0.3-1.5,0.5-1.5c0,0,0,0,0.1,0C32.4,31.6,32.5,31.3,32.6,31.2L32.6,31.2L32.6,31.2z"/>
				<path class="st5" d="M29.3,33.3c-0.1,0.1-0.3,0.1-0.4,0.1c-0.3,0-0.4-0.1-0.4-0.5c0-0.1,0-0.1,0-0.2v-0.2v-0.1l0.2-1.5h0.6
					l0,0.4h0.3l-0.1,0.5h-0.3L29,32.6c0,0.1,0,0.1,0,0.1c0,0.1,0.1,0.1,0.2,0.1c0.1,0,0.1,0,0.1,0L29.3,33.3L29.3,33.3z"/>
				<path class="st5" d="M27.1,31.9c0,0.3,0.1,0.4,0.4,0.6c0.2,0.1,0.3,0.1,0.3,0.2c0,0.1-0.1,0.2-0.3,0.2c-0.1,0-0.3,0-0.5-0.1
					l-0.1,0.5l0,0H27c0,0,0.1,0,0.1,0c0.1,0,0.2,0,0.3,0c0.6,0,0.9-0.2,0.9-0.7c0-0.3-0.1-0.4-0.4-0.6c-0.2-0.1-0.3-0.1-0.3-0.2
					c0-0.1,0.1-0.1,0.3-0.1c0.1,0,0.3,0,0.4,0l0.1-0.5c-0.1,0-0.4-0.1-0.5-0.1C27.3,31.1,27.1,31.5,27.1,31.9L27.1,31.9z"/>
				<path class="st5" d="M38.7,33.4h-0.5v-0.2c-0.1,0.1-0.3,0.2-0.5,0.2c-0.4,0-0.7-0.4-0.7-0.9c0-0.7,0.4-1.3,0.9-1.3
					c0.2,0,0.4,0.1,0.5,0.3l0.1-0.7h0.6L38.7,33.4L38.7,33.4z M37.9,32.9c0.3,0,0.4-0.3,0.4-0.7c0-0.3-0.1-0.4-0.3-0.4
					c-0.3,0-0.4,0.3-0.4,0.7C37.6,32.7,37.7,32.9,37.9,32.9L37.9,32.9z"/>
				<path class="st5" d="M31,33.3c-0.2,0.1-0.4,0.1-0.6,0.1c-0.7,0-0.9-0.4-0.9-0.9c0-0.7,0.4-1.3,1-1.3c0.4,0,0.7,0.3,0.7,0.8
					c0,0.1,0,0.3-0.1,0.5h-1.1v0.1c0,0.2,0.1,0.4,0.5,0.4c0.2,0,0.4-0.1,0.6-0.1L31,33.3L31,33.3z M30.7,32c0-0.1,0-0.1,0-0.1
					c0-0.1-0.1-0.3-0.3-0.3c-0.1,0-0.3,0.1-0.4,0.4L30.7,32L30.7,32z"/>
				<polygon class="st5" points="25,33.4 24.4,33.4 24.7,31.3 23.9,33.4 23.6,33.4 23.5,31.3 23.2,33.4 22.6,33.4 23.1,30.7 
					23.9,30.7 23.9,32.4 24.5,30.7 25.4,30.7 				"/>
				<path class="st5" d="M26.3,32.4c-0.1,0-0.1,0-0.1,0c-0.3,0-0.5,0.1-0.5,0.4c0,0.1,0.1,0.2,0.2,0.2C26.1,33,26.3,32.7,26.3,32.4
					L26.3,32.4z M26.7,33.4h-0.4v-0.2c-0.1,0.1-0.4,0.3-0.6,0.3c-0.3,0-0.5-0.2-0.5-0.6c0-0.5,0.4-0.8,1-0.8c0.1,0,0.1,0,0.2,0
					c0-0.1,0-0.1,0-0.1c0-0.1-0.1-0.2-0.4-0.2c-0.1,0-0.4,0-0.4,0.1h-0.1h-0.1l0.1-0.5c0.3-0.1,0.4-0.1,0.7-0.1
					c0.5,0,0.7,0.2,0.7,0.7c0,0.1,0,0.2-0.1,0.4L26.8,33v0.1v0.1L26.7,33.4L26.7,33.4L26.7,33.4z"/>
				<path class="st5" d="M35.3,32.4c-0.1,0-0.1,0-0.1,0c-0.3,0-0.5,0.1-0.5,0.4c0,0.1,0.1,0.2,0.2,0.2C35.1,33,35.3,32.7,35.3,32.4
					L35.3,32.4z M35.7,33.4h-0.4v-0.2c-0.1,0.1-0.4,0.3-0.6,0.3c-0.3,0-0.5-0.2-0.5-0.6c0-0.5,0.4-0.8,1-0.8c0.1,0,0.1,0,0.2,0
					c0-0.1,0-0.1,0-0.1c0-0.1-0.1-0.2-0.4-0.2c-0.1,0-0.4,0-0.4,0.1h-0.1h-0.1l0.1-0.5c0.3-0.1,0.4-0.1,0.7-0.1
					c0.5,0,0.7,0.2,0.7,0.7c0,0.1,0,0.2-0.1,0.4L35.7,33v0.1L35.7,33.4L35.7,33.4L35.7,33.4L35.7,33.4z"/>
				<path class="st5" d="M37.2,31.2C37.2,31.2,37.2,31.2,37.2,31.2c-0.2,0-0.4,0.1-0.5,0.4l0.1-0.4h-0.5l-0.4,2.2h0.6
					c0.2-1.3,0.3-1.5,0.5-1.5c0,0,0,0,0.1,0C37.1,31.6,37.2,31.3,37.2,31.2L37.2,31.2L37.2,31.2z"/>
			</g>
		</g>
	</g>
	<g>
		<path class="st6" d="M23.1,22.7c-0.3,0-0.6,0-0.9,0c0,0-0.1,0-0.1,0c-0.8,0-1.5-0.2-2.2-0.4C19,22,18.2,21.5,17.4,21
			c-0.7-0.5-1.3-1.1-1.8-1.7c-0.6-0.7-1-1.5-1.3-2.4c0-0.1-0.1-0.1-0.1-0.1c-0.7,0-1.5,0-2.2,0c0,0-0.1,0-0.1,0c0-0.8,0-1.5,0-2.3
			c0.6,0,1.3,0,1.9,0c-0.1-0.5-0.1-1.1,0-1.6c-0.7,0-1.3,0-1.9,0c0-0.8,0-1.5,0-2.3c0.8,0,1.6,0,2.5,0c0.2-0.5,0.4-0.9,0.7-1.4
			c0.5-0.8,1-1.5,1.7-2.1c1-0.9,2.1-1.5,3.3-1.9C20.4,5,21,4.9,21.6,4.8c0.2,0,0.4,0,0.6-0.1c0.2,0,0.4,0,0.7,0c0.1,0,0.1,0,0.2,0
			c0.4,0,0.7,0,1.1,0.1c0.6,0.1,1.2,0.3,1.8,0.5c0.7,0.3,1.4,0.7,2.1,1.2C28.2,6.7,28.2,6.6,28,7c-0.3,0.6-0.6,1.2-0.9,1.8
			c0,0,0,0,0,0c-1.6-1.4-3.4-2-5.6-1.7c-2.1,0.4-3.7,1.6-4.7,3.4c0,0,0,0,0,0c3.1,0,6.3,0,9.4,0c0,0,0,0.1,0,0.1
			c-0.4,0.7-0.7,1.4-1.1,2.1c0,0.1-0.1,0.1-0.1,0.1c-2.4,0-4.8,0-7.2,0c-0.6,0-1.1,0-1.7,0c-0.1,0-0.2,0-0.2,0.1c0,0.3,0,0.6,0,0.9
			c0,0.2,0,0.3,0,0.5c2.8,0,5.5,0,8.3,0c0,0.1,0,0.1-0.1,0.1c-0.3,0.7-0.7,1.4-1,2.1c0,0.1-0.1,0.1-0.1,0.1c-2.1,0-4.2,0-6.3,0
			c0,0-0.1,0-0.1,0c0,0,0,0,0,0c0,0.1,0.1,0.2,0.1,0.3c0.4,0.6,0.9,1.2,1.4,1.7c0.7,0.6,1.4,1,2.3,1.3c0.8,0.3,1.7,0.4,2.6,0.3
			c0.5,0,1.1-0.2,1.6-0.3c0.8-0.3,1.4-0.6,2.1-1.1c0.2-0.1,0.2-0.1,0.3,0c0.4,0.5,0.8,0.9,1.3,1.4c0.2,0.2,0.1,0.2,0,0.3
			C28,21,27.5,21.3,27,21.5c-0.7,0.3-1.3,0.7-2,0.8c-0.5,0.1-1,0.2-1.5,0.3C23.4,22.7,23.2,22.7,23.1,22.7z"/>
	</g>
</g>
</svg>
