<?xml version="1.0" encoding="utf-8"?>
<!-- Generator: Adobe Illustrator 25.0.0, SVG Export Plug-In . SVG Version: 6.00 Build 0)  -->
<svg version="1.1" xmlns="http://www.w3.org/2000/svg" xmlns:xlink="http://www.w3.org/1999/xlink" x="0px" y="0px"
	 viewBox="0 0 42 42" enable-background="new 0 0 42 42" xml:space="preserve">
<g id="фон">
</g>
<g id="примеры">
</g>
<g id="лого">
	<g>
		<g>
			<circle fill="#FFFFFF" cx="20.857378" cy="22.4968338" r="12.6451149"/>
			<path fill="#315C34" d="M20.9999142,9.5647898c-7.1952257,0-13.0282631,5.8329935-13.0282631,13.028348
				s5.8330369,13.0283489,13.0282631,13.0283489c7.1953983,0,13.0284328-5.8329926,13.0284328-13.0283489
				S28.1953125,9.5647898,20.9999142,9.5647898z M20.9999142,34.8779869c-6.784668,0-12.2847633-5.5000954-12.2847633-12.2848492
				s5.5000954-12.2848492,12.2847633-12.2848492c6.7848396,0,12.2849369,5.5000963,12.2849369,12.2848492
				S27.7847538,34.8779869,20.9999142,34.8779869z"/>
			<circle fill="#315C34" cx="20.9999828" cy="22.5931377" r="11.1873713"/>
			<g>
				<polygon fill="#315C34" points="17.0407505,6.3785129 13.5417585,6.3785129 13.5417585,20.5043488 17.0407505,24.1213646 
					20.5397434,20.5043488 20.5397434,6.3785129 				"/>
				<polygon fill="#F3CD46" points="14.0609798,11.9500895 16.8401222,14.7292309 16.8401222,16.2456627 14.0816317,13.4871731 				
					"/>
				<polygon fill="#F3CD46" points="14.0609798,14.1878586 16.8401222,16.9669991 16.8401222,18.4834309 14.0816317,15.7249422 				
					"/>
				<polygon fill="#F3CD46" points="14.0609798,16.4256287 16.8401222,19.2047691 16.8401222,20.7212009 14.0816317,17.9627113 				
					"/>
				<polygon fill="#F3CD46" points="14.0609798,18.6633968 16.8401222,21.4425392 16.8401222,22.958971 14.0816317,20.2004814 				
					"/>
				<polygon fill="#F3CD46" points="20.0263977,11.9500895 17.2472572,14.7292309 17.2472572,16.2456627 20.0057468,13.4871731 				
					"/>
				<polygon fill="#F3CD46" points="20.0263977,14.1878586 17.2472572,16.9669991 17.2472572,18.4834309 20.0057468,15.7249422 				
					"/>
				<polygon fill="#F3CD46" points="20.0263977,16.4256287 17.2472572,19.2047691 17.2472572,20.7212009 20.0057468,17.9627113 				
					"/>
				<polygon fill="#F3CD46" points="20.0263977,18.6633968 17.2472572,21.4425392 17.2472572,22.958971 20.0057468,20.2004814 				
					"/>
				<g>
					<polygon fill="#F3CD46" points="17.2473125,7.1219769 17.2473125,12.5814495 17.2473125,14.097868 20.0058575,11.3393841 
						20.0263653,9.8022747 20.0263653,7.1219769 					"/>
					<polygon fill="#F3CD46" points="14.0610332,7.1219769 14.0610332,9.8022747 14.0815411,11.3393841 16.840086,14.097868 
						16.840086,12.5814495 16.840086,7.1219769 					"/>
				</g>
				<polygon fill="#BEAD3E" points="14.6156282,7.121995 14.6156282,9.9070368 17.0466385,12.338048 19.5248547,9.8598328 
					19.5248547,7.121995 				"/>
				<rect x="16.8400879" y="7.0275869" fill="#315C34" width="0.4071681" height="7.0702891"/>
				<polygon fill="#315C34" points="19.1177273,10.2669601 19.5248547,9.8517199 19.5248547,6.6301556 19.1176586,6.6301556 				"/>
				<polygon fill="#315C34" points="14.6156282,9.9070368 15.0228291,10.3142376 15.0228291,6.6301556 14.6156282,6.6301556 				"/>
			</g>
			<path fill="#FFFFFF" d="M11.6535711,18.8774357l3.3748798,3.3866901
				c2.1125975,1.8572388,1.7231627,2.5947857,1.7231627,4.1418228v1.2514496l-3.7022543-3.7654152
				c-0.8956432-0.9109249-1.3957882-2.1247406-1.3957882-3.3874779V18.8774357z"/>
			<path fill="#FFFFFF" d="M11.6535711,23.2674179l3.3748798,3.3866901
				c2.1125975,1.8572388,1.7231627,2.5947857,1.7231627,4.1418209v1.2514496l-3.7022543-3.7654152
				c-0.8956432-0.910923-1.3957882-2.1247387-1.3957882-3.3874779V23.2674179z"/>
			<g>
				<path fill="#F3CD46" d="M23.9004421,19.2654572c0.011755-0.107048,0.0095081-0.2145271,0.0281773-0.3211861
					c0.0145206-0.0836678,0.0221272-0.1697559,0.0221272-0.257225c0-0.8200798-0.6672649-1.4869995-1.4873447-1.4869995
					c-0.8200779,0-1.4873447,0.6669197-1.4873447,1.4869995c0,0.3644028,0.1334534,0.7153206,0.3754673,0.9870682
					c0.0649967,0.0732937,0.0649967,0.1714821,0,0.2447777c-0.2420139,0.272438-0.3754673,0.6230125-0.3754673,0.9874153
					c0,0.8197327,0.6672668,1.4866524,1.4873447,1.4866524c0.8200798,0,1.4873447-0.6669197,1.4873447-1.4866524
					c0-0.0881634-0.0076065-0.1742496-0.0221272-0.2575722l-0.0006924-0.0006905
					c-0.0186691-0.1063137-0.0162487-0.213707-0.0278301-0.3204956h4.0507812v0.5786705h0.5128956v0.5540371h-0.5128956v0.837841
					h0.5574951v-0.4130211h0.5018311v0.4130211h1.0707359v-0.8024464h-0.9034004v-0.5894318h0.9034004V20.327549h0.5369244
					v-1.0620918H23.9004421z M23.369915,20.7455406c0.0089874,0.052206,0.0138283,0.1057949,0.0138283,0.1607666
					c0,0.5075359-0.4128056,0.9203415-0.9203415,0.9203415s-0.9203415-0.4128056-0.9203415-0.9203415
					c0-0.2257652,0.0822849-0.4425392,0.2316418-0.6112576c0.2565327-0.2886868,0.2565327-0.7080612,0-0.9970932
					c-0.1493568-0.1683731-0.2316418-0.3851471-0.2316418-0.6109104c0-0.5075378,0.4128056-0.9206886,0.9203415-0.9206886
					s0.9203415,0.4131508,0.9203415,0.9206886c0,0.0549717-0.0048409,0.1085587-0.0131378,0.1600742
					C23.2592793,19.4770451,23.2592793,20.1156139,23.369915,20.7455406z"/>
				<path fill="#F3CD46" d="M22.463377,22.4682732c-0.8613281,0-1.5625-0.7006836-1.5625-1.5620117
					c0-0.3818359,0.1396484-0.75,0.3935547-1.0371094c0.0410156-0.0449219,0.0410156-0.1000977,0.0009766-0.1450195
					c-0.2548828-0.2866211-0.3945312-0.6547852-0.3945312-1.0371094c0-0.8613281,0.7011719-1.5620117,1.5625-1.5620117
					s1.5625,0.7006836,1.5625,1.5620117c0,0.0898438-0.0078125,0.1806641-0.0234375,0.2700195
					c-0.0107422,0.0605469-0.0136719,0.121582-0.0175781,0.1821289c-0.0009766,0.0170898-0.0019531,0.0341797-0.0029297,0.0512695
					h6.7109375v1.2124023h-0.5371094v0.5786133h-0.9033203v0.4389648h0.9033203v0.9526367h-1.2207031v-0.4125977h-0.3515625
					v0.4125977h-0.7080078v-0.987793h0.5126953v-0.4038086h-0.5126953v-0.5786133h-3.8935547
					c0.0009766,0.0161133,0.0019531,0.0322266,0.0029297,0.0488281c0.0029297,0.0610352,0.0068359,0.1225586,0.0175781,0.1835938
					c0.015625,0.0893555,0.0234375,0.1801758,0.0234375,0.2709961C24.025877,21.7675896,23.3247051,22.4682732,22.463377,22.4682732
					z M22.463377,17.2754021c-0.7783203,0-1.4121094,0.6333008-1.4121094,1.4116211
					c0,0.3457031,0.1259766,0.6787109,0.3554688,0.9375c0.0908203,0.1010742,0.0908203,0.2431641,0,0.3442383
					c-0.2294922,0.2592773-0.3554688,0.5922852-0.3554688,0.9375c0,0.7783203,0.6337891,1.4116211,1.4121094,1.4116211
					s1.4121094-0.6333008,1.4121094-1.4116211c0-0.0820312-0.0068359-0.1640625-0.0214844-0.2441406
					c-0.0117188-0.0678711-0.015625-0.1347656-0.0195312-0.2021484c-0.0019531-0.0415039-0.0048828-0.0830078-0.0087891-0.1240234
					l-0.0097656-0.0834961h4.2099609v0.5786133h0.5126953v0.7045898H28.025877v0.6870117h0.4072266V21.81007h0.6523438v0.4125977
					h0.9199219v-0.6518555h-0.9033203v-0.7397461h0.9033203v-0.5786133h0.5371094v-0.9116211h-6.7255859l0.0097656-0.0834961
					c0.0039062-0.0419922,0.0068359-0.0839844,0.0087891-0.1259766c0.0039062-0.0668945,0.0078125-0.1337891,0.0185547-0.199707
					c0.0146484-0.081543,0.0214844-0.1635742,0.0214844-0.2446289
					C23.8754864,17.9087029,23.2416973,17.2754021,22.463377,17.2754021z M22.463377,21.9018669
					c-0.5488281,0-0.9951172-0.4467773-0.9951172-0.9956055c0-0.2436523,0.0888672-0.4785156,0.25-0.6611328
					c0.2304688-0.2597656,0.2304688-0.637207,0-0.8974609c-0.1611328-0.1821289-0.25-0.4165039-0.25-0.6606445
					c0-0.5493164,0.4462891-0.9960938,0.9951172-0.9960938s0.9951172,0.4467773,0.9951172,0.9960938
					c0,0.0551758-0.0048828,0.1108398-0.0136719,0.1713867c-0.1103516,0.6220703-0.1103516,1.2519531-0.0009766,1.8745117v0.0004883
					c0.0097656,0.0576172,0.0146484,0.1162109,0.0146484,0.1728516
					C23.4584942,21.4550896,23.0122051,21.9018669,22.463377,21.9018669z M22.463377,17.84132
					c-0.4658203,0-0.8447266,0.3793945-0.8447266,0.8457031c0,0.2070312,0.0751953,0.4067383,0.2119141,0.5610352
					c0.2822266,0.3178711,0.2822266,0.7792969,0,1.0966797c-0.1367188,0.1547852-0.2119141,0.3544922-0.2119141,0.5615234
					c0,0.4663086,0.3789062,0.8452148,0.8447266,0.8452148s0.8447266-0.3789062,0.8447266-0.8452148
					c0-0.0483398-0.0039062-0.0981445-0.0126953-0.1484375l0,0c-0.1113281-0.6391602-0.1113281-1.2861328,0.0009766-1.9238281
					c0.0078125-0.0463867,0.0117188-0.0957031,0.0117188-0.1469727C23.3081036,18.2207146,22.9291973,17.84132,22.463377,17.84132z"
					/>
			</g>
			<g>
				<defs>
					<circle id="SVGID_19_" cx="20.9999828" cy="22.5931377" r="11.1873713"/>
				</defs>
				<clipPath id="SVGID_1_">
					<use xlink:href="#SVGID_19_"  overflow="visible"/>
				</clipPath>
				<g clip-path="url(#SVGID_1_)">
					<path fill="#FFFFFF" d="M17.3885918,33.2316589v-8.5987549c0-0.4780941,0.3875732-0.8656673,0.8656693-0.8656673h1.608099
						c0.2295895,0,0.4497757,0.0912037,0.6121197,0.2535477l0.4544659,0.4544678l0.4662685-0.4662685
						c0.162344-0.162344,0.3825302-0.2535477,0.6121197-0.2535477h1.0424709c0.2563705,0,0.4995575,0.113636,0.6640339,0.3102932
						l0.2833271,0.3387623l0.2298183-0.2962685c0.1639729-0.2113895,0.4164734-0.3350849,0.6840038-0.3350849h0.3940678
						c0.3081341,0,0.5930405,0.1637897,0.7480888,0.4300709l0.0210018,0.036068l0.0202503-0.0343418
						c0.1556454-0.2639675,0.4392509-0.4259777,0.7456894-0.4259777h0.3513012c0.2701416,0,0.5247955,0.1261082,0.6885319,0.3409729
						l0.0666027,0.0873985v-0.0000019c0.1561546-0.2619362,0.438612-0.4223881,0.7435627-0.4223881h3.3317776l0.2360229,2.7733555
						l-0.8260727,4.2187519c0,0-4.0596447,3.068264-4.0950012,3.1036682
						c-0.0353584,0.0354042-3.9060936,1.3335152-3.9060936,1.3335152l-3.735302,0.1652145L17.3885918,33.2316589z"/>
					<g>
						<path fill="#315C34" d="M20.3218803,29.9043312v-4.2496071c0-0.568388-0.4619427-1.0306721-1.0303326-1.0306721h-1.1238117
							v8.8096752h0.5240364v-2.4898529l0.6147881-0.0088711C19.8660774,30.926815,20.3218803,30.4645309,20.3218803,29.9043312z
							 M19.7978439,29.9043312c0,0.2753239-0.2238064,0.5025425-0.4994717,0.5066357l-0.6065998,0.0088711v-5.2717495h0.5997753
							c0.2790775,0,0.5062962,0.2272186,0.5062962,0.5066357V29.9043312z"/>
						<path fill="#315C34" d="M18.6918926,33.5732536h-0.5244141c-0.0771484,0-0.1396484-0.0625-0.1396484-0.1396484v-8.8095703
							c0-0.0771484,0.0625-0.1396484,0.1396484-0.1396484h1.1240234c0.6455078,0,1.1699219,0.5249023,1.1699219,1.1704102v4.2495117
							c0,0.6357422-0.5175781,1.1611328-1.1533203,1.1704102l-0.4765625,0.0068359v2.3520508
							C18.8315411,33.5107536,18.7690411,33.5732536,18.6918926,33.5732536z M18.307127,33.2939568h0.2451172v-2.3500977
							c0-0.0761719,0.0615234-0.1386719,0.1376953-0.1396484l0.6142578-0.0087891
							c0.484375-0.0073242,0.8779297-0.4067383,0.8779297-0.8911133v-4.2495117c0-0.4912109-0.3994141-0.8911133-0.890625-0.8911133
							h-0.984375V33.2939568z M18.6918926,30.5595818c-0.0371094,0-0.0722656-0.0141602-0.0976562-0.0400391
							c-0.0273438-0.0263672-0.0419922-0.0620117-0.0419922-0.0996094v-5.2719727c0-0.0771484,0.0625-0.1396484,0.1396484-0.1396484
							h0.5996094c0.3564453,0,0.6455078,0.2900391,0.6455078,0.6464844v4.2495117
							c0,0.3510742-0.2851562,0.6411133-0.6367188,0.6464844l-0.6064453,0.0087891
							C18.6928692,30.5595818,18.6928692,30.5595818,18.6918926,30.5595818z M18.8315411,25.2876091v4.9907227l0.4648438-0.0068359
							c0.1992188-0.003418,0.3613281-0.1679688,0.3613281-0.3671875v-4.2495117
							c0-0.2026367-0.1640625-0.3671875-0.3662109-0.3671875H18.8315411z"/>
					</g>
					<g>
						<path fill="#315C34" d="M22.6684437,24.624052c-0.568388,0-1.0303326,0.4622841-1.0303326,1.0306721v8.8560753h1.0303326
							c0.568388,0,1.0310135-0.4622841,1.0310135-1.0303307v-4.6347866h-0.5240364v4.6347866
							c0,0.2790756-0.2272186,0.5062943-0.5069771,0.5062943h-0.5062962v-8.3320389
							c0-0.279417,0.2272186-0.5066357,0.5062962-0.5066357c0.2797585,0,0.5069771,0.2272186,0.5069771,0.5066357v1.6069088
							h0.5240364v-1.6069088C23.6994572,25.0863361,23.2368317,24.624052,22.6684437,24.624052z"/>
						<path fill="#315C34" d="M22.6684551,34.6504021h-1.0302734c-0.0771484,0-0.1396484-0.0625-0.1396484-0.1396484v-8.855957
							c0-0.6455078,0.5244141-1.1704102,1.1699219-1.1704102s1.1708984,0.5249023,1.1708984,1.1704102v1.6069336
							c0,0.0771484-0.0625,0.1396484-0.1396484,0.1396484h-0.5244141c-0.0771484,0-0.1396484-0.0625-0.1396484-0.1396484v-1.6069336
							c0-0.2026367-0.1650391-0.3671875-0.3671875-0.3671875s-0.3662109,0.1645508-0.3662109,0.3671875v8.1923828h0.3662109
							c0.2021484,0,0.3671875-0.1645508,0.3671875-0.3666992v-4.6347656c0-0.0771484,0.0625-0.1396484,0.1396484-0.1396484
							h0.5244141c0.0771484,0,0.1396484,0.0625,0.1396484,0.1396484v4.6347656
							C23.8393536,34.1254997,23.3139629,34.6504021,22.6684551,34.6504021z M21.7778301,34.3711052h0.890625
							c0.4912109,0,0.8916016-0.3994141,0.8916016-0.890625V28.985363h-0.2451172v4.4951172
							c0,0.3564453-0.2900391,0.6459961-0.6464844,0.6459961h-0.5058594c-0.0771484,0-0.1396484-0.0625-0.1396484-0.1396484
							v-8.3320312c0-0.3564453,0.2890625-0.6464844,0.6455078-0.6464844s0.6464844,0.2900391,0.6464844,0.6464844v1.4672852
							h0.2451172v-1.4672852c0-0.4912109-0.4003906-0.8911133-0.8916016-0.8911133s-0.890625,0.3999023-0.890625,0.8911133
							V34.3711052z"/>
					</g>
					<g>
						<path fill="#315C34" d="M31.8452168,25.2391796v-0.4728603h-2.9845505v0.2364311h-0.0027294v6.3617859l2.5389824-2.5386429
							v-1.8494778c0-0.5520134-0.4496613-1.0013332-1.0016727-1.0013332h-1.0132732v-0.7359028H31.8452168z M30.3952465,26.4991188
							c0.2633839,0,0.4776382,0.2142544,0.4776382,0.4772968v1.632494l-1.4909115,1.4905701v-3.6003609H30.3952465z"/>
						<path fill="#315C34" d="M28.8579082,31.504406c-0.0175781,0-0.0361328-0.003418-0.0537109-0.0107422
							c-0.0517578-0.0214844-0.0859375-0.0722656-0.0859375-0.1289062v-6.3618164
							c0-0.0097656,0.0009766-0.0195312,0.0029297-0.0288086v-0.2080078c0-0.0771484,0.0625-0.1396484,0.1396484-0.1396484h2.984375
							c0.0771484,0,0.1396484,0.0625,0.1396484,0.1396484v0.4731445c0,0.0771484-0.0625,0.1396484-0.1396484,0.1396484h-2.3232422
							v0.456543h0.8730469c0.6298828,0,1.1416016,0.5117188,1.1416016,1.1411133v1.8491211
							c0,0.0371094-0.0146484,0.0727539-0.0410156,0.0986328l-2.5390625,2.5390625
							C28.9301739,31.4902458,28.8940411,31.504406,28.8579082,31.504406z M28.9975567,25.0317497v5.9956055l2.2597656-2.2597656
							v-1.7910156c0-0.4750977-0.3867188-0.8618164-0.8623047-0.8618164h-1.0126953
							c-0.0771484,0-0.1396484-0.0625-0.1396484-0.1396484v-0.7358398c0-0.0771484,0.0625-0.1396484,0.1396484-0.1396484h2.3232422
							v-0.1938477h-2.7050781v0.097168C29.0004864,25.0127068,28.9995098,25.0224724,28.9975567,25.0317497z M29.3823223,30.2392693
							c-0.0175781,0-0.0361328-0.003418-0.0537109-0.0107422c-0.0517578-0.0214844-0.0859375-0.0722656-0.0859375-0.1289062
							v-3.6005859c0-0.0771484,0.0625-0.1396484,0.1396484-0.1396484h1.0126953
							c0.3408203,0,0.6171875,0.2768555,0.6171875,0.6171875v1.6323242c0,0.0371094-0.0146484,0.0727539-0.0410156,0.0986328
							l-1.4902344,1.4907227C29.4545879,30.2251091,29.4184551,30.2392693,29.3823223,30.2392693z M29.5219707,26.6386833v3.1235352
							l1.2109375-1.2114258v-1.5742188c0-0.1860352-0.1513672-0.3378906-0.3378906-0.3378906H29.5219707z"/>
					</g>
					<g>
						<path fill="#315C34" d="M26.52178,27.6099243c0.0390644-0.0997505,0.0779572-0.1996708,0.1045685-0.30023
							c0.0731812-0.2760487,0.1356144-0.5677052,0.1629086-0.8165035c0.0682335-0.6212273,0.082222-0.9075108,0.2980118-1.1095257
							l-0.0058002-0.0025158c0.0962105-0.0790234,0.1613731-0.1941681,0.1613731-0.3284187
							c0-0.2379646-0.1929302-0.4308529-0.4308968-0.4308529s-0.4308968,0.1928883-0.4308968,0.4308529
							c0,0.0114727,0.0056286,0.0210686,0.0064812,0.0323277l-0.0052872-0.0022621
							c0.1801376,1.1900845-0.1021805,2.5049934-0.1042271,2.5049934h-0.179285h-0.179285
							c-0.0020466,0-0.2843647-1.314909-0.1042271-2.5049934l-0.0052872,0.0022621
							c0.0008526-0.0112591,0.0064812-0.0208549,0.0064812-0.0323277c0-0.2379646-0.1929302-0.4308529-0.4308968-0.4308529
							c-0.2379646,0-0.4308968,0.1928883-0.4308968,0.4308529c0,0.1342506,0.0651646,0.2493954,0.1613731,0.3284187
							l-0.0058002,0.0025158c0.2157898,0.2020149,0.2297783,0.4882984,0.2980118,1.1095257
							c0.0272942,0.2487984,0.0897274,0.5404549,0.1629086,0.8165035c0.0266113,0.1005592,0.0655041,0.2004795,0.1045685,0.30023
							c-0.5122662,0.1020088-0.8994923,0.5542717-0.8994923,1.0958786v4.5416451h0.6987152v-4.5416451
							c0-0.2313137,0.188324-0.4192982,0.4196377-0.4192982h0.2041893h0.2041893
							c0.2313137,0,0.4196396,0.1879845,0.4196396,0.4192982v4.5416451h0.6987152v-4.5416451
							C27.4212742,28.164196,27.0340462,27.7119331,26.52178,27.6099243z"/>
						<path fill="#315C34" d="M27.4213848,33.3872185h-0.6992188c-0.0771484,0-0.1396484-0.0625-0.1396484-0.1396484v-4.5419922
							c0-0.1538086-0.125-0.2792969-0.2792969-0.2792969h-0.4082031c-0.1542969,0-0.2802734,0.1254883-0.2802734,0.2792969V33.24757
							c0,0.0771484-0.0625,0.1396484-0.1396484,0.1396484H24.775877c-0.0771484,0-0.1396484-0.0625-0.1396484-0.1396484v-4.5419922
							c0-0.5424805,0.3505859-1.0195312,0.8535156-1.1904297c-0.0195312-0.0561523-0.0380859-0.1123047-0.0537109-0.1689453
							c-0.0839844-0.3178711-0.1416016-0.6074219-0.1660156-0.8383789l-0.015625-0.1376953
							c-0.0537109-0.5039062-0.0791016-0.7333984-0.2402344-0.8842773
							c-0.0087891-0.0087891-0.0166016-0.0185547-0.0234375-0.0288086c-0.1123047-0.1088867-0.1757812-0.253418-0.1757812-0.4042969
							c0-0.3144531,0.2558594-0.5703125,0.5703125-0.5703125c0.3154297,0,0.5712891,0.2558594,0.5712891,0.5703125
							c0,0.0058594-0.0009766,0.0146484-0.0019531,0.0234375c0,0.0092773,0,0.0185547-0.0019531,0.027832
							c-0.1445312,0.9604492,0.0205078,2.0141602,0.0820312,2.3442383h0.1279297
							c0.0615234-0.3300781,0.2265625-1.3837891,0.0820312-2.3442383c-0.0019531-0.0112305-0.0029297-0.0224609-0.0019531-0.0332031
							c0-0.0068359-0.0009766-0.0131836-0.0009766-0.0180664c0-0.3144531,0.2558594-0.5703125,0.5703125-0.5703125
							s0.5703125,0.2558594,0.5703125,0.5703125c0,0.1513672-0.0644531,0.296875-0.1777344,0.4057617
							c-0.0058594,0.0097656-0.0126953,0.019043-0.0214844,0.0273438c-0.1601562,0.1499023-0.1855469,0.3779297-0.2392578,0.8774414
							l-0.015625,0.1450195c-0.0322266,0.293457-0.1083984,0.6171875-0.1669922,0.8369141
							c-0.0146484,0.0566406-0.0332031,0.1132812-0.0537109,0.1699219c0.5029297,0.1713867,0.8535156,0.6484375,0.8535156,1.1904297
							V33.24757C27.5610332,33.3247185,27.4985332,33.3872185,27.4213848,33.3872185z M26.8618145,33.1079216h0.4199219v-4.4023438
							c0-0.4643555-0.3310547-0.8676758-0.7871094-0.9584961c-0.0410156-0.0083008-0.0751953-0.0336914-0.0957031-0.0703125
							c-0.0019531-0.0043945-0.0039062-0.0087891-0.0058594-0.0136719
							c-0.0039062,0.0073242-0.0068359,0.0126953-0.0097656,0.0161133
							c-0.0263672,0.0307617-0.0644531,0.0483398-0.1054688,0.0483398h-0.3583984
							c-0.0410156,0-0.0791016-0.0175781-0.1054688-0.0483398c-0.0029297-0.003418-0.0058594-0.0087891-0.0097656-0.0161133
							c-0.0019531,0.0048828-0.0039062,0.0092773-0.0058594,0.0136719
							c-0.0205078,0.0366211-0.0546875,0.0620117-0.0957031,0.0703125
							c-0.4560547,0.0908203-0.7871094,0.4941406-0.7871094,0.9584961v4.4023438h0.4199219v-4.4023438
							c0-0.3081055,0.2509766-0.5585938,0.5595703-0.5585938h0.4082031c0.3076172,0,0.5585938,0.2504883,0.5585938,0.5585938
							V33.1079216z M26.5219707,25.0698357c0.125,0.8378906,0.0292969,1.8061523-0.0576172,2.2949219
							c0.0097656-0.0302734,0.0185547-0.0600586,0.0273438-0.0908203c0.0800781-0.3022461,0.1347656-0.5771484,0.1591797-0.7958984
							l0.015625-0.1445312c0.0546875-0.5117188,0.0859375-0.8037109,0.2949219-1.0214844
							c0.0078125-0.0146484,0.0175781-0.0273438,0.03125-0.0385742c0.0410156-0.0336914,0.1103516-0.1079102,0.1103516-0.2207031
							c0-0.1606445-0.1308594-0.2910156-0.2910156-0.2910156s-0.2910156,0.1303711-0.2910156,0.2910156
							C26.5219707,25.0581169,26.5219707,25.0639763,26.5219707,25.0698357z M25.2387676,25.3144646
							c0.2070312,0.2182617,0.2382812,0.512207,0.2939453,1.0253906l0.0146484,0.1381836
							c0.0234375,0.2172852,0.078125,0.4921875,0.1582031,0.7958984c0.0078125,0.0292969,0.0175781,0.0585938,0.0273438,0.0883789
							c-0.0859375-0.484375-0.1796875-1.4335938-0.0615234-2.2626953c-0.0009766-0.0087891-0.0009766-0.0175781-0.0009766-0.0268555
							c0.0009766-0.0097656,0.0068359-0.0341797,0.0097656-0.043457c-0.0029297-0.137207-0.1337891-0.2675781-0.2949219-0.2675781
							c-0.1601562,0-0.2910156,0.1303711-0.2910156,0.2910156c0,0.112793,0.0693359,0.1870117,0.1103516,0.2207031
							C25.2192364,25.2851677,25.2299786,25.2993279,25.2387676,25.3144646z"/>
					</g>
				</g>
			</g>
			<path fill="#315C34" d="M31.8898258,22.0532513c0.0089664,0.1800518,0.0274258,0.3576641,0.0274258,0.5398903
				c0,6.0198116-4.8974419,10.9173183-10.9172535,10.9173183c-3.1239624,0-5.9380598-1.3261528-7.9298954-3.4363976
				c-0.1558552-0.0298653-0.3096008-0.068697-0.4646654-0.1026497c2.0503807,2.3307076,5.0464411,3.8090935,8.3945608,3.8090935
				c6.1785679,0,11.1872997-5.0087318,11.1872997-11.1873646c0-0.3089409-0.0216255-0.6124763-0.0461502-0.9150887
				C32.0612411,21.806942,31.9723682,21.9268665,31.8898258,22.0532513z"/>
		</g>
		<path fill="#315C34" d="M20.0812931,31.6635284L20.0812931,31.6635284c-0.2059669,0-0.3729343,0.1669674-0.3729343,0.3729324
			v1.5194168h0.7458687v-1.5194168C20.4542274,31.8304958,20.2872581,31.6635284,20.0812931,31.6635284z"/>
	</g>
</g>
</svg>
