<?xml version="1.0" encoding="utf-8"?>
<!-- Generator: Adobe Illustrator 25.0.0, SVG Export Plug-In . SVG Version: 6.00 Build 0)  -->
<svg version="1.1" xmlns="http://www.w3.org/2000/svg" xmlns:xlink="http://www.w3.org/1999/xlink" x="0px" y="0px"
	 viewBox="0 0 42 42" style="enable-background:new 0 0 42 42;" xml:space="preserve">
<style type="text/css">
	.st0{opacity:0.3;fill:#FFFFFF;enable-background:new    ;}
	.st1{fill:#06A551;}
	.st2{opacity:0.3;fill:#D8BF49;}
	.st3{opacity:0.3;fill:#5DB02E;}
	.st4{opacity:0.63;fill:#180E51;}
	.st5{opacity:0.56;fill:url(#SVGID_1_);}
	.st6{opacity:0.3;fill:#7F49F4;}
	.st7{opacity:0.3;fill:#F9F9E8;}
	.st8{opacity:0.3;fill:#EBF6F0;}
	.st9{opacity:0.3;fill:#F7E6E9;}
	.st10{opacity:0.3;fill:#4EA3E4;}
	.st11{opacity:0.3;fill:#D89626;}
	.st12{opacity:0.3;fill:#007AE7;}
	.st13{opacity:0.3;fill:#1F79B1;}
	.st14{opacity:0.3;fill:#00ABE8;}
	.st15{opacity:0.3;fill:#021420;}
	.st16{opacity:0.3;fill:#2E9AD0;}
	.st17{opacity:0.3;fill:#9E1F65;}
	.st18{opacity:0.3;fill:#18B9BE;}
	.st19{opacity:0.3;fill:#5F2652;}
	.st20{opacity:0.3;fill:#001A3E;}
	.st21{opacity:0.3;fill:#009A61;}
	.st22{opacity:0.3;fill:#F01010;}
	.st23{opacity:0.3;fill:#009FDF;}
	.st24{opacity:0.3;}
	.st25{opacity:0.3;fill:#F0722A;}
	.st26{opacity:0.3;fill:#0FAFAD;}
	.st27{opacity:0.3;fill:#76B729;}
	.st28{opacity:0.3;fill:#204E76;}
	.st29{opacity:0.3;fill:#5F5742;}
	.st30{opacity:0.3;fill:#ECB244;}
	.st31{opacity:0.3;fill:#015FAE;}
	.st32{opacity:0.3;fill:#F7A600;}
	.st33{opacity:0.3;fill:#2775CA;}
	.st34{opacity:0.3;fill:#5DC8BB;}
	.st35{opacity:0.3;fill:#C53027;}
	.st36{opacity:0.3;fill:#FCE527;}
	.st37{opacity:0.3;fill:#2C7DF7;}
	.st38{opacity:0.3;fill:#444343;enable-background:new    ;}
	.st39{opacity:0.3;fill:#509B47;}
	.st40{fill:url(#SVGID_2_);}
	.st41{opacity:0.3;fill:#FF9E16;}
	.st42{fill:#FFFFFF;}
	.st43{opacity:0.3;fill:#3BB054;}
	.st44{opacity:0.3;fill:#179BD7;}
	.st45{opacity:0.3;fill:#00C452;}
	.st46{opacity:0.3;fill:#F1A114;}
	.st47{opacity:0.3;fill:#FF6600;}
	.st48{opacity:0.3;fill:#FAB31E;}
	.st49{opacity:0.3;fill:#345D9D;}
	.st50{opacity:0.3;fill:#969B9E;}
	.st51{opacity:0.3;fill:#01C853;}
	.st52{opacity:0.3;fill:#FFB600;}
	.st53{opacity:0.3;fill:#008DE4;}
	.st54{opacity:0.3;fill:#F19620;}
	.st55{opacity:0.3;fill:#F90000;}
	.st56{fill:#CF3239;}
	.st57{opacity:0.3;fill:#CF3239;}
	.st58{fill:#F10000;}
	.st59{fill:#F19620;}
	.st60{fill:none;stroke:#F10000;stroke-width:0.25;stroke-miterlimit:10;}
	.st61{fill:#008DE4;}
	.st62{fill:#FFB600;}
	.st63{fill:#01C853;}
	.st64{fill:#009F42;}
	.st65{fill:#007832;}
	.st66{fill:#454749;}
	.st67{fill:#989A9C;}
	.st68{fill:#969B9E;}
	.st69{fill:#0B0809;}
	.st70{fill:#454246;}
	.st71{fill:#434343;}
	.st72{fill:#345D9D;}
	.st73{fill-rule:evenodd;clip-rule:evenodd;fill:#FFFFFF;}
	.st74{fill-rule:evenodd;clip-rule:evenodd;fill:#FAB31E;}
	.st75{fill-rule:evenodd;clip-rule:evenodd;fill:#E40520;}
	.st76{fill-rule:evenodd;clip-rule:evenodd;fill:#06326E;}
	.st77{fill-rule:evenodd;clip-rule:evenodd;fill:#4C4C4C;}
	.st78{fill:#FF6600;}
	.st79{fill:#F4F5F5;}
	.st80{fill:#F1A114;}
	.st81{fill:#62ADE4;}
	.st82{fill:#14C0AF;}
	.st83{fill:#E8EF00;}
	.st84{fill:#009066;}
	.st85{fill:#0096DD;}
	.st86{fill:#00C452;}
	.st87{fill:#A7DB38;}
	.st88{fill:#006036;}
	.st89{fill:#253B80;}
	.st90{fill:#179BD7;}
	.st91{fill:#222D65;}
	.st92{fill:#3BB054;}
	.st93{fill:#0043FA;}
	.st94{fill:#FF9E16;}
	.st95{fill:url(#SVGID_3_);}
	.st96{fill:url(#SVGID_4_);}
	.st97{fill:#2C7DF7;}
	.st98{fill:#FCE527;}
	.st99{fill:#222220;}
	.st100{fill:#C53027;}
	.st101{fill:#5DC8BB;}
	.st102{fill:#5F6161;}
	.st103{fill:#2675CA;}
	.st104{fill:#005098;}
	.st105{fill:#F7A600;}
	.st106{fill:#015FAC;}
	.st107{fill:#ECB244;}
	.st108{fill:#76B729;}
	.st109{fill:#FEFCFD;}
	.st110{fill:#E70027;}
	.st111{fill:#FFFEFF;}
	.st112{fill:url(#SVGID_5_);}
	.st113{fill:#509B47;}
	.st114{fill:url(#SVGID_6_);}
	
		.st115{fill-rule:evenodd;clip-rule:evenodd;fill:#5F5742;stroke:#E2DFD7;stroke-width:0.3529;stroke-linejoin:round;stroke-miterlimit:2.6131;}
	
		.st116{fill-rule:evenodd;clip-rule:evenodd;fill:#FFFFFF;stroke:#5F5742;stroke-width:9.513900e-02;stroke-linejoin:round;stroke-miterlimit:2.6131;}
	.st117{fill-rule:evenodd;clip-rule:evenodd;fill:#5F5742;}
	.st118{fill-rule:evenodd;clip-rule:evenodd;fill:#204E76;}
	.st119{fill:#F90000;}
	.st120{fill:#009FDF;}
	.st121{fill:#0A2973;}
	.st122{fill:#F01010;}
	.st123{fill:#00384F;}
	.st124{fill:#009A61;}
	.st125{fill:#001A3E;}
	.st126{fill:#18B9BE;}
	.st127{fill:#9E1F65;}
	.st128{fill:#632D8F;}
	.st129{fill:#FF5000;}
	.st130{fill:#303147;}
	.st131{fill:#1D1E35;}
	.st132{fill:#B7BBCC;}
	.st133{fill:#6B6D88;}
	.st134{fill:#B7BBCA;}
	.st135{fill:#00ABE8;}
	.st136{fill:#1F79B1;}
	.st137{fill:#007AE7;}
	.st138{fill:#062662;}
	.st139{fill:#09255B;}
	.st140{fill:#D89626;}
	.st141{fill:#4EA3E4;}
	.st142{fill:#FAF9FB;}
	.st143{fill:url(#SVGID_7_);}
	.st144{fill:url(#SVGID_8_);}
	.st145{fill:#F7E6E9;}
	.st146{fill:#E9334C;}
	.st147{fill:#F07885;}
	.st148{fill:#EBF6F0;}
	.st149{fill:url(#SVGID_9_);}
	.st150{fill:none;stroke:#81E1A5;stroke-linecap:round;stroke-linejoin:round;stroke-miterlimit:10;}
	.st151{fill:url(#SVGID_10_);}
	.st152{fill:#F9F9E8;}
	.st153{fill:url(#SVGID_11_);}
	.st154{fill:url(#SVGID_12_);}
	.st155{fill:#F7BF63;}
	.st156{fill:url(#SVGID_13_);}
	.st157{fill:url(#SVGID_14_);}
	.st158{fill:#7F49F4;}
	.st159{fill:#5DB02E;}
	.st160{fill:none;stroke:#397C49;stroke-width:0.5;stroke-miterlimit:10;}
	.st161{fill:none;stroke:#397C49;stroke-width:0.75;stroke-miterlimit:10;}
	.st162{fill:#397C49;}
	.st163{fill:#D8BF49;}
</style>
<g id="фон">
</g>
<g id="примеры">
</g>
<g id="лого">
	<g>
		<path class="st160" d="M15.1,11c0,0-5.6,4.3-3.1,8.2s8.5-0.1,8.4-4.5c-0.1-2.8-1.9-4-1.9-4h8.3c0,0-1,3.9-3,6.7c0,0,1.4,0,2.5-0.1
			c0,0,0.3-2.5,2.5-2.9c2.1-0.4,1.5,0.7,1.5,0.7s0.7-0.4,1.6-0.8s1.5,0.1,1.1,0.6c0,0,0.9-0.4,1.4-0.9s1.9,0.6,0.2,2.5
			c0,0,0.7,2.6-2.6,2c0,0-0.1,2.5-2.8,0.9s-5-0.9-6.8,0.3c-1.8,1.2-4.4,4-4.9,6.6s0.2,4.9,0.2,4.9H19c0,0-1.6-2.5,0-6.7
			c1.7-4.2,5.8-5.3,7.4-5.3s3.7,1.2,3.7,5.1s-4,7.2-6.2,7.8c0,0,3.9-2.1,3.9-5.4s-0.1-4.4-2.1-4.9s-3.8,0.5-4.8,1.6
			c-0.9,1.1-3.5,5.4-0.2,8.7h-8c0,0,0.5-3.4,2.9-6.5s5.5-6.6,6.1-8.8c0.6-2.2,0.1-4.8-0.7-5.5h-1.1c0,0,1.8,1.9,0.9,5.3
			c-0.9,3.4-3.4,5.4-5.7,6.6s-4.4,0.2-5.5-2.1S9.2,13.8,15.1,11z"/>
		<path class="st161" d="M30.2,34.2H9.8c-1.7,0-3.1-1.4-3.1-3V10.8c0-1.7,1.4-3.1,3.1-3.1h20.4c1.7,0,3,1.4,3,3.1v20.4
			C33.2,32.9,31.8,34.2,30.2,34.2z"/>
		<path class="st162" d="M29.7,33H10.3C9,33,8,32,8,30.7V11.3C8,10,9,9,10.3,9h19.4c1.3,0,2.3,1,2.3,2.3v19.4C32,32,30.9,33,29.7,33
			z"/>
		<path class="st163" d="M15.1,11c0,0-5.6,4.3-3.1,8.2s8.5-0.1,8.4-4.5c-0.1-2.8-1.9-4-1.9-4h8.3c0,0-1,3.9-3,6.7c0,0,1.4,0,2.5-0.1
			c0,0,0.3-2.5,2.5-2.9c2.1-0.4,1.5,0.7,1.5,0.7s0.7-0.4,1.6-0.8s1.5,0.1,1.1,0.6c0,0,0.9-0.4,1.4-0.9s1.9,0.6,0.2,2.5
			c0,0,0.7,2.6-2.6,2c0,0-0.1,2.5-2.8,0.9s-5-0.9-6.8,0.3c-1.8,1.2-4.4,4-4.9,6.6s0.2,4.9,0.2,4.9H19c0,0-1.6-2.5,0-6.7
			c1.7-4.2,5.8-5.3,7.4-5.3s3.7,1.2,3.7,5.1s-4,7.2-6.2,7.8c0,0,3.9-2.1,3.9-5.4s-0.1-4.4-2.1-4.9s-3.8,0.5-4.8,1.6
			c-0.9,1.1-3.5,5.4-0.2,8.7h-8c0,0,0.5-3.4,2.9-6.5s5.5-6.6,6.1-8.8c0.6-2.2,0.1-4.8-0.7-5.5h-1.1c0,0,1.8,1.9,0.9,5.3
			c-0.9,3.4-3.4,5.4-5.7,6.6s-4.4,0.2-5.5-2.1S9.2,13.8,15.1,11z"/>
		<g>
			<path class="st162" d="M32.9,16c-0.3,0.6-0.8,0.9-1.4,1.1c-0.6,0.2-1.2,0.2-1.8,0.2c-1.2-0.1-2.4-0.2-3.6-0.1l0-0.2
				c1.2-0.1,2.4,0.1,3.6,0.2c0.6,0.1,1.2,0,1.8-0.1C32.1,16.9,32.7,16.6,32.9,16z"/>
		</g>
	</g>
</g>
</svg>
