<?xml version="1.0" encoding="utf-8"?>
<!-- Generator: Adobe Illustrator 25.0.0, SVG Export Plug-In . SVG Version: 6.00 Build 0)  -->
<svg version="1.1" xmlns="http://www.w3.org/2000/svg" xmlns:xlink="http://www.w3.org/1999/xlink" x="0px" y="0px"
	 viewBox="0 0 42 42" style="enable-background:new 0 0 42 42;" xml:space="preserve">
<style type="text/css">
	.st0{opacity:0.3;fill:#FFFFFF;enable-background:new    ;}
	.st1{fill:#06A551;}
	.st2{opacity:0.3;fill:#D8BF49;}
	.st3{opacity:0.3;fill:#5DB02E;}
	.st4{opacity:0.63;fill:#180E51;}
	.st5{opacity:0.56;fill:url(#SVGID_1_);}
	.st6{opacity:0.3;fill:#7F49F4;}
	.st7{opacity:0.3;fill:#F9F9E8;}
	.st8{opacity:0.3;fill:#EBF6F0;}
	.st9{opacity:0.3;fill:#F7E6E9;}
	.st10{opacity:0.3;fill:#4EA3E4;}
	.st11{opacity:0.3;fill:#D89626;}
	.st12{opacity:0.3;fill:#007AE7;}
	.st13{opacity:0.3;fill:#1F79B1;}
	.st14{opacity:0.3;fill:#00ABE8;}
	.st15{opacity:0.3;fill:#021420;}
	.st16{opacity:0.3;fill:#2E9AD0;}
	.st17{opacity:0.3;fill:#9E1F65;}
	.st18{opacity:0.3;fill:#18B9BE;}
	.st19{opacity:0.3;fill:#5F2652;}
	.st20{opacity:0.3;fill:#001A3E;}
	.st21{opacity:0.3;fill:#009A61;}
	.st22{opacity:0.3;fill:#F01010;}
	.st23{opacity:0.3;fill:#009FDF;}
	.st24{opacity:0.3;}
	.st25{opacity:0.3;fill:#F0722A;}
	.st26{opacity:0.3;fill:#0FAFAD;}
	.st27{opacity:0.3;fill:#76B729;}
	.st28{opacity:0.3;fill:#204E76;}
	.st29{opacity:0.3;fill:#5F5742;}
	.st30{opacity:0.3;fill:#ECB244;}
	.st31{opacity:0.3;fill:#015FAE;}
	.st32{opacity:0.3;fill:#F7A600;}
	.st33{opacity:0.3;fill:#2775CA;}
	.st34{opacity:0.3;fill:#5DC8BB;}
	.st35{opacity:0.3;fill:#C53027;}
	.st36{opacity:0.3;fill:#FCE527;}
	.st37{opacity:0.3;fill:#2C7DF7;}
	.st38{opacity:0.3;fill:#444343;enable-background:new    ;}
	.st39{opacity:0.3;fill:#509B47;}
	.st40{fill:url(#SVGID_2_);}
	.st41{opacity:0.3;fill:#FF9E16;}
	.st42{fill:#FFFFFF;}
	.st43{opacity:0.3;fill:#3BB054;}
	.st44{opacity:0.3;fill:#179BD7;}
	.st45{opacity:0.3;fill:#00C452;}
	.st46{opacity:0.3;fill:#F1A114;}
	.st47{opacity:0.3;fill:#FF6600;}
	.st48{opacity:0.3;fill:#FAB31E;}
	.st49{opacity:0.3;fill:#345D9D;}
	.st50{opacity:0.3;fill:#969B9E;}
	.st51{opacity:0.3;fill:#01C853;}
	.st52{opacity:0.3;fill:#FFB600;}
	.st53{opacity:0.3;fill:#008DE4;}
	.st54{opacity:0.3;fill:#F19620;}
	.st55{opacity:0.3;fill:#F90000;}
	.st56{fill:#CF3239;}
	.st57{opacity:0.3;fill:#CF3239;}
	.st58{fill:#F10000;}
	.st59{fill:#F19620;}
	.st60{fill:none;stroke:#F10000;stroke-width:0.25;stroke-miterlimit:10;}
	.st61{fill:#008DE4;}
	.st62{fill:#FFB600;}
	.st63{fill:#01C853;}
	.st64{fill:#009F42;}
	.st65{fill:#007832;}
	.st66{fill:#454749;}
	.st67{fill:#989A9C;}
	.st68{fill:#969B9E;}
	.st69{fill:#0B0809;}
	.st70{fill:#454246;}
	.st71{fill:#434343;}
	.st72{fill:#345D9D;}
	.st73{fill-rule:evenodd;clip-rule:evenodd;fill:#FFFFFF;}
	.st74{fill-rule:evenodd;clip-rule:evenodd;fill:#FAB31E;}
	.st75{fill-rule:evenodd;clip-rule:evenodd;fill:#E40520;}
	.st76{fill-rule:evenodd;clip-rule:evenodd;fill:#06326E;}
	.st77{fill-rule:evenodd;clip-rule:evenodd;fill:#4C4C4C;}
	.st78{fill:#FF6600;}
	.st79{fill:#F4F5F5;}
	.st80{fill:#F1A114;}
	.st81{fill:#62ADE4;}
	.st82{fill:#14C0AF;}
	.st83{fill:#E8EF00;}
	.st84{fill:#009066;}
	.st85{fill:#0096DD;}
	.st86{fill:#00C452;}
	.st87{fill:#A7DB38;}
	.st88{fill:#006036;}
	.st89{fill:#253B80;}
	.st90{fill:#179BD7;}
	.st91{fill:#222D65;}
	.st92{fill:#3BB054;}
	.st93{fill:#0043FA;}
	.st94{fill:#FF9E16;}
	.st95{fill:url(#SVGID_3_);}
	.st96{fill:url(#SVGID_4_);}
	.st97{fill:#2C7DF7;}
	.st98{fill:#FCE527;}
	.st99{fill:#222220;}
	.st100{fill:#C53027;}
	.st101{fill:#5DC8BB;}
	.st102{fill:#5F6161;}
	.st103{fill:#2675CA;}
	.st104{fill:#005098;}
	.st105{fill:#F7A600;}
	.st106{fill:#015FAC;}
	.st107{fill:#ECB244;}
	.st108{fill:#76B729;}
	.st109{fill:#FEFCFD;}
	.st110{fill:#E70027;}
	.st111{fill:#FFFEFF;}
	.st112{fill:url(#SVGID_5_);}
	.st113{fill:#509B47;}
	.st114{fill:url(#SVGID_6_);}
	
		.st115{fill-rule:evenodd;clip-rule:evenodd;fill:#5F5742;stroke:#E2DFD7;stroke-width:0.3529;stroke-linejoin:round;stroke-miterlimit:2.6131;}
	
		.st116{fill-rule:evenodd;clip-rule:evenodd;fill:#FFFFFF;stroke:#5F5742;stroke-width:9.513900e-02;stroke-linejoin:round;stroke-miterlimit:2.6131;}
	.st117{fill-rule:evenodd;clip-rule:evenodd;fill:#5F5742;}
	.st118{fill-rule:evenodd;clip-rule:evenodd;fill:#204E76;}
	.st119{fill:#F90000;}
	.st120{fill:#009FDF;}
	.st121{fill:#0A2973;}
	.st122{fill:#F01010;}
	.st123{fill:#00384F;}
	.st124{fill:#009A61;}
	.st125{fill:#001A3E;}
	.st126{fill:#18B9BE;}
	.st127{fill:#9E1F65;}
	.st128{fill:#632D8F;}
	.st129{fill:#FF5000;}
	.st130{fill:#303147;}
	.st131{fill:#1D1E35;}
	.st132{fill:#B7BBCC;}
	.st133{fill:#6B6D88;}
	.st134{fill:#B7BBCA;}
	.st135{fill:#00ABE8;}
	.st136{fill:#1F79B1;}
	.st137{fill:#007AE7;}
	.st138{fill:#062662;}
	.st139{fill:#09255B;}
	.st140{fill:#D89626;}
	.st141{fill:#4EA3E4;}
	.st142{fill:#FAF9FB;}
	.st143{fill:url(#SVGID_7_);}
	.st144{fill:url(#SVGID_8_);}
	.st145{fill:#F7E6E9;}
	.st146{fill:#E9334C;}
	.st147{fill:#F07885;}
	.st148{fill:#EBF6F0;}
	.st149{fill:url(#SVGID_9_);}
	.st150{fill:none;stroke:#81E1A5;stroke-linecap:round;stroke-linejoin:round;stroke-miterlimit:10;}
	.st151{fill:url(#SVGID_10_);}
	.st152{fill:#F9F9E8;}
	.st153{fill:url(#SVGID_11_);}
	.st154{fill:url(#SVGID_12_);}
	.st155{fill:#F7BF63;}
	.st156{fill:url(#SVGID_13_);}
	.st157{fill:url(#SVGID_14_);}
	.st158{fill:#7F49F4;}
	.st159{fill:#5DB02E;}
	.st160{fill:none;stroke:#397C49;stroke-width:0.5;stroke-miterlimit:10;}
	.st161{fill:none;stroke:#397C49;stroke-width:0.75;stroke-miterlimit:10;}
	.st162{fill:#397C49;}
	.st163{fill:#D8BF49;}
</style>
<g id="фон">
	<g>
		<circle class="st56" cx="21" cy="21" r="16.2"/>
		<g>
			<path class="st42" d="M9.9,23.8c0,0.1,0,0.1,0.1,0.1l0.5,0.1l0,0.2c-0.3,0-0.7,0-1,0s-0.7,0-1,0l0-0.2L9,23.9
				c0.1,0,0.1-0.1,0.1-0.1c0-0.2,0-0.5,0-0.8v-3.4c0-0.3,0-0.5,0-0.7c0-0.1,0-0.1-0.1-0.1l-0.5-0.2l0-0.2c0.4,0,0.7,0,1,0h3.7
				c0.3,0,0.7,0,1,0l0,0.2l-0.5,0.2c-0.1,0-0.1,0.1-0.1,0.1c0,0.2,0,0.4,0,0.7V23c0,0.3,0,0.6,0,0.8c0,0.1,0,0.1,0.1,0.1l0.5,0.2
				l0,0.2c-0.4,0-0.7,0-1,0c-0.3,0-0.7,0-1,0l0-0.2l0.5-0.1c0.1,0,0.1-0.1,0.1-0.1c0-0.2,0-0.5,0-0.8v-4.2H9.9V23
				C9.9,23.3,9.9,23.6,9.9,23.8z"/>
			<path class="st42" d="M18.4,18.4c0.3,0,0.6,0,0.9,0c0.3,0,0.6,0,0.9,0l0,0.2l-0.4,0.1c-0.1,0-0.1,0-0.2,0.1c0,0-0.1,0.1-0.1,0.1
				S19.4,19,19.4,19s-0.1,0.1-0.1,0.2c-0.1,0.4-0.3,0.8-0.4,1.2c-0.1,0.4-0.3,0.8-0.5,1.1c-0.2,0.4-0.3,0.8-0.5,1.1
				c-0.2,0.4-0.3,0.8-0.5,1.1c-0.1,0.2-0.1,0.3-0.2,0.4c-0.1,0.1-0.1,0.2-0.2,0.2c-0.1,0.1-0.2,0.1-0.3,0.1c-0.1,0-0.2,0-0.4,0
				c-0.2,0-0.5,0-0.8-0.1l0-0.2l0.3-0.1c0.2,0,0.4-0.1,0.5-0.2c0.1-0.1,0.3-0.2,0.4-0.3c0.1-0.1,0.2-0.2,0.3-0.4
				c0.1-0.2,0.2-0.3,0.3-0.5l-1.9-3.7c0-0.1-0.1-0.1-0.1-0.2c0-0.1-0.1-0.1-0.1-0.2c0,0-0.1-0.1-0.1-0.1c0,0-0.1-0.1-0.2-0.1
				l-0.4-0.1l0-0.2c0.3,0,0.6,0,1,0c0.3,0,0.7,0,1.2,0l0,0.2l-0.4,0.1c-0.1,0-0.2,0.1-0.2,0.2c0,0.1,0,0.1,0.1,0.2
				c0,0.1,0.1,0.2,0.2,0.3l1.3,2.6c0.2-0.4,0.4-0.9,0.5-1.3c0.2-0.4,0.3-0.8,0.5-1.3c0.1-0.2,0.1-0.3,0.1-0.4s0-0.2,0-0.2
				c0,0,0-0.1,0-0.1c0,0-0.1,0-0.1-0.1l-0.4-0.1L18.4,18.4z"/>
			<path class="st42" d="M25.8,18.4c0.3,0,0.5,0,0.7,0c0.2,0,0.5,0,0.8,0l0,0.2l-0.5,0.2c-0.1,0-0.1,0.1-0.1,0.1c0,0.2,0,0.4,0,0.7
				V23c0,0.3,0,0.6,0,0.8c0,0.1,0,0.1,0.1,0.1l0.5,0.2l0,0.2c-0.4,0-0.7,0-1,0c-0.3,0-0.7,0-1,0l0-0.2l0.5-0.1
				c0.1,0,0.1-0.1,0.1-0.1c0-0.2,0-0.5,0-0.8v-3.6l-2.1,4.9l-0.3,0l-2.1-5V23c0,0.3,0,0.6,0,0.8c0,0.1,0,0.1,0.1,0.1l0.5,0.1l0,0.2
				c-0.3,0-0.6,0-0.8,0c-0.2,0-0.5,0-0.9,0l0-0.2l0.5-0.2c0.1,0,0.1-0.1,0.1-0.1c0-0.2,0-0.5,0-0.8v-3.4c0-0.3,0-0.5,0-0.7
				c0-0.1,0-0.1-0.1-0.1l-0.5-0.2l0-0.2c0.4,0,0.6,0,0.8,0c0.2,0,0.5,0,0.7,0l1.9,4.6L25.8,18.4z"/>
		</g>
		<path class="st42" d="M29.6,24.3c-1.5-0.6-1.9-3.7-1.3-5.9c0.2-0.7,0.4-1.4,1.1-1.9c0.9-0.7,2.1-0.8,2.8-0.8
			c1.2,0,1.2-0.5,1.2-0.5s0,1.2-1.1,1.4c-1.1,0.2-3.5-0.7-3.6,2.9c-0.1,3.6,1.2,4.2,2.1,4.2c0.8,0,1.4-0.6,1.6-1.9
			c0.2-1.3,0.2-3.1-1.3-3.2C29.1,18.6,29,21,29,21s-0.2-1.8,1-2.7c1.3-0.8,3.7-0.2,3.6,2.7c-0.1,1.3-0.3,2-0.9,2.7
			c-0.6,0.6-1.2,0.8-1.5,0.8C31.1,24.5,30.2,24.5,29.6,24.3z"/>
	</g>
</g>
<g id="примеры">
</g>
<g id="лого">
</g>
</svg>
