<?xml version="1.0" encoding="UTF-8"?>
<!DOCTYPE svg PUBLIC "-//W3C//DTD SVG 1.1//EN" "http://www.w3.org/Graphics/SVG/1.1/DTD/svg11.dtd">
<!-- Creator: CorelDRAW 2019 (64-Bit) -->
<svg xmlns="http://www.w3.org/2000/svg" xml:space="preserve" width="50mm" height="50mm" version="1.1" style="shape-rendering:geometricPrecision; text-rendering:geometricPrecision; image-rendering:optimizeQuality; fill-rule:evenodd; clip-rule:evenodd"
viewBox="0 0 5000 5000"
 xmlns:xlink="http://www.w3.org/1999/xlink"
 xmlns:xodm="http://www.corel.com/coreldraw/odm/2003">
 <defs>
  <style type="text/css">
   <![CDATA[
    .fil0 {fill:none;fill-rule:nonzero}
    .fil1 {fill:black;fill-rule:nonzero}
   ]]>
  </style>
 </defs>
 <g id="Слой_x0020_1">
  <metadata id="CorelCorpID_0Corel-Layer"/>
  <path class="fil0" d="M4121.43 5000l-3242.86 0c-484.52,0 -878.57,-392.86 -878.57,-878.57l0 -3242.86c0,-485.71 394.05,-878.57 878.57,-878.57l3242.86 0c485.71,0 878.57,394.05 878.57,878.57l0 3242.86c0,485.71 -394.05,878.57 -878.57,878.57z"/>
  <polygon class="fil1" points="1289.12,4360.62 1827.29,3428.67 2365.46,2500 2900.35,1568.05 2988.95,1420.38 3028.33,1568.05 3192.4,2181.69 3008.64,2500 2470.47,3428.67 1935.58,4360.62 2578.76,4360.62 3116.93,3428.67 3395.86,2946.29 3527.12,3428.67 3776.51,4360.62 4354.06,4360.62 4104.66,3428.67 3855.27,2500 3789.64,2260.45 4189.98,1568.05 3605.87,1568.05 3586.18,1499.14 3382.73,737.83 3356.48,639.38 2795.34,639.38 2782.21,659.07 2257.17,1568.05 1719,2500 1184.11,3428.67 645.94,4360.62 "/>
 </g>
</svg>
