<?xml version="1.0" encoding="utf-8"?>
<!-- Generator: Adobe Illustrator 26.0.1, SVG Export Plug-In . SVG Version: 6.00 Build 0)  -->
<svg version="1.1" id="Layer_1" xmlns="http://www.w3.org/2000/svg" xmlns:xlink="http://www.w3.org/1999/xlink" x="0px" y="0px"
	 viewBox="0 0 42 42" style="enable-background:new 0 0 42 42;" xml:space="preserve">
<style type="text/css">
	.st0{fill:#F19620;}
	.st1{fill:#3F3F3F;}
	.st2{fill:#F1B830;}
</style>
<g id="фон">
</g>
<g id="примеры">
</g>
<g>
	<g id="лого_00000018203019361278836510000009254163164063337113_">
		<path class="st0" d="M26.5,20.3c2-0.6,2.6-3.7,1.2-5.5c-1.3-1.9-4.6-1.9-4.6-1.9V9.2H21v3.6h-1.8V9.2h-2.4v3.7h-4.3v2.2h1.7
			c0.5,0,1,0.4,1,1v10c0,0.3-0.2,0.4-0.4,0.4H13l-0.5,2.7h4.4v3.6h2.3v-3.6h1.7v3.6H23v-3.6c4-0.4,6.2-1.3,6.6-5
			C29.9,20.6,26.5,20.3,26.5,20.3z M19.3,15.4c0,0,5.1-0.5,5.1,2.2l0,0c0,2.8-5.1,2.2-5.1,2.2v-2.2l0,0
			C19.3,17.6,19.3,15.4,19.3,15.4z M19.3,26.8v-2.4l0,0V22c0,0,6-0.6,6,2.4l0,0C25.5,27.3,19.3,26.8,19.3,26.8z"/>
	</g>
</g>
<g>
	<circle class="st1" cx="33.8" cy="33.8" r="8.2"/>
	<g>
		<path class="st2" d="M33.8,31.1C33.8,31.1,33.8,31.1,33.8,31.1c-0.6,0.6-1.2,1.2-1.8,1.8c-0.2,0.2-0.1,0.2-0.3,0
			c-0.3-0.3-0.6-0.6-0.8-0.8c-0.2-0.2-0.2-0.1,0-0.3c0.8-0.8,1.6-1.6,2.3-2.3c0.2-0.2,0.3-0.3,0.5-0.5c0.1-0.1,0.1-0.1,0.1,0
			c1,1,1.9,1.9,2.9,2.9c0.1,0.1,0.1,0.1,0,0.2c-0.3,0.3-0.6,0.6-1,1c-0.1,0.1-0.1,0.1-0.2,0C35.1,32.4,34.5,31.8,33.8,31.1
			C33.9,31.2,33.9,31.1,33.8,31.1z"/>
		<path class="st2" d="M36.9,35.8C36.9,35.8,36.8,35.8,36.9,35.8c-1,1-2,2-3,3c-0.1,0.1-0.1,0-0.1,0c-1-1-1.9-2-2.9-2.9
			c-0.1-0.1-0.1-0.1,0-0.1c0.3-0.3,0.7-0.6,1-1c0.1-0.1,0.1-0.1,0.2,0c0.6,0.6,1.2,1.2,1.8,1.8c0.1,0.1,0.1,0.1,0.2,0
			c0.6-0.6,1.2-1.2,1.8-1.8c0.1-0.1,0.1-0.1,0.2,0C36.2,35,36.5,35.4,36.9,35.8C36.8,35.7,36.9,35.7,36.9,35.8z"/>
		<path class="st2" d="M33.8,35.1C33.8,35.1,33.8,35,33.8,35.1c-0.4-0.4-0.8-0.8-1.2-1.2c-0.1-0.1,0-0.1,0-0.1
			c0.1-0.1,0.3-0.3,0.4-0.4c0.2-0.2,0.5-0.5,0.7-0.7c0.1-0.1,0.1-0.1,0.2,0c0.4,0.4,0.7,0.7,1.1,1.1c0.1,0.1,0.1,0.1,0,0.2
			c-0.4,0.4-0.7,0.7-1.1,1.1C33.9,35,33.9,35.1,33.8,35.1z"/>
		<path class="st2" d="M31.1,33.8C31.1,33.9,31.1,33.9,31.1,33.8c-0.4,0.4-0.7,0.7-1.1,1.1c0,0-0.1,0-0.1,0c-0.3-0.3-0.7-0.7-1-1
			c0,0,0-0.1,0-0.1c0.3-0.3,0.7-0.7,1-1c0,0,0.1,0,0.1,0C30.4,33.1,30.7,33.4,31.1,33.8C31.1,33.8,31.1,33.8,31.1,33.8z"/>
		<path class="st2" d="M37.7,34.9C37.7,34.9,37.7,34.9,37.7,34.9c-0.4-0.4-0.7-0.7-1.1-1.1c-0.1-0.1,0-0.1,0-0.1
			c0.3-0.3,0.7-0.7,1-1c0.1-0.1,0.1,0,0.1,0c0.3,0.3,0.7,0.7,1,1c0,0,0.1,0.1,0,0.1C38.4,34.2,38.1,34.6,37.7,34.9
			C37.7,34.9,37.7,34.9,37.7,34.9z"/>
	</g>
</g>
</svg>
