<?xml version="1.0" encoding="UTF-8"?>
<!DOCTYPE svg PUBLIC "-//W3C//DTD SVG 1.1//EN" "http://www.w3.org/Graphics/SVG/1.1/DTD/svg11.dtd">
<!-- Creator: CorelDRAW 2019 (64-Bit) -->
<svg xmlns="http://www.w3.org/2000/svg" xml:space="preserve" width="50mm" height="50mm" version="1.1" style="shape-rendering:geometricPrecision; text-rendering:geometricPrecision; image-rendering:optimizeQuality; fill-rule:evenodd; clip-rule:evenodd"
viewBox="0 0 1562.5 1562.5"
 xmlns:xlink="http://www.w3.org/1999/xlink"
 xmlns:xodm="http://www.corel.com/coreldraw/odm/2003">
 <defs>
  <style type="text/css">
   <![CDATA[
    .fil0 {fill:none;fill-rule:nonzero}
    .fil1 {fill:#0090FF}
    .fil2 {fill:white}
   ]]>
  </style>
 </defs>
 <g id="Слой_x0020_1">
  <metadata id="CorelCorpID_0Corel-Layer"/>
  <path class="fil0" d="M1287.95 1562.5l-1013.39 0c-151.41,0 -274.55,-122.77 -274.55,-274.55l0 -1013.39c0,-151.78 123.14,-274.55 274.55,-274.55l1013.39 0c151.78,0 274.55,123.14 274.55,274.55l0 1013.39c0,151.78 -123.14,274.55 -274.55,274.55z"/>
  <g id="_1916754816176">
   <path class="fil1" d="M781.25 1362.69c-319.79,0 -581.43,-261.64 -581.43,-584.33 2.91,-319.79 261.64,-581.43 584.33,-578.52 319.79,2.91 578.52,261.64 578.52,587.24 -2.91,316.88 -261.64,575.62 -581.43,575.62z"/>
   <path class="fil2" d="M836.48 711.49l-17.44 93.03 165.71 23.26 -11.63 43.61 -162.8 -23.26c-11.63,37.79 -17.44,78.49 -31.98,113.38 -14.54,40.7 -29.07,81.4 -46.52,119.19 -23.26,49.42 -63.96,84.31 -119.19,93.03 -31.98,5.82 -66.86,2.91 -93.03,-17.44 -8.72,-5.82 -17.44,-17.44 -17.44,-26.17 0,-11.63 5.82,-26.16 14.54,-31.98 5.81,-2.91 20.35,0 29.07,2.91 8.72,8.72 17.44,20.35 23.26,31.98 17.44,23.26 40.7,26.17 63.96,8.72 26.17,-23.26 40.7,-55.23 49.42,-87.21 17.44,-69.77 34.89,-136.64 49.42,-206.41l0 -11.63 -154.08 -23.26 5.82 -43.61 159.89 23.26 20.35 -90.12 -165.71 -26.16 5.82 -46.52 171.52 23.26c5.82,-17.44 8.72,-31.98 14.54,-46.51 14.53,-52.33 29.07,-104.66 63.96,-151.17 34.89,-46.52 75.59,-75.59 136.64,-72.68 26.16,0 52.33,8.72 69.77,29.07 2.91,2.91 8.72,8.72 8.72,14.53 0,11.63 0,26.17 -8.72,34.88 -11.63,8.72 -26.17,5.82 -37.79,-5.81 -8.72,-8.72 -14.54,-17.44 -23.26,-26.17 -17.44,-23.26 -43.61,-26.16 -63.96,-5.81 -14.53,14.53 -29.07,34.88 -37.79,55.23 -20.35,61.05 -34.88,125.01 -55.23,188.97l159.89 23.26 -11.63 43.61 -154.08 -23.26z"/>
  </g>
 </g>
</svg>
