<?xml version="1.0" encoding="UTF-8"?>
<!DOCTYPE svg PUBLIC "-//W3C//DTD SVG 1.1//EN" "http://www.w3.org/Graphics/SVG/1.1/DTD/svg11.dtd">
<!-- Creator: CorelDRAW 2019 (64-Bit) -->
<svg xmlns="http://www.w3.org/2000/svg" xml:space="preserve" width="50mm" height="50mm" version="1.1" style="shape-rendering:geometricPrecision; text-rendering:geometricPrecision; image-rendering:optimizeQuality; fill-rule:evenodd; clip-rule:evenodd"
viewBox="0 0 1233.21 1233.21"
 xmlns:xlink="http://www.w3.org/1999/xlink"
 xmlns:xodm="http://www.corel.com/coreldraw/odm/2003">
 <defs>
  <style type="text/css">
   <![CDATA[
    .fil0 {fill:none;fill-rule:nonzero}
    .fil1 {fill:#2DA7BF;fill-rule:nonzero}
   ]]>
  </style>
 </defs>
 <g id="Слой_x0020_1">
  <metadata id="CorelCorpID_0Corel-Layer"/>
  <path class="fil0" d="M1016.52 1233.21l-799.83 0c-119.5,0 -216.69,-96.9 -216.69,-216.69l0 -799.83c0,-119.8 97.19,-216.69 216.69,-216.69l799.83 0c119.8,0 216.69,97.19 216.69,216.69l0 799.83c0,119.8 -97.19,216.69 -216.69,216.69z"/>
  <g id="_1916993829776">
   <g id="Layer_2_1_">
    <g id="Layer_1-2">
     <path class="fil1" d="M161.38 564.4l0 -372.88 751.24 756.72c-16.45,13.71 -202.89,161.77 -427.71,95.96 -191.92,-57.58 -329.01,-254.98 -323.53,-479.8zm910.26 109.67l0 367.4 -751.24 -753.98c16.45,-13.71 202.89,-164.51 424.97,-98.7 194.66,60.32 334.49,257.73 326.27,485.29l0 0z"/>
    </g>
   </g>
  </g>
 </g>
</svg>
