<?xml version="1.0" encoding="UTF-8"?>
<!DOCTYPE svg PUBLIC "-//W3C//DTD SVG 1.1//EN" "http://www.w3.org/Graphics/SVG/1.1/DTD/svg11.dtd">
<!-- Creator: CorelDRAW 2019 (64-Bit) -->
<svg xmlns="http://www.w3.org/2000/svg" xml:space="preserve" width="50mm" height="50mm" version="1.1" style="shape-rendering:geometricPrecision; text-rendering:geometricPrecision; image-rendering:optimizeQuality; fill-rule:evenodd; clip-rule:evenodd"
viewBox="0 0 5000 5000"
 xmlns:xlink="http://www.w3.org/1999/xlink"
 xmlns:xodm="http://www.corel.com/coreldraw/odm/2003">
 <defs>
  <style type="text/css">
   <![CDATA[
    .fil4 {fill:none;fill-rule:nonzero}
    .fil0 {fill:#633001}
    .fil2 {fill:#D1884F}
    .fil3 {fill:#633001;fill-rule:nonzero}
    .fil1 {fill:#FEDC90;fill-rule:nonzero}
   ]]>
  </style>
 </defs>
 <g id="Слой_x0020_1">
  <metadata id="CorelCorpID_0Corel-Layer"/>
  <g id="_2510237880080">
   <path class="fil0" d="M1319.65 1220.8c-58.14,-302.35 174.44,-581.45 476.79,-581.45 267.47,0 488.42,220.95 488.42,488.42l0 604.71c69.78,0 139.55,-11.63 209.33,-11.63 69.77,0 127.92,0 197.69,11.63l0 -604.71c0,-267.47 220.95,-488.42 488.42,-488.42 302.36,0 534.94,279.1 488.42,581.45l-127.92 709.38c453.53,197.69 802.41,546.56 802.41,976.84l0 267.47c0,360.5 -232.59,662.85 -569.83,860.55 -337.24,209.32 -779.15,325.61 -1279.2,325.61 -500.05,0 -941.95,-116.29 -1279.19,-325.61 -325.61,-197.7 -558.2,-500.05 -558.2,-860.56l0 -267.46c0,-430.28 337.25,-779.15 790.78,-976.85l-127.92 -709.37zm2046.72 802.41l151.17 -837.3c34.89,-209.32 -116.29,-407.01 -337.24,-407.01 -186.07,0 -337.24,151.18 -337.24,337.24l0 767.52c-46.52,-11.63 -104.66,-11.63 -151.18,-11.63 -69.78,0 -127.92,-11.63 -197.69,-11.63 -69.78,0 -139.55,0 -209.33,11.63 -46.51,0 -104.66,11.63 -151.18,11.63l0.01 -755.89c0,-186.06 -151.18,-337.24 -337.25,-337.24 -209.32,0 -372.13,197.69 -325.61,407.01l151.18 837.3c-488.42,186.06 -814.04,511.68 -814.04,883.81l0 267.46c0,569.83 755.89,1034.99 1686.22,1034.99 930.32,0 1686.21,-465.16 1686.21,-1034.99l0 -267.46c11.63,-383.76 -313.98,-709.38 -814.03,-895.44z"/>
   <path class="fil1" d="M4192.03 3174.48c0,569.83 -755.89,1034.99 -1686.22,1034.99 -930.32,0 -1686.21,-465.16 -1686.21,-1034.99l0 -267.46 3384.06 0 0 267.46 -11.63 0z"/>
   <path class="fil2" d="M1470.83 1197.54c-46.52,-209.32 116.29,-407.01 325.61,-407.01 186.07,0 337.25,151.18 337.25,337.24l0 767.52c116.29,-11.63 232.58,-23.26 360.5,-23.26 116.29,0 232.58,11.63 348.87,23.26l0 -767.52c0,-186.06 151.18,-337.24 337.24,-337.24 209.33,0 372.13,197.69 337.25,407.01l-151.18 837.3c488.42,186.06 825.66,511.68 825.66,883.81 0,569.82 -755.89,1034.98 -1686.21,1034.98 -930.33,0 -1686.22,-465.16 -1686.22,-1034.98 0,-372.13 325.62,-697.75 814.04,-883.81l-162.81 -837.3z"/>
   <path class="fil3" d="M2029.02 2837.24c0,151.18 -81.4,279.1 -186.06,279.1 -104.66,0 -186.07,-127.92 -186.07,-279.1 0,-151.18 81.41,-279.1 186.07,-279.1 104.66,0 186.06,127.92 186.06,279.1z"/>
   <path class="fil3" d="M3319.85 2837.24c0,151.18 -81.4,279.1 -186.07,279.1 -104.66,0 -186.06,-127.92 -186.06,-279.1 0,-151.18 81.4,-279.1 186.06,-279.1 104.67,0 186.07,127.92 186.07,279.1z"/>
  </g>
  <path class="fil4" d="M4121.43 5000l-3242.86 0c-484.52,0 -878.57,-392.86 -878.57,-878.57l0 -3242.86c0,-485.71 394.05,-878.57 878.57,-878.57l3242.86 0c485.71,0 878.57,394.05 878.57,878.57l0 3242.86c0,485.71 -394.05,878.57 -878.57,878.57z"/>
 </g>
</svg>
