<?xml version="1.0" encoding="utf-8"?>
<!-- Generator: Adobe Illustrator 25.0.0, SVG Export Plug-In . SVG Version: 6.00 Build 0)  -->
<svg version="1.1" xmlns="http://www.w3.org/2000/svg" xmlns:xlink="http://www.w3.org/1999/xlink" x="0px" y="0px"
	 viewBox="0 0 42 42" style="enable-background:new 0 0 42 42;" xml:space="preserve">
<style type="text/css">
	.st0{opacity:0.3;fill:#FFFFFF;enable-background:new    ;}
	.st1{opacity:0.3;fill:#EBF6F0;}
	.st2{opacity:0.3;fill:#F7E6E9;}
	.st3{opacity:0.3;fill:#4EA3E4;}
	.st4{opacity:0.3;fill:#D89626;}
	.st5{opacity:0.3;fill:#007AE7;}
	.st6{opacity:0.3;fill:#1F79B1;}
	.st7{opacity:0.3;fill:#00ABE8;}
	.st8{opacity:0.3;fill:#021420;}
	.st9{opacity:0.3;fill:#2E9AD0;}
	.st10{opacity:0.3;fill:#9E1F65;}
	.st11{opacity:0.3;fill:#18B9BE;}
	.st12{opacity:0.3;fill:#5F2652;}
	.st13{opacity:0.3;fill:#001A3E;}
	.st14{opacity:0.3;fill:#009A61;}
	.st15{opacity:0.3;fill:#F01010;}
	.st16{opacity:0.3;fill:#009FDF;}
	.st17{opacity:0.3;}
	.st18{opacity:0.3;fill:#F0722A;}
	.st19{opacity:0.3;fill:#0FAFAD;}
	.st20{opacity:0.3;fill:#76B729;}
	.st21{opacity:0.3;fill:#204E76;}
	.st22{opacity:0.3;fill:#5F5742;}
	.st23{opacity:0.3;fill:#ECB244;}
	.st24{opacity:0.3;fill:#015FAE;}
	.st25{opacity:0.3;fill:#F7A600;}
	.st26{opacity:0.3;fill:#2775CA;}
	.st27{opacity:0.3;fill:#5DC8BB;}
	.st28{opacity:0.3;fill:#C53027;}
	.st29{opacity:0.3;fill:#FCE527;}
	.st30{opacity:0.3;fill:#2C7DF7;}
	.st31{opacity:0.3;fill:#444343;enable-background:new    ;}
	.st32{opacity:0.3;fill:#509B47;}
	.st33{fill:url(#SVGID_1_);}
	.st34{opacity:0.3;fill:#FF9E16;}
	.st35{fill:#2fbaff;}
	.st36{opacity:0.3;fill:#3BB054;}
	.st37{opacity:0.3;fill:#179BD7;}
	.st38{opacity:0.3;fill:#00C452;}
	.st39{opacity:0.3;fill:#F1A114;}
	.st40{opacity:0.3;fill:#FF6600;}
	.st41{opacity:0.3;fill:#FAB31E;}
	.st42{opacity:0.3;fill:#345D9D;}
	.st43{opacity:0.3;fill:#969B9E;}
	.st44{opacity:0.3;fill:#01C853;}
	.st45{opacity:0.3;fill:#FFB600;}
	.st46{opacity:0.3;fill:#008DE4;}
	.st47{opacity:0.3;fill:#F19620;}
	.st48{opacity:0.3;fill:#F90000;}
	.st49{fill:#F10000;}
	.st50{fill:#F19620;}
	.st51{fill:none;stroke:#F10000;stroke-width:0.25;stroke-miterlimit:10;}
	.st52{fill:#008DE4;}
	.st53{fill:#FFB600;}
	.st54{fill:#01C853;}
	.st55{fill:#009F42;}
	.st56{fill:#007832;}
	.st57{fill:#454749;}
	.st58{fill:#989A9C;}
	.st59{fill:#969B9E;}
	.st60{fill:#0B0809;}
	.st61{fill:#454246;}
	.st62{fill:#434343;}
	.st63{fill:#345D9D;}
	.st64{fill-rule:evenodd;clip-rule:evenodd;fill:#FFFFFF;}
	.st65{fill-rule:evenodd;clip-rule:evenodd;fill:#FAB31E;}
	.st66{fill-rule:evenodd;clip-rule:evenodd;fill:#E40520;}
	.st67{fill-rule:evenodd;clip-rule:evenodd;fill:#06326E;}
	.st68{fill-rule:evenodd;clip-rule:evenodd;fill:#4C4C4C;}
	.st69{fill:#FF6600;}
	.st70{fill:#F4F5F5;}
	.st71{fill:#F1A114;}
	.st72{fill:#62ADE4;}
	.st73{fill:#14C0AF;}
	.st74{fill:#E8EF00;}
	.st75{fill:#009066;}
	.st76{fill:#0096DD;}
	.st77{fill:#00C452;}
	.st78{fill:#A7DB38;}
	.st79{fill:#006036;}
	.st80{fill:#253B80;}
	.st81{fill:#179BD7;}
	.st82{fill:#222D65;}
	.st83{fill:#3BB054;}
	.st84{fill:#0043FA;}
	.st85{fill:#FF9E16;}
	.st86{fill:url(#SVGID_2_);}
	.st87{fill:url(#SVGID_3_);}
	.st88{fill:#2C7DF7;}
	.st89{fill:#FCE527;}
	.st90{fill:#222220;}
	.st91{fill:#C53027;}
	.st92{fill:#5DC8BB;}
	.st93{fill:#5F6161;}
	.st94{fill:#2675CA;}
	.st95{fill:#005098;}
	.st96{fill:#F7A600;}
	.st97{fill:#015FAC;}
	.st98{fill:#ECB244;}
	.st99{fill:#76B729;}
	.st100{fill:#FEFCFD;}
	.st101{fill:#E70027;}
	.st102{fill:#FFFEFF;}
	.st103{fill:url(#SVGID_4_);}
	.st104{fill:#509B47;}
	.st105{fill:url(#SVGID_5_);}
	
		.st106{fill-rule:evenodd;clip-rule:evenodd;fill:#5F5742;stroke:#E2DFD7;stroke-width:0.3529;stroke-linejoin:round;stroke-miterlimit:2.6131;}
	
		.st107{fill-rule:evenodd;clip-rule:evenodd;fill:#FFFFFF;stroke:#5F5742;stroke-width:9.513900e-02;stroke-linejoin:round;stroke-miterlimit:2.6131;}
	.st108{fill-rule:evenodd;clip-rule:evenodd;fill:#5F5742;}
	.st109{fill-rule:evenodd;clip-rule:evenodd;fill:#204E76;}
	.st110{fill:#F90000;}
	.st111{fill:#009FDF;}
	.st112{fill:#0A2973;}
	.st113{fill:#F01010;}
	.st114{fill:#00384F;}
	.st115{fill:#009A61;}
	.st116{fill:#001A3E;}
	.st117{fill:#18B9BE;}
	.st118{fill:#9E1F65;}
	.st119{fill:#632D8F;}
	.st120{fill:#FF5000;}
	.st121{fill:#303147;}
	.st122{fill:#1D1E35;}
	.st123{fill:#B7BBCC;}
	.st124{fill:#6B6D88;}
	.st125{fill:#B7BBCA;}
	.st126{fill:#00ABE8;}
	.st127{fill:#1F79B1;}
	.st128{fill:#007AE7;}
	.st129{fill:#062662;}
	.st130{fill:#09255B;}
	.st131{fill:#D89626;}
	.st132{fill:#4EA3E4;}
	.st133{fill:#FAF9FB;}
	.st134{fill:url(#SVGID_6_);}
	.st135{fill:url(#SVGID_7_);}
	.st136{fill:#F7E6E9;}
	.st137{fill:#E9334C;}
	.st138{fill:#F07885;}
	.st139{fill:#EBF6F0;}
	.st140{fill:url(#SVGID_8_);}
	.st141{fill:none;stroke:#81E1A5;stroke-linecap:round;stroke-linejoin:round;stroke-miterlimit:10;}
	.st142{fill:url(#SVGID_9_);}
</style>
<g id="фон">
</g>
<g id="примеры">
</g>
<g id="лого">
	<g>
		<g>
			<circle class="st35" cx="9.8" cy="12.9" r="1"/>
			<circle class="st35" cx="13.5" cy="14.5" r="1"/>
			<circle class="st35" cx="10.4" cy="20.5" r="1"/>
			<circle class="st35" cx="16.3" cy="20.5" r="1"/>
			<circle class="st35" cx="20.2" cy="27.3" r="1"/>
			<circle class="st35" cx="7.5" cy="20.5" r="1"/>
			<circle class="st35" cx="16.3" cy="8.1" r="1"/>
			<circle class="st35" cx="20.2" cy="13.6" r="1"/>
			<circle class="st35" cx="13.5" cy="26.5" r="1"/>
			<circle class="st35" cx="9.8" cy="28.1" r="1"/>
			<circle class="st35" cx="16.3" cy="32.9" r="1"/>
			<g>
				<path class="st35" d="M16.3,21l-3-6.6l3-6.9l4.3,6l-0.1,0.1L16.3,21z M13.8,14.5l2.5,5.5l3.6-6.4l-3.6-5L13.8,14.5z"/>
				<polygon class="st35" points="16.1,33 13.1,26.1 20.3,27.1 20.2,27.6 13.9,26.8 16.5,32.8 				"/>
				<polygon class="st35" points="9.9,28.3 9.7,27.9 13.4,26.2 13.6,26.7 				"/>
				<polygon class="st35" points="16.4,33.2 9.6,28.2 9.6,28.2 7.2,20.5 9.6,12.7 16.1,7.9 16.4,8.3 10.1,13 7.8,20.5 10.1,27.9 
					16.2,32.5 19.9,27.3 16.3,21 13.5,27 10.1,20.5 13.4,14.2 20.2,13.3 20.3,13.8 13.7,14.7 10.7,20.5 13.5,25.9 16.3,19.9 
					20.5,27.3 				"/>
				<polygon class="st35" points="10.1,28.1 9.6,28.1 10.1,20.5 9.6,12.5 13.6,14.2 13.4,14.7 10.1,13.3 10.6,20.5 				"/>
			</g>
		</g>
		<circle class="st35" cx="30.6" cy="12.9" r="1"/>
		<circle class="st35" cx="26.9" cy="14.5" r="1"/>
		<circle class="st35" cx="30.1" cy="20.5" r="1"/>
		<circle class="st35" cx="24.1" cy="20.5" r="1"/>
		<circle class="st35" cx="20.2" cy="27.3" r="1"/>
		<circle class="st35" cx="32.9" cy="20.5" r="1"/>
		<circle class="st35" cx="24.1" cy="8.1" r="1"/>
		<circle class="st35" cx="20.2" cy="13.6" r="1"/>
		<circle class="st35" cx="26.9" cy="26.5" r="1"/>
		<circle class="st35" cx="34.5" cy="31.6" r="1.6"/>
		<circle class="st35" cx="24.1" cy="32.9" r="1"/>
		<g>
			<path class="st35" d="M20,13.7l-0.1-0.1l4.3-6l3,6.9l-3,6.6L20,13.7z M24.1,8.6l-3.6,5l3.6,6.4l2.5-5.5L24.1,8.6z"/>
			<polygon class="st35" points="24.4,33 27.3,26.1 20.2,27.1 20.3,27.6 26.5,26.8 23.9,32.8 			"/>
			<polygon class="st35" points="30.5,28.3 30.7,27.9 27,26.2 26.8,26.7 			"/>
			<polygon class="st35" points="24.1,33.2 30.8,28.2 30.8,28.2 33.2,20.5 30.8,12.7 24.3,7.9 24,8.3 30.4,13 32.7,20.5 30.4,27.9 
				24.2,32.5 20.5,27.3 24.1,21 26.9,27 30.3,20.5 27.1,14.2 20.3,13.3 20.2,13.8 26.8,14.7 29.8,20.5 26.9,25.9 24.2,19.9 
				19.9,27.3 			"/>
			<polygon class="st35" points="30.4,28.1 30.9,28.1 30.3,20.5 30.9,12.5 26.8,14.2 27,14.7 30.3,13.3 29.8,20.5 			"/>
		</g>
		<rect x="16.3" y="7.8" class="st35" width="7.8" height="0.5"/>
		<rect x="16.3" y="32.6" class="st35" width="7.8" height="0.5"/>
		
			<rect x="32.3" y="27.1" transform="matrix(0.6652 -0.7466 0.7466 0.6652 -11.3533 34.2577)" class="st35" width="0.5" height="5.3"/>
	</g>
</g>
</svg>
