<?xml version="1.0" encoding="utf-8"?>
<!-- Generator: Adobe Illustrator 25.3.1, SVG Export Plug-In . SVG Version: 6.00 Build 0)  -->
<svg version="1.1" id="Layer_1" xmlns="http://www.w3.org/2000/svg" xmlns:xlink="http://www.w3.org/1999/xlink" x="0px" y="0px"
	 viewBox="0 0 36 35" style="enable-background:new 0 0 36 35;" xml:space="preserve">
<style type="text/css">
	.st0{fill:#384182;}
	.st1{fill:#F79534;}
	.st2{fill:#F0513A;}
</style>
<desc>Created with Sketch.</desc>
<path class="st0" d="M16.6,28.1l-8.8,6.3l5.6-25.8L16.6,28.1z M16.8,28l5.4,0.1L13.6,8.7L16.8,28z M22.6,27.6l4.1-15.3l-1.6-1.9
	L22.6,27.6z M20.7,3.7l-6.8,4.6L23.8,5L20.7,3.7z M19.8,3.7l-4.2,0.1L15,5.6L19.8,3.7z"/>
<path class="st1" d="M24.9,9.8L14.1,8.4l9.8-3.1L24.9,9.8z M22.3,4.1l0.6-1.6l-3.1-1.4L22.3,4.1z M23.2,2.3l0.7,2.5l4.2-1.1
	L23.2,2.3z"/>
<path class="st2" d="M22.4,28L13.7,8.5L25,10.1L22.4,28z M20.3,3.7L15,5.8l-1.3,2.4L20.3,3.7z M17,2.1l-1.3,1.5l4.4-0.1L17,2.1z
	 M19.3,0.9l-2.1,1l4.8,2.1L19.3,0.9z M21.8,0.8h-2.3L23,2.2L21.8,0.8z M23.1,2.6l-0.5,1.6l1.1,0.5L23.1,2.6z"/>
</svg>
