<?xml version="1.0" encoding="utf-8"?>
<!-- Generator: Adobe Illustrator 25.0.0, SVG Export Plug-In . SVG Version: 6.00 Build 0)  -->
<svg version="1.1" xmlns="http://www.w3.org/2000/svg" xmlns:xlink="http://www.w3.org/1999/xlink" x="0px" y="0px"
	 viewBox="0 0 42 42" style="enable-background:new 0 0 42 42;" xml:space="preserve">
<style type="text/css">
	.st0{fill:#FFFFFF;}
	.st1{opacity:0.3;enable-background:new    ;}
	.st2{opacity:0.3;fill:#ECB244;}
	.st3{opacity:0.3;fill:#FFFFFF;enable-background:new    ;}
	.st4{opacity:0.3;fill:#015FAE;}
	.st5{opacity:0.3;fill:#F7A600;}
	.st6{opacity:0.3;fill:#2775CA;}
	.st7{opacity:0.3;fill:#5DC8BB;}
	.st8{opacity:0.3;fill:#C53027;}
	.st9{opacity:0.3;fill:#FCE527;}
	.st10{opacity:0.3;fill:#2C7DF7;}
	.st11{opacity:0.3;fill:#444343;enable-background:new    ;}
	.st12{opacity:0.3;fill:#509B47;}
	.st13{opacity:0.3;}
	.st14{fill:url(#SVGID_1_);}
	.st15{opacity:0.3;fill:#FF9E16;}
	.st16{opacity:0.3;fill:#3BB054;}
	.st17{opacity:0.3;fill:#179BD7;}
	.st18{opacity:0.3;fill:#00C452;}
	.st19{opacity:0.3;fill:#F1A114;}
	.st20{opacity:0.3;fill:#FF6600;}
	.st21{opacity:0.3;fill:#FAB31E;}
	.st22{opacity:0.3;fill:#345D9D;}
	.st23{opacity:0.3;fill:#969B9E;}
	.st24{opacity:0.3;fill:#01C853;}
	.st25{opacity:0.3;fill:#FFB600;}
	.st26{opacity:0.3;fill:#008DE4;}
	.st27{opacity:0.3;fill:#F19620;}
	.st28{opacity:0.3;fill:#F90000;}
	.st29{fill:#F10000;}
	.st30{fill:#F19620;}
	.st31{fill:none;stroke:#F10000;stroke-width:0.25;stroke-miterlimit:10;}
	.st32{fill:#008DE4;}
	.st33{fill:#FFB600;}
	.st34{fill:#01C853;}
	.st35{fill:#009F42;}
	.st36{fill:#007832;}
	.st37{fill:#454749;}
	.st38{fill:#989A9C;}
	.st39{fill:#969B9E;}
	.st40{fill:#0B0809;}
	.st41{fill:#454246;}
	.st42{fill:#434343;}
	.st43{fill:#345D9D;}
	.st44{fill-rule:evenodd;clip-rule:evenodd;fill:#FFFFFF;}
	.st45{fill-rule:evenodd;clip-rule:evenodd;fill:#FAB31E;}
	.st46{fill-rule:evenodd;clip-rule:evenodd;fill:#E40520;}
	.st47{fill-rule:evenodd;clip-rule:evenodd;fill:#06326E;}
	.st48{fill-rule:evenodd;clip-rule:evenodd;fill:#4C4C4C;}
	.st49{fill:#FF6600;}
	.st50{fill:#F4F5F5;}
	.st51{fill:#F1A114;}
	.st52{fill:#62ADE4;}
	.st53{fill:#14C0AF;}
	.st54{fill:#E8EF00;}
	.st55{fill:#009066;}
	.st56{fill:#0096DD;}
	.st57{fill:#00C452;}
	.st58{fill:#A7DB38;}
	.st59{fill:#006036;}
	.st60{fill:#253B80;}
	.st61{fill:#179BD7;}
	.st62{fill:#222D65;}
	.st63{fill:#3BB054;}
	.st64{fill:#0043FA;}
	.st65{fill:#FF9E16;}
	.st66{fill:url(#SVGID_2_);}
	.st67{fill:url(#SVGID_3_);}
	.st68{fill:#2C7DF7;}
	.st69{fill:#FCE527;}
	.st70{fill:#222220;}
	.st71{fill:#C53027;}
	.st72{fill:#5DC8BB;}
	.st73{fill:#5F6161;}
	.st74{fill:#2675CA;}
	.st75{fill:#005098;}
	.st76{fill:#F7A600;}
	.st77{fill:#015FAC;}
	.st78{fill:#ECB244;}
	.st79{fill:#76B729;}
	.st80{fill:none;stroke:#D60000;stroke-width:0.1;stroke-miterlimit:10;}
	.st81{fill:#D60000;}
	.st82{fill:none;stroke:#D60000;stroke-miterlimit:10;}
	.st83{fill:url(#SVGID_4_);}
	.st84{fill:#509B47;}
	.st85{fill:url(#SVGID_5_);}
	
		.st86{fill-rule:evenodd;clip-rule:evenodd;fill:#5F5742;stroke:#E2DFD7;stroke-width:0.3529;stroke-linejoin:round;stroke-miterlimit:2.6131;}
	
		.st87{fill-rule:evenodd;clip-rule:evenodd;fill:#FFFFFF;stroke:#5F5742;stroke-width:9.513900e-02;stroke-linejoin:round;stroke-miterlimit:2.6131;}
	.st88{fill-rule:evenodd;clip-rule:evenodd;fill:#5F5742;}
	.st89{fill-rule:evenodd;clip-rule:evenodd;fill:#204E76;}
	.st90{fill:#F90000;}
</style>
<g id="фон">
</g>
<g id="примеры">
</g>
<g id="лого">
	<g>
		<linearGradient id="SVGID_1_" gradientUnits="userSpaceOnUse" x1="8.5185" y1="21" x2="33.4815" y2="21">
			<stop  offset="0" style="stop-color:#FFFFFF"/>
			<stop  offset="0" style="stop-color:#11A9E1"/>
			<stop  offset="0.6709" style="stop-color:#0576AD"/>
			<stop  offset="1" style="stop-color:#016298"/>
		</linearGradient>
		<path class="st14" d="M33.4,27.8c0.7,3.9-2.5,7.3-6.4,6.8c-2.5-0.3-4.5-2.3-4.9-4.7c-0.2-1.3,0-2.5,0.6-3.5
			c0.1-0.1,0.1-0.2,0.2-0.3c0.1-0.1,0.1-0.2,0.2-0.4c0.1-0.3,0.2-0.6,0.2-0.9c0-1.2-1-2.2-2.2-2.2c-0.2,0-0.5,0-0.7,0.1
			c-0.2,0.1-0.7,0.2-1,0.7c-0.1,0.1-0.1,0.2-0.4,0.7c0,0.1-0.1,0.1-0.1,0.2c-0.3,0.5-1.2,1.7-2.9,2.2c-0.1,0-1,0.3-1.9,0.3
			c-3.1,0-5.7-2.5-5.7-5.7c0-3.1,2.6-5.7,5.7-5.7c2.2,0,4,1.2,5,3c0,0,0,0,0,0c0,0.1,0.1,0.2,0.2,0.3c0.4,0.7,1.3,1.2,2.3,1
			c1-0.2,1.7-1.1,1.8-2.1c0-0.4-0.1-0.8-0.3-1.2c-0.1-0.1-0.1-0.2-0.2-0.3c0,0,0,0,0,0c-0.7-1.1-1-2.4-0.8-3.8
			c0.3-2.5,2.3-4.5,4.8-4.9c4.1-0.6,7.5,3.1,6.4,7.3c-0.7,2.4-3,4.1-5.5,4.1h-0.1c0,0,0,0,0,0c-0.1,0-0.1,0-0.2,0
			c-1.4,0-2.5,1.4-2,2.9c0.3,0.9,1.1,1.4,2.1,1.4h0c0,0,0,0,0,0C30.3,23.1,32.9,25,33.4,27.8z"/>
	</g>
</g>
</svg>
