<?xml version="1.0" encoding="utf-8"?>
<!-- Generator: Adobe Illustrator 25.0.0, SVG Export Plug-In . SVG Version: 6.00 Build 0)  -->
<svg version="1.1" xmlns="http://www.w3.org/2000/svg" xmlns:xlink="http://www.w3.org/1999/xlink" x="0px" y="0px"
	 viewBox="0 0 42 42" style="enable-background:new 0 0 42 42;" xml:space="preserve">
<style type="text/css">
	.st0{fill:#FFFFFF;}
	.st1{opacity:0.3;enable-background:new    ;}
	.st2{opacity:0.3;fill:#ECB244;}
	.st3{opacity:0.3;fill:#FFFFFF;enable-background:new    ;}
	.st4{opacity:0.3;fill:#015FAE;}
	.st5{opacity:0.3;fill:#F7A600;}
	.st6{opacity:0.3;fill:#2775CA;}
	.st7{opacity:0.3;fill:#5DC8BB;}
	.st8{opacity:0.3;fill:#C53027;}
	.st9{opacity:0.3;fill:#FCE527;}
	.st10{opacity:0.3;fill:#2C7DF7;}
	.st11{opacity:0.3;fill:#444343;enable-background:new    ;}
	.st12{opacity:0.3;fill:#509B47;}
	.st13{opacity:0.3;}
	.st14{fill:url(#SVGID_1_);}
	.st15{opacity:0.3;fill:#FF9E16;}
	.st16{opacity:0.3;fill:#3BB054;}
	.st17{opacity:0.3;fill:#179BD7;}
	.st18{opacity:0.3;fill:#00C452;}
	.st19{opacity:0.3;fill:#F1A114;}
	.st20{opacity:0.3;fill:#FF6600;}
	.st21{opacity:0.3;fill:#FAB31E;}
	.st22{opacity:0.3;fill:#345D9D;}
	.st23{opacity:0.3;fill:#969B9E;}
	.st24{opacity:0.3;fill:#01C853;}
	.st25{opacity:0.3;fill:#FFB600;}
	.st26{opacity:0.3;fill:#008DE4;}
	.st27{opacity:0.3;fill:#F19620;}
	.st28{opacity:0.3;fill:#F90000;}
	.st29{fill:#F10000;}
	.st30{fill:#F19620;}
	.st31{fill:none;stroke:#F10000;stroke-width:0.25;stroke-miterlimit:10;}
	.st32{fill:#008DE4;}
	.st33{fill:#FFB600;}
	.st34{fill:#01C853;}
	.st35{fill:#009F42;}
	.st36{fill:#007832;}
	.st37{fill:#454749;}
	.st38{fill:#989A9C;}
	.st39{fill:#969B9E;}
	.st40{fill:#0B0809;}
	.st41{fill:#454246;}
	.st42{fill:#434343;}
	.st43{fill:#345D9D;}
	.st44{fill-rule:evenodd;clip-rule:evenodd;fill:#FFFFFF;}
	.st45{fill-rule:evenodd;clip-rule:evenodd;fill:#FAB31E;}
	.st46{fill-rule:evenodd;clip-rule:evenodd;fill:#E40520;}
	.st47{fill-rule:evenodd;clip-rule:evenodd;fill:#06326E;}
	.st48{fill-rule:evenodd;clip-rule:evenodd;fill:#4C4C4C;}
	.st49{fill:#FF6600;}
	.st50{fill:#F4F5F5;}
	.st51{fill:#F1A114;}
	.st52{fill:#62ADE4;}
	.st53{fill:#14C0AF;}
	.st54{fill:#E8EF00;}
	.st55{fill:#009066;}
	.st56{fill:#0096DD;}
	.st57{fill:#00C452;}
	.st58{fill:#A7DB38;}
	.st59{fill:#006036;}
	.st60{fill:#253B80;}
	.st61{fill:#179BD7;}
	.st62{fill:#222D65;}
	.st63{fill:#3BB054;}
	.st64{fill:#0043FA;}
	.st65{fill:#FF9E16;}
	.st66{fill:url(#SVGID_2_);}
	.st67{fill:url(#SVGID_3_);}
	.st68{fill:#2C7DF7;}
	.st69{fill:#FCE527;}
	.st70{fill:#222220;}
	.st71{fill:#C53027;}
	.st72{fill:#5DC8BB;}
	.st73{fill:#5F6161;}
	.st74{fill:#2675CA;}
	.st75{fill:#005098;}
	.st76{fill:#F7A600;}
	.st77{fill:#015FAC;}
	.st78{fill:#ECB244;}
	.st79{fill:#76B729;}
	.st80{fill:none;stroke:#D60000;stroke-width:0.1;stroke-miterlimit:10;}
	.st81{fill:#D60000;}
	.st82{fill:none;stroke:#D60000;stroke-miterlimit:10;}
	.st83{fill:url(#SVGID_4_);}
	.st84{fill:#509B47;}
	.st85{fill:url(#SVGID_5_);}
	
		.st86{fill-rule:evenodd;clip-rule:evenodd;fill:#5F5742;stroke:#E2DFD7;stroke-width:0.3529;stroke-linejoin:round;stroke-miterlimit:2.6131;}
	
		.st87{fill-rule:evenodd;clip-rule:evenodd;fill:#FFFFFF;stroke:#5F5742;stroke-width:9.513900e-02;stroke-linejoin:round;stroke-miterlimit:2.6131;}
	.st88{fill-rule:evenodd;clip-rule:evenodd;fill:#5F5742;}
	.st89{fill-rule:evenodd;clip-rule:evenodd;fill:#204E76;}
	.st90{fill:#F90000;}
</style>
<g id="фон">
</g>
<g id="примеры">
</g>
<g id="лого">
	<g>
		<g>
			<path class="st75" d="M15.5,9.3l-1.9,5.1l-0.2-1c-0.5-1.2-1.3-2.4-2.7-3.1l1.7,6.5l2,0l3-7.4H15.5"/>
			<polyline class="st75" points="17.1,16.7 18.3,9.2 20.2,9.2 19,16.7 17.1,16.7 			"/>
			<path class="st75" d="M26,9.4c-0.4-0.2-1-0.3-1.7-0.3c-1.9,0-3.2,1-3.3,2.5c0,1.1,1,1.7,1.7,2c0.8,0.4,1,0.6,1,0.9
				c0,0.5-0.6,0.7-1.2,0.7c-0.8,0-1.2-0.1-1.8-0.4l-0.2-0.1l-0.3,1.7c0.4,0.2,1.3,0.4,2.1,0.4c2,0,3.3-1,3.4-2.5
				c0-0.8-0.5-1.5-1.6-2c-0.7-0.3-1.1-0.6-1.1-0.9c0-0.3,0.3-0.6,1.1-0.6c0.6,0,1.1,0.1,1.4,0.3l0.2,0.1L26,9.4"/>
			<path class="st75" d="M31,9.3h-1.5c-0.5,0-0.8,0.1-1,0.6l-2.9,6.8h2c0,0,0.3-0.9,0.4-1.1c0.2,0,2.2,0,2.5,0
				c0.1,0.3,0.2,1.1,0.2,1.1h1.8L31,9.3 M28.6,14.1c0.2-0.4,0.8-2.1,0.8-2.1c0,0,0.2-0.4,0.3-0.7l0.1,0.6c0,0,0.4,1.8,0.4,2.2
				C29.9,14.1,29,14.1,28.6,14.1z"/>
			<path class="st76" d="M11.9,9.3H8.8l0,0.1c2.4,0.6,4,2.1,4.7,3.9l-0.7-3.4C12.6,9.4,12.3,9.3,11.9,9.3z"/>
		</g>
		<g>
			<path class="st45" d="M20.6,31.4c1.3,1.2,3,1.9,4.8,1.9c4,0,7.2-3.2,7.2-7.2c0-4-3.2-7.2-7.2-7.2c-1.9,0-3.5,0.7-4.8,1.9
				c-1.4,1.3-2.4,3.2-2.4,5.3C18.3,28.2,19.2,30.1,20.6,31.4L20.6,31.4z"/>
			<path class="st46" d="M22.9,25.3c0-0.3-0.1-0.5-0.1-0.8h-4.4c0.1-0.3,0.1-0.5,0.2-0.8h4c-0.1-0.3-0.2-0.5-0.3-0.8H19
				c0.1-0.3,0.3-0.5,0.4-0.8h2.5c-0.2-0.3-0.3-0.5-0.5-0.8h-1.4c0.2-0.3,0.5-0.5,0.7-0.8c-1.3-1.2-3-1.9-4.8-1.9
				c-4,0-7.2,3.2-7.2,7.2c0,4,3.2,7.2,7.2,7.2c1.9,0,3.5-0.7,4.8-1.9l0,0h0c0.3-0.2,0.5-0.5,0.7-0.8h-1.4c-0.2-0.2-0.4-0.5-0.5-0.8
				h2.5c0.2-0.2,0.3-0.5,0.4-0.8H19c-0.1-0.2-0.2-0.5-0.3-0.8h4c0.1-0.2,0.2-0.5,0.2-0.8c0.1-0.3,0.1-0.5,0.1-0.8c0-0.3,0-0.5,0-0.8
				C23,25.8,23,25.6,22.9,25.3L22.9,25.3z"/>
			<path class="st47" d="M18.2,28.2c-0.2,0.1-0.4,0.1-0.6,0.1c-0.4,0-0.6-0.2-0.6-0.7c0-0.1,0-0.2,0-0.3l0-0.3l0-0.2l0.3-2h0.7
				l-0.1,0.4h0.5L18.5,26H18l-0.2,1.2c0,0.1,0,0.1,0,0.1c0,0.2,0.1,0.2,0.3,0.2c0.1,0,0.2,0,0.2,0L18.2,28.2L18.2,28.2z"/>
			<path class="st47" d="M20.6,28.1c-0.3,0.1-0.5,0.1-0.8,0.1c-0.8,0-1.3-0.5-1.3-1.3c0-1,0.6-1.8,1.4-1.8c0.6,0,1,0.4,1,1.1
				c0,0.2,0,0.4-0.1,0.7h-1.5c0,0,0,0.1,0,0.1c0,0.3,0.2,0.5,0.7,0.5c0.3,0,0.5-0.1,0.8-0.2L20.6,28.1L20.6,28.1z M20.1,26.4
				c0-0.1,0-0.1,0-0.2c0-0.2-0.1-0.4-0.4-0.4c-0.2,0-0.4,0.2-0.5,0.5L20.1,26.4L20.1,26.4z"/>
			<polygon class="st47" points="12.3,28.2 11.5,28.2 11.9,25.4 10.9,28.2 10.4,28.2 10.3,25.4 9.9,28.2 9.1,28.2 9.7,24.5 
				10.8,24.5 10.9,26.8 11.6,24.5 12.9,24.5 12.3,28.2 			"/>
			<path class="st47" d="M14.1,26.9c-0.1,0-0.1,0-0.2,0c-0.4,0-0.7,0.2-0.7,0.5c0,0.2,0.1,0.3,0.3,0.3C14,27.6,14.1,27.3,14.1,26.9
				L14.1,26.9z M14.7,28.2h-0.7l0-0.3c-0.2,0.2-0.4,0.4-0.8,0.4c-0.4,0-0.7-0.3-0.7-0.8c0-0.1,0-0.3,0.1-0.4
				c0.1-0.5,0.6-0.7,1.3-0.8c0.1,0,0.2,0,0.3,0c0-0.1,0-0.1,0-0.2c0-0.2-0.2-0.3-0.5-0.3c-0.2,0-0.5,0-0.6,0.1L13,26l0,0l0.1-0.7
				c0.4-0.1,0.6-0.2,0.9-0.2c0.7,0,1,0.3,1,0.9c0,0.1,0,0.3,0,0.6l-0.2,1.1l0,0.2l0,0.2L14.7,28.2L14.7,28.2L14.7,28.2z"/>
			<path class="st47" d="M24.3,25.2c0.2,0,0.4,0.1,0.7,0.2l0.1-0.8c-0.1,0-0.1,0-0.2-0.1l-0.3-0.1c-0.1,0-0.2,0-0.3,0
				c-0.4,0-0.6,0-0.8,0.1c-0.1,0.1-0.3,0.2-0.5,0.4l-0.1,0l-0.8,0.6l0-0.3h-0.8l-0.5,3h0.8l0.3-1.6c0,0,0.1-0.2,0.2-0.3
				c0.1-0.2,0.3-0.2,0.4-0.2c0,0,0,0,0.1,0c0,0.2,0,0.4,0,0.6c0,1,0.5,1.6,1.4,1.6c0.2,0,0.4,0,0.7-0.1l0.1-0.8
				c-0.3,0.1-0.5,0.2-0.7,0.2c-0.5,0-0.7-0.3-0.7-0.9C23.4,25.8,23.8,25.2,24.3,25.2L24.3,25.2z"/>
			<path class="st47" d="M30.9,24.5l-0.2,1c-0.2-0.3-0.4-0.4-0.7-0.4c-0.4,0-0.8,0.2-1,0.7l0,0l-0.5-0.3l0-0.3h-0.8l-0.5,3H28
				l0.3-1.6c0,0,0.2-0.2,0.3-0.3c0.1-0.2,0.2-0.2,0.3-0.2c-0.1,0.3-0.1,0.5-0.1,0.9c0,0.7,0.4,1.2,1,1.2c0.3,0,0.5-0.1,0.7-0.3
				l0,0.3h0.7l0.6-3.7H30.9L30.9,24.5z M30,27.5c-0.3,0-0.4-0.2-0.4-0.6c0-0.6,0.3-1,0.6-1c0.3,0,0.4,0.2,0.4,0.6
				C30.6,27.1,30.3,27.5,30,27.5L30,27.5z"/>
			<path class="st47" d="M26.4,26.9c-0.1,0-0.1,0-0.2,0c-0.4,0-0.7,0.2-0.7,0.5c0,0.2,0.1,0.3,0.3,0.3
				C26.2,27.6,26.4,27.3,26.4,26.9L26.4,26.9z M27,28.2h-0.7l0-0.3c-0.2,0.2-0.4,0.4-0.8,0.4c-0.4,0-0.7-0.3-0.7-0.8
				c0-0.7,0.5-1.1,1.4-1.1c0.1,0,0.2,0,0.3,0c0-0.1,0-0.1,0-0.2c0-0.2-0.2-0.3-0.5-0.3c-0.2,0-0.5,0-0.6,0.1l-0.1,0l0,0l0.1-0.7
				c0.4-0.1,0.6-0.2,0.9-0.2c0.7,0,1,0.3,1,0.9c0,0.1,0,0.3,0,0.6l-0.2,1.1l0,0.2l0,0.2L27,28.2L27,28.2L27,28.2z"/>
			<path class="st47" d="M16.4,25.9c0.2,0,0.4,0,0.6,0l0.1-0.7c-0.2,0-0.5-0.1-0.7-0.1c-0.9,0-1.2,0.5-1.2,1c0,0.4,0.2,0.6,0.6,0.8
				c0.3,0.1,0.4,0.2,0.4,0.3c0,0.2-0.2,0.3-0.5,0.3c-0.2,0-0.4,0-0.7-0.1l-0.1,0.7l0,0l0.1,0c0,0,0.1,0,0.2,0c0.2,0,0.3,0,0.4,0
				c0.9,0,1.2-0.3,1.2-1c0-0.4-0.2-0.6-0.6-0.8C16,26.3,16,26.2,16,26.1C16,26,16.1,25.9,16.4,25.9L16.4,25.9z"/>
			<path class="st44" d="M25.4,24.4l-0.1,0.8C25,25.1,24.8,25,24.5,25c-0.6,0-1,0.6-1,1.4c0,0.6,0.3,0.9,0.7,0.9
				c0.2,0,0.4-0.1,0.7-0.2l-0.1,0.8C24.5,28,24.3,28,24.1,28c-0.8,0-1.4-0.6-1.4-1.6c0-1.3,0.7-2.2,1.8-2.2c0.1,0,0.2,0,0.3,0
				l0.3,0.1C25.3,24.4,25.3,24.4,25.4,24.4L25.4,24.4z"/>
			<path class="st44" d="M22.9,25C22.9,25,22.8,25,22.9,25c-0.3,0-0.5,0.1-0.7,0.5l0.1-0.5h-0.7L21,28h0.8c0.3-1.8,0.4-2.1,0.7-2.1
				c0,0,0,0,0.1,0C22.7,25.5,22.8,25.2,22.9,25L22.9,25L22.9,25z"/>
			<path class="st44" d="M18.4,27.9C18.2,28,18,28,17.8,28c-0.4,0-0.6-0.2-0.6-0.7c0-0.1,0-0.2,0-0.3l0-0.3l0-0.2l0.3-2h0.8L18.3,25
				h0.4l-0.1,0.7h-0.4L18,26.9c0,0.1,0,0.1,0,0.1c0,0.2,0.1,0.2,0.3,0.2c0.1,0,0.2,0,0.2,0L18.4,27.9L18.4,27.9z"/>
			<path class="st44" d="M15.4,25.9c0,0.4,0.2,0.6,0.6,0.8c0.3,0.1,0.4,0.2,0.4,0.3c0,0.2-0.1,0.3-0.4,0.3c-0.2,0-0.4,0-0.7-0.1
				l-0.1,0.7l0,0l0.1,0c0,0,0.1,0,0.2,0c0.2,0,0.3,0,0.4,0c0.8,0,1.2-0.3,1.2-1c0-0.4-0.2-0.6-0.5-0.8c-0.3-0.2-0.4-0.2-0.4-0.3
				c0-0.2,0.1-0.2,0.4-0.2c0.2,0,0.4,0,0.6,0l0.1-0.7c-0.2,0-0.5-0.1-0.7-0.1C15.7,24.9,15.4,25.4,15.4,25.9L15.4,25.9z"/>
			<path class="st44" d="M31.3,28h-0.7l0-0.3c-0.2,0.2-0.4,0.3-0.7,0.3c-0.6,0-0.9-0.5-0.9-1.2c0-1,0.6-1.8,1.3-1.8
				c0.3,0,0.5,0.1,0.7,0.4l0.2-1h0.8L31.3,28L31.3,28z M30.2,27.3c0.4,0,0.6-0.4,0.6-1c0-0.4-0.1-0.6-0.4-0.6c-0.4,0-0.6,0.4-0.6,1
				C29.8,27.1,29.9,27.3,30.2,27.3L30.2,27.3z"/>
			<path class="st44" d="M20.8,27.9C20.5,28,20.2,28,20,28c-0.9,0-1.3-0.5-1.3-1.3c0-1,0.6-1.8,1.4-1.8c0.6,0,1,0.4,1,1.1
				c0,0.2,0,0.4-0.1,0.7h-1.5c0,0,0,0.1,0,0.1c0,0.3,0.2,0.5,0.7,0.5c0.3,0,0.5-0.1,0.8-0.2L20.8,27.9L20.8,27.9z M20.3,26.1
				c0-0.1,0-0.1,0-0.2c0-0.2-0.1-0.4-0.4-0.4c-0.2,0-0.4,0.2-0.5,0.5L20.3,26.1L20.3,26.1z"/>
			<polygon class="st44" points="12.5,28 11.7,28 12.1,25.1 11.1,28 10.6,28 10.5,25.2 10.1,28 9.3,28 9.9,24.3 11.1,24.3 
				11.1,26.6 11.9,24.3 13.1,24.3 12.5,28 			"/>
			<path class="st44" d="M14.4,26.6c-0.1,0-0.1,0-0.2,0c-0.4,0-0.7,0.2-0.7,0.5c0,0.2,0.1,0.3,0.3,0.3
				C14.1,27.4,14.4,27.1,14.4,26.6L14.4,26.6z M14.9,28h-0.6l0-0.3c-0.2,0.2-0.5,0.4-0.8,0.4c-0.4,0-0.7-0.3-0.7-0.8
				c0-0.7,0.5-1.1,1.4-1.1c0.1,0,0.2,0,0.3,0c0-0.1,0-0.1,0-0.2c0-0.2-0.1-0.3-0.5-0.3c-0.2,0-0.5,0-0.6,0.1l-0.1,0l-0.1,0l0.1-0.7
				c0.4-0.1,0.6-0.2,0.9-0.2c0.7,0,1,0.3,1,0.9c0,0.1,0,0.3-0.1,0.6L15,27.4l0,0.2l0,0.2L14.9,28L14.9,28L14.9,28z"/>
			<path class="st44" d="M26.6,26.6c-0.1,0-0.1,0-0.2,0c-0.4,0-0.7,0.2-0.7,0.5c0,0.2,0.1,0.3,0.3,0.3
				C26.4,27.4,26.6,27.1,26.6,26.6L26.6,26.6z M27.2,28h-0.6l0-0.3c-0.2,0.2-0.5,0.4-0.8,0.4c-0.4,0-0.7-0.3-0.7-0.8
				c0-0.7,0.5-1.1,1.4-1.1c0.1,0,0.2,0,0.3,0c0-0.1,0-0.1,0-0.2c0-0.2-0.1-0.3-0.5-0.3c-0.2,0-0.5,0-0.6,0.1l-0.1,0l-0.1,0l0.1-0.7
				c0.4-0.1,0.6-0.2,0.9-0.2c0.7,0,1,0.3,1,0.9c0,0.1,0,0.3-0.1,0.6l-0.2,1.1l0,0.2l0,0.2L27.2,28L27.2,28L27.2,28z"/>
			<path class="st44" d="M29.3,25C29.3,25,29.2,25,29.3,25c-0.3,0-0.5,0.1-0.7,0.5l0.1-0.5h-0.7l-0.5,3h0.8c0.3-1.8,0.4-2.1,0.7-2.1
				c0,0,0,0,0.1,0C29.1,25.5,29.2,25.2,29.3,25L29.3,25L29.3,25z"/>
		</g>
	</g>
</g>
</svg>
