<?xml version="1.0" encoding="UTF-8" standalone="no" ?>
<!DOCTYPE svg PUBLIC "-//W3C//DTD SVG 1.1//EN" "http://www.w3.org/Graphics/SVG/1.1/DTD/svg11.dtd">
<svg xmlns="http://www.w3.org/2000/svg" xmlns:xlink="http://www.w3.org/1999/xlink" version="1.1" width="500" height="500" viewBox="0 0 500 500" xml:space="preserve">
<desc>Created with Fabric.js 3.6.3</desc>
<defs>
</defs>
<g transform="matrix(0 -1.953041625011828 -3.1263865031479545 0 215.03017542192384 241.11882642769598)"  >
<path style="stroke: none; stroke-width: 1; stroke-dasharray: none; stroke-linecap: butt; stroke-dashoffset: 0; stroke-linejoin: miter; stroke-miterlimit: 4; fill: rgb(255,255,255); fill-rule: nonzero; opacity: 1;"  transform=" translate(-49.95, -50)" d="M 91.7 49 H 8.3 c -0.6 0 -1 0.4 -1 1 s 0.4 1 1 1 h 83.3 c 0.6 0 1 -0.4 1 -1 S 92.2 49 91.7 49 z" stroke-linecap="round" />
</g>
<g transform="matrix(2.5051885418587356 -6.1359e-16 6.1359e-16 2.5051885418587356 91.33394158056102 249.99999999999997)"  >
<g style=""   >
		<g transform="matrix(1 0 0 1 -13.941894500000005 -9.605468799999997)"  >
<path style="stroke: none; stroke-width: 1; stroke-dasharray: none; stroke-linecap: butt; stroke-dashoffset: 0; stroke-linejoin: miter; stroke-miterlimit: 4; fill: rgb(255,255,255); fill-rule: nonzero; opacity: 1;"  transform=" translate(-35.558105499999996, -39.8945312)" d="M 30.4326172 48.0546875 c 0.3896484 0.2182617 0.8867188 0.3271484 1.4921875 0.3271484 h 0.9287109 v 2.5810547 h 2 v -2.5810547 h 1.7060547 v 2.5810547 h 2 v -2.5810547 h 0.6679688 c 0.6054688 0 1.0966797 -0.1088867 1.4736328 -0.3271484 s 0.5654297 -0.5 0.5654297 -0.8447266 v -3.8222656 c 0 -0.4570313 -0.265625 -0.8691406 -0.796875 -1.2348633 l -8.0439453 -5.5117188 v -3.4838867 h 6.2646484 v 3.7163086 h 2.5761719 v -3.8432617 c 0 -0.3447266 -0.1884766 -0.6259766 -0.5654297 -0.8442383 s -0.8681641 -0.3276367 -1.4736328 -0.3276367 h -0.6679688 v -3.0322266 h -2 v 3.0322266 h -1.7060547 v -3.0322266 h -2 v 3.0322266 h -0.9287109 c -0.6054688 0 -1.1025391 0.109375 -1.4921875 0.3276367 c -0.3886719 0.2182617 -0.5830078 0.4995117 -0.5830078 0.8442383 v 3.347168 c 0 0.4575195 0.2773438 0.8764648 0.8339844 1.2563477 l 8.0068359 5.5112305 v 3.9379883 h -6.2646484 v -4.0644531 h -2.5761719 v 4.1914063 C 29.8496094 47.5546875 30.0439453 47.8364258 30.4326172 48.0546875 z" stroke-linecap="round" />
</g>
		<g transform="matrix(1 0 0 1 -13.996581999999997 -9.535400349999996)"  >
<path style="stroke: none; stroke-width: 1; stroke-dasharray: none; stroke-linecap: butt; stroke-dashoffset: 0; stroke-linejoin: miter; stroke-miterlimit: 4; fill: rgb(255,255,255); fill-rule: nonzero; opacity: 1;"  transform=" translate(-35.503418, -39.964599650000004)" d="M 35.503418 53.222168 c 7.3105469 0 13.2578125 -5.9472656 13.2578125 -13.2573242 c 0 -7.3105469 -5.9472656 -13.2578125 -13.2578125 -13.2578125 s -13.2578125 5.9472656 -13.2578125 13.2578125 C 22.2456055 47.2749023 28.1928711 53.222168 35.503418 53.222168 z M 35.503418 27.7070313 c 6.7587891 0 12.2578125 5.4990234 12.2578125 12.2578125 S 42.262207 52.222168 35.503418 52.222168 s -12.2578125 -5.4985352 -12.2578125 -12.2573242 S 28.7446289 27.7070313 35.503418 27.7070313 z" stroke-linecap="round" />
</g>
		<g transform="matrix(1 0 0 1 2.9853517000000096 22.295166099999996)"  >
<path style="stroke: none; stroke-width: 1; stroke-dasharray: none; stroke-linecap: butt; stroke-dashoffset: 0; stroke-linejoin: miter; stroke-miterlimit: 4; fill: rgb(255,255,255); fill-rule: nonzero; opacity: 1;"  transform=" translate(-52.48535170000001, -71.79516609999999)" d="M 64.1088867 65.3320313 c -0.5317383 1.1318359 -1.4321289 1.8076172 -2.4082031 1.8076172 H 43.2695313 c -0.9765625 0 -1.8769531 -0.6757813 -2.4082031 -1.8071289 l -0.2700195 -0.5751953 h -30.105957 v 1 c 0 7.2099609 5.8657227 13.0756836 13.0751953 13.0756836 h 57.8486328 c 7.2104492 0 13.0761719 -5.8657227 13.0761719 -13.0756836 v -1 h -30.105957 L 64.1088867 65.3320313 z M 65.6108398 66.7573242 h 26.8295898 c -0.5068359 5.640625 -5.2607422 10.0756836 -11.03125 10.0756836 H 23.5605469 c -5.7700195 0 -10.5234375 -4.4350586 -11.0302734 -10.0756836 H 39.359375 c 0.9042969 1.484375 2.355957 2.3823242 3.9101563 2.3823242 h 18.4311523 C 63.2543945 69.1396484 64.7060547 68.2416992 65.6108398 66.7573242 z" stroke-linecap="round" />
</g>
		<g transform="matrix(1 0 0 1 2.938232400000004 -10.214111349999992)"  >
<path style="stroke: none; stroke-width: 1; stroke-dasharray: none; stroke-linecap: butt; stroke-dashoffset: 0; stroke-linejoin: miter; stroke-miterlimit: 4; fill: rgb(255,255,255); fill-rule: nonzero; opacity: 1;"  transform=" translate(-52.438232400000004, -39.285888650000004)" d="M 89.4345703 15.6342773 H 15.4418945 V 62.9375 h 73.9926758 V 15.6342773 z M 87.4345703 60.9375 H 17.4418945 V 17.6342773 h 69.9926758 V 60.9375 z" stroke-linecap="round" />
</g>
		<g transform="matrix(1 0 0 1 16.0307617 -10.27001955)"  >
<path style="stroke: none; stroke-width: 1; stroke-dasharray: none; stroke-linecap: butt; stroke-dashoffset: 0; stroke-linejoin: miter; stroke-miterlimit: 4; fill: rgb(255,255,255); fill-rule: nonzero; opacity: 1;"  transform=" translate(-65.5307617, -39.22998045)" d="M 56.8105469 41.5649414 h 6.3500977 v 1.1967773 h -5.140625 l 10.6850586 14.3076172 L 79.390625 42.7617188 H 74.25 v -5.8666992 h -6.3496094 v -1.1962891 h 5.1396484 L 62.3554688 21.390625 L 51.6708984 35.6987305 h 5.1396484 V 41.5649414 z M 75.4003906 44.7617188 l -6.6953125 8.9648438 l -6.6948242 -8.9648438 h 3.1503906 v -5.8666992 H 72.25 v 5.8666992 H 75.4003906 z M 55.6601563 33.6987305 l 6.6953125 -8.965332 l 6.6953125 8.965332 h -3.1503906 v 3.1962891 h -2.7397461 v 2.6699219 h -4.3500977 v -5.8662109 H 55.6601563 z" stroke-linecap="round" />
</g>
</g>
</g>
<g transform="matrix(1 0 0 1 377.15952175053684 210)" style=""  ><path fill="#ffffff" opacity="1" d="M-133.26-20.54C-146.67-20.54-154.01-13.20-154.01-1.81C-154.01 9.57-146.67 16.91-133.26 16.91C-121.12 16.91-114.54 10.33-114.54 4.26C-114.54 2.99-115.30 2.23-116.57 2.23L-122.89 2.23C-124.41 2.23-125.22 2.99-125.93 4.26C-127.19 6.53-129.22 8.56-133.26 8.56C-138.83 8.56-142.37 5.02-142.37-1.81C-142.37-8.65-138.83-12.19-133.26-12.19C-129.47-12.19-127.70-10.42-126.43-8.39C-125.67-7.13-124.92-6.37-123.40-6.37L-117.07-6.37C-115.81-6.37-115.05-7.13-115.05-8.39C-115.05-14.21-121.37-20.54-133.26-20.54Z"/><path fill="#ffffff" opacity="1" d="M-79.12 0.21C-79.12 0.21-72.29-1.31-72.29-7.89C-72.29-14.21-77.60-19.52-88.74-19.52L-107.21-19.52C-108.22-19.52-108.98-18.77-108.98-17.75L-108.98 14.12C-108.98 15.14-108.22 15.90-107.21 15.90L-99.62 15.90C-98.60 15.90-97.84 15.14-97.84 14.12L-97.84 3.75L-91.27 3.75C-88.48 3.75-87.52 4.76-86.71 6.28L-82.41 14.12C-81.85 15.14-81.15 15.90-79.12 15.90L-71.28 15.90C-70.01 15.90-69.61 14.88-70.01 14.12L-74.32 6.28C-76.85 1.73-79.12 0.72-79.12 0.72ZM-97.84-4.34L-97.84-11.43L-88.74-11.43C-85.45-11.43-83.93-9.91-83.93-7.89C-83.93-5.86-85.45-4.34-88.74-4.34Z"/><path fill="#ffffff" opacity="1" d="M-28.93-17.75C-28.42-18.51-28.93-19.52-30.19-19.52L-38.04-19.52C-39.55-19.52-40.62-18.51-41.07-17.75L-48.66-5.36L-49.17-5.36L-56.76-17.75C-57.21-18.51-58.28-19.52-59.79-19.52L-67.64-19.52C-68.90-19.52-69.41-18.51-68.90-17.75L-54.48 4.76L-54.48 14.12C-54.48 15.14-53.72 15.90-52.71 15.90L-45.12 15.90C-44.11 15.90-43.35 15.14-43.35 14.12L-43.35 4.76Z"/><path fill="#ffffff" opacity="1" d="M12.01-6.62C12.01-13.96 6.44-19.52-5.45-19.52L-23.16-19.52C-24.17-19.52-24.93-18.77-24.93-17.75L-24.93 14.12C-24.93 15.14-24.17 15.90-23.16 15.90L-15.57 15.90C-14.56 15.90-13.80 15.14-13.80 14.12L-13.80 6.28L-5.45 6.28C6.44 6.28 12.01 0.72 12.01-6.62ZM-13.80-1.81L-13.80-11.43L-5.45-11.43C-1.65-11.43 0.37-9.40 0.37-6.62C0.37-3.84-1.65-1.81-5.45-1.81Z"/><path fill="#ffffff" opacity="1" d="M49.96-17.75C49.96-18.77 49.20-19.52 48.19-19.52L15.80-19.52C14.79-19.52 14.03-18.77 14.03-17.75L14.03-12.69C14.03-11.68 14.79-10.92 15.80-10.92L26.43-10.92L26.43 14.12C26.43 15.14 27.19 15.90 28.20 15.90L35.79 15.90C36.80 15.90 37.56 15.14 37.56 14.12L37.56-10.92L48.19-10.92C49.20-10.92 49.96-11.68 49.96-12.69Z"/><path fill="#ffffff" opacity="1" d="M72.73 8.56C67.16 8.56 63.62 5.02 63.62-1.81C63.62-8.65 67.16-12.19 72.73-12.19C78.29-12.19 81.84-8.65 81.84-1.81C81.84 5.02 78.29 8.56 72.73 8.56ZM72.73-20.54C59.32-20.54 51.98-13.20 51.98-1.81C51.98 9.57 59.32 16.91 72.73 16.91C86.14 16.91 93.47 9.57 93.47-1.81C93.47-13.20 86.14-20.54 72.73-20.54Z"/></g><g transform="matrix(1 0 0 1 377.15952175053684 210)" style=""  ><path fill="#ffffff" opacity="1" d="M-133.26-20.54C-146.67-20.54-154.01-13.20-154.01-1.81C-154.01 9.57-146.67 16.91-133.26 16.91C-121.12 16.91-114.54 10.33-114.54 4.26C-114.54 2.99-115.30 2.23-116.57 2.23L-122.89 2.23C-124.41 2.23-125.22 2.99-125.93 4.26C-127.19 6.53-129.22 8.56-133.26 8.56C-138.83 8.56-142.37 5.02-142.37-1.81C-142.37-8.65-138.83-12.19-133.26-12.19C-129.47-12.19-127.70-10.42-126.43-8.39C-125.67-7.13-124.92-6.37-123.40-6.37L-117.07-6.37C-115.81-6.37-115.05-7.13-115.05-8.39C-115.05-14.21-121.37-20.54-133.26-20.54Z"/><path fill="#ffffff" opacity="1" d="M-79.12 0.21C-79.12 0.21-72.29-1.31-72.29-7.89C-72.29-14.21-77.60-19.52-88.74-19.52L-107.21-19.52C-108.22-19.52-108.98-18.77-108.98-17.75L-108.98 14.12C-108.98 15.14-108.22 15.90-107.21 15.90L-99.62 15.90C-98.60 15.90-97.84 15.14-97.84 14.12L-97.84 3.75L-91.27 3.75C-88.48 3.75-87.52 4.76-86.71 6.28L-82.41 14.12C-81.85 15.14-81.15 15.90-79.12 15.90L-71.28 15.90C-70.01 15.90-69.61 14.88-70.01 14.12L-74.32 6.28C-76.85 1.73-79.12 0.72-79.12 0.72ZM-97.84-4.34L-97.84-11.43L-88.74-11.43C-85.45-11.43-83.93-9.91-83.93-7.89C-83.93-5.86-85.45-4.34-88.74-4.34Z"/><path fill="#ffffff" opacity="1" d="M-28.93-17.75C-28.42-18.51-28.93-19.52-30.19-19.52L-38.04-19.52C-39.55-19.52-40.62-18.51-41.07-17.75L-48.66-5.36L-49.17-5.36L-56.76-17.75C-57.21-18.51-58.28-19.52-59.79-19.52L-67.64-19.52C-68.90-19.52-69.41-18.51-68.90-17.75L-54.48 4.76L-54.48 14.12C-54.48 15.14-53.72 15.90-52.71 15.90L-45.12 15.90C-44.11 15.90-43.35 15.14-43.35 14.12L-43.35 4.76Z"/><path fill="#ffffff" opacity="1" d="M12.01-6.62C12.01-13.96 6.44-19.52-5.45-19.52L-23.16-19.52C-24.17-19.52-24.93-18.77-24.93-17.75L-24.93 14.12C-24.93 15.14-24.17 15.90-23.16 15.90L-15.57 15.90C-14.56 15.90-13.80 15.14-13.80 14.12L-13.80 6.28L-5.45 6.28C6.44 6.28 12.01 0.72 12.01-6.62ZM-13.80-1.81L-13.80-11.43L-5.45-11.43C-1.65-11.43 0.37-9.40 0.37-6.62C0.37-3.84-1.65-1.81-5.45-1.81Z"/><path fill="#ffffff" opacity="1" d="M49.96-17.75C49.96-18.77 49.20-19.52 48.19-19.52L15.80-19.52C14.79-19.52 14.03-18.77 14.03-17.75L14.03-12.69C14.03-11.68 14.79-10.92 15.80-10.92L26.43-10.92L26.43 14.12C26.43 15.14 27.19 15.90 28.20 15.90L35.79 15.90C36.80 15.90 37.56 15.14 37.56 14.12L37.56-10.92L48.19-10.92C49.20-10.92 49.96-11.68 49.96-12.69Z"/><path fill="#ffffff" opacity="1" d="M72.73 8.56C67.16 8.56 63.62 5.02 63.62-1.81C63.62-8.65 67.16-12.19 72.73-12.19C78.29-12.19 81.84-8.65 81.84-1.81C81.84 5.02 78.29 8.56 72.73 8.56ZM72.73-20.54C59.32-20.54 51.98-13.20 51.98-1.81C51.98 9.57 59.32 16.91 72.73 16.91C86.14 16.91 93.47 9.57 93.47-1.81C93.47-13.20 86.14-20.54 72.73-20.54Z"/></g><g transform="matrix(1 0 0 1 358.438 271.71446471272117)" style=""  ><path fill="#ffffff" opacity="1" d="M-103.27 14.97L-123.13-13.69L-123.13 20.80L-129.75 20.80L-129.75-25.54L-123.13-25.54L-103.27 3.12L-83.41-25.54L-76.79-25.54L-76.79 20.80L-83.41 20.80L-83.41-13.69L-103.27 14.97Z"/><path fill="#ffffff" opacity="1" d="M-37.07-18.92L-56.93-18.92Q-59.71-18.92-61.63-17.00Q-63.55-15.08-63.55-12.30L-63.55-12.30L-63.55 0.94L-30.45 0.94L-30.45-12.30Q-30.45-15.08-32.37-17.00Q-34.29-18.92-37.07-18.92L-37.07-18.92ZM-23.83-12.30L-23.83 20.80L-30.45 20.80L-30.45 7.56L-63.55 7.56L-63.55 20.80L-70.17 20.80L-70.17-12.30Q-70.17-14.95-69.15-17.34Q-68.12-19.72-66.33-21.54Q-64.55-23.36-62.13-24.45Q-59.71-25.54-56.93-25.54L-56.93-25.54L-37.07-25.54Q-34.42-25.54-32.04-24.52Q-29.66-23.49-27.87-21.70Q-26.08-19.92-24.99-17.50Q-23.90-15.08-23.83-12.30L-23.83-12.30Z"/><path fill="#ffffff" opacity="1" d="M29.13-25.54L5.96-2.37L29.13 20.80L19.79 20.80L-0.07 0.94L-10.59 0.94L-10.59 20.80L-17.21 20.80L-17.21-25.54L-10.59-25.54L-10.59-5.68L-0.07-5.68L19.79-25.54L29.13-25.54Z"/><path fill="#ffffff" opacity="1" d="M39.06-18.92L39.06-5.68L72.16-5.68L72.16 0.94L39.06 0.94L39.06 14.18L78.78 14.18L78.78 20.80L32.44 20.80L32.44-25.54L78.78-25.54L78.78-18.92L39.06-18.92Z"/><path fill="#ffffff" opacity="1" d="M123.79-5.68L123.79-12.30Q123.79-15.08 121.87-17.00Q119.95-18.92 117.17-18.92L117.17-18.92L90.69-18.92L90.69 0.94L117.17 0.94Q119.95 0.94 121.87-0.98Q123.79-2.90 123.79-5.68L123.79-5.68ZM130.41 20.80L125.71 20.80L112.47 7.56L90.69 7.56L90.69 20.80L84.07 20.80L84.07-25.54L117.17-25.54Q119.76-25.54 122.17-24.52Q124.59-23.49 126.41-21.70Q128.23-19.92 129.32-17.50Q130.41-15.08 130.41-12.30L130.41-12.30L130.41-5.68Q130.41-3.57 129.75-1.61Q129.09 0.34 127.87 2.00Q126.64 3.65 124.95 4.94Q123.26 6.23 121.21 6.89L121.21 6.89L130.41 16.10L130.41 20.80Z"/></g></svg>