<?xml version="1.0" encoding="UTF-8" standalone="no" ?>
<!DOCTYPE svg PUBLIC "-//W3C//DTD SVG 1.1//EN" "http://www.w3.org/Graphics/SVG/1.1/DTD/svg11.dtd">
<svg xmlns="http://www.w3.org/2000/svg" xmlns:xlink="http://www.w3.org/1999/xlink" version="1.1" width="500" height="500" viewBox="0 0 500 500" xml:space="preserve">
<desc>Created with Fabric.js 3.6.3</desc>
<defs>
</defs>
<g transform="matrix(0 -1.953041625011828 -3.1263865031479545 0 215.03017542192384 241.11882642769598)"  >
<path style="stroke: none; stroke-width: 1; stroke-dasharray: none; stroke-linecap: butt; stroke-dashoffset: 0; stroke-linejoin: miter; stroke-miterlimit: 4; fill: rgb(255,255,255); fill-rule: nonzero; opacity: 1;"  transform=" translate(-49.95, -50)" d="M 91.7 49 H 8.3 c -0.6 0 -1 0.4 -1 1 s 0.4 1 1 1 h 83.3 c 0.6 0 1 -0.4 1 -1 S 92.2 49 91.7 49 z" stroke-linecap="round" />
</g>
<g transform="matrix(1.703878889849248 -4.1733e-16 4.1733e-16 1.703878889849248 134.3994241810355 237.09534724020187)"  >
<g style=""   >
		<g transform="matrix(1 0 0 1 -18.35 -13.849999999999994)"  >
<path style="stroke: none; stroke-width: 1; stroke-dasharray: none; stroke-linecap: butt; stroke-dashoffset: 0; stroke-linejoin: miter; stroke-miterlimit: 4; fill: rgb(255,255,255); fill-rule: nonzero; opacity: 1;"  transform=" translate(-31.150000000000002, -35.650000000000006)" d="M 47.5 21.2 c 0 -1.1 -0.9 -1.9 -1.9 -1.9 c -17 0 -30.8 13.8 -30.8 30.8 c 0 1.1 0.9 1.9 1.9 1.9 s 1.9 -0.9 1.9 -1.9 c 0 -14.8 12.1 -26.9 26.9 -26.9 C 46.6 23.1 47.5 22.3 47.5 21.2 z" stroke-linecap="round" />
</g>
		<g transform="matrix(1 0 0 1 0.20000000000000284 0.5999999999999943)"  >
<path style="stroke: none; stroke-width: 1; stroke-dasharray: none; stroke-linecap: butt; stroke-dashoffset: 0; stroke-linejoin: miter; stroke-miterlimit: 4; fill: rgb(255,255,255); fill-rule: nonzero; opacity: 1;"  transform=" translate(-49.7, -50.099999999999994)" d="M 53.7 12.5 h -7.2 v 0 c -0.3 0 -0.6 0 -1 0 C 24.9 12.5 8 29.3 8 50 c 0 20.7 16.8 37.6 37.6 37.6 c 0.3 0 0.6 0 1 0 v 0.1 h 7.2 c 20.7 0 37.6 -16.9 37.6 -37.6 C 91.3 29.3 74.5 12.5 53.7 12.5 z M 69.4 79 c 0.7 -0.6 1.4 -1.2 2.1 -1.8 h 2.3 c -1 0.7 -2 1.4 -3 2 V 79 H 69.4 z M 75 73.3 c 0.6 -0.7 1.1 -1.4 1.6 -2.1 H 80 c -0.6 0.7 -1.2 1.5 -1.9 2.1 H 75 z M 78.9 67.3 c 0.4 -0.7 0.7 -1.4 1 -2.1 h 4 c -0.4 0.7 -0.8 1.4 -1.2 2.1 H 78.9 z M 74.4 23.5 L 74.4 23.5 c 0.8 0.5 1.5 1.2 2.3 1.8 h -2.8 c -0.6 -0.6 -1.1 -1.3 -1.7 -1.8 H 74.4 z M 80.2 29.2 c 0.5 0.7 1.1 1.4 1.6 2.1 h -3.6 c -0.4 -0.7 -0.9 -1.4 -1.3 -2.1 H 80.2 z M 84 35.2 c 0.3 0.7 0.7 1.4 1 2.1 h -4.1 c -0.3 -0.7 -0.5 -1.4 -0.8 -2.1 H 84 z M 81.4 61.3 c 0.2 -0.7 0.4 -1.4 0.6 -2.1 h 4.2 c -0.2 0.7 -0.4 1.4 -0.7 2.1 H 81.4 z M 82.8 55.4 c 0.1 -0.7 0.2 -1.4 0.2 -2.1 h 4.3 c -0.1 0.7 -0.2 1.4 -0.3 2.1 H 82.8 z M 83.1 49.4 c 0 -0.7 0 -1.4 -0.1 -2.1 h 4.3 c 0.1 0.7 0.1 1.4 0.1 2.1 H 83.1 z M 82.5 43.4 c -0.1 -0.7 -0.3 -1.4 -0.4 -2.1 h 4.2 c 0.2 0.7 0.4 1.4 0.5 2.1 H 82.5 z M 11.9 50 c 0 -18.6 15.1 -33.7 33.7 -33.7 S 79.3 31.4 79.3 50 S 64.2 83.7 45.6 83.7 S 11.9 68.6 11.9 50 z" stroke-linecap="round" />
</g>
		<g transform="matrix(1 0 0 1 -4.400000000000006 0.9000000000000057)"  >
<path style="stroke: none; stroke-width: 1; stroke-dasharray: none; stroke-linecap: butt; stroke-dashoffset: 0; stroke-linejoin: miter; stroke-miterlimit: 4; fill: rgb(255,255,255); fill-rule: nonzero; opacity: 1;"  transform=" translate(-45.099999999999994, -50.400000000000006)" d="M 47.8 40.6 c 3.1 0 5.6 1.3 7.3 3.7 l 5.9 -5.5 c -1.9 -2.6 -5.3 -5.2 -10.5 -6 v -4.3 h -7.8 v 4.6 c -8.1 1.9 -13.5 8.6 -13.5 17.5 c 0 8.9 5.4 15.7 13.5 17.5 v 4.2 h 7.8 v -3.9 c 5.2 -0.7 8.6 -3.3 10.5 -6 L 55 56.8 c -1.6 2.3 -4.1 3.7 -7.3 3.7 c -5.5 0 -9.3 -4.1 -9.3 -10 C 38.5 44.5 42.3 40.6 47.8 40.6 z" stroke-linecap="round" />
</g>
</g>
</g>
<g transform="matrix(1 -2.4493e-16 2.4493e-16 1 490.5043384870177 208.39662193344748)" style=""  ><path fill="#ffffff" opacity="1" d="M-205.81 27.30C-205.55 27.30-205.11 26.86-205.03 25.47C-204.94 24.69-204.68 13.83-204.42 10.18L-204.33 8.27C-204.33 8.01-205.55 7.83-205.81 7.83C-206.15 7.83-206.94 8.01-206.94 8.27L-207.20 10.61C-207.72 15.39-216.24 24.69-226.05 24.69L-238.39 24.69L-238.39-6.16L-229.18-6.16C-226.58-6.16-224.14 0.53-224.14 3.31L-224.14 5.92C-224.14 6.18-222.93 6.27-222.67 6.27C-222.32 6.27-221.54 6.18-221.54 5.92L-221.54-20.93C-221.54-21.10-222.32-21.28-222.67-21.28C-222.93-21.28-224.14-21.10-224.14-20.93L-224.14-18.24C-224.14-15.46-226.58-8.76-229.18-8.76L-238.39-8.76L-238.39-34.40L-227.79-34.40C-217.89-34.40-211.11-28.06-210.50-19.19L-210.41-17.98C-210.41-17.72-209.28-17.54-208.94-17.54C-208.67-17.54-207.81-17.72-207.81-17.98L-207.89-19.89C-208.15-23.54-208.59-33.97-208.59-35.62C-208.59-35.96-209.28-37.01-209.54-37.01L-262.29-37.01C-262.81-37.01-263.07-36.40-263.07-35.70C-263.07-35.01-262.81-34.40-262.29-34.40L-255.77-34.40L-255.77 24.69L-262.29 24.69C-262.81 24.69-263.07 25.30-263.07 26.00C-263.07 26.69-262.81 27.30-262.29 27.30Z"/><path fill="#ffffff" opacity="1" d="M-172.79-34.40L-165.75-34.40C-165.22-34.40-164.96-35.01-164.96-35.70C-164.96-36.40-165.22-37.01-165.75-37.01L-199.38-37.01C-199.90-37.01-200.16-36.40-200.16-35.70C-200.16-35.18-199.98-34.40-199.38-34.40L-193.21-34.40L-174.26-0.68L-190.17 24.69L-199.29 24.69C-199.81 24.69-200.07 25.30-200.07 26.00C-200.07 26.69-199.81 27.30-199.29 27.30L-178.52 27.30C-178.00 27.30-177.74 26.69-177.74 26.00C-177.74 25.30-178.00 24.69-178.52 24.69L-187.04 24.69L-172.87 1.75L-160.10 24.69L-167.74 24.69C-168.27 24.69-168.53 25.30-168.53 26.00C-168.53 26.69-168.27 27.30-167.74 27.30L-132.81 27.30C-132.29 27.30-132.03 26.69-132.03 26.00C-132.03 25.30-132.29 24.69-132.81 24.69L-139.85 24.69L-161.05-13.20L-147.58-34.40L-139.15-34.40C-138.63-34.40-138.37-35.01-138.37-35.70C-138.37-36.40-138.63-37.01-139.15-37.01L-158.71-37.01C-159.23-37.01-159.49-36.40-159.49-35.70C-159.49-35.01-159.23-34.40-158.71-34.40L-150.71-34.40L-162.44-15.72Z"/><path fill="#ffffff" opacity="1" d="M-91.53-34.40C-84.58-34.40-81.02-26.41-81.02-18.32C-81.02-10.16-84.67-1.99-91.88-1.99L-101.44-1.99L-101.44-34.40ZM-101.44 0.62L-88.93 0.62C-71.03 0.62-62.77-8.76-62.77-18.15C-62.77-27.54-71.03-37.01-86.23-37.01L-125.34-37.01C-125.86-37.01-126.12-36.40-126.12-35.70C-126.12-35.01-125.86-34.40-125.34-34.40L-118.82-34.40L-118.82 24.69L-125.34 24.69C-125.86 24.69-126.12 25.30-126.12 26.00C-126.12 26.69-125.86 27.30-125.34 27.30L-94.92 27.30C-94.40 27.30-94.14 26.69-94.14 26.00C-94.14 25.30-94.40 24.69-94.92 24.69L-101.44 24.69Z"/></g><g transform="matrix(1 -2.4493e-16 2.4493e-16 1 490.5043384870177 208.39662193344748)" style=""  ><path fill="#ffffff" opacity="1" d="M-205.81 27.30C-205.55 27.30-205.11 26.86-205.03 25.47C-204.94 24.69-204.68 13.83-204.42 10.18L-204.33 8.27C-204.33 8.01-205.55 7.83-205.81 7.83C-206.15 7.83-206.94 8.01-206.94 8.27L-207.20 10.61C-207.72 15.39-216.24 24.69-226.05 24.69L-238.39 24.69L-238.39-6.16L-229.18-6.16C-226.58-6.16-224.14 0.53-224.14 3.31L-224.14 5.92C-224.14 6.18-222.93 6.27-222.67 6.27C-222.32 6.27-221.54 6.18-221.54 5.92L-221.54-20.93C-221.54-21.10-222.32-21.28-222.67-21.28C-222.93-21.28-224.14-21.10-224.14-20.93L-224.14-18.24C-224.14-15.46-226.58-8.76-229.18-8.76L-238.39-8.76L-238.39-34.40L-227.79-34.40C-217.89-34.40-211.11-28.06-210.50-19.19L-210.41-17.98C-210.41-17.72-209.28-17.54-208.94-17.54C-208.67-17.54-207.81-17.72-207.81-17.98L-207.89-19.89C-208.15-23.54-208.59-33.97-208.59-35.62C-208.59-35.96-209.28-37.01-209.54-37.01L-262.29-37.01C-262.81-37.01-263.07-36.40-263.07-35.70C-263.07-35.01-262.81-34.40-262.29-34.40L-255.77-34.40L-255.77 24.69L-262.29 24.69C-262.81 24.69-263.07 25.30-263.07 26.00C-263.07 26.69-262.81 27.30-262.29 27.30Z"/><path fill="#ffffff" opacity="1" d="M-172.79-34.40L-165.75-34.40C-165.22-34.40-164.96-35.01-164.96-35.70C-164.96-36.40-165.22-37.01-165.75-37.01L-199.38-37.01C-199.90-37.01-200.16-36.40-200.16-35.70C-200.16-35.18-199.98-34.40-199.38-34.40L-193.21-34.40L-174.26-0.68L-190.17 24.69L-199.29 24.69C-199.81 24.69-200.07 25.30-200.07 26.00C-200.07 26.69-199.81 27.30-199.29 27.30L-178.52 27.30C-178.00 27.30-177.74 26.69-177.74 26.00C-177.74 25.30-178.00 24.69-178.52 24.69L-187.04 24.69L-172.87 1.75L-160.10 24.69L-167.74 24.69C-168.27 24.69-168.53 25.30-168.53 26.00C-168.53 26.69-168.27 27.30-167.74 27.30L-132.81 27.30C-132.29 27.30-132.03 26.69-132.03 26.00C-132.03 25.30-132.29 24.69-132.81 24.69L-139.85 24.69L-161.05-13.20L-147.58-34.40L-139.15-34.40C-138.63-34.40-138.37-35.01-138.37-35.70C-138.37-36.40-138.63-37.01-139.15-37.01L-158.71-37.01C-159.23-37.01-159.49-36.40-159.49-35.70C-159.49-35.01-159.23-34.40-158.71-34.40L-150.71-34.40L-162.44-15.72Z"/><path fill="#ffffff" opacity="1" d="M-91.53-34.40C-84.58-34.40-81.02-26.41-81.02-18.32C-81.02-10.16-84.67-1.99-91.88-1.99L-101.44-1.99L-101.44-34.40ZM-101.44 0.62L-88.93 0.62C-71.03 0.62-62.77-8.76-62.77-18.15C-62.77-27.54-71.03-37.01-86.23-37.01L-125.34-37.01C-125.86-37.01-126.12-36.40-126.12-35.70C-126.12-35.01-125.86-34.40-125.34-34.40L-118.82-34.40L-118.82 24.69L-125.34 24.69C-125.86 24.69-126.12 25.30-126.12 26.00C-126.12 26.69-125.86 27.30-125.34 27.30L-94.92 27.30C-94.40 27.30-94.14 26.69-94.14 26.00C-94.14 25.30-94.40 24.69-94.92 24.69L-101.44 24.69Z"/></g><g transform="matrix(1 0 0 1 365.29317205595737 281.31943139590607)" style=""  ><path fill="#d9d9d9" opacity="1" d="M-64.63-18.30L-71.41-18.30Q-75.32-18.30-78.18-17.06Q-81.04-15.82-83.00-13.77Q-84.95-11.72-85.91-9.05Q-86.86-6.38-86.86-3.61L-86.86-3.61Q-86.86-0.75-85.91 1.97Q-84.95 4.69-83.00 6.74Q-81.04 8.79-78.18 10.08Q-75.32 11.37-71.50 11.37L-71.50 11.37L-64.63 11.37Q-62.25 11.37-60.53 12.18Q-58.81 12.99-57.67 14.28Q-56.52 15.56-55.95 17.23Q-55.38 18.90-55.38 20.62L-55.38 20.62Q-55.38 24.34-57.67 27.15Q-59.96 29.97-64.63 29.97L-64.63 29.97L-71.41 29.97Q-79.71 29.97-86.00 27.15Q-92.30 24.34-96.45 19.67Q-100.60 14.99-102.70 9.08Q-104.80 3.16-104.80-3.13L-104.80-3.13Q-104.80-9.43-102.65-15.58Q-100.50-21.74-96.12-26.51Q-91.73-31.28-85.24-34.24Q-78.75-37.19-69.98-37.19L-69.98-37.19L-64.63-37.19Q-62.34-37.19-60.58-36.38Q-58.81-35.57-57.62-34.24Q-56.43-32.90-55.81-31.23Q-55.19-29.56-55.19-27.75L-55.19-27.75Q-55.19-25.94-55.81-24.22Q-56.43-22.50-57.62-21.21Q-58.81-19.93-60.58-19.11Q-62.34-18.30-64.63-18.30L-64.63-18.30Z"/><path fill="#d9d9d9" opacity="1" d="M-50.04-3.61L-50.04-3.61Q-50.04-10.77-47.37-16.97Q-44.69-23.17-40.02-27.84Q-35.35-32.52-29.14-35.19Q-22.94-37.86-15.79-37.86L-15.79-37.86Q-8.63-37.86-2.38-35.19Q3.86-32.52 8.49-27.84Q13.12-23.17 15.84-16.97Q18.56-10.77 18.56-3.61L18.56-3.61Q18.56 3.54 15.84 9.74Q13.12 15.95 8.49 20.62Q3.86 25.29-2.38 27.97Q-8.63 30.64-15.79 30.64L-15.79 30.64Q-22.94 30.64-29.14 27.97Q-35.35 25.29-40.02 20.62Q-44.69 15.95-47.37 9.74Q-50.04 3.54-50.04-3.61ZM-31.24-3.33L-31.24-3.33Q-31.24-0.08-30.00 2.73Q-28.76 5.55-26.66 7.65Q-24.57 9.74-21.75 10.94Q-18.94 12.13-15.69 12.13L-15.69 12.13Q-12.45 12.13-9.64 10.94Q-6.82 9.74-4.67 7.65Q-2.53 5.55-1.29 2.73Q-0.05-0.08-0.05-3.33L-0.05-3.33Q-0.05-6.57-1.29-9.43Q-2.53-12.29-4.67-14.39Q-6.82-16.49-9.64-17.73Q-12.45-18.97-15.69-18.97L-15.69-18.97Q-18.94-18.97-21.75-17.73Q-24.57-16.49-26.66-14.39Q-28.76-12.29-30.00-9.43Q-31.24-6.57-31.24-3.33Z"/><path fill="#d9d9d9" opacity="1" d="M43.45-28.32L43.45 21.10Q43.45 25.68 40.69 28.01Q37.92 30.35 34.20 30.35L34.20 30.35Q30.38 30.35 27.67 28.01Q24.95 25.68 24.95 21.10L24.95 21.10L24.95-28.32Q24.95-32.71 27.67-35.09Q30.38-37.48 34.20-37.48L34.20-37.48Q37.92-37.48 40.69-35.09Q43.45-32.71 43.45-28.32L43.45-28.32Z"/><path fill="#d9d9d9" opacity="1" d="M85.53-6.95L85.53-28.70Q85.53-33.00 88.15-35.24Q90.77-37.48 94.49-37.48L94.49-37.48Q98.02-37.48 100.65-35.24Q103.27-33.00 103.27-28.70L103.27-28.70L103.27 21.10Q103.27 23.29 102.51 25.01Q101.74 26.73 100.55 27.92Q99.36 29.11 97.78 29.73Q96.21 30.35 94.49 30.35L94.49 30.35Q92.20 30.35 90.01 29.21Q87.82 28.06 86.19 25.58L86.19 25.58L68.83-0.27L68.83 21.57Q68.83 25.87 66.21 28.11Q63.58 30.35 59.86 30.35L59.86 30.35Q56.33 30.35 53.76 28.11Q51.18 25.87 51.18 21.57L51.18 21.57L51.18-28.32Q51.18-30.42 51.90-32.14Q52.61-33.85 53.85-35.05Q55.09-36.24 56.62-36.86Q58.15-37.48 59.86-37.48L59.86-37.48Q62.25-37.48 64.44-36.38Q66.64-35.28 68.26-32.80L68.26-32.80L85.53-6.95Z"/></g></svg>