<?xml version="1.0" encoding="UTF-8" standalone="no" ?>
<!DOCTYPE svg PUBLIC "-//W3C//DTD SVG 1.1//EN" "http://www.w3.org/Graphics/SVG/1.1/DTD/svg11.dtd">
<svg xmlns="http://www.w3.org/2000/svg" xmlns:xlink="http://www.w3.org/1999/xlink" version="1.1" width="500" height="500" viewBox="0 0 500 500" xml:space="preserve">
<desc>Created with Fabric.js 3.6.3</desc>
<defs>
</defs>
<g transform="matrix(0 -0.8461095585946362 -1.3544337561974513 0 171.0679631367177 251.68390258872014)"  >
<path style="stroke: none; stroke-width: 1; stroke-dasharray: none; stroke-linecap: butt; stroke-dashoffset: 0; stroke-linejoin: miter; stroke-miterlimit: 4; fill: rgb(255,255,255); fill-rule: nonzero; opacity: 1;"  transform=" translate(-49.95, -50)" d="M 91.7 49 H 8.3 c -0.6 0 -1 0.4 -1 1 s 0.4 1 1 1 h 83.3 c 0.6 0 1 -0.4 1 -1 S 92.2 49 91.7 49 z" stroke-linecap="round" />
</g>
<g transform="matrix(0.8322904971919699 -2.0385e-16 2.0385e-16 0.8322904971919699 119.41452485959846 257.6349095535547)"  >
<g style=""   >
		<g transform="matrix(1 0 0 1 -13.941894500000005 -9.605468799999997)"  >
<path style="stroke: none; stroke-width: 1; stroke-dasharray: none; stroke-linecap: butt; stroke-dashoffset: 0; stroke-linejoin: miter; stroke-miterlimit: 4; fill: rgb(255,255,255); fill-rule: nonzero; opacity: 1;"  transform=" translate(-35.558105499999996, -39.8945312)" d="M 30.4326172 48.0546875 c 0.3896484 0.2182617 0.8867188 0.3271484 1.4921875 0.3271484 h 0.9287109 v 2.5810547 h 2 v -2.5810547 h 1.7060547 v 2.5810547 h 2 v -2.5810547 h 0.6679688 c 0.6054688 0 1.0966797 -0.1088867 1.4736328 -0.3271484 s 0.5654297 -0.5 0.5654297 -0.8447266 v -3.8222656 c 0 -0.4570313 -0.265625 -0.8691406 -0.796875 -1.2348633 l -8.0439453 -5.5117188 v -3.4838867 h 6.2646484 v 3.7163086 h 2.5761719 v -3.8432617 c 0 -0.3447266 -0.1884766 -0.6259766 -0.5654297 -0.8442383 s -0.8681641 -0.3276367 -1.4736328 -0.3276367 h -0.6679688 v -3.0322266 h -2 v 3.0322266 h -1.7060547 v -3.0322266 h -2 v 3.0322266 h -0.9287109 c -0.6054688 0 -1.1025391 0.109375 -1.4921875 0.3276367 c -0.3886719 0.2182617 -0.5830078 0.4995117 -0.5830078 0.8442383 v 3.347168 c 0 0.4575195 0.2773438 0.8764648 0.8339844 1.2563477 l 8.0068359 5.5112305 v 3.9379883 h -6.2646484 v -4.0644531 h -2.5761719 v 4.1914063 C 29.8496094 47.5546875 30.0439453 47.8364258 30.4326172 48.0546875 z" stroke-linecap="round" />
</g>
		<g transform="matrix(1 0 0 1 -13.996581999999997 -9.535400349999996)"  >
<path style="stroke: none; stroke-width: 1; stroke-dasharray: none; stroke-linecap: butt; stroke-dashoffset: 0; stroke-linejoin: miter; stroke-miterlimit: 4; fill: rgb(255,255,255); fill-rule: nonzero; opacity: 1;"  transform=" translate(-35.503418, -39.964599650000004)" d="M 35.503418 53.222168 c 7.3105469 0 13.2578125 -5.9472656 13.2578125 -13.2573242 c 0 -7.3105469 -5.9472656 -13.2578125 -13.2578125 -13.2578125 s -13.2578125 5.9472656 -13.2578125 13.2578125 C 22.2456055 47.2749023 28.1928711 53.222168 35.503418 53.222168 z M 35.503418 27.7070313 c 6.7587891 0 12.2578125 5.4990234 12.2578125 12.2578125 S 42.262207 52.222168 35.503418 52.222168 s -12.2578125 -5.4985352 -12.2578125 -12.2573242 S 28.7446289 27.7070313 35.503418 27.7070313 z" stroke-linecap="round" />
</g>
		<g transform="matrix(1 0 0 1 2.9853517000000096 22.295166099999996)"  >
<path style="stroke: none; stroke-width: 1; stroke-dasharray: none; stroke-linecap: butt; stroke-dashoffset: 0; stroke-linejoin: miter; stroke-miterlimit: 4; fill: rgb(255,255,255); fill-rule: nonzero; opacity: 1;"  transform=" translate(-52.48535170000001, -71.79516609999999)" d="M 64.1088867 65.3320313 c -0.5317383 1.1318359 -1.4321289 1.8076172 -2.4082031 1.8076172 H 43.2695313 c -0.9765625 0 -1.8769531 -0.6757813 -2.4082031 -1.8071289 l -0.2700195 -0.5751953 h -30.105957 v 1 c 0 7.2099609 5.8657227 13.0756836 13.0751953 13.0756836 h 57.8486328 c 7.2104492 0 13.0761719 -5.8657227 13.0761719 -13.0756836 v -1 h -30.105957 L 64.1088867 65.3320313 z M 65.6108398 66.7573242 h 26.8295898 c -0.5068359 5.640625 -5.2607422 10.0756836 -11.03125 10.0756836 H 23.5605469 c -5.7700195 0 -10.5234375 -4.4350586 -11.0302734 -10.0756836 H 39.359375 c 0.9042969 1.484375 2.355957 2.3823242 3.9101563 2.3823242 h 18.4311523 C 63.2543945 69.1396484 64.7060547 68.2416992 65.6108398 66.7573242 z" stroke-linecap="round" />
</g>
		<g transform="matrix(1 0 0 1 2.938232400000004 -10.214111349999992)"  >
<path style="stroke: none; stroke-width: 1; stroke-dasharray: none; stroke-linecap: butt; stroke-dashoffset: 0; stroke-linejoin: miter; stroke-miterlimit: 4; fill: rgb(255,255,255); fill-rule: nonzero; opacity: 1;"  transform=" translate(-52.438232400000004, -39.285888650000004)" d="M 89.4345703 15.6342773 H 15.4418945 V 62.9375 h 73.9926758 V 15.6342773 z M 87.4345703 60.9375 H 17.4418945 V 17.6342773 h 69.9926758 V 60.9375 z" stroke-linecap="round" />
</g>
		<g transform="matrix(1 0 0 1 16.0307617 -10.27001955)"  >
<path style="stroke: none; stroke-width: 1; stroke-dasharray: none; stroke-linecap: butt; stroke-dashoffset: 0; stroke-linejoin: miter; stroke-miterlimit: 4; fill: rgb(255,255,255); fill-rule: nonzero; opacity: 1;"  transform=" translate(-65.5307617, -39.22998045)" d="M 56.8105469 41.5649414 h 6.3500977 v 1.1967773 h -5.140625 l 10.6850586 14.3076172 L 79.390625 42.7617188 H 74.25 v -5.8666992 h -6.3496094 v -1.1962891 h 5.1396484 L 62.3554688 21.390625 L 51.6708984 35.6987305 h 5.1396484 V 41.5649414 z M 75.4003906 44.7617188 l -6.6953125 8.9648438 l -6.6948242 -8.9648438 h 3.1503906 v -5.8666992 H 72.25 v 5.8666992 H 75.4003906 z M 55.6601563 33.6987305 l 6.6953125 -8.965332 l 6.6953125 8.965332 h -3.1503906 v 3.1962891 h -2.7397461 v 2.6699219 h -4.3500977 v -5.8662109 H 55.6601563 z" stroke-linecap="round" />
</g>
</g>
</g>
<g transform="matrix(1 0 0 1 326.1211746923551 236.8038846939562)" style=""  ><path fill="#ffffff" opacity="1" d="M-127.91-14.57C-137.42-14.57-142.63-9.36-142.63-1.29C-142.63 6.79-137.42 12.00-127.91 12.00C-119.29 12.00-114.62 7.33-114.62 3.02C-114.62 2.12-115.16 1.58-116.06 1.58L-120.55 1.58C-121.62 1.58-122.20 2.12-122.70 3.02C-123.60 4.64-125.03 6.07-127.91 6.07C-131.86 6.07-134.37 3.56-134.37-1.29C-134.37-6.13-131.86-8.65-127.91-8.65C-125.21-8.65-123.96-7.39-123.06-5.95C-122.52-5.06-121.98-4.52-120.91-4.52L-116.42-4.52C-115.52-4.52-114.98-5.06-114.98-5.95C-114.98-10.08-119.47-14.57-127.91-14.57Z"/><path fill="#ffffff" opacity="1" d="M-89.49 0.15C-89.49 0.15-84.65-0.93-84.65-5.60C-84.65-10.08-88.42-13.85-96.31-13.85L-109.42-13.85C-110.14-13.85-110.67-13.31-110.67-12.60L-110.67 10.02C-110.67 10.74-110.14 11.28-109.42 11.28L-104.03 11.28C-103.32 11.28-102.78 10.74-102.78 10.02L-102.78 2.66L-98.11 2.66C-96.14 2.66-95.45 3.38-94.88 4.46L-91.83 10.02C-91.43 10.74-90.93 11.28-89.49 11.28L-83.93 11.28C-83.03 11.28-82.74 10.56-83.03 10.02L-86.08 4.46C-87.88 1.23-89.49 0.51-89.49 0.51ZM-102.78-3.08L-102.78-8.11L-96.31-8.11C-93.98-8.11-92.90-7.03-92.90-5.60C-92.90-4.16-93.98-3.08-96.31-3.08Z"/><path fill="#ffffff" opacity="1" d="M-53.88-12.60C-53.52-13.13-53.88-13.85-54.78-13.85L-60.34-13.85C-61.42-13.85-62.17-13.13-62.50-12.60L-67.88-3.80L-68.24-3.80L-73.63-12.60C-73.95-13.13-74.70-13.85-75.78-13.85L-81.34-13.85C-82.24-13.85-82.60-13.13-82.24-12.60L-72.01 3.38L-72.01 10.02C-72.01 10.74-71.47 11.28-70.75 11.28L-65.37 11.28C-64.65 11.28-64.11 10.74-64.11 10.02L-64.11 3.38Z"/><path fill="#ffffff" opacity="1" d="M-24.84-4.70C-24.84-9.90-28.79-13.85-37.22-13.85L-49.79-13.85C-50.51-13.85-51.04-13.31-51.04-12.60L-51.04 10.02C-51.04 10.74-50.51 11.28-49.79 11.28L-44.40 11.28C-43.69 11.28-43.15 10.74-43.15 10.02L-43.15 4.46L-37.22 4.46C-28.79 4.46-24.84 0.51-24.84-4.70ZM-43.15-1.29L-43.15-8.11L-37.22-8.11C-34.53-8.11-33.09-6.67-33.09-4.70C-33.09-2.72-34.53-1.29-37.22-1.29Z"/><path fill="#ffffff" opacity="1" d="M2.09-12.60C2.09-13.31 1.55-13.85 0.83-13.85L-22.15-13.85C-22.86-13.85-23.40-13.31-23.40-12.60L-23.40-9.01C-23.40-8.29-22.86-7.75-22.15-7.75L-14.61-7.75L-14.61 10.02C-14.61 10.74-14.07 11.28-13.35 11.28L-7.96 11.28C-7.25 11.28-6.71 10.74-6.71 10.02L-6.71-7.75L0.83-7.75C1.55-7.75 2.09-8.29 2.09-9.01Z"/><path fill="#ffffff" opacity="1" d="M18.24 6.07C14.29 6.07 11.78 3.56 11.78-1.29C11.78-6.13 14.29-8.65 18.24-8.65C22.19-8.65 24.70-6.13 24.70-1.29C24.70 3.56 22.19 6.07 18.24 6.07ZM18.24-14.57C8.73-14.57 3.52-9.36 3.52-1.29C3.52 6.79 8.73 12.00 18.24 12.00C27.76 12.00 32.96 6.79 32.96-1.29C32.96-9.36 27.76-14.57 18.24-14.57Z"/></g><g transform="matrix(1 0 0 1 326.1211746923551 236.8038846939562)" style=""  ><path fill="#ffffff" opacity="1" d="M-127.91-14.57C-137.42-14.57-142.63-9.36-142.63-1.29C-142.63 6.79-137.42 12.00-127.91 12.00C-119.29 12.00-114.62 7.33-114.62 3.02C-114.62 2.12-115.16 1.58-116.06 1.58L-120.55 1.58C-121.62 1.58-122.20 2.12-122.70 3.02C-123.60 4.64-125.03 6.07-127.91 6.07C-131.86 6.07-134.37 3.56-134.37-1.29C-134.37-6.13-131.86-8.65-127.91-8.65C-125.21-8.65-123.96-7.39-123.06-5.95C-122.52-5.06-121.98-4.52-120.91-4.52L-116.42-4.52C-115.52-4.52-114.98-5.06-114.98-5.95C-114.98-10.08-119.47-14.57-127.91-14.57Z"/><path fill="#ffffff" opacity="1" d="M-89.49 0.15C-89.49 0.15-84.65-0.93-84.65-5.60C-84.65-10.08-88.42-13.85-96.31-13.85L-109.42-13.85C-110.14-13.85-110.67-13.31-110.67-12.60L-110.67 10.02C-110.67 10.74-110.14 11.28-109.42 11.28L-104.03 11.28C-103.32 11.28-102.78 10.74-102.78 10.02L-102.78 2.66L-98.11 2.66C-96.14 2.66-95.45 3.38-94.88 4.46L-91.83 10.02C-91.43 10.74-90.93 11.28-89.49 11.28L-83.93 11.28C-83.03 11.28-82.74 10.56-83.03 10.02L-86.08 4.46C-87.88 1.23-89.49 0.51-89.49 0.51ZM-102.78-3.08L-102.78-8.11L-96.31-8.11C-93.98-8.11-92.90-7.03-92.90-5.60C-92.90-4.16-93.98-3.08-96.31-3.08Z"/><path fill="#ffffff" opacity="1" d="M-53.88-12.60C-53.52-13.13-53.88-13.85-54.78-13.85L-60.34-13.85C-61.42-13.85-62.17-13.13-62.50-12.60L-67.88-3.80L-68.24-3.80L-73.63-12.60C-73.95-13.13-74.70-13.85-75.78-13.85L-81.34-13.85C-82.24-13.85-82.60-13.13-82.24-12.60L-72.01 3.38L-72.01 10.02C-72.01 10.74-71.47 11.28-70.75 11.28L-65.37 11.28C-64.65 11.28-64.11 10.74-64.11 10.02L-64.11 3.38Z"/><path fill="#ffffff" opacity="1" d="M-24.84-4.70C-24.84-9.90-28.79-13.85-37.22-13.85L-49.79-13.85C-50.51-13.85-51.04-13.31-51.04-12.60L-51.04 10.02C-51.04 10.74-50.51 11.28-49.79 11.28L-44.40 11.28C-43.69 11.28-43.15 10.74-43.15 10.02L-43.15 4.46L-37.22 4.46C-28.79 4.46-24.84 0.51-24.84-4.70ZM-43.15-1.29L-43.15-8.11L-37.22-8.11C-34.53-8.11-33.09-6.67-33.09-4.70C-33.09-2.72-34.53-1.29-37.22-1.29Z"/><path fill="#ffffff" opacity="1" d="M2.09-12.60C2.09-13.31 1.55-13.85 0.83-13.85L-22.15-13.85C-22.86-13.85-23.40-13.31-23.40-12.60L-23.40-9.01C-23.40-8.29-22.86-7.75-22.15-7.75L-14.61-7.75L-14.61 10.02C-14.61 10.74-14.07 11.28-13.35 11.28L-7.96 11.28C-7.25 11.28-6.71 10.74-6.71 10.02L-6.71-7.75L0.83-7.75C1.55-7.75 2.09-8.29 2.09-9.01Z"/><path fill="#ffffff" opacity="1" d="M18.24 6.07C14.29 6.07 11.78 3.56 11.78-1.29C11.78-6.13 14.29-8.65 18.24-8.65C22.19-8.65 24.70-6.13 24.70-1.29C24.70 3.56 22.19 6.07 18.24 6.07ZM18.24-14.57C8.73-14.57 3.52-9.36 3.52-1.29C3.52 6.79 8.73 12.00 18.24 12.00C27.76 12.00 32.96 6.79 32.96-1.29C32.96-9.36 27.76-14.57 18.24-14.57Z"/></g><g transform="matrix(1 0 0 1 271.54889965057373 266.85783066962256)" style=""  ><path fill="#ffffff" opacity="1" d="M-57.41 8.32L-68.45-7.61L-68.45 11.56L-72.13 11.56L-72.13-14.20L-68.45-14.20L-57.41 1.73L-46.37-14.20L-42.69-14.20L-42.69 11.56L-46.37 11.56L-46.37-7.61L-57.41 8.32Z"/><path fill="#ffffff" opacity="1" d="M-20.61-10.52L-31.65-10.52Q-33.19-10.52-34.26-9.45Q-35.33-8.39-35.33-6.84L-35.33-6.84L-35.33 0.52L-16.93 0.52L-16.93-6.84Q-16.93-8.39-18.00-9.45Q-19.06-10.52-20.61-10.52L-20.61-10.52ZM-13.25-6.84L-13.25 11.56L-16.93 11.56L-16.93 4.20L-35.33 4.20L-35.33 11.56L-39.01 11.56L-39.01-6.84Q-39.01-8.31-38.44-9.64Q-37.87-10.96-36.87-11.97Q-35.88-12.99-34.54-13.59Q-33.19-14.20-31.65-14.20L-31.65-14.20L-20.61-14.20Q-19.14-14.20-17.81-13.63Q-16.49-13.06-15.49-12.07Q-14.50-11.07-13.89-9.73Q-13.28-8.39-13.25-6.84L-13.25-6.84Z"/><path fill="#ffffff" opacity="1" d="M16.19-14.20L3.31-1.32L16.19 11.56L11.00 11.56L-0.04 0.52L-5.89 0.52L-5.89 11.56L-9.57 11.56L-9.57-14.20L-5.89-14.20L-5.89-3.16L-0.04-3.16L11.00-14.20L16.19-14.20Z"/><path fill="#ffffff" opacity="1" d="M21.71-10.52L21.71-3.16L40.11-3.16L40.11 0.52L21.71 0.52L21.71 7.88L43.79 7.88L43.79 11.56L18.03 11.56L18.03-14.20L43.79-14.20L43.79-10.52L21.71-10.52Z"/><path fill="#ffffff" opacity="1" d="M68.82-3.16L68.82-6.84Q68.82-8.39 67.75-9.45Q66.68-10.52 65.14-10.52L65.14-10.52L50.42-10.52L50.42 0.52L65.14 0.52Q66.68 0.52 67.75-0.55Q68.82-1.61 68.82-3.16L68.82-3.16ZM72.50 11.56L69.88 11.56L62.52 4.20L50.42 4.20L50.42 11.56L46.74 11.56L46.74-14.20L65.14-14.20Q66.57-14.20 67.91-13.63Q69.26-13.06 70.27-12.07Q71.28-11.07 71.89-9.73Q72.50-8.39 72.50-6.84L72.50-6.84L72.50-3.16Q72.50-1.98 72.13-0.90Q71.76 0.19 71.08 1.11Q70.40 2.03 69.46 2.75Q68.52 3.46 67.38 3.83L67.38 3.83L72.50 8.95L72.50 11.56Z"/></g></svg>